G75*
%MOIN*%
%OFA0B0*%
%FSLAX24Y24*%
%IPPOS*%
%LPD*%
%AMOC8*
5,1,8,0,0,1.08239X$1,22.5*
%
%ADD10C,0.0080*%
%ADD11R,0.0591X0.0106*%
%ADD12R,0.0106X0.0591*%
%ADD13R,0.0500X0.0579*%
%ADD14C,0.0630*%
%ADD15C,0.1700*%
%ADD16R,0.0250X0.0500*%
%ADD17R,0.0276X0.0354*%
%ADD18C,0.0740*%
%ADD19R,0.0740X0.0740*%
%ADD20OC8,0.0740*%
%ADD21R,0.0079X0.0236*%
%ADD22R,0.0236X0.0079*%
%ADD23R,0.2244X0.2244*%
%ADD24R,0.0410X0.0410*%
%ADD25C,0.0410*%
%ADD26C,0.0118*%
%ADD27R,0.0600X0.0300*%
%ADD28R,0.0433X0.0394*%
%ADD29R,0.0551X0.0157*%
%ADD30C,0.0000*%
%ADD31R,0.0591X0.0709*%
%ADD32R,0.0591X0.0984*%
%ADD33R,0.0472X0.0217*%
%ADD34C,0.0650*%
%ADD35C,0.0660*%
%ADD36R,0.0300X0.0600*%
%ADD37C,0.0394*%
%ADD38C,0.0400*%
%ADD39C,0.0300*%
%ADD40C,0.0400*%
%ADD41C,0.0300*%
%ADD42C,0.0200*%
%ADD43C,0.0100*%
%ADD44C,0.0160*%
D10*
X007260Y011500D02*
X051260Y011500D01*
X051320Y011502D01*
X051381Y011507D01*
X051440Y011516D01*
X051499Y011529D01*
X051558Y011545D01*
X051615Y011565D01*
X051670Y011588D01*
X051725Y011615D01*
X051777Y011644D01*
X051828Y011677D01*
X051877Y011713D01*
X051923Y011751D01*
X051967Y011793D01*
X052009Y011837D01*
X052047Y011883D01*
X052083Y011932D01*
X052116Y011983D01*
X052145Y012035D01*
X052172Y012090D01*
X052195Y012145D01*
X052215Y012202D01*
X052231Y012261D01*
X052244Y012320D01*
X052253Y012379D01*
X052258Y012440D01*
X052260Y012500D01*
X052260Y031500D01*
X052258Y031560D01*
X052253Y031621D01*
X052244Y031680D01*
X052231Y031739D01*
X052215Y031798D01*
X052195Y031855D01*
X052172Y031910D01*
X052145Y031965D01*
X052116Y032017D01*
X052083Y032068D01*
X052047Y032117D01*
X052009Y032163D01*
X051967Y032207D01*
X051923Y032249D01*
X051877Y032287D01*
X051828Y032323D01*
X051777Y032356D01*
X051725Y032385D01*
X051670Y032412D01*
X051615Y032435D01*
X051558Y032455D01*
X051499Y032471D01*
X051440Y032484D01*
X051381Y032493D01*
X051320Y032498D01*
X051260Y032500D01*
X007260Y032500D01*
X007200Y032498D01*
X007139Y032493D01*
X007080Y032484D01*
X007021Y032471D01*
X006962Y032455D01*
X006905Y032435D01*
X006850Y032412D01*
X006795Y032385D01*
X006743Y032356D01*
X006692Y032323D01*
X006643Y032287D01*
X006597Y032249D01*
X006553Y032207D01*
X006511Y032163D01*
X006473Y032117D01*
X006437Y032068D01*
X006404Y032017D01*
X006375Y031965D01*
X006348Y031910D01*
X006325Y031855D01*
X006305Y031798D01*
X006289Y031739D01*
X006276Y031680D01*
X006267Y031621D01*
X006262Y031560D01*
X006260Y031500D01*
X006260Y012500D01*
X006262Y012440D01*
X006267Y012379D01*
X006276Y012320D01*
X006289Y012261D01*
X006305Y012202D01*
X006325Y012145D01*
X006348Y012090D01*
X006375Y012035D01*
X006404Y011983D01*
X006437Y011932D01*
X006473Y011883D01*
X006511Y011837D01*
X006553Y011793D01*
X006597Y011751D01*
X006643Y011713D01*
X006692Y011677D01*
X006743Y011644D01*
X006795Y011615D01*
X006850Y011588D01*
X006905Y011565D01*
X006962Y011545D01*
X007021Y011529D01*
X007080Y011516D01*
X007139Y011507D01*
X007200Y011502D01*
X007260Y011500D01*
X015575Y017100D02*
X015575Y017315D01*
X015760Y017500D01*
X015760Y018000D01*
X015760Y018500D01*
X015575Y018685D01*
X015575Y018900D01*
X015615Y018940D02*
X015535Y018940D01*
X015535Y019237D01*
X015340Y019237D01*
X015304Y019227D01*
X015272Y019209D01*
X015260Y019196D01*
X015260Y019804D01*
X015272Y019791D01*
X015304Y019773D01*
X015340Y019763D01*
X015535Y019763D01*
X015535Y020060D01*
X015615Y020060D01*
X015615Y019763D01*
X015810Y019763D01*
X015845Y019773D01*
X015877Y019791D01*
X015895Y019809D01*
X015961Y019743D01*
X016527Y019743D01*
X016621Y019837D01*
X016621Y020363D01*
X016600Y020384D01*
X016668Y020451D01*
X016668Y020801D01*
X016574Y020894D01*
X015969Y020894D01*
X015875Y020801D01*
X015875Y020451D01*
X015916Y020411D01*
X015895Y020391D01*
X015877Y020409D01*
X015845Y020427D01*
X015810Y020437D01*
X015629Y020437D01*
X015644Y020451D01*
X015644Y020801D01*
X015612Y020833D01*
X015614Y020838D01*
X015624Y020873D01*
X015624Y020986D01*
X015262Y020986D01*
X015262Y021000D01*
X016910Y021000D01*
X016910Y018603D01*
X016883Y018614D01*
X016602Y018614D01*
X016600Y018616D01*
X016621Y018637D01*
X016621Y019163D01*
X016527Y019257D01*
X015961Y019257D01*
X015895Y019191D01*
X015877Y019209D01*
X015845Y019227D01*
X015810Y019237D01*
X015615Y019237D01*
X015615Y018940D01*
X015615Y018958D02*
X015535Y018958D01*
X015535Y019036D02*
X015615Y019036D01*
X015615Y019115D02*
X015535Y019115D01*
X015535Y019193D02*
X015615Y019193D01*
X015893Y019193D02*
X015898Y019193D01*
X015615Y018860D02*
X015615Y018578D01*
X015550Y018642D01*
X015535Y018642D01*
X015535Y018860D01*
X015615Y018860D01*
X015615Y018801D02*
X015535Y018801D01*
X015535Y018722D02*
X015615Y018722D01*
X015615Y018644D02*
X015535Y018644D01*
X015629Y018563D02*
X015810Y018563D01*
X015845Y018573D01*
X015877Y018591D01*
X015895Y018609D01*
X015916Y018589D01*
X015875Y018549D01*
X015875Y018199D01*
X015969Y018106D01*
X016550Y018106D01*
X016550Y018000D01*
X015262Y018000D01*
X015262Y018014D01*
X015624Y018014D01*
X015624Y018127D01*
X015614Y018162D01*
X015612Y018167D01*
X015644Y018199D01*
X015644Y018549D01*
X015629Y018563D01*
X015644Y018487D02*
X015875Y018487D01*
X015875Y018408D02*
X015644Y018408D01*
X015644Y018330D02*
X015875Y018330D01*
X015875Y018251D02*
X015644Y018251D01*
X015617Y018173D02*
X015902Y018173D01*
X015760Y018000D02*
X015248Y018000D01*
X015624Y018016D02*
X016550Y018016D01*
X016550Y018094D02*
X015624Y018094D01*
X015817Y018565D02*
X015892Y018565D01*
X016244Y018401D02*
X016271Y018374D01*
X016244Y018401D02*
X016244Y018900D01*
X016621Y018879D02*
X016910Y018879D01*
X016910Y018801D02*
X016621Y018801D01*
X016621Y018722D02*
X016910Y018722D01*
X016910Y018644D02*
X016621Y018644D01*
X016621Y018958D02*
X016910Y018958D01*
X016910Y019036D02*
X016621Y019036D01*
X016621Y019115D02*
X016910Y019115D01*
X016910Y019193D02*
X016591Y019193D01*
X016910Y019272D02*
X015260Y019272D01*
X015260Y019350D02*
X016910Y019350D01*
X016910Y019429D02*
X015260Y019429D01*
X015260Y019507D02*
X016910Y019507D01*
X016910Y019586D02*
X015260Y019586D01*
X015260Y019664D02*
X016910Y019664D01*
X016910Y019743D02*
X015260Y019743D01*
X015535Y019821D02*
X015615Y019821D01*
X015615Y019900D02*
X015535Y019900D01*
X015535Y019978D02*
X015615Y019978D01*
X015615Y020057D02*
X015535Y020057D01*
X015575Y020100D02*
X015575Y020315D01*
X015760Y020500D01*
X015760Y021000D01*
X015760Y021500D01*
X015575Y021685D01*
X015575Y021900D01*
X016244Y021900D02*
X016271Y021873D01*
X016271Y021374D01*
X015760Y021000D02*
X015248Y021000D01*
X015262Y020999D02*
X016910Y020999D01*
X016910Y020920D02*
X015624Y020920D01*
X015615Y020842D02*
X015916Y020842D01*
X015875Y020763D02*
X015644Y020763D01*
X015644Y020685D02*
X015875Y020685D01*
X015875Y020606D02*
X015644Y020606D01*
X015644Y020528D02*
X015875Y020528D01*
X015878Y020449D02*
X015641Y020449D01*
X015615Y020422D02*
X015615Y020140D01*
X015535Y020140D01*
X015535Y020358D01*
X015550Y020358D01*
X015615Y020422D01*
X015615Y020371D02*
X015563Y020371D01*
X015535Y020292D02*
X015615Y020292D01*
X015615Y020214D02*
X015535Y020214D01*
X016244Y020100D02*
X016244Y020599D01*
X016271Y020626D01*
X016668Y020606D02*
X016910Y020606D01*
X016910Y020528D02*
X016668Y020528D01*
X016665Y020449D02*
X016910Y020449D01*
X016910Y020371D02*
X016613Y020371D01*
X016621Y020292D02*
X016910Y020292D01*
X016910Y020214D02*
X016621Y020214D01*
X016621Y020135D02*
X016910Y020135D01*
X016910Y020057D02*
X016621Y020057D01*
X016621Y019978D02*
X016910Y019978D01*
X016910Y019900D02*
X016621Y019900D01*
X016605Y019821D02*
X016910Y019821D01*
X016910Y020685D02*
X016668Y020685D01*
X016668Y020763D02*
X016910Y020763D01*
X016910Y020842D02*
X016627Y020842D01*
X017417Y021793D02*
X018160Y021050D01*
X019560Y021050D01*
X019610Y021000D01*
X019610Y020600D01*
X019310Y020300D01*
X019360Y020000D02*
X019260Y019900D01*
X019260Y019500D01*
X019760Y019500D02*
X020060Y019800D01*
X020060Y021300D01*
X019960Y021400D01*
X018310Y021400D01*
X017732Y021978D01*
X017732Y022965D01*
X017889Y022965D02*
X017889Y022170D01*
X018310Y021750D01*
X019910Y021750D01*
X019960Y021700D01*
X020260Y021850D02*
X020060Y022050D01*
X018360Y022050D01*
X018047Y022363D01*
X018047Y022965D01*
X018204Y022965D02*
X018204Y022455D01*
X018460Y022200D01*
X020310Y022200D01*
X020510Y022000D01*
X020510Y019750D01*
X020760Y019500D01*
X021260Y019500D02*
X021260Y020200D01*
X021160Y020300D01*
X020860Y020300D01*
X019860Y020150D02*
X019710Y020000D01*
X019360Y020000D01*
X019860Y020150D02*
X019860Y021100D01*
X019760Y021200D01*
X018260Y021200D01*
X017574Y021885D01*
X017574Y022965D01*
X017417Y022965D02*
X017417Y022300D01*
X014710Y022300D01*
X013860Y023150D01*
X014610Y023400D02*
X014760Y023250D01*
X014760Y023200D01*
X015260Y023200D01*
X015457Y023398D01*
X015724Y023398D01*
X015724Y023555D02*
X015115Y023555D01*
X015110Y023550D01*
X015360Y023900D02*
X014860Y023900D01*
X014760Y023800D01*
X014765Y024250D02*
X014765Y024700D01*
X014765Y024994D01*
X014660Y025100D01*
X014765Y024700D02*
X014980Y024700D01*
X015023Y024657D01*
X015023Y024587D01*
X015110Y024500D01*
X015360Y024500D01*
X015517Y024657D01*
X015724Y024657D01*
X015724Y024815D02*
X016945Y024815D01*
X017260Y024500D01*
X017260Y026035D01*
X017254Y026041D01*
X017254Y026600D01*
X016960Y026400D02*
X017102Y026257D01*
X017102Y026035D01*
X016945Y026035D02*
X016945Y026215D01*
X016654Y026506D01*
X016654Y027250D01*
X016654Y027700D01*
X017165Y027700D02*
X017165Y027250D01*
X017165Y027006D01*
X017110Y026950D01*
X017010Y026950D01*
X016960Y026900D01*
X016960Y026400D01*
X016945Y026035D02*
X016945Y024815D01*
X016960Y024800D02*
X017260Y024500D01*
X017102Y024343D01*
X017102Y022965D01*
X016945Y022965D02*
X016945Y024185D01*
X017260Y024500D01*
X016760Y024500D01*
X016630Y024370D01*
X016630Y022965D01*
X017260Y022965D02*
X017260Y024500D01*
X017417Y024343D01*
X018795Y024343D01*
X018795Y024500D02*
X019160Y024500D01*
X019360Y024700D01*
X019754Y024700D01*
X019560Y025000D02*
X020260Y025700D01*
X020260Y028200D01*
X019260Y029200D01*
X018960Y029200D01*
X018760Y028950D02*
X018660Y029050D01*
X018660Y030150D01*
X018810Y030300D01*
X019660Y030300D01*
X019760Y030400D01*
X019760Y031500D01*
X019260Y032000D01*
X018760Y031500D02*
X018260Y032000D01*
X018760Y031500D02*
X018760Y030750D01*
X018160Y030150D01*
X018160Y028400D01*
X018760Y027800D01*
X018760Y027600D01*
X018910Y027450D01*
X019660Y027450D01*
X020010Y027100D01*
X020010Y025850D01*
X019762Y025602D01*
X018795Y025602D01*
X018795Y025760D02*
X019519Y025760D01*
X019760Y026000D01*
X019760Y027050D01*
X019560Y027250D01*
X018710Y027250D01*
X018560Y027400D01*
X018560Y027700D01*
X017960Y028300D01*
X017960Y030250D01*
X018260Y030550D01*
X018260Y031000D01*
X017760Y031500D02*
X017260Y032000D01*
X017760Y031500D02*
X017760Y028200D01*
X018362Y027598D01*
X018362Y026035D01*
X018519Y026035D02*
X018519Y026310D01*
X018560Y026350D01*
X018904Y026350D01*
X018904Y026744D01*
X018910Y026750D01*
X019410Y026750D02*
X019415Y026744D01*
X019415Y026350D01*
X018204Y026035D02*
X018204Y027455D01*
X017560Y028100D01*
X017560Y030250D01*
X017260Y030550D01*
X017260Y031000D01*
X016760Y031500D02*
X016760Y030150D01*
X016910Y030000D01*
X017260Y030000D01*
X017260Y029600D02*
X016510Y029600D01*
X016260Y029850D01*
X016260Y031000D01*
X015260Y031000D02*
X015260Y029450D01*
X015510Y029200D01*
X017260Y029200D01*
X017260Y028800D02*
X016310Y028800D01*
X016160Y028650D01*
X016160Y026600D01*
X016315Y026445D01*
X016315Y026035D01*
X016472Y026035D02*
X016472Y026587D01*
X016360Y026700D01*
X016360Y028300D01*
X016460Y028400D01*
X017260Y028400D01*
X018460Y028800D02*
X018460Y030200D01*
X019260Y031000D01*
X020260Y031000D02*
X022260Y029000D01*
X022260Y021850D01*
X022110Y021700D01*
X020810Y021700D01*
X020260Y021850D02*
X020260Y019500D01*
X023260Y019500D02*
X023510Y019750D01*
X023760Y019750D01*
X024041Y020031D01*
X027110Y020031D01*
X027110Y019835D02*
X026094Y019835D01*
X025910Y019650D01*
X024110Y019650D01*
X023710Y019250D01*
X023710Y019100D01*
X023610Y019000D01*
X023260Y019000D01*
X023260Y018500D02*
X026260Y018500D01*
X026510Y018250D01*
X026510Y017050D01*
X026510Y015700D01*
X026960Y016350D02*
X027560Y016350D01*
X027660Y016250D01*
X028004Y016250D01*
X028004Y016750D02*
X027610Y016750D01*
X028515Y016750D02*
X028760Y016750D01*
X028960Y016950D01*
X028960Y018000D01*
X029160Y018200D01*
X029460Y018200D01*
X029669Y018409D01*
X029669Y018850D01*
X029866Y018850D02*
X029866Y018156D01*
X029710Y018000D01*
X029410Y018000D01*
X029260Y017850D01*
X029260Y016500D01*
X029010Y016250D01*
X028515Y016250D01*
X028510Y015500D02*
X029760Y015500D01*
X030260Y016000D01*
X031047Y016787D01*
X031047Y018850D01*
X031244Y018850D02*
X031244Y017016D01*
X032260Y016000D01*
X032760Y015500D01*
X034010Y015500D01*
X033660Y016150D02*
X035462Y016150D01*
X035462Y016148D01*
X035610Y016000D01*
X035610Y013600D01*
X035510Y013500D01*
X034360Y013500D01*
X034260Y013400D01*
X034260Y012500D01*
X035260Y012500D02*
X035910Y013150D01*
X035910Y016200D01*
X035760Y016350D01*
X033910Y016350D01*
X033760Y016500D01*
X033760Y016800D01*
X033910Y017100D02*
X034410Y017600D01*
X039210Y017600D01*
X039910Y018300D01*
X042360Y018300D01*
X043860Y019800D01*
X046810Y019800D01*
X047610Y019000D01*
X048760Y019000D01*
X049260Y019500D01*
X048760Y020000D02*
X047760Y020000D01*
X047460Y020300D01*
X043660Y020300D01*
X042060Y018700D01*
X039710Y018700D01*
X039010Y018000D01*
X034260Y018000D01*
X033660Y017400D01*
X032510Y017400D01*
X031834Y018075D01*
X031834Y018850D01*
X031637Y018850D02*
X031637Y018022D01*
X032410Y017250D01*
X033760Y017250D01*
X034310Y017800D01*
X039110Y017800D01*
X039810Y018500D01*
X042160Y018500D01*
X043710Y020050D01*
X047110Y020050D01*
X047660Y019500D01*
X048260Y019500D01*
X048760Y020000D02*
X049260Y020500D01*
X048760Y021000D02*
X043810Y021000D01*
X041910Y019100D01*
X039560Y019100D01*
X038860Y018400D01*
X034110Y018400D01*
X033410Y017700D01*
X032710Y017700D01*
X032228Y018181D01*
X032228Y018850D01*
X032031Y018850D02*
X032031Y018128D01*
X032610Y017550D01*
X033560Y017550D01*
X034210Y018200D01*
X038960Y018200D01*
X039660Y018900D01*
X042010Y018900D01*
X043610Y020500D01*
X048260Y020500D01*
X048760Y021000D02*
X049260Y021500D01*
X048760Y022000D02*
X044210Y022000D01*
X041710Y019500D01*
X039360Y019500D01*
X038660Y018800D01*
X034660Y018800D01*
X033822Y019638D01*
X033409Y019638D01*
X033409Y019835D02*
X033925Y019835D01*
X034760Y019000D01*
X038560Y019000D01*
X039260Y019700D01*
X041610Y019700D01*
X044410Y022500D01*
X048260Y022500D01*
X048760Y022000D02*
X049260Y022500D01*
X048260Y021500D02*
X044010Y021500D01*
X041810Y019300D01*
X039460Y019300D01*
X038760Y018600D01*
X034010Y018600D01*
X033260Y017850D01*
X032860Y017850D01*
X032425Y018285D01*
X032425Y018850D01*
X032622Y018850D02*
X032622Y018388D01*
X032860Y018150D01*
X033110Y018150D01*
X033310Y018150D01*
X033760Y018600D01*
X033760Y018994D01*
X033765Y019000D01*
X033254Y019000D02*
X033010Y019000D01*
X032910Y018900D01*
X032910Y018500D01*
X031441Y018850D02*
X031441Y017969D01*
X032310Y017100D01*
X033910Y017100D01*
X034160Y016800D02*
X034410Y016550D01*
X036160Y016550D01*
X036260Y016450D01*
X036260Y012500D01*
X037260Y012500D02*
X037260Y013100D01*
X036510Y013850D01*
X036510Y016500D01*
X036310Y016700D01*
X034710Y016700D01*
X034510Y016900D01*
X034510Y017150D01*
X034910Y017150D02*
X035210Y016850D01*
X036560Y016850D01*
X036710Y016700D01*
X036710Y014550D01*
X038260Y013000D01*
X038260Y012500D01*
X039260Y012500D02*
X039260Y014200D01*
X039110Y014350D01*
X037260Y014350D01*
X036910Y014700D01*
X036910Y016850D01*
X036760Y017000D01*
X035560Y017000D01*
X035260Y017300D01*
X035860Y017300D02*
X036710Y017300D01*
X037310Y016700D01*
X037310Y014800D01*
X037510Y014600D01*
X041810Y014600D01*
X042260Y014150D01*
X042260Y012500D01*
X043260Y012500D02*
X043260Y014800D01*
X042960Y015100D01*
X038160Y015100D01*
X037860Y015400D01*
X037860Y016800D01*
X037410Y017250D01*
X037410Y017300D01*
X038460Y017200D02*
X038860Y017200D01*
X039010Y017050D01*
X039010Y015950D01*
X039260Y015700D01*
X043360Y015700D01*
X043410Y015650D01*
X044460Y015650D01*
X045260Y014850D01*
X045260Y012500D01*
X044260Y012500D02*
X044260Y015150D01*
X044010Y015400D01*
X038810Y015400D01*
X038460Y015750D01*
X038460Y016750D01*
X039560Y017300D02*
X040060Y017300D01*
X040160Y017400D01*
X040160Y017750D01*
X040160Y016950D02*
X040160Y016250D01*
X043760Y015950D02*
X043760Y016700D01*
X043860Y016800D01*
X045310Y016800D01*
X045460Y016650D01*
X046710Y016650D01*
X046860Y016800D01*
X046860Y017250D01*
X047160Y016450D02*
X047260Y016350D01*
X047260Y012500D01*
X046260Y012500D02*
X046260Y015850D01*
X046110Y016000D01*
X044810Y016000D01*
X045110Y016450D02*
X047160Y016450D01*
X046860Y018750D02*
X046860Y019100D01*
X046610Y019350D01*
X040760Y022500D02*
X040760Y024000D01*
X039310Y022950D02*
X039760Y022500D01*
X039260Y022400D02*
X039260Y022000D01*
X039760Y021500D01*
X039260Y022400D02*
X039110Y022550D01*
X035860Y022550D01*
X035660Y022950D02*
X039310Y022950D01*
X038360Y024300D02*
X037910Y023850D01*
X034810Y023850D01*
X034141Y023181D01*
X033409Y023181D01*
X033409Y022984D02*
X032975Y022984D01*
X032910Y023050D01*
X032910Y023298D01*
X032873Y023334D01*
X032675Y023334D01*
X032660Y023350D01*
X032360Y023500D02*
X031660Y024200D01*
X030260Y024200D01*
X030063Y024397D01*
X030063Y025150D01*
X030063Y026247D01*
X030010Y026300D01*
X029410Y026300D01*
X029260Y026450D01*
X029260Y027000D01*
X029510Y027250D01*
X029660Y026850D02*
X029560Y026750D01*
X029660Y026850D02*
X029954Y026850D01*
X029954Y027350D01*
X029954Y026850D02*
X029954Y026556D01*
X030010Y026500D01*
X030160Y026500D01*
X030260Y026400D01*
X030260Y025150D01*
X030456Y025150D02*
X030456Y024647D01*
X030360Y024550D01*
X030653Y024606D02*
X030760Y024500D01*
X030653Y024606D02*
X030653Y025150D01*
X030456Y025150D02*
X030456Y026547D01*
X030465Y026556D01*
X030465Y026850D01*
X030465Y027350D01*
X030850Y027591D02*
X030960Y027700D01*
X042560Y027700D01*
X042760Y027900D01*
X042760Y031000D01*
X043260Y031500D01*
X043760Y031000D02*
X044260Y031500D01*
X044760Y031000D02*
X045260Y031500D01*
X045760Y031000D02*
X046260Y031500D01*
X045760Y031000D02*
X045760Y027700D01*
X046260Y027700D02*
X046260Y030500D01*
X045260Y030500D02*
X045260Y029500D01*
X044960Y029200D01*
X044160Y029200D01*
X044010Y029050D01*
X044010Y027600D01*
X043110Y026700D01*
X031910Y026700D01*
X031834Y026625D01*
X031834Y025150D01*
X031637Y025150D02*
X031637Y026778D01*
X031760Y026900D01*
X042960Y026900D01*
X043760Y027700D01*
X043760Y029250D01*
X044010Y029500D01*
X044510Y029500D01*
X044760Y029750D01*
X044760Y031000D01*
X044260Y030500D02*
X044260Y029800D01*
X044160Y029700D01*
X043860Y029700D01*
X043560Y029400D01*
X043560Y027800D01*
X042860Y027100D01*
X031510Y027100D01*
X031441Y027031D01*
X031441Y025150D01*
X031244Y025150D02*
X031244Y027234D01*
X031310Y027300D01*
X042760Y027300D01*
X043310Y027850D01*
X043310Y029550D01*
X043760Y030000D01*
X043760Y031000D01*
X043260Y030500D02*
X043260Y029900D01*
X043060Y029700D01*
X043060Y027900D01*
X042660Y027500D01*
X031160Y027500D01*
X031047Y027387D01*
X031047Y025150D01*
X030850Y025150D02*
X030850Y027591D01*
X032031Y026472D02*
X032110Y026550D01*
X043810Y026550D01*
X044660Y027400D01*
X046510Y027400D01*
X047460Y028350D01*
X047460Y029200D01*
X047760Y029500D01*
X048260Y029500D01*
X047910Y029000D02*
X048760Y029000D01*
X049260Y029500D01*
X047910Y029000D02*
X047660Y028750D01*
X047660Y028250D01*
X046610Y027200D01*
X044660Y027200D01*
X043860Y026400D01*
X032310Y026400D01*
X032228Y026319D01*
X032228Y025150D01*
X032031Y025150D02*
X032031Y026472D01*
X032425Y026115D02*
X032560Y026250D01*
X043960Y026250D01*
X044710Y027000D01*
X046910Y027000D01*
X047010Y027100D01*
X047010Y027250D01*
X048260Y028500D01*
X048010Y028000D02*
X048760Y028000D01*
X049260Y028500D01*
X048010Y028000D02*
X047210Y027200D01*
X047210Y026900D01*
X047110Y026800D01*
X044760Y026800D01*
X044060Y026100D01*
X032710Y026100D01*
X032622Y026012D01*
X032622Y025700D01*
X033132Y025700D01*
X033487Y025700D02*
X033854Y025700D01*
X034365Y025700D02*
X034810Y025700D01*
X034960Y025450D02*
X034960Y025200D01*
X038060Y025200D01*
X038310Y025450D01*
X044060Y025450D01*
X045210Y026600D01*
X047310Y026600D01*
X047410Y026700D01*
X047410Y027100D01*
X047810Y027500D01*
X048260Y027500D01*
X048760Y027000D02*
X047710Y027000D01*
X047610Y026900D01*
X047610Y026500D01*
X047510Y026400D01*
X045260Y026400D01*
X044110Y025250D01*
X038310Y025250D01*
X038110Y025050D01*
X034510Y025050D01*
X034360Y024900D01*
X034360Y024650D01*
X034832Y024650D01*
X035187Y024650D02*
X035604Y024650D01*
X036115Y024650D02*
X036510Y024650D01*
X037610Y024300D02*
X038310Y025000D01*
X044110Y025000D01*
X045310Y026200D01*
X047960Y026200D01*
X048260Y026500D01*
X048760Y027000D02*
X049260Y027500D01*
X049260Y026500D02*
X048760Y026000D01*
X045410Y026000D01*
X044210Y024800D01*
X038360Y024800D01*
X037710Y024150D01*
X034610Y024150D01*
X034034Y023575D01*
X033409Y023575D01*
X033409Y023772D02*
X034031Y023772D01*
X034560Y024300D01*
X037610Y024300D01*
X037810Y024000D02*
X038410Y024600D01*
X044410Y024600D01*
X045460Y025650D01*
X045760Y025650D01*
X045860Y025250D02*
X046260Y025650D01*
X045860Y025250D02*
X045460Y025250D01*
X044510Y024300D01*
X038360Y024300D01*
X037810Y024000D02*
X034710Y024000D01*
X034087Y023378D01*
X033409Y023378D01*
X032797Y022787D02*
X032684Y022900D01*
X032660Y022900D01*
X032797Y022787D02*
X033409Y022787D01*
X033409Y022591D02*
X034000Y022591D01*
X034110Y022700D01*
X034216Y022394D02*
X033409Y022394D01*
X033409Y022197D02*
X034013Y022197D01*
X034110Y022100D01*
X034260Y022350D02*
X034504Y022350D01*
X034504Y022850D01*
X034510Y022856D01*
X034510Y023150D01*
X034860Y023500D01*
X035460Y023500D01*
X035015Y022850D02*
X035015Y022350D01*
X035410Y022350D01*
X035015Y022350D02*
X035015Y021800D01*
X034504Y021800D02*
X034010Y021800D01*
X033810Y022000D01*
X033409Y022000D01*
X034216Y022394D02*
X034260Y022350D01*
X032360Y023500D02*
X032360Y020550D01*
X032860Y020050D01*
X032860Y019800D01*
X032560Y020050D02*
X032560Y019550D01*
X032260Y019800D02*
X032260Y020100D01*
X031910Y020450D01*
X031910Y023450D01*
X031560Y023800D01*
X030160Y023800D01*
X029669Y024291D01*
X029669Y025150D01*
X029866Y025150D02*
X029866Y025994D01*
X029760Y026100D01*
X029260Y026100D01*
X029060Y026300D01*
X029060Y027450D01*
X029160Y027550D01*
X028882Y027722D02*
X029010Y027850D01*
X039160Y027850D01*
X039260Y027950D01*
X039260Y031500D01*
X038260Y031500D02*
X038260Y028100D01*
X038160Y028000D01*
X028910Y028000D01*
X028685Y027775D01*
X028685Y025150D01*
X028882Y025150D02*
X028882Y027722D01*
X028488Y027878D02*
X028810Y028200D01*
X037160Y028200D01*
X037260Y028300D01*
X037260Y031500D01*
X036260Y031500D02*
X036260Y028500D01*
X036160Y028400D01*
X028760Y028400D01*
X028291Y027931D01*
X028291Y025150D01*
X028094Y025150D02*
X028094Y027985D01*
X028710Y028600D01*
X035160Y028600D01*
X035260Y028700D01*
X035260Y031500D01*
X034260Y031500D02*
X034260Y028900D01*
X034160Y028800D01*
X028660Y028800D01*
X027910Y028050D01*
X027910Y027900D01*
X026410Y026400D01*
X026410Y024450D01*
X026497Y024362D01*
X027110Y024362D01*
X027110Y024165D02*
X026394Y024165D01*
X026210Y024350D01*
X026210Y026500D01*
X027710Y028000D01*
X027710Y028100D01*
X028610Y029000D01*
X033060Y029000D01*
X033260Y029200D01*
X033260Y031500D01*
X032260Y031500D02*
X032260Y029300D01*
X032160Y029200D01*
X028560Y029200D01*
X027510Y028150D01*
X027510Y028100D01*
X026010Y026600D01*
X026010Y024150D01*
X026191Y023969D01*
X027110Y023969D01*
X027110Y023772D02*
X026038Y023772D01*
X025810Y024000D01*
X025810Y026700D01*
X027310Y028200D01*
X027310Y028250D01*
X028460Y029400D01*
X030610Y029400D01*
X030760Y029550D01*
X030760Y031500D01*
X029760Y031500D02*
X029760Y029800D01*
X029610Y029650D01*
X028360Y029650D01*
X027110Y028400D01*
X027110Y028300D01*
X025610Y026800D01*
X025610Y023850D01*
X025885Y023575D01*
X027110Y023575D01*
X027110Y023378D02*
X025782Y023378D01*
X025410Y023750D01*
X025410Y026900D01*
X026910Y028400D01*
X026910Y028500D01*
X028260Y029850D01*
X028660Y029850D01*
X028760Y029950D01*
X028760Y031500D01*
X027760Y031500D02*
X027760Y029650D01*
X026710Y028600D01*
X026710Y028500D01*
X025210Y027000D01*
X025210Y023650D01*
X025678Y023181D01*
X027110Y023181D01*
X029141Y023181D01*
X029260Y023300D01*
X029575Y022984D02*
X029660Y022900D01*
X029575Y022984D02*
X027110Y022984D01*
X025575Y022984D01*
X025010Y023550D01*
X025010Y027100D01*
X026510Y028600D01*
X026510Y028700D01*
X026760Y028950D01*
X026760Y031500D01*
X026260Y031000D02*
X025760Y031500D01*
X026260Y031000D02*
X026260Y028850D01*
X025244Y028850D01*
X025255Y028350D02*
X025255Y028045D01*
X025060Y027850D01*
X024760Y027850D01*
X024410Y027750D02*
X024410Y027200D01*
X024810Y027200D02*
X026260Y028650D01*
X026260Y028850D01*
X024575Y028850D02*
X024575Y028361D01*
X024564Y028350D01*
X024160Y028000D02*
X024160Y030650D01*
X024060Y030750D01*
X022910Y030750D01*
X022760Y030900D01*
X022760Y031500D01*
X021760Y031500D02*
X021760Y030650D01*
X021910Y030500D01*
X023810Y030500D01*
X023960Y030350D01*
X023960Y027650D01*
X024160Y028000D02*
X024410Y027750D01*
X024810Y027200D02*
X024810Y023450D01*
X025472Y022787D01*
X027110Y022787D01*
X029272Y022787D01*
X029760Y022300D01*
X031160Y023250D02*
X031310Y023100D01*
X031310Y019550D01*
X031610Y019800D02*
X031610Y023250D01*
X031460Y023400D01*
X030060Y023400D01*
X029275Y024184D01*
X029275Y025150D01*
X029078Y025150D02*
X029078Y024131D01*
X029960Y023250D01*
X031160Y023250D01*
X031510Y023600D02*
X031760Y023350D01*
X031760Y020150D01*
X031960Y019950D01*
X031960Y019550D01*
X032560Y020050D02*
X032110Y020500D01*
X032110Y023500D01*
X031610Y024000D01*
X030210Y024000D01*
X029866Y024344D01*
X029866Y025150D01*
X029472Y025150D02*
X029472Y024237D01*
X030110Y023600D01*
X031510Y023600D01*
X032910Y024650D02*
X033054Y024794D01*
X033054Y025150D01*
X032622Y025150D02*
X032622Y025700D01*
X032425Y026115D02*
X032425Y025150D01*
X033565Y025150D02*
X033910Y025150D01*
X033960Y025100D01*
X033960Y024750D01*
X033560Y024750D01*
X033960Y024750D02*
X033960Y024450D01*
X033872Y024362D01*
X033409Y024362D01*
X033409Y024165D02*
X033975Y024165D01*
X034210Y024400D01*
X034210Y025000D01*
X034410Y025200D01*
X034960Y025200D01*
X034960Y025450D02*
X035110Y025600D01*
X035282Y025600D01*
X035637Y025600D02*
X036054Y025600D01*
X036565Y025600D02*
X037010Y025600D01*
X034360Y024650D02*
X034360Y024350D01*
X033978Y023969D01*
X033409Y023969D01*
X036325Y021500D02*
X036325Y021165D01*
X036160Y021000D01*
X035660Y021000D01*
X035160Y021000D01*
X034782Y020622D01*
X033409Y020622D01*
X033409Y020425D02*
X034784Y020425D01*
X035210Y020000D01*
X035660Y020000D01*
X036160Y020000D01*
X036325Y019835D01*
X036325Y019500D01*
X036994Y019500D02*
X037460Y019500D01*
X035660Y019350D02*
X035260Y019750D01*
X034810Y019750D01*
X034331Y020228D01*
X033409Y020228D01*
X033409Y020031D02*
X034028Y020031D01*
X034710Y019350D01*
X035210Y019350D01*
X036994Y021500D02*
X037460Y021500D01*
X030456Y019247D02*
X030456Y018850D01*
X030456Y018353D01*
X030660Y018150D01*
X030660Y017600D01*
X030610Y017550D01*
X030610Y017206D01*
X030615Y017200D01*
X030104Y017200D02*
X029554Y017200D01*
X029554Y016956D01*
X029660Y016850D01*
X029554Y017200D02*
X029554Y017650D01*
X030063Y017653D02*
X030065Y017650D01*
X030063Y017653D02*
X030063Y018850D01*
X030063Y019647D01*
X030060Y019650D01*
X029660Y019650D02*
X029472Y019463D01*
X029472Y018850D01*
X029275Y018850D02*
X029275Y019634D01*
X029260Y019650D01*
X029078Y019431D02*
X028910Y019600D01*
X028910Y019850D01*
X028560Y019650D02*
X028882Y019328D01*
X028882Y018850D01*
X029078Y018850D02*
X029078Y019431D01*
X028685Y018850D02*
X028685Y018075D01*
X028510Y017900D01*
X028510Y017650D01*
X028060Y017650D02*
X028060Y017750D01*
X028488Y018178D01*
X028488Y018850D01*
X027897Y018850D02*
X027897Y019362D01*
X027760Y019500D01*
X027897Y018850D02*
X027897Y018182D01*
X027865Y018150D01*
X027354Y018150D02*
X027354Y018494D01*
X027510Y018650D01*
X027760Y020200D02*
X027731Y020228D01*
X027110Y020228D01*
X027110Y020425D02*
X023685Y020425D01*
X023610Y020350D01*
X023610Y020050D01*
X023560Y020000D01*
X023260Y020000D01*
X023260Y020500D02*
X023382Y020622D01*
X027110Y020622D01*
X027110Y020819D02*
X027641Y020819D01*
X027760Y020700D01*
X028110Y020700D01*
X027860Y021000D02*
X027844Y021016D01*
X027110Y021016D01*
X027110Y021213D02*
X027672Y021213D01*
X027760Y021300D01*
X028110Y021300D01*
X027860Y021600D02*
X027669Y021409D01*
X027110Y021409D01*
X027110Y021606D02*
X026553Y021606D01*
X026510Y021650D01*
X026710Y021850D02*
X026710Y021950D01*
X026760Y022000D01*
X027110Y022000D01*
X027860Y022000D01*
X027860Y022194D01*
X027856Y022197D01*
X027860Y022200D01*
X027860Y022500D01*
X027769Y022591D01*
X027110Y022591D01*
X027110Y022197D02*
X027856Y022197D01*
X027110Y021803D02*
X026756Y021803D01*
X026710Y021850D01*
X023560Y021100D02*
X022910Y021100D01*
X021810Y022550D02*
X022060Y022800D01*
X022060Y028700D01*
X020760Y030000D01*
X019210Y030000D01*
X019210Y029600D02*
X020710Y029600D01*
X021860Y028450D01*
X021860Y023150D01*
X021760Y023050D01*
X019860Y023050D01*
X019410Y023500D01*
X019260Y023500D01*
X019047Y023713D01*
X018795Y023713D01*
X018795Y023870D02*
X019089Y023870D01*
X019210Y023750D01*
X019460Y023750D01*
X019860Y023350D01*
X020154Y023350D01*
X020154Y023800D02*
X019810Y023800D01*
X019710Y023900D01*
X019310Y023900D01*
X019182Y024028D01*
X018795Y024028D01*
X018795Y024185D02*
X019195Y024185D01*
X019260Y024250D01*
X019360Y024250D01*
X019754Y024250D01*
X020265Y024250D02*
X020660Y024250D01*
X020265Y024250D02*
X020265Y024700D01*
X020760Y024800D02*
X020760Y025335D01*
X020775Y025350D01*
X021444Y025350D02*
X021444Y025989D01*
X021455Y026000D01*
X020764Y026000D02*
X020764Y026495D01*
X020760Y026500D01*
X019360Y025300D02*
X019189Y025130D01*
X018795Y025130D01*
X018795Y024972D02*
X019232Y024972D01*
X019260Y025000D01*
X019560Y025000D01*
X020665Y023800D02*
X021110Y023800D01*
X021110Y023350D02*
X020665Y023350D01*
X021010Y023350D02*
X021110Y023350D01*
X021810Y022550D02*
X020260Y022550D01*
X019910Y022900D01*
X019760Y022900D01*
X019310Y023350D01*
X019210Y023350D01*
X019010Y023550D01*
X018800Y023550D01*
X018795Y023555D01*
X018795Y023240D02*
X019019Y023240D01*
X019260Y023000D01*
X018860Y022900D02*
X018854Y022894D01*
X018854Y022500D01*
X018610Y022500D01*
X018519Y022590D01*
X018519Y022965D01*
X019365Y022500D02*
X019760Y022500D01*
X017417Y022300D02*
X017417Y021793D01*
X015660Y022900D02*
X015265Y022900D01*
X014760Y022906D02*
X014754Y022900D01*
X014760Y022906D02*
X014760Y023200D01*
X015360Y023900D02*
X015487Y024028D01*
X015724Y024028D01*
X015724Y024185D02*
X015224Y024185D01*
X015210Y024200D01*
X015260Y024800D02*
X015432Y024972D01*
X015724Y024972D01*
X016410Y024800D02*
X016960Y024800D01*
X015724Y025602D02*
X015207Y025602D01*
X015110Y025700D01*
X014815Y025700D01*
X014304Y025700D02*
X014304Y026094D01*
X014310Y026100D01*
X014510Y026300D01*
X014804Y026300D01*
X015315Y026300D02*
X015315Y025844D01*
X015400Y025760D01*
X015724Y025760D01*
X015710Y026050D02*
X015460Y026300D01*
X015315Y026300D01*
X015615Y026594D02*
X016000Y026210D01*
X016000Y026035D01*
X016157Y026035D02*
X016157Y026352D01*
X015910Y026600D01*
X015910Y027950D01*
X015860Y028000D01*
X015615Y028000D01*
X015615Y027550D02*
X015615Y026594D01*
X015160Y026900D02*
X015104Y026956D01*
X015104Y027550D01*
X015104Y028000D01*
X017165Y027250D02*
X017710Y027250D01*
X017760Y027200D01*
X017765Y026600D02*
X017760Y026594D01*
X017760Y026350D01*
X017710Y026300D01*
X017460Y026300D01*
X017417Y026257D01*
X017417Y026035D01*
X014260Y024706D02*
X013815Y024706D01*
X013810Y024700D01*
X014254Y024700D02*
X014260Y024706D01*
X014254Y024700D02*
X014254Y024250D01*
X012010Y024450D02*
X011310Y024450D01*
X011260Y024500D01*
X011260Y024000D02*
X010560Y024000D01*
X010510Y024050D01*
X010510Y024450D01*
X009860Y024250D02*
X009860Y024700D01*
X008710Y025800D02*
X008521Y025988D01*
X008073Y025988D01*
X008560Y026500D02*
X008660Y026400D01*
X008910Y026400D01*
X008560Y026500D02*
X008073Y026500D01*
X008073Y026756D02*
X009254Y026756D01*
X009310Y026700D01*
X009310Y026500D01*
X008521Y027012D02*
X008073Y027012D01*
X007010Y027950D02*
X007010Y027957D01*
X007010Y025043D02*
X007010Y025000D01*
X009860Y023100D02*
X010260Y023500D01*
X012010Y023500D01*
X012060Y023450D01*
X009860Y023100D02*
X009860Y022750D01*
X008760Y021200D02*
X008571Y021012D01*
X008073Y021012D01*
X008073Y020756D02*
X009204Y020756D01*
X009260Y020700D01*
X008860Y020500D02*
X009110Y020250D01*
X009260Y020250D01*
X008860Y020500D02*
X008073Y020500D01*
X008073Y019988D02*
X008698Y019988D01*
X008710Y020000D01*
X007010Y019050D02*
X007010Y019043D01*
X007010Y021950D02*
X007010Y021957D01*
X016244Y017599D02*
X016244Y017100D01*
X016244Y017599D02*
X016271Y017626D01*
X026810Y014100D02*
X027160Y014100D01*
X027260Y014000D01*
X027260Y012500D01*
X033360Y016450D02*
X033660Y016150D01*
X033360Y016450D02*
X033360Y016800D01*
X030360Y018050D02*
X030260Y018150D01*
X030260Y018850D01*
X028010Y024500D02*
X027897Y024612D01*
X027897Y025150D01*
X027897Y025612D01*
X027810Y025700D01*
X027465Y025700D01*
X026954Y025700D02*
X026954Y025206D01*
X026960Y025200D01*
X028488Y025150D02*
X028488Y027878D01*
X018760Y028550D02*
X018760Y028950D01*
X016760Y031500D02*
X016260Y032000D01*
D11*
X027110Y024362D03*
X027110Y024165D03*
X027110Y023969D03*
X027110Y023772D03*
X027110Y023575D03*
X027110Y023378D03*
X027110Y023181D03*
X027110Y022984D03*
X027110Y022787D03*
X027110Y022591D03*
X027110Y022394D03*
X027110Y022197D03*
X027110Y022000D03*
X027110Y021803D03*
X027110Y021606D03*
X027110Y021409D03*
X027110Y021213D03*
X027110Y021016D03*
X027110Y020819D03*
X027110Y020622D03*
X027110Y020425D03*
X027110Y020228D03*
X027110Y020031D03*
X027110Y019835D03*
X027110Y019638D03*
X033409Y019638D03*
X033409Y019835D03*
X033409Y020031D03*
X033409Y020228D03*
X033409Y020425D03*
X033409Y020622D03*
X033409Y020819D03*
X033409Y021016D03*
X033409Y021213D03*
X033409Y021409D03*
X033409Y021606D03*
X033409Y021803D03*
X033409Y022000D03*
X033409Y022197D03*
X033409Y022394D03*
X033409Y022591D03*
X033409Y022787D03*
X033409Y022984D03*
X033409Y023181D03*
X033409Y023378D03*
X033409Y023575D03*
X033409Y023772D03*
X033409Y023969D03*
X033409Y024165D03*
X033409Y024362D03*
D12*
X032622Y025150D03*
X032425Y025150D03*
X032228Y025150D03*
X032031Y025150D03*
X031834Y025150D03*
X031637Y025150D03*
X031441Y025150D03*
X031244Y025150D03*
X031047Y025150D03*
X030850Y025150D03*
X030653Y025150D03*
X030456Y025150D03*
X030260Y025150D03*
X030063Y025150D03*
X029866Y025150D03*
X029669Y025150D03*
X029472Y025150D03*
X029275Y025150D03*
X029078Y025150D03*
X028882Y025150D03*
X028685Y025150D03*
X028488Y025150D03*
X028291Y025150D03*
X028094Y025150D03*
X027897Y025150D03*
X027897Y018850D03*
X028094Y018850D03*
X028291Y018850D03*
X028488Y018850D03*
X028685Y018850D03*
X028882Y018850D03*
X029078Y018850D03*
X029275Y018850D03*
X029472Y018850D03*
X029669Y018850D03*
X029866Y018850D03*
X030063Y018850D03*
X030260Y018850D03*
X030456Y018850D03*
X030653Y018850D03*
X030850Y018850D03*
X031047Y018850D03*
X031244Y018850D03*
X031441Y018850D03*
X031637Y018850D03*
X031834Y018850D03*
X032031Y018850D03*
X032228Y018850D03*
X032425Y018850D03*
X032622Y018850D03*
D13*
X013256Y030850D03*
X011563Y030850D03*
X010913Y028000D03*
X012606Y028000D03*
X012606Y021200D03*
X010913Y021200D03*
X011606Y018500D03*
X009913Y018500D03*
D14*
X010153Y030000D03*
X009366Y030000D03*
D15*
X008191Y015400D03*
X010553Y015400D03*
X009372Y013550D03*
D16*
X013252Y019000D03*
X013572Y019000D03*
X012587Y029700D03*
X012232Y029700D03*
X033132Y025700D03*
X033487Y025700D03*
X034832Y024650D03*
X035187Y024650D03*
X035282Y025600D03*
X035637Y025600D03*
D17*
X036054Y025600D03*
X036565Y025600D03*
X036115Y024650D03*
X035604Y024650D03*
X034365Y025700D03*
X033854Y025700D03*
X033565Y025150D03*
X033054Y025150D03*
X030465Y026850D03*
X030465Y027350D03*
X029954Y027350D03*
X029954Y026850D03*
X027465Y025700D03*
X026954Y025700D03*
X020665Y023800D03*
X020665Y023350D03*
X020154Y023350D03*
X020154Y023800D03*
X020265Y024250D03*
X019754Y024250D03*
X019754Y024700D03*
X020265Y024700D03*
X019415Y026350D03*
X018904Y026350D03*
X017765Y026600D03*
X017254Y026600D03*
X017165Y027250D03*
X017165Y027700D03*
X016654Y027700D03*
X016654Y027250D03*
X015615Y027550D03*
X015615Y028000D03*
X015104Y028000D03*
X015104Y027550D03*
X015315Y026300D03*
X014804Y026300D03*
X014815Y025700D03*
X014304Y025700D03*
X014254Y024700D03*
X014765Y024700D03*
X014765Y024250D03*
X014254Y024250D03*
X014754Y022900D03*
X015265Y022900D03*
X018854Y022500D03*
X019365Y022500D03*
X027354Y018150D03*
X027865Y018150D03*
X029554Y017650D03*
X030065Y017650D03*
X030104Y017200D03*
X030615Y017200D03*
X028515Y016750D03*
X028515Y016250D03*
X028004Y016250D03*
X028004Y016750D03*
X033254Y019000D03*
X033765Y019000D03*
X034504Y021800D03*
X035015Y021800D03*
X035015Y022350D03*
X035015Y022850D03*
X034504Y022850D03*
X034504Y022350D03*
D18*
X034260Y031500D03*
X033260Y031500D03*
X032260Y031500D03*
X030760Y031500D03*
X029760Y031500D03*
X028760Y031500D03*
X027760Y031500D03*
X026760Y031500D03*
X025760Y031500D03*
X024760Y031500D03*
X023760Y031500D03*
X022760Y031500D03*
X021760Y031500D03*
X035260Y031500D03*
X036260Y031500D03*
X037260Y031500D03*
X038260Y031500D03*
X015260Y015500D03*
X014260Y015500D03*
X013260Y015500D03*
X013260Y013500D03*
X014260Y013500D03*
X015260Y013500D03*
X025260Y012500D03*
X026260Y012500D03*
X027260Y012500D03*
X028260Y012500D03*
X029260Y012500D03*
X030260Y012500D03*
X031260Y012500D03*
X034260Y012500D03*
X035260Y012500D03*
X036260Y012500D03*
X037260Y012500D03*
X038260Y012500D03*
X039260Y012500D03*
X041260Y012500D03*
X042260Y012500D03*
X043260Y012500D03*
X044260Y012500D03*
X045260Y012500D03*
X046260Y012500D03*
X047260Y012500D03*
D19*
X040260Y012500D03*
X032260Y012500D03*
X039260Y031500D03*
D20*
X041260Y031500D03*
X042260Y031500D03*
X043260Y031500D03*
X044260Y031500D03*
X045260Y031500D03*
X046260Y031500D03*
X046260Y030500D03*
X045260Y030500D03*
X044260Y030500D03*
X043260Y030500D03*
X042260Y030500D03*
X041260Y030500D03*
X048260Y030500D03*
X049260Y030500D03*
X049260Y029500D03*
X048260Y029500D03*
X048260Y028500D03*
X049260Y028500D03*
X049260Y027500D03*
X049260Y026500D03*
X048260Y026500D03*
X048260Y027500D03*
X048260Y024500D03*
X049260Y024500D03*
X049260Y023500D03*
X048260Y023500D03*
X048260Y022500D03*
X049260Y022500D03*
X049260Y021500D03*
X048260Y021500D03*
X048260Y020500D03*
X049260Y020500D03*
X049260Y019500D03*
X048260Y019500D03*
X048260Y017500D03*
X049260Y017500D03*
X049260Y016500D03*
X048260Y016500D03*
X048260Y015500D03*
X049260Y015500D03*
X049260Y014500D03*
X048260Y014500D03*
X048260Y013500D03*
X049260Y013500D03*
X049260Y012500D03*
X048260Y012500D03*
X040760Y020500D03*
X039760Y020500D03*
X039760Y021500D03*
X040760Y021500D03*
X040760Y022500D03*
X039760Y022500D03*
X048260Y031500D03*
X049260Y031500D03*
X020260Y031000D03*
X019260Y031000D03*
X018260Y031000D03*
X017260Y031000D03*
X016260Y031000D03*
X015260Y031000D03*
X015260Y032000D03*
X016260Y032000D03*
X017260Y032000D03*
X018260Y032000D03*
X019260Y032000D03*
X020260Y032000D03*
D21*
X018519Y026035D03*
X018362Y026035D03*
X018204Y026035D03*
X018047Y026035D03*
X017889Y026035D03*
X017732Y026035D03*
X017574Y026035D03*
X017417Y026035D03*
X017260Y026035D03*
X017102Y026035D03*
X016945Y026035D03*
X016787Y026035D03*
X016630Y026035D03*
X016472Y026035D03*
X016315Y026035D03*
X016157Y026035D03*
X016000Y026035D03*
X016000Y022965D03*
X016157Y022965D03*
X016315Y022965D03*
X016472Y022965D03*
X016630Y022965D03*
X016787Y022965D03*
X016945Y022965D03*
X017102Y022965D03*
X017260Y022965D03*
X017417Y022965D03*
X017574Y022965D03*
X017732Y022965D03*
X017889Y022965D03*
X018047Y022965D03*
X018204Y022965D03*
X018362Y022965D03*
X018519Y022965D03*
D22*
X018795Y023240D03*
X018795Y023398D03*
X018795Y023555D03*
X018795Y023713D03*
X018795Y023870D03*
X018795Y024028D03*
X018795Y024185D03*
X018795Y024343D03*
X018795Y024500D03*
X018795Y024657D03*
X018795Y024815D03*
X018795Y024972D03*
X018795Y025130D03*
X018795Y025287D03*
X018795Y025445D03*
X018795Y025602D03*
X018795Y025760D03*
X015724Y025760D03*
X015724Y025602D03*
X015724Y025445D03*
X015724Y025287D03*
X015724Y025130D03*
X015724Y024972D03*
X015724Y024815D03*
X015724Y024657D03*
X015724Y024500D03*
X015724Y024343D03*
X015724Y024185D03*
X015724Y024028D03*
X015724Y023870D03*
X015724Y023713D03*
X015724Y023555D03*
X015724Y023398D03*
X015724Y023240D03*
D23*
X017260Y024500D03*
D24*
X022760Y020500D03*
X019260Y019000D03*
D25*
X019760Y019000D03*
X020260Y019000D03*
X020760Y019000D03*
X021260Y019000D03*
X021260Y019500D03*
X020760Y019500D03*
X020260Y019500D03*
X019760Y019500D03*
X019260Y019500D03*
X022760Y019500D03*
X023260Y019500D03*
X023260Y019000D03*
X022760Y019000D03*
X022760Y018500D03*
X023260Y018500D03*
X023260Y020000D03*
X022760Y020000D03*
X023260Y020500D03*
D26*
X021593Y025862D02*
X021593Y026138D01*
X021593Y025862D02*
X021317Y025862D01*
X021317Y026138D01*
X021593Y026138D01*
X021593Y025979D02*
X021317Y025979D01*
X021317Y026096D02*
X021593Y026096D01*
X020902Y026138D02*
X020902Y025862D01*
X020626Y025862D01*
X020626Y026138D01*
X020902Y026138D01*
X020902Y025979D02*
X020626Y025979D01*
X020626Y026096D02*
X020902Y026096D01*
X024426Y028212D02*
X024426Y028488D01*
X024702Y028488D01*
X024702Y028212D01*
X024426Y028212D01*
X024426Y028329D02*
X024702Y028329D01*
X024702Y028446D02*
X024426Y028446D01*
X025117Y028488D02*
X025117Y028212D01*
X025117Y028488D02*
X025393Y028488D01*
X025393Y028212D01*
X025117Y028212D01*
X025117Y028329D02*
X025393Y028329D01*
X025393Y028446D02*
X025117Y028446D01*
D27*
X009860Y024250D03*
X007660Y024250D03*
X007660Y022750D03*
X009860Y022750D03*
X040160Y017750D03*
X042360Y017750D03*
X042360Y016250D03*
X040160Y016250D03*
X044660Y017250D03*
X044660Y018750D03*
X046860Y018750D03*
X046860Y017250D03*
D28*
X036994Y019500D03*
X036325Y019500D03*
X036325Y021500D03*
X036994Y021500D03*
X025244Y028850D03*
X024575Y028850D03*
X021444Y025350D03*
X020775Y025350D03*
X016244Y021900D03*
X015575Y021900D03*
X015575Y020100D03*
X016244Y020100D03*
X016244Y018900D03*
X015575Y018900D03*
X015575Y017100D03*
X016244Y017100D03*
D29*
X008073Y019988D03*
X008073Y020244D03*
X008073Y020500D03*
X008073Y020756D03*
X008073Y021012D03*
X008073Y025988D03*
X008073Y026244D03*
X008073Y026500D03*
X008073Y026756D03*
X008073Y027012D03*
D30*
X007709Y027248D02*
X007711Y027273D01*
X007717Y027298D01*
X007726Y027322D01*
X007739Y027344D01*
X007756Y027364D01*
X007775Y027381D01*
X007796Y027395D01*
X007820Y027405D01*
X007844Y027412D01*
X007870Y027415D01*
X007895Y027414D01*
X007920Y027409D01*
X007944Y027400D01*
X007967Y027388D01*
X007987Y027373D01*
X008005Y027354D01*
X008020Y027333D01*
X008031Y027310D01*
X008039Y027286D01*
X008043Y027261D01*
X008043Y027235D01*
X008039Y027210D01*
X008031Y027186D01*
X008020Y027163D01*
X008005Y027142D01*
X007987Y027123D01*
X007967Y027108D01*
X007944Y027096D01*
X007920Y027087D01*
X007895Y027082D01*
X007870Y027081D01*
X007844Y027084D01*
X007820Y027091D01*
X007796Y027101D01*
X007775Y027115D01*
X007756Y027132D01*
X007739Y027152D01*
X007726Y027174D01*
X007717Y027198D01*
X007711Y027223D01*
X007709Y027248D01*
X007709Y025752D02*
X007711Y025777D01*
X007717Y025802D01*
X007726Y025826D01*
X007739Y025848D01*
X007756Y025868D01*
X007775Y025885D01*
X007796Y025899D01*
X007820Y025909D01*
X007844Y025916D01*
X007870Y025919D01*
X007895Y025918D01*
X007920Y025913D01*
X007944Y025904D01*
X007967Y025892D01*
X007987Y025877D01*
X008005Y025858D01*
X008020Y025837D01*
X008031Y025814D01*
X008039Y025790D01*
X008043Y025765D01*
X008043Y025739D01*
X008039Y025714D01*
X008031Y025690D01*
X008020Y025667D01*
X008005Y025646D01*
X007987Y025627D01*
X007967Y025612D01*
X007944Y025600D01*
X007920Y025591D01*
X007895Y025586D01*
X007870Y025585D01*
X007844Y025588D01*
X007820Y025595D01*
X007796Y025605D01*
X007775Y025619D01*
X007756Y025636D01*
X007739Y025656D01*
X007726Y025678D01*
X007717Y025702D01*
X007711Y025727D01*
X007709Y025752D01*
X007709Y021248D02*
X007711Y021273D01*
X007717Y021298D01*
X007726Y021322D01*
X007739Y021344D01*
X007756Y021364D01*
X007775Y021381D01*
X007796Y021395D01*
X007820Y021405D01*
X007844Y021412D01*
X007870Y021415D01*
X007895Y021414D01*
X007920Y021409D01*
X007944Y021400D01*
X007967Y021388D01*
X007987Y021373D01*
X008005Y021354D01*
X008020Y021333D01*
X008031Y021310D01*
X008039Y021286D01*
X008043Y021261D01*
X008043Y021235D01*
X008039Y021210D01*
X008031Y021186D01*
X008020Y021163D01*
X008005Y021142D01*
X007987Y021123D01*
X007967Y021108D01*
X007944Y021096D01*
X007920Y021087D01*
X007895Y021082D01*
X007870Y021081D01*
X007844Y021084D01*
X007820Y021091D01*
X007796Y021101D01*
X007775Y021115D01*
X007756Y021132D01*
X007739Y021152D01*
X007726Y021174D01*
X007717Y021198D01*
X007711Y021223D01*
X007709Y021248D01*
X007709Y019752D02*
X007711Y019777D01*
X007717Y019802D01*
X007726Y019826D01*
X007739Y019848D01*
X007756Y019868D01*
X007775Y019885D01*
X007796Y019899D01*
X007820Y019909D01*
X007844Y019916D01*
X007870Y019919D01*
X007895Y019918D01*
X007920Y019913D01*
X007944Y019904D01*
X007967Y019892D01*
X007987Y019877D01*
X008005Y019858D01*
X008020Y019837D01*
X008031Y019814D01*
X008039Y019790D01*
X008043Y019765D01*
X008043Y019739D01*
X008039Y019714D01*
X008031Y019690D01*
X008020Y019667D01*
X008005Y019646D01*
X007987Y019627D01*
X007967Y019612D01*
X007944Y019600D01*
X007920Y019591D01*
X007895Y019586D01*
X007870Y019585D01*
X007844Y019588D01*
X007820Y019595D01*
X007796Y019605D01*
X007775Y019619D01*
X007756Y019636D01*
X007739Y019656D01*
X007726Y019678D01*
X007717Y019702D01*
X007711Y019727D01*
X007709Y019752D01*
X006610Y012500D02*
X006612Y012550D01*
X006618Y012600D01*
X006628Y012650D01*
X006641Y012698D01*
X006658Y012746D01*
X006679Y012792D01*
X006703Y012836D01*
X006731Y012878D01*
X006762Y012918D01*
X006796Y012955D01*
X006833Y012990D01*
X006872Y013021D01*
X006913Y013050D01*
X006957Y013075D01*
X007003Y013097D01*
X007050Y013115D01*
X007098Y013129D01*
X007147Y013140D01*
X007197Y013147D01*
X007247Y013150D01*
X007298Y013149D01*
X007348Y013144D01*
X007398Y013135D01*
X007446Y013123D01*
X007494Y013106D01*
X007540Y013086D01*
X007585Y013063D01*
X007628Y013036D01*
X007668Y013006D01*
X007706Y012973D01*
X007741Y012937D01*
X007774Y012898D01*
X007803Y012857D01*
X007829Y012814D01*
X007852Y012769D01*
X007871Y012722D01*
X007886Y012674D01*
X007898Y012625D01*
X007906Y012575D01*
X007910Y012525D01*
X007910Y012475D01*
X007906Y012425D01*
X007898Y012375D01*
X007886Y012326D01*
X007871Y012278D01*
X007852Y012231D01*
X007829Y012186D01*
X007803Y012143D01*
X007774Y012102D01*
X007741Y012063D01*
X007706Y012027D01*
X007668Y011994D01*
X007628Y011964D01*
X007585Y011937D01*
X007540Y011914D01*
X007494Y011894D01*
X007446Y011877D01*
X007398Y011865D01*
X007348Y011856D01*
X007298Y011851D01*
X007247Y011850D01*
X007197Y011853D01*
X007147Y011860D01*
X007098Y011871D01*
X007050Y011885D01*
X007003Y011903D01*
X006957Y011925D01*
X006913Y011950D01*
X006872Y011979D01*
X006833Y012010D01*
X006796Y012045D01*
X006762Y012082D01*
X006731Y012122D01*
X006703Y012164D01*
X006679Y012208D01*
X006658Y012254D01*
X006641Y012302D01*
X006628Y012350D01*
X006618Y012400D01*
X006612Y012450D01*
X006610Y012500D01*
X006610Y031500D02*
X006612Y031550D01*
X006618Y031600D01*
X006628Y031650D01*
X006641Y031698D01*
X006658Y031746D01*
X006679Y031792D01*
X006703Y031836D01*
X006731Y031878D01*
X006762Y031918D01*
X006796Y031955D01*
X006833Y031990D01*
X006872Y032021D01*
X006913Y032050D01*
X006957Y032075D01*
X007003Y032097D01*
X007050Y032115D01*
X007098Y032129D01*
X007147Y032140D01*
X007197Y032147D01*
X007247Y032150D01*
X007298Y032149D01*
X007348Y032144D01*
X007398Y032135D01*
X007446Y032123D01*
X007494Y032106D01*
X007540Y032086D01*
X007585Y032063D01*
X007628Y032036D01*
X007668Y032006D01*
X007706Y031973D01*
X007741Y031937D01*
X007774Y031898D01*
X007803Y031857D01*
X007829Y031814D01*
X007852Y031769D01*
X007871Y031722D01*
X007886Y031674D01*
X007898Y031625D01*
X007906Y031575D01*
X007910Y031525D01*
X007910Y031475D01*
X007906Y031425D01*
X007898Y031375D01*
X007886Y031326D01*
X007871Y031278D01*
X007852Y031231D01*
X007829Y031186D01*
X007803Y031143D01*
X007774Y031102D01*
X007741Y031063D01*
X007706Y031027D01*
X007668Y030994D01*
X007628Y030964D01*
X007585Y030937D01*
X007540Y030914D01*
X007494Y030894D01*
X007446Y030877D01*
X007398Y030865D01*
X007348Y030856D01*
X007298Y030851D01*
X007247Y030850D01*
X007197Y030853D01*
X007147Y030860D01*
X007098Y030871D01*
X007050Y030885D01*
X007003Y030903D01*
X006957Y030925D01*
X006913Y030950D01*
X006872Y030979D01*
X006833Y031010D01*
X006796Y031045D01*
X006762Y031082D01*
X006731Y031122D01*
X006703Y031164D01*
X006679Y031208D01*
X006658Y031254D01*
X006641Y031302D01*
X006628Y031350D01*
X006618Y031400D01*
X006612Y031450D01*
X006610Y031500D01*
X050610Y031500D02*
X050612Y031550D01*
X050618Y031600D01*
X050628Y031650D01*
X050641Y031698D01*
X050658Y031746D01*
X050679Y031792D01*
X050703Y031836D01*
X050731Y031878D01*
X050762Y031918D01*
X050796Y031955D01*
X050833Y031990D01*
X050872Y032021D01*
X050913Y032050D01*
X050957Y032075D01*
X051003Y032097D01*
X051050Y032115D01*
X051098Y032129D01*
X051147Y032140D01*
X051197Y032147D01*
X051247Y032150D01*
X051298Y032149D01*
X051348Y032144D01*
X051398Y032135D01*
X051446Y032123D01*
X051494Y032106D01*
X051540Y032086D01*
X051585Y032063D01*
X051628Y032036D01*
X051668Y032006D01*
X051706Y031973D01*
X051741Y031937D01*
X051774Y031898D01*
X051803Y031857D01*
X051829Y031814D01*
X051852Y031769D01*
X051871Y031722D01*
X051886Y031674D01*
X051898Y031625D01*
X051906Y031575D01*
X051910Y031525D01*
X051910Y031475D01*
X051906Y031425D01*
X051898Y031375D01*
X051886Y031326D01*
X051871Y031278D01*
X051852Y031231D01*
X051829Y031186D01*
X051803Y031143D01*
X051774Y031102D01*
X051741Y031063D01*
X051706Y031027D01*
X051668Y030994D01*
X051628Y030964D01*
X051585Y030937D01*
X051540Y030914D01*
X051494Y030894D01*
X051446Y030877D01*
X051398Y030865D01*
X051348Y030856D01*
X051298Y030851D01*
X051247Y030850D01*
X051197Y030853D01*
X051147Y030860D01*
X051098Y030871D01*
X051050Y030885D01*
X051003Y030903D01*
X050957Y030925D01*
X050913Y030950D01*
X050872Y030979D01*
X050833Y031010D01*
X050796Y031045D01*
X050762Y031082D01*
X050731Y031122D01*
X050703Y031164D01*
X050679Y031208D01*
X050658Y031254D01*
X050641Y031302D01*
X050628Y031350D01*
X050618Y031400D01*
X050612Y031450D01*
X050610Y031500D01*
X050610Y012500D02*
X050612Y012550D01*
X050618Y012600D01*
X050628Y012650D01*
X050641Y012698D01*
X050658Y012746D01*
X050679Y012792D01*
X050703Y012836D01*
X050731Y012878D01*
X050762Y012918D01*
X050796Y012955D01*
X050833Y012990D01*
X050872Y013021D01*
X050913Y013050D01*
X050957Y013075D01*
X051003Y013097D01*
X051050Y013115D01*
X051098Y013129D01*
X051147Y013140D01*
X051197Y013147D01*
X051247Y013150D01*
X051298Y013149D01*
X051348Y013144D01*
X051398Y013135D01*
X051446Y013123D01*
X051494Y013106D01*
X051540Y013086D01*
X051585Y013063D01*
X051628Y013036D01*
X051668Y013006D01*
X051706Y012973D01*
X051741Y012937D01*
X051774Y012898D01*
X051803Y012857D01*
X051829Y012814D01*
X051852Y012769D01*
X051871Y012722D01*
X051886Y012674D01*
X051898Y012625D01*
X051906Y012575D01*
X051910Y012525D01*
X051910Y012475D01*
X051906Y012425D01*
X051898Y012375D01*
X051886Y012326D01*
X051871Y012278D01*
X051852Y012231D01*
X051829Y012186D01*
X051803Y012143D01*
X051774Y012102D01*
X051741Y012063D01*
X051706Y012027D01*
X051668Y011994D01*
X051628Y011964D01*
X051585Y011937D01*
X051540Y011914D01*
X051494Y011894D01*
X051446Y011877D01*
X051398Y011865D01*
X051348Y011856D01*
X051298Y011851D01*
X051247Y011850D01*
X051197Y011853D01*
X051147Y011860D01*
X051098Y011871D01*
X051050Y011885D01*
X051003Y011903D01*
X050957Y011925D01*
X050913Y011950D01*
X050872Y011979D01*
X050833Y012010D01*
X050796Y012045D01*
X050762Y012082D01*
X050731Y012122D01*
X050703Y012164D01*
X050679Y012208D01*
X050658Y012254D01*
X050641Y012302D01*
X050628Y012350D01*
X050618Y012400D01*
X050612Y012450D01*
X050610Y012500D01*
D31*
X007010Y019043D03*
X007010Y021957D03*
X007010Y025043D03*
X007010Y027957D03*
D32*
X007010Y026500D03*
X007010Y020500D03*
D33*
X015248Y020626D03*
X015248Y021000D03*
X015248Y021374D03*
X016271Y021374D03*
X016271Y020626D03*
X016271Y018374D03*
X015248Y018374D03*
X015248Y018000D03*
X015248Y017626D03*
X016271Y017626D03*
D34*
X027510Y015500D03*
X028510Y015500D03*
X030260Y016000D03*
X032260Y016000D03*
X034010Y015500D03*
X035010Y015500D03*
D35*
X035660Y020000D03*
X035660Y021000D03*
D36*
X012010Y024450D03*
X010510Y024450D03*
X010510Y026650D03*
X012010Y026650D03*
D37*
X007260Y030000D03*
X051760Y014000D03*
D38*
X045710Y017000D02*
X045710Y019350D01*
X033260Y013500D02*
X033110Y013650D01*
X030060Y013650D01*
X029560Y014150D01*
X029260Y014150D01*
X029260Y012500D01*
X028260Y012500D02*
X028260Y014200D01*
X027810Y014650D01*
X023910Y014650D01*
X023760Y014500D01*
X017460Y014500D01*
X017510Y014550D01*
X017510Y021050D01*
X017260Y021300D01*
X013660Y021300D02*
X013660Y019800D01*
X016910Y018050D02*
X016910Y017550D01*
X015260Y015500D02*
X015260Y014550D01*
X015310Y014500D01*
X017460Y014500D01*
X015260Y014550D02*
X015260Y013500D01*
X014260Y013500D02*
X014260Y012300D01*
X014560Y012000D01*
X022910Y012000D01*
X024360Y013450D01*
X025210Y013450D01*
X025210Y014150D01*
X025210Y013450D02*
X025960Y013450D01*
X026260Y013150D01*
X026260Y012500D01*
X025210Y015450D02*
X025210Y017950D01*
X013260Y015500D02*
X013260Y013500D01*
X013810Y025700D02*
X013810Y026800D01*
X014260Y027250D01*
D39*
X015160Y026900D03*
X015710Y026050D03*
X014660Y025100D03*
X015260Y024800D03*
X015210Y024200D03*
X014760Y023800D03*
X014610Y023400D03*
X015110Y023550D03*
X015660Y022900D03*
X016960Y023650D03*
X018110Y024350D03*
X019360Y024250D03*
X019360Y024700D03*
X019360Y025300D03*
X020760Y024800D03*
X020660Y024250D03*
X021110Y023800D03*
X021110Y023350D03*
X019760Y022500D03*
X019260Y023000D03*
X018860Y022900D03*
X019960Y021700D03*
X020810Y021700D03*
X020860Y020300D03*
X019310Y020300D03*
X016760Y020400D03*
X016760Y020050D03*
X015960Y019500D03*
X015610Y019500D03*
X016760Y018950D03*
X015760Y018000D03*
X015760Y021000D03*
X013860Y023150D03*
X013760Y024000D03*
X013810Y024700D03*
X014310Y026100D03*
X016410Y024800D03*
X017110Y025400D03*
X018910Y026750D03*
X019410Y026750D03*
X020760Y026500D03*
X018760Y028550D03*
X018460Y028800D03*
X018960Y029200D03*
X019210Y029600D03*
X019210Y030000D03*
X017260Y030000D03*
X017260Y029600D03*
X017260Y029200D03*
X017260Y028800D03*
X017260Y028400D03*
X011260Y024500D03*
X011260Y024000D03*
X012060Y023450D03*
X009860Y024700D03*
X008710Y025800D03*
X008910Y026400D03*
X009310Y026500D03*
X007010Y026500D03*
X007010Y027950D03*
X007010Y025000D03*
X007010Y021950D03*
X007010Y020500D03*
X008710Y020000D03*
X009260Y020250D03*
X009260Y020700D03*
X007010Y019050D03*
X022910Y021100D03*
X023560Y021100D03*
X026510Y021650D03*
X027860Y021600D03*
X028110Y021300D03*
X027860Y021000D03*
X028110Y020700D03*
X027760Y020200D03*
X027760Y019500D03*
X028560Y019650D03*
X028910Y019850D03*
X029260Y019650D03*
X029660Y019650D03*
X030060Y019650D03*
X031310Y019550D03*
X031610Y019800D03*
X031960Y019550D03*
X032260Y019800D03*
X032560Y019550D03*
X032860Y019800D03*
X032910Y018500D03*
X033110Y018150D03*
X034510Y017150D03*
X034910Y017150D03*
X035260Y017300D03*
X035860Y017300D03*
X037410Y017300D03*
X038460Y017200D03*
X038460Y016750D03*
X039560Y017300D03*
X040160Y016950D03*
X043760Y015950D03*
X044810Y016000D03*
X045110Y016450D03*
X046610Y019350D03*
X040760Y024000D03*
X037010Y025600D03*
X036510Y024650D03*
X034810Y025700D03*
X033560Y024750D03*
X032910Y024650D03*
X032660Y023350D03*
X032660Y022900D03*
X034110Y022700D03*
X034110Y022100D03*
X035410Y022350D03*
X035860Y022550D03*
X035660Y022950D03*
X037460Y021500D03*
X037460Y019500D03*
X035660Y019350D03*
X035210Y019350D03*
X034160Y016800D03*
X033760Y016800D03*
X033360Y016800D03*
X030360Y018050D03*
X029660Y016850D03*
X028510Y017650D03*
X028060Y017650D03*
X027610Y016750D03*
X026960Y016350D03*
X026510Y015700D03*
X026510Y017050D03*
X027510Y018650D03*
X027860Y022500D03*
X029260Y023300D03*
X029660Y022900D03*
X030460Y022950D03*
X029760Y022300D03*
X030360Y024550D03*
X030760Y024500D03*
X028010Y024500D03*
X026960Y025200D03*
X029560Y026750D03*
X029510Y027250D03*
X029160Y027550D03*
X024760Y027850D03*
X024410Y027200D03*
X023960Y027650D03*
X045760Y027700D03*
X046260Y027700D03*
X046260Y025650D03*
X045760Y025650D03*
X026810Y014100D03*
D40*
X025210Y014150D03*
X025210Y015450D03*
X025210Y017950D03*
X029260Y014150D03*
X033260Y013500D03*
X045710Y017000D03*
X045710Y019350D03*
X035460Y023500D03*
X017760Y027200D03*
X014260Y027250D03*
X013810Y025700D03*
X013660Y021300D03*
X013660Y019800D03*
X014560Y017752D03*
X016910Y017550D03*
D41*
X014685Y017626D02*
X014560Y017752D01*
X014560Y018500D01*
X014560Y019000D01*
X013660Y019000D01*
X013160Y019000D02*
X012660Y019000D01*
X012610Y018950D01*
X012610Y021046D01*
X012606Y021050D01*
X012606Y020846D01*
X012606Y021050D02*
X012606Y021200D01*
X012606Y028000D01*
X013460Y027200D02*
X013260Y027000D01*
X013260Y022800D01*
X014560Y021500D01*
X014560Y020500D01*
X014560Y019000D01*
X012610Y018950D02*
X012610Y018650D01*
X012460Y018500D01*
X011606Y018500D01*
X009913Y018500D02*
X009910Y018496D01*
X009910Y017600D01*
X010553Y016956D01*
X010553Y015400D01*
X010660Y021200D02*
X008760Y021200D01*
X013460Y027200D02*
X013460Y029500D01*
X013256Y029704D01*
X013252Y029700D01*
X012710Y029700D01*
X013256Y029704D02*
X013256Y030850D01*
X012160Y029700D02*
X011710Y029700D01*
X011560Y029850D01*
X011560Y030846D01*
X011563Y030850D01*
X010310Y030850D01*
X010153Y030694D01*
X010153Y030000D01*
D42*
X010913Y028000D02*
X008760Y028000D01*
X008660Y027900D01*
X008660Y027150D01*
X008521Y027012D01*
D43*
X010660Y021200D02*
X010913Y021200D01*
D44*
X013160Y019000D02*
X013252Y019000D01*
X013572Y019000D02*
X013660Y019000D01*
X014560Y018500D02*
X014685Y018374D01*
X015248Y018374D01*
X016271Y018374D02*
X016835Y018374D01*
X016910Y018300D01*
X016910Y018050D01*
X015248Y017626D02*
X014685Y017626D01*
X014560Y020500D02*
X014685Y020626D01*
X015248Y020626D01*
X015248Y021374D02*
X014685Y021374D01*
X014560Y021500D01*
X016271Y021374D02*
X017185Y021374D01*
X017260Y021300D01*
X030460Y022950D02*
X030460Y019500D01*
X030456Y019497D01*
X030456Y019247D01*
X012710Y029700D02*
X012587Y029700D01*
X012232Y029700D02*
X012160Y029700D01*
M02*
