%
M48
M72
T01C0.0100
T02C0.0170
T03C0.0200
T04C0.0276
T05C0.0320
T06C0.0335
T07C0.0400
T08C0.1180
T09C0.1300
%
T01
X26510Y15700
X26960Y16350
X27610Y16750
X26510Y17050
X28060Y17650
X28510Y17650
X29660Y16850
X30360Y18050
X30060Y19650
X29660Y19650
X29260Y19650
X28910Y19850
X28560Y19650
X27760Y19500
X27760Y20200
X28110Y20700
X27860Y21000
X28110Y21300
X27860Y21600
X27860Y22500
X26510Y21650
X23560Y21100
X22910Y21100
X20810Y21700
X19960Y21700
X19760Y22500
X19260Y23000
X18860Y22900
X19360Y24250
X19360Y24700
X19360Y25300
X20760Y24800
X20660Y24250
X21110Y23800
X21110Y23350
X18110Y24350
X16960Y23650
X16410Y24800
X17110Y25400
X15710Y26050
X14660Y25100
X15260Y24800
X15210Y24200
X14760Y23800
X14610Y23400
X15110Y23550
X15660Y22900
X13860Y23150
X13760Y24000
X13810Y24700
X14310Y26100
X15160Y26900
X17260Y28400
X17260Y28800
X17260Y29200
X17260Y29600
X17260Y30000
X18460Y28800
X18760Y28550
X18960Y29200
X19210Y29600
X19210Y30000
X23960Y27650
X24410Y27200
X24760Y27850
X26960Y25200
X28010Y24500
X29260Y23300
X29660Y22900
X30460Y22950
X29760Y22300
X32660Y22900
X32660Y23350
X34110Y22700
X34110Y22100
X35410Y22350
X35860Y22550
X35660Y22950
X36510Y24650
X37010Y25600
X34810Y25700
X33560Y24750
X32910Y24650
X30760Y24500
X30360Y24550
X29560Y26750
X29510Y27250
X29160Y27550
X20760Y26500
X19410Y26750
X18910Y26750
X12060Y23450
X11260Y24000
X11260Y24500
X9860Y24700
X8710Y25800
X8910Y26400
X9310Y26500
X7010Y26500
X7010Y27950
X7010Y25000
X7010Y21950
X7010Y20500
X8710Y20000
X9260Y20250
X9260Y20700
X7010Y19050
X15610Y19500
X15960Y19500
X16760Y18950
X15760Y18000
X16760Y20050
X16760Y20400
X15760Y21000
X19310Y20300
X20860Y20300
X27510Y18650
X31310Y19550
X31610Y19800
X31960Y19550
X32260Y19800
X32560Y19550
X32860Y19800
X32910Y18500
X33110Y18150
X34510Y17150
X34910Y17150
X35260Y17300
X35860Y17300
X37410Y17300
X38460Y17200
X38460Y16750
X39560Y17300
X40160Y16950
X43760Y15950
X44810Y16000
X45110Y16450
X46610Y19350
X40760Y24000
X37460Y21500
X37460Y19500
X35660Y19350
X35210Y19350
X34160Y16800
X33760Y16800
X33360Y16800
X26810Y14100
X45760Y25650
X46260Y25650
X46260Y27700
X45760Y27700
T02
X23260Y20500
X22760Y20500
X22760Y20000
X23260Y20000
X23260Y19500
X23260Y19000
X22760Y19000
X22760Y19500
X22760Y18500
X23260Y18500
X21260Y19000
X21260Y19500
X20760Y19500
X20760Y19000
X20260Y19000
X20260Y19500
X19760Y19500
X19760Y19000
X19260Y19000
X19260Y19500
T03
X16910Y17550
X14560Y17752
X13660Y19800
X13660Y21300
X13810Y25700
X14260Y27250
X17760Y27200
X25210Y17950
X25210Y15450
X25210Y14150
X29260Y14150
X33260Y13500
X45710Y17000
X45710Y19350
X35460Y23500
T04
X32260Y16000
X34010Y15500
X35010Y15500
X30260Y16000
X28510Y15500
X27510Y15500
X10153Y30000
X9366Y30000
T05
X35660Y21000
X35660Y20000
T06
X7876Y19752
X7876Y21248
X7876Y25752
X7876Y27248
T07
X15260Y31000
X16260Y31000
X17260Y31000
X18260Y31000
X19260Y31000
X20260Y31000
X20260Y32000
X19260Y32000
X18260Y32000
X17260Y32000
X16260Y32000
X15260Y32000
X21760Y31500
X22760Y31500
X23760Y31500
X24760Y31500
X25760Y31500
X26760Y31500
X27760Y31500
X28760Y31500
X29760Y31500
X30760Y31500
X32260Y31500
X33260Y31500
X34260Y31500
X35260Y31500
X36260Y31500
X37260Y31500
X38260Y31500
X39260Y31500
X41260Y31500
X42260Y31500
X43260Y31500
X44260Y31500
X45260Y31500
X46260Y31500
X46260Y30500
X45260Y30500
X44260Y30500
X43260Y30500
X42260Y30500
X41260Y30500
X48260Y30500
X49260Y30500
X49260Y29500
X48260Y29500
X48260Y28500
X49260Y28500
X49260Y27500
X49260Y26500
X48260Y26500
X48260Y27500
X48260Y24500
X49260Y24500
X49260Y23500
X48260Y23500
X48260Y22500
X49260Y22500
X49260Y21500
X48260Y21500
X48260Y20500
X49260Y20500
X49260Y19500
X48260Y19500
X48260Y17500
X49260Y17500
X49260Y16500
X48260Y16500
X48260Y15500
X49260Y15500
X49260Y14500
X48260Y14500
X48260Y13500
X49260Y13500
X49260Y12500
X48260Y12500
X47260Y12500
X46260Y12500
X45260Y12500
X44260Y12500
X43260Y12500
X42260Y12500
X41260Y12500
X40260Y12500
X39260Y12500
X38260Y12500
X37260Y12500
X36260Y12500
X35260Y12500
X34260Y12500
X32260Y12500
X31260Y12500
X30260Y12500
X29260Y12500
X28260Y12500
X27260Y12500
X26260Y12500
X25260Y12500
X15260Y13500
X14260Y13500
X13260Y13500
X13260Y15500
X14260Y15500
X15260Y15500
X39760Y20500
X40760Y20500
X40760Y21500
X40760Y22500
X39760Y22500
X39760Y21500
X48260Y31500
X49260Y31500
T08
X10553Y15400
X8191Y15400
X9372Y13550
T09
X7260Y12500
X7260Y31500
X51260Y31500
X51260Y12500
M30
