G75*
%MOIN*%
%OFA0B0*%
%FSLAX24Y24*%
%IPPOS*%
%LPD*%
%AMOC8*
5,1,8,0,0,1.08239X$1,22.5*
%
%ADD10C,0.0110*%
%ADD11C,0.0630*%
%ADD12C,0.1700*%
%ADD13C,0.0740*%
%ADD14R,0.0740X0.0740*%
%ADD15OC8,0.0740*%
%ADD16R,0.0410X0.0410*%
%ADD17C,0.0410*%
%ADD18C,0.0650*%
%ADD19C,0.0660*%
%ADD20C,0.0300*%
%ADD21C,0.0080*%
%ADD22C,0.0400*%
%ADD23C,0.0400*%
%ADD24C,0.0160*%
D10*
X006615Y016785D02*
X007008Y016982D01*
X007107Y017233D02*
X006713Y017233D01*
X007107Y017626D01*
X006713Y017626D01*
X006615Y017528D01*
X006615Y017331D01*
X006713Y017233D01*
X007107Y017233D02*
X007205Y017331D01*
X007205Y017528D01*
X007107Y017626D01*
X007008Y017877D02*
X007205Y018074D01*
X006615Y018074D01*
X006615Y017877D02*
X006615Y018271D01*
X006615Y016785D02*
X007008Y016588D01*
D11*
X009366Y030000D03*
X010153Y030000D03*
D12*
X010553Y015400D03*
X008191Y015400D03*
X009372Y013550D03*
D13*
X013260Y013500D03*
X014260Y013500D03*
X015260Y013500D03*
X015260Y015500D03*
X014260Y015500D03*
X013260Y015500D03*
X025260Y012500D03*
X026260Y012500D03*
X027260Y012500D03*
X028260Y012500D03*
X029260Y012500D03*
X030260Y012500D03*
X031260Y012500D03*
X034260Y012500D03*
X035260Y012500D03*
X036260Y012500D03*
X037260Y012500D03*
X038260Y012500D03*
X039260Y012500D03*
X041260Y012500D03*
X042260Y012500D03*
X043260Y012500D03*
X044260Y012500D03*
X045260Y012500D03*
X046260Y012500D03*
X047260Y012500D03*
X038260Y031500D03*
X037260Y031500D03*
X036260Y031500D03*
X035260Y031500D03*
X034260Y031500D03*
X033260Y031500D03*
X032260Y031500D03*
X030760Y031500D03*
X029760Y031500D03*
X028760Y031500D03*
X027760Y031500D03*
X026760Y031500D03*
X025760Y031500D03*
X024760Y031500D03*
X023760Y031500D03*
X022760Y031500D03*
X021760Y031500D03*
D14*
X039260Y031500D03*
X040260Y012500D03*
X032260Y012500D03*
D15*
X039760Y020500D03*
X040760Y020500D03*
X040760Y021500D03*
X040760Y022500D03*
X039760Y022500D03*
X039760Y021500D03*
X048260Y021500D03*
X049260Y021500D03*
X049260Y022500D03*
X048260Y022500D03*
X048260Y023500D03*
X049260Y023500D03*
X049260Y024500D03*
X048260Y024500D03*
X048260Y026500D03*
X049260Y026500D03*
X049260Y027500D03*
X048260Y027500D03*
X048260Y028500D03*
X049260Y028500D03*
X049260Y029500D03*
X048260Y029500D03*
X048260Y030500D03*
X049260Y030500D03*
X049260Y031500D03*
X048260Y031500D03*
X046260Y031500D03*
X045260Y031500D03*
X044260Y031500D03*
X043260Y031500D03*
X042260Y031500D03*
X041260Y031500D03*
X041260Y030500D03*
X042260Y030500D03*
X043260Y030500D03*
X044260Y030500D03*
X045260Y030500D03*
X046260Y030500D03*
X048260Y020500D03*
X049260Y020500D03*
X049260Y019500D03*
X048260Y019500D03*
X048260Y017500D03*
X049260Y017500D03*
X049260Y016500D03*
X048260Y016500D03*
X048260Y015500D03*
X049260Y015500D03*
X049260Y014500D03*
X048260Y014500D03*
X048260Y013500D03*
X049260Y013500D03*
X049260Y012500D03*
X048260Y012500D03*
X020260Y031000D03*
X019260Y031000D03*
X018260Y031000D03*
X017260Y031000D03*
X016260Y031000D03*
X015260Y031000D03*
X015260Y032000D03*
X016260Y032000D03*
X017260Y032000D03*
X018260Y032000D03*
X019260Y032000D03*
X020260Y032000D03*
D16*
X022760Y020500D03*
X019260Y019000D03*
D17*
X019760Y019000D03*
X020260Y019000D03*
X020760Y019000D03*
X021260Y019000D03*
X021260Y019500D03*
X020760Y019500D03*
X020260Y019500D03*
X019760Y019500D03*
X019260Y019500D03*
X022760Y019500D03*
X023260Y019500D03*
X023260Y019000D03*
X022760Y019000D03*
X022760Y018500D03*
X023260Y018500D03*
X023260Y020000D03*
X022760Y020000D03*
X023260Y020500D03*
D18*
X030260Y016000D03*
X028510Y015500D03*
X027510Y015500D03*
X032260Y016000D03*
X034010Y015500D03*
X035010Y015500D03*
D19*
X035660Y020000D03*
X035660Y021000D03*
D20*
X037460Y021500D03*
X035860Y022550D03*
X035660Y022950D03*
X035410Y022350D03*
X034110Y022100D03*
X034110Y022700D03*
X032660Y022900D03*
X032660Y023350D03*
X032910Y024650D03*
X033560Y024750D03*
X034810Y025700D03*
X036510Y024650D03*
X037010Y025600D03*
X040760Y024000D03*
X045760Y025650D03*
X046260Y025650D03*
X046260Y027700D03*
X045760Y027700D03*
X032860Y019800D03*
X032560Y019550D03*
X032260Y019800D03*
X031960Y019550D03*
X031610Y019800D03*
X031310Y019550D03*
X030060Y019650D03*
X029660Y019650D03*
X029260Y019650D03*
X028910Y019850D03*
X028560Y019650D03*
X027760Y019500D03*
X027760Y020200D03*
X028110Y020700D03*
X027860Y021000D03*
X028110Y021300D03*
X027860Y021600D03*
X027860Y022500D03*
X026510Y021650D03*
X023560Y021100D03*
X022910Y021100D03*
X020810Y021700D03*
X019960Y021700D03*
X019760Y022500D03*
X019260Y023000D03*
X018860Y022900D03*
X019360Y024250D03*
X019360Y024700D03*
X019360Y025300D03*
X020760Y024800D03*
X020660Y024250D03*
X021110Y023800D03*
X021110Y023350D03*
X018110Y024350D03*
X016960Y023650D03*
X016410Y024800D03*
X017110Y025400D03*
X015710Y026050D03*
X014660Y025100D03*
X015260Y024800D03*
X015210Y024200D03*
X014760Y023800D03*
X014610Y023400D03*
X015110Y023550D03*
X015660Y022900D03*
X013860Y023150D03*
X013760Y024000D03*
X013810Y024700D03*
X014310Y026100D03*
X015160Y026900D03*
X017260Y028400D03*
X017260Y028800D03*
X017260Y029200D03*
X017260Y029600D03*
X017260Y030000D03*
X018460Y028800D03*
X018760Y028550D03*
X018960Y029200D03*
X019210Y029600D03*
X019210Y030000D03*
X023960Y027650D03*
X024410Y027200D03*
X024760Y027850D03*
X026960Y025200D03*
X028010Y024500D03*
X029260Y023300D03*
X029660Y022900D03*
X030460Y022950D03*
X029760Y022300D03*
X030360Y024550D03*
X030760Y024500D03*
X029560Y026750D03*
X029510Y027250D03*
X029160Y027550D03*
X020760Y026500D03*
X019410Y026750D03*
X018910Y026750D03*
X012060Y023450D03*
X011260Y024000D03*
X011260Y024500D03*
X009860Y024700D03*
X008710Y025800D03*
X008910Y026400D03*
X009310Y026500D03*
X007010Y026500D03*
X007010Y027950D03*
X007010Y025000D03*
X007010Y021950D03*
X007010Y020500D03*
X008710Y020000D03*
X009260Y020250D03*
X009260Y020700D03*
X007010Y019050D03*
X015610Y019500D03*
X015960Y019500D03*
X016760Y018950D03*
X015760Y018000D03*
X016760Y020050D03*
X016760Y020400D03*
X015760Y021000D03*
X019310Y020300D03*
X020860Y020300D03*
X026510Y017050D03*
X026960Y016350D03*
X027610Y016750D03*
X028060Y017650D03*
X028510Y017650D03*
X029660Y016850D03*
X030360Y018050D03*
X032910Y018500D03*
X033110Y018150D03*
X034510Y017150D03*
X034910Y017150D03*
X035260Y017300D03*
X035860Y017300D03*
X037410Y017300D03*
X038460Y017200D03*
X038460Y016750D03*
X039560Y017300D03*
X040160Y016950D03*
X043760Y015950D03*
X044810Y016000D03*
X045110Y016450D03*
X046610Y019350D03*
X037460Y019500D03*
X035660Y019350D03*
X035210Y019350D03*
X034160Y016800D03*
X033760Y016800D03*
X033360Y016800D03*
X027510Y018650D03*
X026510Y015700D03*
X026810Y014100D03*
D21*
X026810Y014850D01*
X026510Y015150D01*
X026510Y015700D01*
X026860Y016050D02*
X027060Y016050D01*
X027260Y016250D01*
X027260Y016700D01*
X027310Y016750D01*
X027610Y016750D01*
X026960Y016350D02*
X018060Y016350D01*
X017760Y016650D01*
X017760Y019150D01*
X017160Y019750D01*
X016460Y019750D01*
X016010Y020200D01*
X015060Y020200D01*
X014560Y020700D01*
X009260Y020700D01*
X009260Y020250D02*
X009610Y020250D01*
X009910Y020550D01*
X014460Y020550D01*
X014960Y020050D01*
X015910Y020050D01*
X016360Y019600D01*
X017060Y019600D01*
X017610Y019050D01*
X017610Y016550D01*
X017960Y016200D01*
X026710Y016200D01*
X026860Y016050D01*
X026910Y017100D02*
X028860Y017100D01*
X029110Y016850D01*
X029110Y015150D01*
X029260Y015000D01*
X043660Y015000D01*
X043760Y015100D01*
X043760Y015950D01*
X044560Y016250D02*
X044810Y016000D01*
X044560Y016250D02*
X032910Y016250D01*
X032660Y016500D01*
X032660Y017150D01*
X032510Y017300D01*
X028160Y017300D01*
X028060Y017400D01*
X028060Y017650D01*
X028510Y017650D02*
X032710Y017650D01*
X032910Y017450D01*
X032910Y016600D01*
X033060Y016450D01*
X045110Y016450D01*
X046710Y015500D02*
X047060Y015150D01*
X047460Y015150D01*
X047560Y015050D01*
X047560Y014600D01*
X047660Y014500D01*
X048260Y014500D01*
X047860Y015000D02*
X048760Y015000D01*
X049260Y014500D01*
X047860Y015000D02*
X047760Y015100D01*
X047760Y015250D01*
X047660Y015350D01*
X047060Y015350D01*
X046860Y015550D01*
X046860Y017750D01*
X046760Y017850D01*
X034310Y017850D01*
X033610Y018550D01*
X033610Y020100D01*
X033460Y020250D01*
X029310Y020250D01*
X029260Y020200D01*
X029260Y019650D01*
X029660Y019650D02*
X029660Y020000D01*
X029760Y020100D01*
X033360Y020100D01*
X033460Y020000D01*
X033460Y018450D01*
X034210Y017700D01*
X046610Y017700D01*
X046710Y017600D01*
X046710Y015500D01*
X047010Y015650D02*
X047160Y015500D01*
X048260Y015500D01*
X048760Y016000D02*
X047360Y016000D01*
X047210Y016150D01*
X047210Y018000D01*
X047060Y018150D01*
X034510Y018150D01*
X033960Y018700D01*
X033960Y020350D01*
X033760Y020550D01*
X028660Y020550D01*
X028560Y020450D01*
X028560Y019650D01*
X028910Y019850D02*
X028910Y020200D01*
X029110Y020400D01*
X033560Y020400D01*
X033760Y020200D01*
X033760Y018650D01*
X034410Y018000D01*
X046910Y018000D01*
X047010Y017900D01*
X047010Y015650D01*
X047610Y016500D02*
X048260Y016500D01*
X047610Y016500D02*
X047460Y016650D01*
X047460Y018200D01*
X047310Y018350D01*
X034610Y018350D01*
X034160Y018800D01*
X034160Y020600D01*
X034060Y020700D01*
X028110Y020700D01*
X027860Y021000D02*
X034160Y021000D01*
X034360Y020800D01*
X034360Y018900D01*
X034710Y018550D01*
X047510Y018550D01*
X047710Y018350D01*
X047710Y017100D01*
X047810Y017000D01*
X048760Y017000D01*
X049260Y016500D01*
X048760Y016000D02*
X049260Y015500D01*
X049260Y017500D02*
X049260Y018850D01*
X049160Y018950D01*
X034910Y018950D01*
X034760Y019100D01*
X034760Y021300D01*
X034610Y021450D01*
X033410Y021450D01*
X033260Y021600D01*
X027860Y021600D01*
X028110Y021300D02*
X034410Y021300D01*
X034560Y021150D01*
X034560Y019000D01*
X034810Y018750D01*
X048110Y018750D01*
X048260Y018600D01*
X048260Y017500D01*
X040760Y021500D02*
X040260Y022000D01*
X039260Y022000D01*
X039110Y022150D01*
X035660Y022150D01*
X035560Y022050D01*
X034710Y022050D01*
X034460Y021800D01*
X033860Y021800D01*
X033510Y022150D01*
X030060Y022150D01*
X029910Y022000D01*
X029660Y022000D01*
X029260Y022400D01*
X029260Y023300D01*
X029660Y022900D02*
X029910Y022650D01*
X032460Y022650D01*
X032510Y022600D01*
X032860Y022600D01*
X032910Y022650D01*
X033660Y022650D01*
X034010Y023000D01*
X034210Y023000D01*
X034360Y022850D01*
X035560Y022850D01*
X035660Y022950D01*
X035760Y022650D02*
X035260Y022650D01*
X035010Y022400D01*
X030160Y022400D01*
X030060Y022300D01*
X029760Y022300D01*
X029460Y021900D02*
X029560Y021800D01*
X030110Y021800D01*
X030210Y021900D01*
X033410Y021900D01*
X033660Y021650D01*
X034660Y021650D01*
X034910Y021900D01*
X039060Y021900D01*
X039260Y021700D01*
X039260Y021000D01*
X039760Y020500D01*
X035860Y022550D02*
X035760Y022650D01*
X031710Y024000D02*
X040760Y024000D01*
X031710Y024000D02*
X031510Y024200D01*
X031510Y024500D01*
X031060Y024950D01*
X030110Y024950D01*
X029660Y024500D01*
X028010Y024500D01*
X027260Y021900D02*
X029460Y021900D01*
X027260Y021900D02*
X027010Y021650D01*
X026510Y021650D01*
X026510Y017050D01*
X026760Y017250D02*
X026910Y017100D01*
X026760Y017250D02*
X026760Y019500D01*
X027460Y020200D01*
X027760Y020200D01*
X023860Y020300D02*
X023560Y020000D01*
X023260Y020000D01*
X023260Y020500D02*
X023260Y021250D01*
X023110Y021400D01*
X018610Y021400D01*
X018010Y022000D01*
X018010Y024050D01*
X017860Y024200D01*
X015210Y024200D01*
X014860Y023900D02*
X016710Y023900D01*
X016860Y024050D01*
X017760Y024050D01*
X017810Y024000D01*
X017810Y021900D01*
X018560Y021150D01*
X022860Y021150D01*
X022910Y021100D01*
X023560Y021100D02*
X023760Y021100D01*
X023860Y021000D01*
X023860Y020300D01*
X022260Y020800D02*
X022260Y018200D01*
X022460Y018000D01*
X023110Y018000D01*
X023260Y018150D01*
X023260Y018500D01*
X022260Y020800D02*
X022160Y020900D01*
X018560Y020900D01*
X017610Y021850D01*
X017610Y022500D01*
X016560Y023550D01*
X015110Y023550D01*
X014760Y023800D02*
X014860Y023900D01*
X014010Y024500D02*
X013760Y024250D01*
X013760Y024000D01*
X014010Y024500D02*
X016760Y024500D01*
X016910Y024650D01*
X018560Y024650D01*
X018710Y024500D01*
X018710Y023550D01*
X019260Y023000D01*
X021110Y023350D02*
X021460Y023350D01*
X021560Y023450D01*
X021560Y025250D01*
X020360Y026450D01*
X018760Y026450D01*
X018610Y026600D01*
X015010Y026600D01*
X014810Y026800D01*
X008960Y026800D01*
X008910Y026750D01*
X008910Y026400D01*
X009310Y026500D02*
X009560Y026500D01*
X009710Y026650D01*
X014760Y026650D01*
X014960Y026450D01*
X018560Y026450D01*
X018710Y026300D01*
X020310Y026300D01*
X021410Y025200D01*
X021410Y023900D01*
X021310Y023800D01*
X021110Y023800D01*
X019360Y024700D02*
X019210Y024850D01*
X016910Y024850D01*
X016660Y025100D01*
X015410Y025100D01*
X015260Y024950D01*
X015260Y024800D01*
D22*
X013810Y025700D03*
X014260Y027250D03*
X017760Y027200D03*
X013660Y021300D03*
X013660Y019800D03*
X014560Y017752D03*
X016910Y017550D03*
X025210Y017950D03*
X025210Y015450D03*
X025210Y014150D03*
X029260Y014150D03*
X033260Y013500D03*
X045710Y017000D03*
X045710Y019350D03*
X035460Y023500D03*
D23*
X012760Y012000D02*
X012260Y012500D01*
X012260Y017150D01*
X012610Y017500D01*
X014308Y017500D01*
X014560Y017752D01*
X015260Y018900D02*
X014360Y019800D01*
X013660Y019800D01*
X015260Y018900D02*
X015260Y016250D01*
X013460Y016250D01*
X013260Y016050D01*
X013260Y015500D01*
X015260Y016250D02*
X016910Y016250D01*
X016910Y014050D01*
X017310Y013650D01*
X028410Y013650D01*
X028910Y014150D01*
X029260Y014150D01*
X032110Y013150D02*
X024060Y013150D01*
X022910Y012000D01*
X012760Y012000D01*
X016910Y016250D02*
X016910Y017550D01*
X013660Y021300D02*
X013660Y022400D01*
X013260Y022800D01*
X013260Y025150D01*
X013810Y025700D01*
X014260Y027250D02*
X014610Y027600D01*
X017360Y027600D01*
X017760Y027200D01*
X025210Y024300D02*
X025410Y024500D01*
X028010Y024500D01*
X025210Y024300D02*
X025210Y017950D01*
X025210Y015450D02*
X025210Y014150D01*
X032110Y013150D02*
X032260Y013000D01*
X032260Y012500D01*
X033260Y013500D02*
X045210Y013500D01*
X045710Y014000D01*
X045710Y017000D01*
X045710Y019350D02*
X045710Y023050D01*
X045260Y023500D01*
X035460Y023500D01*
D24*
X030760Y023250D02*
X030460Y022950D01*
X030760Y023250D02*
X030760Y024500D01*
M02*
