G75*
%MOIN*%
%OFA0B0*%
%FSLAX24Y24*%
%IPPOS*%
%LPD*%
%AMOC8*
5,1,8,0,0,1.08239X$1,22.5*
%
%ADD10R,0.0671X0.0186*%
%ADD11R,0.0186X0.0671*%
%ADD12R,0.0580X0.0659*%
%ADD13C,0.0710*%
%ADD14C,0.1780*%
%ADD15R,0.0330X0.0580*%
%ADD16R,0.0356X0.0434*%
%ADD17C,0.0820*%
%ADD18R,0.0820X0.0820*%
%ADD19OC8,0.0820*%
%ADD20R,0.0159X0.0316*%
%ADD21R,0.0316X0.0159*%
%ADD22R,0.2324X0.2324*%
%ADD23R,0.0490X0.0490*%
%ADD24C,0.0490*%
%ADD25C,0.0142*%
%ADD26R,0.0680X0.0380*%
%ADD27R,0.0513X0.0474*%
%ADD28R,0.0631X0.0237*%
%ADD29C,0.0415*%
%ADD30R,0.0669X0.0787*%
%ADD31R,0.0669X0.1063*%
%ADD32R,0.0552X0.0297*%
%ADD33C,0.0730*%
%ADD34C,0.0740*%
%ADD35C,0.1380*%
%ADD36R,0.0380X0.0680*%
%ADD37C,0.0474*%
D10*
X027110Y019638D03*
X027110Y019835D03*
X027110Y020031D03*
X027110Y020228D03*
X027110Y020425D03*
X027110Y020622D03*
X027110Y020819D03*
X027110Y021016D03*
X027110Y021213D03*
X027110Y021409D03*
X027110Y021606D03*
X027110Y021803D03*
X027110Y022000D03*
X027110Y022197D03*
X027110Y022394D03*
X027110Y022591D03*
X027110Y022787D03*
X027110Y022984D03*
X027110Y023181D03*
X027110Y023378D03*
X027110Y023575D03*
X027110Y023772D03*
X027110Y023969D03*
X027110Y024165D03*
X027110Y024362D03*
X033409Y024362D03*
X033409Y024165D03*
X033409Y023969D03*
X033409Y023772D03*
X033409Y023575D03*
X033409Y023378D03*
X033409Y023181D03*
X033409Y022984D03*
X033409Y022787D03*
X033409Y022591D03*
X033409Y022394D03*
X033409Y022197D03*
X033409Y022000D03*
X033409Y021803D03*
X033409Y021606D03*
X033409Y021409D03*
X033409Y021213D03*
X033409Y021016D03*
X033409Y020819D03*
X033409Y020622D03*
X033409Y020425D03*
X033409Y020228D03*
X033409Y020031D03*
X033409Y019835D03*
X033409Y019638D03*
D11*
X032622Y018850D03*
X032425Y018850D03*
X032228Y018850D03*
X032031Y018850D03*
X031834Y018850D03*
X031637Y018850D03*
X031441Y018850D03*
X031244Y018850D03*
X031047Y018850D03*
X030850Y018850D03*
X030653Y018850D03*
X030456Y018850D03*
X030260Y018850D03*
X030063Y018850D03*
X029866Y018850D03*
X029669Y018850D03*
X029472Y018850D03*
X029275Y018850D03*
X029078Y018850D03*
X028882Y018850D03*
X028685Y018850D03*
X028488Y018850D03*
X028291Y018850D03*
X028094Y018850D03*
X027897Y018850D03*
X027897Y025150D03*
X028094Y025150D03*
X028291Y025150D03*
X028488Y025150D03*
X028685Y025150D03*
X028882Y025150D03*
X029078Y025150D03*
X029275Y025150D03*
X029472Y025150D03*
X029669Y025150D03*
X029866Y025150D03*
X030063Y025150D03*
X030260Y025150D03*
X030456Y025150D03*
X030653Y025150D03*
X030850Y025150D03*
X031047Y025150D03*
X031244Y025150D03*
X031441Y025150D03*
X031637Y025150D03*
X031834Y025150D03*
X032031Y025150D03*
X032228Y025150D03*
X032425Y025150D03*
X032622Y025150D03*
D12*
X013256Y030850D03*
X011563Y030850D03*
X010913Y028000D03*
X012606Y028000D03*
X012606Y021200D03*
X010913Y021200D03*
X011606Y018500D03*
X009913Y018500D03*
D13*
X010153Y030000D03*
X009366Y030000D03*
D14*
X008191Y015400D03*
X010553Y015400D03*
X009372Y013550D03*
D15*
X013252Y019000D03*
X013572Y019000D03*
X012587Y029700D03*
X012232Y029700D03*
X033132Y025700D03*
X033487Y025700D03*
X034832Y024650D03*
X035187Y024650D03*
X035282Y025600D03*
X035637Y025600D03*
D16*
X036054Y025600D03*
X036565Y025600D03*
X036115Y024650D03*
X035604Y024650D03*
X034365Y025700D03*
X033854Y025700D03*
X033565Y025150D03*
X033054Y025150D03*
X030465Y026850D03*
X030465Y027350D03*
X029954Y027350D03*
X029954Y026850D03*
X027465Y025700D03*
X026954Y025700D03*
X020665Y023800D03*
X020665Y023350D03*
X020154Y023350D03*
X020154Y023800D03*
X020265Y024250D03*
X019754Y024250D03*
X019754Y024700D03*
X020265Y024700D03*
X019415Y026350D03*
X018904Y026350D03*
X017765Y026600D03*
X017254Y026600D03*
X017165Y027250D03*
X017165Y027700D03*
X016654Y027700D03*
X016654Y027250D03*
X015615Y027550D03*
X015615Y028000D03*
X015104Y028000D03*
X015104Y027550D03*
X015315Y026300D03*
X014804Y026300D03*
X014815Y025700D03*
X014304Y025700D03*
X014254Y024700D03*
X014765Y024700D03*
X014765Y024250D03*
X014254Y024250D03*
X014754Y022900D03*
X015265Y022900D03*
X018854Y022500D03*
X019365Y022500D03*
X027354Y018150D03*
X027865Y018150D03*
X029554Y017650D03*
X030065Y017650D03*
X030104Y017200D03*
X030615Y017200D03*
X028515Y016750D03*
X028515Y016250D03*
X028004Y016250D03*
X028004Y016750D03*
X033254Y019000D03*
X033765Y019000D03*
X034504Y021800D03*
X035015Y021800D03*
X035015Y022350D03*
X035015Y022850D03*
X034504Y022850D03*
X034504Y022350D03*
D17*
X034260Y031500D03*
X033260Y031500D03*
X032260Y031500D03*
X030760Y031500D03*
X029760Y031500D03*
X028760Y031500D03*
X027760Y031500D03*
X026760Y031500D03*
X025760Y031500D03*
X024760Y031500D03*
X023760Y031500D03*
X022760Y031500D03*
X021760Y031500D03*
X035260Y031500D03*
X036260Y031500D03*
X037260Y031500D03*
X038260Y031500D03*
X015260Y015500D03*
X014260Y015500D03*
X013260Y015500D03*
X013260Y013500D03*
X014260Y013500D03*
X015260Y013500D03*
X025260Y012500D03*
X026260Y012500D03*
X027260Y012500D03*
X028260Y012500D03*
X029260Y012500D03*
X030260Y012500D03*
X031260Y012500D03*
X034260Y012500D03*
X035260Y012500D03*
X036260Y012500D03*
X037260Y012500D03*
X038260Y012500D03*
X039260Y012500D03*
X041260Y012500D03*
X042260Y012500D03*
X043260Y012500D03*
X044260Y012500D03*
X045260Y012500D03*
X046260Y012500D03*
X047260Y012500D03*
D18*
X040260Y012500D03*
X032260Y012500D03*
X039260Y031500D03*
D19*
X041260Y031500D03*
X042260Y031500D03*
X043260Y031500D03*
X044260Y031500D03*
X045260Y031500D03*
X046260Y031500D03*
X046260Y030500D03*
X045260Y030500D03*
X044260Y030500D03*
X043260Y030500D03*
X042260Y030500D03*
X041260Y030500D03*
X048260Y030500D03*
X049260Y030500D03*
X049260Y029500D03*
X048260Y029500D03*
X048260Y028500D03*
X049260Y028500D03*
X049260Y027500D03*
X049260Y026500D03*
X048260Y026500D03*
X048260Y027500D03*
X048260Y024500D03*
X049260Y024500D03*
X049260Y023500D03*
X048260Y023500D03*
X048260Y022500D03*
X049260Y022500D03*
X049260Y021500D03*
X048260Y021500D03*
X048260Y020500D03*
X049260Y020500D03*
X049260Y019500D03*
X048260Y019500D03*
X048260Y017500D03*
X049260Y017500D03*
X049260Y016500D03*
X048260Y016500D03*
X048260Y015500D03*
X049260Y015500D03*
X049260Y014500D03*
X048260Y014500D03*
X048260Y013500D03*
X049260Y013500D03*
X049260Y012500D03*
X048260Y012500D03*
X040760Y020500D03*
X039760Y020500D03*
X039760Y021500D03*
X040760Y021500D03*
X040760Y022500D03*
X039760Y022500D03*
X048260Y031500D03*
X049260Y031500D03*
X020260Y031000D03*
X019260Y031000D03*
X018260Y031000D03*
X017260Y031000D03*
X016260Y031000D03*
X015260Y031000D03*
X015260Y032000D03*
X016260Y032000D03*
X017260Y032000D03*
X018260Y032000D03*
X019260Y032000D03*
X020260Y032000D03*
D20*
X018519Y026035D03*
X018362Y026035D03*
X018204Y026035D03*
X018047Y026035D03*
X017889Y026035D03*
X017732Y026035D03*
X017574Y026035D03*
X017417Y026035D03*
X017260Y026035D03*
X017102Y026035D03*
X016945Y026035D03*
X016787Y026035D03*
X016630Y026035D03*
X016472Y026035D03*
X016315Y026035D03*
X016157Y026035D03*
X016000Y026035D03*
X016000Y022965D03*
X016157Y022965D03*
X016315Y022965D03*
X016472Y022965D03*
X016630Y022965D03*
X016787Y022965D03*
X016945Y022965D03*
X017102Y022965D03*
X017260Y022965D03*
X017417Y022965D03*
X017574Y022965D03*
X017732Y022965D03*
X017889Y022965D03*
X018047Y022965D03*
X018204Y022965D03*
X018362Y022965D03*
X018519Y022965D03*
D21*
X018795Y023240D03*
X018795Y023398D03*
X018795Y023555D03*
X018795Y023713D03*
X018795Y023870D03*
X018795Y024028D03*
X018795Y024185D03*
X018795Y024343D03*
X018795Y024500D03*
X018795Y024657D03*
X018795Y024815D03*
X018795Y024972D03*
X018795Y025130D03*
X018795Y025287D03*
X018795Y025445D03*
X018795Y025602D03*
X018795Y025760D03*
X015724Y025760D03*
X015724Y025602D03*
X015724Y025445D03*
X015724Y025287D03*
X015724Y025130D03*
X015724Y024972D03*
X015724Y024815D03*
X015724Y024657D03*
X015724Y024500D03*
X015724Y024343D03*
X015724Y024185D03*
X015724Y024028D03*
X015724Y023870D03*
X015724Y023713D03*
X015724Y023555D03*
X015724Y023398D03*
X015724Y023240D03*
D22*
X017260Y024500D03*
D23*
X022760Y020500D03*
X019260Y019000D03*
D24*
X019760Y019000D03*
X020260Y019000D03*
X020760Y019000D03*
X021260Y019000D03*
X021260Y019500D03*
X020760Y019500D03*
X020260Y019500D03*
X019760Y019500D03*
X019260Y019500D03*
X022760Y019500D03*
X023260Y019500D03*
X023260Y019000D03*
X022760Y019000D03*
X022760Y018500D03*
X023260Y018500D03*
X023260Y020000D03*
X022760Y020000D03*
X023260Y020500D03*
D25*
X021621Y025834D02*
X021621Y026166D01*
X021621Y025834D02*
X021289Y025834D01*
X021289Y026166D01*
X021621Y026166D01*
X021621Y025975D02*
X021289Y025975D01*
X021289Y026116D02*
X021621Y026116D01*
X020930Y026166D02*
X020930Y025834D01*
X020598Y025834D01*
X020598Y026166D01*
X020930Y026166D01*
X020930Y025975D02*
X020598Y025975D01*
X020598Y026116D02*
X020930Y026116D01*
X024398Y028184D02*
X024398Y028516D01*
X024730Y028516D01*
X024730Y028184D01*
X024398Y028184D01*
X024398Y028325D02*
X024730Y028325D01*
X024730Y028466D02*
X024398Y028466D01*
X025089Y028516D02*
X025089Y028184D01*
X025089Y028516D02*
X025421Y028516D01*
X025421Y028184D01*
X025089Y028184D01*
X025089Y028325D02*
X025421Y028325D01*
X025421Y028466D02*
X025089Y028466D01*
D26*
X009860Y024250D03*
X007660Y024250D03*
X007660Y022750D03*
X009860Y022750D03*
X040160Y017750D03*
X042360Y017750D03*
X042360Y016250D03*
X040160Y016250D03*
X044660Y017250D03*
X044660Y018750D03*
X046860Y018750D03*
X046860Y017250D03*
D27*
X036994Y019500D03*
X036325Y019500D03*
X036325Y021500D03*
X036994Y021500D03*
X025244Y028850D03*
X024575Y028850D03*
X021444Y025350D03*
X020775Y025350D03*
X016244Y021900D03*
X015575Y021900D03*
X015575Y020100D03*
X016244Y020100D03*
X016244Y018900D03*
X015575Y018900D03*
X015575Y017100D03*
X016244Y017100D03*
D28*
X008073Y019988D03*
X008073Y020244D03*
X008073Y020500D03*
X008073Y020756D03*
X008073Y021012D03*
X008073Y025988D03*
X008073Y026244D03*
X008073Y026500D03*
X008073Y026756D03*
X008073Y027012D03*
D29*
X007876Y027248D03*
X007876Y025752D03*
X007876Y021248D03*
X007876Y019752D03*
D30*
X007010Y019050D03*
X007010Y021950D03*
X007010Y025050D03*
X007010Y027950D03*
D31*
X007010Y026500D03*
X007010Y020500D03*
D32*
X015248Y020626D03*
X015248Y021000D03*
X015248Y021374D03*
X016271Y021374D03*
X016271Y020626D03*
X016271Y018374D03*
X015248Y018374D03*
X015248Y018000D03*
X015248Y017626D03*
X016271Y017626D03*
D33*
X027510Y015500D03*
X028510Y015500D03*
X030260Y016000D03*
X032260Y016000D03*
X034010Y015500D03*
X035010Y015500D03*
D34*
X035660Y020000D03*
X035660Y021000D03*
D35*
X007260Y012500D03*
X007260Y031500D03*
X051260Y031500D03*
X051260Y012500D03*
D36*
X012010Y024450D03*
X010510Y024450D03*
X010510Y026650D03*
X012010Y026650D03*
D37*
X007260Y030000D03*
X051760Y014000D03*
M02*
