G75*
%MOIN*%
%OFA0B0*%
%FSLAX24Y24*%
%IPPOS*%
%LPD*%
%AMOC8*
5,1,8,0,0,1.08239X$1,22.5*
%
%ADD10C,0.0710*%
%ADD11C,0.1780*%
%ADD12C,0.0820*%
%ADD13R,0.0820X0.0820*%
%ADD14OC8,0.0820*%
%ADD15R,0.0490X0.0490*%
%ADD16C,0.0490*%
%ADD17C,0.0415*%
%ADD18C,0.0730*%
%ADD19C,0.0740*%
%ADD20C,0.1380*%
D10*
X009366Y030000D03*
X010153Y030000D03*
D11*
X010553Y015400D03*
X008191Y015400D03*
X009372Y013550D03*
D12*
X013260Y013500D03*
X014260Y013500D03*
X015260Y013500D03*
X015260Y015500D03*
X014260Y015500D03*
X013260Y015500D03*
X025260Y012500D03*
X026260Y012500D03*
X027260Y012500D03*
X028260Y012500D03*
X029260Y012500D03*
X030260Y012500D03*
X031260Y012500D03*
X034260Y012500D03*
X035260Y012500D03*
X036260Y012500D03*
X037260Y012500D03*
X038260Y012500D03*
X039260Y012500D03*
X041260Y012500D03*
X042260Y012500D03*
X043260Y012500D03*
X044260Y012500D03*
X045260Y012500D03*
X046260Y012500D03*
X047260Y012500D03*
X038260Y031500D03*
X037260Y031500D03*
X036260Y031500D03*
X035260Y031500D03*
X034260Y031500D03*
X033260Y031500D03*
X032260Y031500D03*
X030760Y031500D03*
X029760Y031500D03*
X028760Y031500D03*
X027760Y031500D03*
X026760Y031500D03*
X025760Y031500D03*
X024760Y031500D03*
X023760Y031500D03*
X022760Y031500D03*
X021760Y031500D03*
D13*
X039260Y031500D03*
X040260Y012500D03*
X032260Y012500D03*
D14*
X039760Y020500D03*
X040760Y020500D03*
X040760Y021500D03*
X040760Y022500D03*
X039760Y022500D03*
X039760Y021500D03*
X048260Y021500D03*
X049260Y021500D03*
X049260Y022500D03*
X048260Y022500D03*
X048260Y023500D03*
X049260Y023500D03*
X049260Y024500D03*
X048260Y024500D03*
X048260Y026500D03*
X049260Y026500D03*
X049260Y027500D03*
X048260Y027500D03*
X048260Y028500D03*
X049260Y028500D03*
X049260Y029500D03*
X048260Y029500D03*
X048260Y030500D03*
X049260Y030500D03*
X049260Y031500D03*
X048260Y031500D03*
X046260Y031500D03*
X045260Y031500D03*
X044260Y031500D03*
X043260Y031500D03*
X042260Y031500D03*
X041260Y031500D03*
X041260Y030500D03*
X042260Y030500D03*
X043260Y030500D03*
X044260Y030500D03*
X045260Y030500D03*
X046260Y030500D03*
X048260Y020500D03*
X049260Y020500D03*
X049260Y019500D03*
X048260Y019500D03*
X048260Y017500D03*
X049260Y017500D03*
X049260Y016500D03*
X048260Y016500D03*
X048260Y015500D03*
X049260Y015500D03*
X049260Y014500D03*
X048260Y014500D03*
X048260Y013500D03*
X049260Y013500D03*
X049260Y012500D03*
X048260Y012500D03*
X020260Y031000D03*
X019260Y031000D03*
X018260Y031000D03*
X017260Y031000D03*
X016260Y031000D03*
X015260Y031000D03*
X015260Y032000D03*
X016260Y032000D03*
X017260Y032000D03*
X018260Y032000D03*
X019260Y032000D03*
X020260Y032000D03*
D15*
X022760Y020500D03*
X019260Y019000D03*
D16*
X019760Y019000D03*
X020260Y019000D03*
X020760Y019000D03*
X021260Y019000D03*
X021260Y019500D03*
X020760Y019500D03*
X020260Y019500D03*
X019760Y019500D03*
X019260Y019500D03*
X022760Y019500D03*
X023260Y019500D03*
X023260Y019000D03*
X022760Y019000D03*
X022760Y018500D03*
X023260Y018500D03*
X023260Y020000D03*
X022760Y020000D03*
X023260Y020500D03*
D17*
X007876Y019752D03*
X007876Y021248D03*
X007876Y025752D03*
X007876Y027248D03*
D18*
X027510Y015500D03*
X028510Y015500D03*
X030260Y016000D03*
X032260Y016000D03*
X034010Y015500D03*
X035010Y015500D03*
D19*
X035660Y020000D03*
X035660Y021000D03*
D20*
X007260Y012500D03*
X007260Y031500D03*
X051260Y031500D03*
X051260Y012500D03*
M02*
