G75*
%MOIN*%
%OFA0B0*%
%FSLAX24Y24*%
%IPPOS*%
%LPD*%
%AMOC8*
5,1,8,0,0,1.08239X$1,22.5*
%
%ADD10R,0.0671X0.0186*%
%ADD11R,0.0186X0.0671*%
%ADD12R,0.0580X0.0659*%
%ADD13C,0.0710*%
%ADD14C,0.1740*%
%ADD15C,0.1700*%
%ADD16R,0.0330X0.0580*%
%ADD17R,0.0415X0.0434*%
%ADD18R,0.0434X0.0415*%
%ADD19C,0.0820*%
%ADD20R,0.0820X0.0820*%
%ADD21OC8,0.0820*%
%ADD22R,0.0159X0.0316*%
%ADD23R,0.0316X0.0159*%
%ADD24R,0.2324X0.2324*%
%ADD25R,0.0490X0.0490*%
%ADD26C,0.0490*%
%ADD27C,0.0142*%
%ADD28R,0.0680X0.0380*%
%ADD29R,0.0513X0.0474*%
%ADD30R,0.0631X0.0237*%
%ADD31C,0.0415*%
%ADD32R,0.0669X0.0787*%
%ADD33R,0.0669X0.1063*%
%ADD34R,0.0552X0.0297*%
%ADD35C,0.0730*%
%ADD36C,0.0740*%
%ADD37C,0.1380*%
%ADD38R,0.0380X0.0680*%
%ADD39C,0.0474*%
%ADD40R,0.0474X0.0513*%
%ADD41R,0.0395X0.0297*%
%ADD42C,0.0500*%
%ADD43C,0.0671*%
D10*
X025490Y010978D03*
X025490Y011175D03*
X025490Y011371D03*
X025490Y011568D03*
X025490Y011765D03*
X025490Y011962D03*
X025490Y012159D03*
X025490Y012356D03*
X025490Y012553D03*
X025490Y012749D03*
X025490Y012946D03*
X025490Y013143D03*
X025490Y013340D03*
X025490Y013537D03*
X025490Y013734D03*
X025490Y013931D03*
X025490Y014127D03*
X025490Y014324D03*
X025490Y014521D03*
X025490Y014718D03*
X025490Y014915D03*
X025490Y015112D03*
X025490Y015309D03*
X025490Y015505D03*
X025490Y015702D03*
X031790Y015702D03*
X031790Y015505D03*
X031790Y015309D03*
X031790Y015112D03*
X031790Y014915D03*
X031790Y014718D03*
X031790Y014521D03*
X031790Y014324D03*
X031790Y014127D03*
X031790Y013931D03*
X031790Y013734D03*
X031790Y013537D03*
X031790Y013340D03*
X031790Y013143D03*
X031790Y012946D03*
X031790Y012749D03*
X031790Y012553D03*
X031790Y012356D03*
X031790Y012159D03*
X031790Y011962D03*
X031790Y011765D03*
X031790Y011568D03*
X031790Y011371D03*
X031790Y011175D03*
X031790Y010978D03*
X031790Y032178D03*
X031790Y032375D03*
X031790Y032571D03*
X031790Y032768D03*
X031790Y032965D03*
X031790Y033162D03*
X031790Y033359D03*
X031790Y033556D03*
X031790Y033753D03*
X031790Y033949D03*
X031790Y034146D03*
X031790Y034343D03*
X031790Y034540D03*
X031790Y034737D03*
X031790Y034934D03*
X031790Y035131D03*
X031790Y035327D03*
X031790Y035524D03*
X031790Y035721D03*
X031790Y035918D03*
X031790Y036115D03*
X031790Y036312D03*
X031790Y036509D03*
X031790Y036705D03*
X031790Y036902D03*
X025490Y036902D03*
X025490Y036705D03*
X025490Y036509D03*
X025490Y036312D03*
X025490Y036115D03*
X025490Y035918D03*
X025490Y035721D03*
X025490Y035524D03*
X025490Y035327D03*
X025490Y035131D03*
X025490Y034934D03*
X025490Y034737D03*
X025490Y034540D03*
X025490Y034343D03*
X025490Y034146D03*
X025490Y033949D03*
X025490Y033753D03*
X025490Y033556D03*
X025490Y033359D03*
X025490Y033162D03*
X025490Y032965D03*
X025490Y032768D03*
X025490Y032571D03*
X025490Y032375D03*
X025490Y032178D03*
X025490Y053378D03*
X025490Y053575D03*
X025490Y053771D03*
X025490Y053968D03*
X025490Y054165D03*
X025490Y054362D03*
X025490Y054559D03*
X025490Y054756D03*
X025490Y054953D03*
X025490Y055149D03*
X025490Y055346D03*
X025490Y055543D03*
X025490Y055740D03*
X025490Y055937D03*
X025490Y056134D03*
X025490Y056331D03*
X025490Y056527D03*
X025490Y056724D03*
X025490Y056921D03*
X025490Y057118D03*
X025490Y057315D03*
X025490Y057512D03*
X025490Y057709D03*
X025490Y057905D03*
X025490Y058102D03*
X031790Y058102D03*
X031790Y057905D03*
X031790Y057709D03*
X031790Y057512D03*
X031790Y057315D03*
X031790Y057118D03*
X031790Y056921D03*
X031790Y056724D03*
X031790Y056527D03*
X031790Y056331D03*
X031790Y056134D03*
X031790Y055937D03*
X031790Y055740D03*
X031790Y055543D03*
X031790Y055346D03*
X031790Y055149D03*
X031790Y054953D03*
X031790Y054756D03*
X031790Y054559D03*
X031790Y054362D03*
X031790Y054165D03*
X031790Y053968D03*
X031790Y053771D03*
X031790Y053575D03*
X031790Y053378D03*
X073490Y053378D03*
X073490Y053575D03*
X073490Y053771D03*
X073490Y053968D03*
X073490Y054165D03*
X073490Y054362D03*
X073490Y054559D03*
X073490Y054756D03*
X073490Y054953D03*
X073490Y055149D03*
X073490Y055346D03*
X073490Y055543D03*
X073490Y055740D03*
X073490Y055937D03*
X073490Y056134D03*
X073490Y056331D03*
X073490Y056527D03*
X073490Y056724D03*
X073490Y056921D03*
X073490Y057118D03*
X073490Y057315D03*
X073490Y057512D03*
X073490Y057709D03*
X073490Y057905D03*
X073490Y058102D03*
X079790Y058102D03*
X079790Y057905D03*
X079790Y057709D03*
X079790Y057512D03*
X079790Y057315D03*
X079790Y057118D03*
X079790Y056921D03*
X079790Y056724D03*
X079790Y056527D03*
X079790Y056331D03*
X079790Y056134D03*
X079790Y055937D03*
X079790Y055740D03*
X079790Y055543D03*
X079790Y055346D03*
X079790Y055149D03*
X079790Y054953D03*
X079790Y054756D03*
X079790Y054559D03*
X079790Y054362D03*
X079790Y054165D03*
X079790Y053968D03*
X079790Y053771D03*
X079790Y053575D03*
X079790Y053378D03*
X079790Y036902D03*
X079790Y036705D03*
X079790Y036509D03*
X079790Y036312D03*
X079790Y036115D03*
X079790Y035918D03*
X079790Y035721D03*
X079790Y035524D03*
X079790Y035327D03*
X079790Y035131D03*
X079790Y034934D03*
X079790Y034737D03*
X079790Y034540D03*
X079790Y034343D03*
X079790Y034146D03*
X079790Y033949D03*
X079790Y033753D03*
X079790Y033556D03*
X079790Y033359D03*
X079790Y033162D03*
X079790Y032965D03*
X079790Y032768D03*
X079790Y032571D03*
X079790Y032375D03*
X079790Y032178D03*
X073490Y032178D03*
X073490Y032375D03*
X073490Y032571D03*
X073490Y032768D03*
X073490Y032965D03*
X073490Y033162D03*
X073490Y033359D03*
X073490Y033556D03*
X073490Y033753D03*
X073490Y033949D03*
X073490Y034146D03*
X073490Y034343D03*
X073490Y034540D03*
X073490Y034737D03*
X073490Y034934D03*
X073490Y035131D03*
X073490Y035327D03*
X073490Y035524D03*
X073490Y035721D03*
X073490Y035918D03*
X073490Y036115D03*
X073490Y036312D03*
X073490Y036509D03*
X073490Y036705D03*
X073490Y036902D03*
X073490Y015702D03*
X073490Y015505D03*
X073490Y015309D03*
X073490Y015112D03*
X073490Y014915D03*
X073490Y014718D03*
X073490Y014521D03*
X073490Y014324D03*
X073490Y014127D03*
X073490Y013931D03*
X073490Y013734D03*
X073490Y013537D03*
X073490Y013340D03*
X073490Y013143D03*
X073490Y012946D03*
X073490Y012749D03*
X073490Y012553D03*
X073490Y012356D03*
X073490Y012159D03*
X073490Y011962D03*
X073490Y011765D03*
X073490Y011568D03*
X073490Y011371D03*
X073490Y011175D03*
X073490Y010978D03*
X079790Y010978D03*
X079790Y011175D03*
X079790Y011371D03*
X079790Y011568D03*
X079790Y011765D03*
X079790Y011962D03*
X079790Y012159D03*
X079790Y012356D03*
X079790Y012553D03*
X079790Y012749D03*
X079790Y012946D03*
X079790Y013143D03*
X079790Y013340D03*
X079790Y013537D03*
X079790Y013734D03*
X079790Y013931D03*
X079790Y014127D03*
X079790Y014324D03*
X079790Y014521D03*
X079790Y014718D03*
X079790Y014915D03*
X079790Y015112D03*
X079790Y015309D03*
X079790Y015505D03*
X079790Y015702D03*
D11*
X079002Y016490D03*
X078805Y016490D03*
X078609Y016490D03*
X078412Y016490D03*
X078215Y016490D03*
X078018Y016490D03*
X077821Y016490D03*
X077624Y016490D03*
X077427Y016490D03*
X077231Y016490D03*
X077034Y016490D03*
X076837Y016490D03*
X076640Y016490D03*
X076443Y016490D03*
X076246Y016490D03*
X076049Y016490D03*
X075853Y016490D03*
X075656Y016490D03*
X075459Y016490D03*
X075262Y016490D03*
X075065Y016490D03*
X074868Y016490D03*
X074671Y016490D03*
X074475Y016490D03*
X074278Y016490D03*
X074278Y010190D03*
X074475Y010190D03*
X074671Y010190D03*
X074868Y010190D03*
X075065Y010190D03*
X075262Y010190D03*
X075459Y010190D03*
X075656Y010190D03*
X075853Y010190D03*
X076049Y010190D03*
X076246Y010190D03*
X076443Y010190D03*
X076640Y010190D03*
X076837Y010190D03*
X077034Y010190D03*
X077231Y010190D03*
X077427Y010190D03*
X077624Y010190D03*
X077821Y010190D03*
X078018Y010190D03*
X078215Y010190D03*
X078412Y010190D03*
X078609Y010190D03*
X078805Y010190D03*
X079002Y010190D03*
X079002Y031390D03*
X078805Y031390D03*
X078609Y031390D03*
X078412Y031390D03*
X078215Y031390D03*
X078018Y031390D03*
X077821Y031390D03*
X077624Y031390D03*
X077427Y031390D03*
X077231Y031390D03*
X077034Y031390D03*
X076837Y031390D03*
X076640Y031390D03*
X076443Y031390D03*
X076246Y031390D03*
X076049Y031390D03*
X075853Y031390D03*
X075656Y031390D03*
X075459Y031390D03*
X075262Y031390D03*
X075065Y031390D03*
X074868Y031390D03*
X074671Y031390D03*
X074475Y031390D03*
X074278Y031390D03*
X074278Y037690D03*
X074475Y037690D03*
X074671Y037690D03*
X074868Y037690D03*
X075065Y037690D03*
X075262Y037690D03*
X075459Y037690D03*
X075656Y037690D03*
X075853Y037690D03*
X076049Y037690D03*
X076246Y037690D03*
X076443Y037690D03*
X076640Y037690D03*
X076837Y037690D03*
X077034Y037690D03*
X077231Y037690D03*
X077427Y037690D03*
X077624Y037690D03*
X077821Y037690D03*
X078018Y037690D03*
X078215Y037690D03*
X078412Y037690D03*
X078609Y037690D03*
X078805Y037690D03*
X079002Y037690D03*
X079002Y052590D03*
X078805Y052590D03*
X078609Y052590D03*
X078412Y052590D03*
X078215Y052590D03*
X078018Y052590D03*
X077821Y052590D03*
X077624Y052590D03*
X077427Y052590D03*
X077231Y052590D03*
X077034Y052590D03*
X076837Y052590D03*
X076640Y052590D03*
X076443Y052590D03*
X076246Y052590D03*
X076049Y052590D03*
X075853Y052590D03*
X075656Y052590D03*
X075459Y052590D03*
X075262Y052590D03*
X075065Y052590D03*
X074868Y052590D03*
X074671Y052590D03*
X074475Y052590D03*
X074278Y052590D03*
X074278Y058890D03*
X074475Y058890D03*
X074671Y058890D03*
X074868Y058890D03*
X075065Y058890D03*
X075262Y058890D03*
X075459Y058890D03*
X075656Y058890D03*
X075853Y058890D03*
X076049Y058890D03*
X076246Y058890D03*
X076443Y058890D03*
X076640Y058890D03*
X076837Y058890D03*
X077034Y058890D03*
X077231Y058890D03*
X077427Y058890D03*
X077624Y058890D03*
X077821Y058890D03*
X078018Y058890D03*
X078215Y058890D03*
X078412Y058890D03*
X078609Y058890D03*
X078805Y058890D03*
X079002Y058890D03*
X031002Y058890D03*
X030805Y058890D03*
X030609Y058890D03*
X030412Y058890D03*
X030215Y058890D03*
X030018Y058890D03*
X029821Y058890D03*
X029624Y058890D03*
X029427Y058890D03*
X029231Y058890D03*
X029034Y058890D03*
X028837Y058890D03*
X028640Y058890D03*
X028443Y058890D03*
X028246Y058890D03*
X028049Y058890D03*
X027853Y058890D03*
X027656Y058890D03*
X027459Y058890D03*
X027262Y058890D03*
X027065Y058890D03*
X026868Y058890D03*
X026671Y058890D03*
X026475Y058890D03*
X026278Y058890D03*
X026278Y052590D03*
X026475Y052590D03*
X026671Y052590D03*
X026868Y052590D03*
X027065Y052590D03*
X027262Y052590D03*
X027459Y052590D03*
X027656Y052590D03*
X027853Y052590D03*
X028049Y052590D03*
X028246Y052590D03*
X028443Y052590D03*
X028640Y052590D03*
X028837Y052590D03*
X029034Y052590D03*
X029231Y052590D03*
X029427Y052590D03*
X029624Y052590D03*
X029821Y052590D03*
X030018Y052590D03*
X030215Y052590D03*
X030412Y052590D03*
X030609Y052590D03*
X030805Y052590D03*
X031002Y052590D03*
X031002Y037690D03*
X030805Y037690D03*
X030609Y037690D03*
X030412Y037690D03*
X030215Y037690D03*
X030018Y037690D03*
X029821Y037690D03*
X029624Y037690D03*
X029427Y037690D03*
X029231Y037690D03*
X029034Y037690D03*
X028837Y037690D03*
X028640Y037690D03*
X028443Y037690D03*
X028246Y037690D03*
X028049Y037690D03*
X027853Y037690D03*
X027656Y037690D03*
X027459Y037690D03*
X027262Y037690D03*
X027065Y037690D03*
X026868Y037690D03*
X026671Y037690D03*
X026475Y037690D03*
X026278Y037690D03*
X026278Y031390D03*
X026475Y031390D03*
X026671Y031390D03*
X026868Y031390D03*
X027065Y031390D03*
X027262Y031390D03*
X027459Y031390D03*
X027656Y031390D03*
X027853Y031390D03*
X028049Y031390D03*
X028246Y031390D03*
X028443Y031390D03*
X028640Y031390D03*
X028837Y031390D03*
X029034Y031390D03*
X029231Y031390D03*
X029427Y031390D03*
X029624Y031390D03*
X029821Y031390D03*
X030018Y031390D03*
X030215Y031390D03*
X030412Y031390D03*
X030609Y031390D03*
X030805Y031390D03*
X031002Y031390D03*
X031002Y016490D03*
X030805Y016490D03*
X030609Y016490D03*
X030412Y016490D03*
X030215Y016490D03*
X030018Y016490D03*
X029821Y016490D03*
X029624Y016490D03*
X029427Y016490D03*
X029231Y016490D03*
X029034Y016490D03*
X028837Y016490D03*
X028640Y016490D03*
X028443Y016490D03*
X028246Y016490D03*
X028049Y016490D03*
X027853Y016490D03*
X027656Y016490D03*
X027459Y016490D03*
X027262Y016490D03*
X027065Y016490D03*
X026868Y016490D03*
X026671Y016490D03*
X026475Y016490D03*
X026278Y016490D03*
X026278Y010190D03*
X026475Y010190D03*
X026671Y010190D03*
X026868Y010190D03*
X027065Y010190D03*
X027262Y010190D03*
X027459Y010190D03*
X027656Y010190D03*
X027853Y010190D03*
X028049Y010190D03*
X028246Y010190D03*
X028443Y010190D03*
X028640Y010190D03*
X028837Y010190D03*
X029034Y010190D03*
X029231Y010190D03*
X029427Y010190D03*
X029624Y010190D03*
X029821Y010190D03*
X030018Y010190D03*
X030215Y010190D03*
X030412Y010190D03*
X030609Y010190D03*
X030805Y010190D03*
X031002Y010190D03*
D12*
X011636Y022190D03*
X009944Y022190D03*
X009294Y019340D03*
X010986Y019340D03*
X010986Y012540D03*
X009294Y012540D03*
X009986Y009840D03*
X008294Y009840D03*
X008294Y031040D03*
X009986Y031040D03*
X009294Y033740D03*
X010986Y033740D03*
X010986Y040540D03*
X009294Y040540D03*
X009944Y043390D03*
X011636Y043390D03*
X009986Y052240D03*
X008294Y052240D03*
X009294Y054940D03*
X010986Y054940D03*
X010986Y061740D03*
X009294Y061740D03*
X009944Y064590D03*
X011636Y064590D03*
X056294Y052240D03*
X057986Y052240D03*
X057294Y054940D03*
X058986Y054940D03*
X058986Y061740D03*
X057294Y061740D03*
X057944Y064590D03*
X059636Y064590D03*
X059636Y043390D03*
X057944Y043390D03*
X057294Y040540D03*
X058986Y040540D03*
X058986Y033740D03*
X057294Y033740D03*
X057986Y031040D03*
X056294Y031040D03*
X057944Y022190D03*
X059636Y022190D03*
X058986Y019340D03*
X057294Y019340D03*
X057294Y012540D03*
X058986Y012540D03*
X057986Y009840D03*
X056294Y009840D03*
D13*
X056534Y021340D03*
X055746Y021340D03*
X055746Y042540D03*
X056534Y042540D03*
X056534Y063740D03*
X055746Y063740D03*
X008534Y063740D03*
X007746Y063740D03*
X007746Y042540D03*
X008534Y042540D03*
X008534Y021340D03*
X007746Y021340D03*
D14*
X009004Y027940D03*
X009004Y006740D03*
X057004Y006740D03*
X057004Y027940D03*
X057004Y049140D03*
X009004Y049140D03*
D15*
X006121Y049130D03*
X007753Y047659D03*
X006121Y027930D03*
X007753Y026459D03*
X006121Y006730D03*
X007753Y005259D03*
X054121Y006730D03*
X055753Y005259D03*
X055753Y026459D03*
X054121Y027930D03*
X055753Y047659D03*
X054121Y049130D03*
D16*
X059632Y052740D03*
X059952Y052740D03*
X069463Y061740D03*
X069817Y061740D03*
X069817Y062490D03*
X069463Y062490D03*
X079513Y059440D03*
X079867Y059440D03*
X081213Y058390D03*
X081567Y058390D03*
X081663Y059340D03*
X082017Y059340D03*
X058967Y063440D03*
X058613Y063440D03*
X034017Y059340D03*
X033663Y059340D03*
X033567Y058390D03*
X033213Y058390D03*
X031867Y059440D03*
X031513Y059440D03*
X021817Y061740D03*
X021463Y061740D03*
X021463Y062490D03*
X021817Y062490D03*
X010967Y063440D03*
X010613Y063440D03*
X011632Y052740D03*
X011952Y052740D03*
X010967Y042240D03*
X010613Y042240D03*
X021463Y041290D03*
X021817Y041290D03*
X021817Y040540D03*
X021463Y040540D03*
X031513Y038240D03*
X031867Y038240D03*
X033213Y037190D03*
X033567Y037190D03*
X033663Y038140D03*
X034017Y038140D03*
X011952Y031540D03*
X011632Y031540D03*
X010967Y021040D03*
X010613Y021040D03*
X021463Y020090D03*
X021817Y020090D03*
X021817Y019340D03*
X021463Y019340D03*
X031513Y017040D03*
X031867Y017040D03*
X033213Y015990D03*
X033567Y015990D03*
X033663Y016940D03*
X034017Y016940D03*
X011952Y010340D03*
X011632Y010340D03*
X058613Y021040D03*
X058967Y021040D03*
X069463Y020090D03*
X069817Y020090D03*
X069817Y019340D03*
X069463Y019340D03*
X079513Y017040D03*
X079867Y017040D03*
X081213Y015990D03*
X081567Y015990D03*
X081663Y016940D03*
X082017Y016940D03*
X059952Y010340D03*
X059632Y010340D03*
X059632Y031540D03*
X059952Y031540D03*
X069463Y040540D03*
X069817Y040540D03*
X069817Y041290D03*
X069463Y041290D03*
X079513Y038240D03*
X079867Y038240D03*
X081213Y037190D03*
X081567Y037190D03*
X081663Y038140D03*
X082017Y038140D03*
X058967Y042240D03*
X058613Y042240D03*
D17*
X061212Y039740D03*
X061212Y039290D03*
X061212Y038840D03*
X061668Y038840D03*
X061668Y039290D03*
X061668Y039740D03*
X061168Y038240D03*
X060712Y038240D03*
X060662Y037240D03*
X060662Y036790D03*
X061118Y036790D03*
X061118Y037240D03*
X061162Y035440D03*
X061618Y035440D03*
X065262Y035040D03*
X065718Y035040D03*
X066562Y035890D03*
X066562Y036340D03*
X066618Y036790D03*
X066618Y037240D03*
X066162Y037240D03*
X066162Y036790D03*
X067018Y036340D03*
X067018Y035890D03*
X071412Y034040D03*
X071868Y034040D03*
X073362Y038240D03*
X073818Y038240D03*
X076362Y039390D03*
X076818Y039390D03*
X076818Y039890D03*
X076362Y039890D03*
X079462Y037690D03*
X079918Y037690D03*
X080262Y038240D03*
X080718Y038240D03*
X082012Y037190D03*
X082468Y037190D03*
X082462Y038140D03*
X082918Y038140D03*
X081368Y035390D03*
X080912Y035390D03*
X080912Y034890D03*
X081368Y034890D03*
X081368Y034340D03*
X080912Y034340D03*
X080118Y031540D03*
X079662Y031540D03*
X076968Y029740D03*
X076512Y029740D03*
X076418Y030190D03*
X075962Y030190D03*
X074868Y029290D03*
X074412Y029290D03*
X074412Y028790D03*
X074868Y028790D03*
X076362Y018690D03*
X076818Y018690D03*
X076818Y018190D03*
X076362Y018190D03*
X073818Y017040D03*
X073362Y017040D03*
X071868Y012840D03*
X071412Y012840D03*
X067018Y014690D03*
X067018Y015140D03*
X066562Y015140D03*
X066562Y014690D03*
X066618Y015590D03*
X066618Y016040D03*
X066162Y016040D03*
X066162Y015590D03*
X065718Y013840D03*
X065262Y013840D03*
X061618Y014240D03*
X061162Y014240D03*
X061118Y015590D03*
X061118Y016040D03*
X060662Y016040D03*
X060662Y015590D03*
X060712Y017040D03*
X061168Y017040D03*
X061212Y017640D03*
X061212Y018090D03*
X061212Y018540D03*
X061668Y018540D03*
X061668Y018090D03*
X061668Y017640D03*
X063262Y018640D03*
X063262Y019090D03*
X063718Y019090D03*
X063718Y018640D03*
X064162Y018640D03*
X064618Y018640D03*
X065312Y017690D03*
X065768Y017690D03*
X075962Y008990D03*
X076418Y008990D03*
X076512Y008540D03*
X076968Y008540D03*
X074868Y008090D03*
X074412Y008090D03*
X074412Y007590D03*
X074868Y007590D03*
X079662Y010340D03*
X080118Y010340D03*
X080912Y013140D03*
X081368Y013140D03*
X081368Y013690D03*
X080912Y013690D03*
X080912Y014190D03*
X081368Y014190D03*
X082012Y015990D03*
X082468Y015990D03*
X082462Y016940D03*
X082918Y016940D03*
X080718Y017040D03*
X080262Y017040D03*
X079918Y016490D03*
X079462Y016490D03*
X065768Y038890D03*
X065312Y038890D03*
X064618Y039840D03*
X064162Y039840D03*
X063718Y039840D03*
X063718Y040290D03*
X063262Y040290D03*
X063262Y039840D03*
X074412Y049990D03*
X074868Y049990D03*
X074868Y050490D03*
X074412Y050490D03*
X075962Y051390D03*
X076418Y051390D03*
X076512Y050940D03*
X076968Y050940D03*
X079662Y052740D03*
X080118Y052740D03*
X080912Y055540D03*
X081368Y055540D03*
X081368Y056090D03*
X080912Y056090D03*
X080912Y056590D03*
X081368Y056590D03*
X082012Y058390D03*
X082468Y058390D03*
X082462Y059340D03*
X082918Y059340D03*
X080718Y059440D03*
X080262Y059440D03*
X079918Y058890D03*
X079462Y058890D03*
X076818Y060590D03*
X076362Y060590D03*
X076362Y061090D03*
X076818Y061090D03*
X073818Y059440D03*
X073362Y059440D03*
X067018Y057540D03*
X067018Y057090D03*
X066562Y057090D03*
X066562Y057540D03*
X066618Y057990D03*
X066618Y058440D03*
X066162Y058440D03*
X066162Y057990D03*
X065718Y056240D03*
X065262Y056240D03*
X061618Y056640D03*
X061162Y056640D03*
X061118Y057990D03*
X061118Y058440D03*
X060662Y058440D03*
X060662Y057990D03*
X060712Y059440D03*
X061168Y059440D03*
X061212Y060040D03*
X061212Y060490D03*
X061212Y060940D03*
X061668Y060940D03*
X061668Y060490D03*
X061668Y060040D03*
X063262Y061040D03*
X063262Y061490D03*
X063718Y061490D03*
X063718Y061040D03*
X064162Y061040D03*
X064618Y061040D03*
X065312Y060090D03*
X065768Y060090D03*
X071412Y055240D03*
X071868Y055240D03*
X034918Y059340D03*
X034462Y059340D03*
X034468Y058390D03*
X034012Y058390D03*
X032718Y059440D03*
X032262Y059440D03*
X031918Y058890D03*
X031462Y058890D03*
X028818Y060590D03*
X028362Y060590D03*
X028362Y061090D03*
X028818Y061090D03*
X025818Y059440D03*
X025362Y059440D03*
X019018Y057540D03*
X019018Y057090D03*
X018562Y057090D03*
X018562Y057540D03*
X018618Y057990D03*
X018618Y058440D03*
X018162Y058440D03*
X018162Y057990D03*
X017718Y056240D03*
X017262Y056240D03*
X013618Y056640D03*
X013162Y056640D03*
X013118Y057990D03*
X013118Y058440D03*
X012662Y058440D03*
X012662Y057990D03*
X012712Y059440D03*
X013168Y059440D03*
X013212Y060040D03*
X013212Y060490D03*
X013212Y060940D03*
X013668Y060940D03*
X013668Y060490D03*
X013668Y060040D03*
X015262Y061040D03*
X015262Y061490D03*
X015718Y061490D03*
X015718Y061040D03*
X016162Y061040D03*
X016618Y061040D03*
X017312Y060090D03*
X017768Y060090D03*
X023412Y055240D03*
X023868Y055240D03*
X027962Y051390D03*
X028418Y051390D03*
X028512Y050940D03*
X028968Y050940D03*
X026868Y050490D03*
X026412Y050490D03*
X026412Y049990D03*
X026868Y049990D03*
X031662Y052740D03*
X032118Y052740D03*
X032912Y055540D03*
X033368Y055540D03*
X033368Y056090D03*
X032912Y056090D03*
X032912Y056590D03*
X033368Y056590D03*
X015718Y040290D03*
X015718Y039840D03*
X016162Y039840D03*
X016618Y039840D03*
X017312Y038890D03*
X017768Y038890D03*
X015262Y039840D03*
X015262Y040290D03*
X013668Y039740D03*
X013668Y039290D03*
X013668Y038840D03*
X013212Y038840D03*
X013212Y039290D03*
X013212Y039740D03*
X013168Y038240D03*
X012712Y038240D03*
X012662Y037240D03*
X012662Y036790D03*
X013118Y036790D03*
X013118Y037240D03*
X013162Y035440D03*
X013618Y035440D03*
X017262Y035040D03*
X017718Y035040D03*
X018562Y035890D03*
X018562Y036340D03*
X018618Y036790D03*
X018618Y037240D03*
X018162Y037240D03*
X018162Y036790D03*
X019018Y036340D03*
X019018Y035890D03*
X023412Y034040D03*
X023868Y034040D03*
X025362Y038240D03*
X025818Y038240D03*
X028362Y039390D03*
X028818Y039390D03*
X028818Y039890D03*
X028362Y039890D03*
X031462Y037690D03*
X031918Y037690D03*
X032262Y038240D03*
X032718Y038240D03*
X034462Y038140D03*
X034918Y038140D03*
X034468Y037190D03*
X034012Y037190D03*
X033368Y035390D03*
X032912Y035390D03*
X032912Y034890D03*
X033368Y034890D03*
X033368Y034340D03*
X032912Y034340D03*
X032118Y031540D03*
X031662Y031540D03*
X028968Y029740D03*
X028512Y029740D03*
X028418Y030190D03*
X027962Y030190D03*
X026868Y029290D03*
X026412Y029290D03*
X026412Y028790D03*
X026868Y028790D03*
X028362Y018690D03*
X028818Y018690D03*
X028818Y018190D03*
X028362Y018190D03*
X025818Y017040D03*
X025362Y017040D03*
X023868Y012840D03*
X023412Y012840D03*
X019018Y014690D03*
X019018Y015140D03*
X018562Y015140D03*
X018562Y014690D03*
X018618Y015590D03*
X018618Y016040D03*
X018162Y016040D03*
X018162Y015590D03*
X017718Y013840D03*
X017262Y013840D03*
X013618Y014240D03*
X013162Y014240D03*
X013118Y015590D03*
X013118Y016040D03*
X012662Y016040D03*
X012662Y015590D03*
X012712Y017040D03*
X013168Y017040D03*
X013212Y017640D03*
X013212Y018090D03*
X013212Y018540D03*
X013668Y018540D03*
X013668Y018090D03*
X013668Y017640D03*
X015262Y018640D03*
X015262Y019090D03*
X015718Y019090D03*
X015718Y018640D03*
X016162Y018640D03*
X016618Y018640D03*
X017312Y017690D03*
X017768Y017690D03*
X027962Y008990D03*
X028418Y008990D03*
X028512Y008540D03*
X028968Y008540D03*
X026868Y008090D03*
X026412Y008090D03*
X026412Y007590D03*
X026868Y007590D03*
X031662Y010340D03*
X032118Y010340D03*
X032912Y013140D03*
X033368Y013140D03*
X033368Y013690D03*
X032912Y013690D03*
X032912Y014190D03*
X033368Y014190D03*
X034012Y015990D03*
X034468Y015990D03*
X034462Y016940D03*
X034918Y016940D03*
X032718Y017040D03*
X032262Y017040D03*
X031918Y016490D03*
X031462Y016490D03*
D18*
X025640Y010268D03*
X025640Y009812D03*
X016640Y009912D03*
X016640Y010368D03*
X025640Y031012D03*
X025640Y031468D03*
X016640Y031568D03*
X016640Y031112D03*
X016640Y052312D03*
X016640Y052768D03*
X025640Y052668D03*
X025640Y052212D03*
X064640Y052312D03*
X064640Y052768D03*
X073640Y052668D03*
X073640Y052212D03*
X073640Y031468D03*
X073640Y031012D03*
X064640Y031112D03*
X064640Y031568D03*
X064640Y010368D03*
X064640Y009912D03*
X073640Y009812D03*
X073640Y010268D03*
D19*
X073640Y003890D03*
X072640Y003790D03*
X071640Y003890D03*
X074640Y003790D03*
X075640Y003890D03*
X076640Y003790D03*
X077640Y003890D03*
X080640Y003840D03*
X081640Y003740D03*
X082640Y003840D03*
X083640Y003740D03*
X084640Y003840D03*
X085640Y003740D03*
X087640Y003790D03*
X088640Y003890D03*
X089640Y003790D03*
X090640Y003890D03*
X091640Y003790D03*
X092640Y003890D03*
X093640Y003790D03*
X083640Y022790D03*
X082640Y022890D03*
X081640Y022790D03*
X080640Y022890D03*
X079640Y022790D03*
X078640Y022890D03*
X077140Y022790D03*
X076140Y022890D03*
X075140Y022790D03*
X074140Y022890D03*
X073140Y022790D03*
X072140Y022890D03*
X071140Y022790D03*
X070140Y022890D03*
X069140Y022790D03*
X068140Y022890D03*
X071640Y025090D03*
X072640Y024990D03*
X073640Y025090D03*
X074640Y024990D03*
X075640Y025090D03*
X076640Y024990D03*
X077640Y025090D03*
X080640Y025040D03*
X081640Y024940D03*
X082640Y025040D03*
X083640Y024940D03*
X084640Y025040D03*
X085640Y024940D03*
X087640Y024990D03*
X088640Y025090D03*
X089640Y024990D03*
X090640Y025090D03*
X091640Y024990D03*
X092640Y025090D03*
X093640Y024990D03*
X084640Y022890D03*
X061710Y026040D03*
X060640Y026040D03*
X059570Y026040D03*
X059570Y028040D03*
X060640Y028040D03*
X061710Y028040D03*
X045640Y024990D03*
X044640Y025090D03*
X043640Y024990D03*
X042640Y025090D03*
X041640Y024990D03*
X040640Y025090D03*
X039640Y024990D03*
X037640Y024940D03*
X036640Y025040D03*
X035640Y024940D03*
X034640Y025040D03*
X033640Y024940D03*
X032640Y025040D03*
X032640Y022890D03*
X031640Y022790D03*
X030640Y022890D03*
X029140Y022790D03*
X028140Y022890D03*
X027140Y022790D03*
X026140Y022890D03*
X025140Y022790D03*
X024140Y022890D03*
X023140Y022790D03*
X022140Y022890D03*
X021140Y022790D03*
X020140Y022890D03*
X023640Y025090D03*
X024640Y024990D03*
X025640Y025090D03*
X026640Y024990D03*
X027640Y025090D03*
X028640Y024990D03*
X029640Y025090D03*
X033640Y022790D03*
X034640Y022890D03*
X035640Y022790D03*
X036640Y022890D03*
X013710Y026040D03*
X012640Y026040D03*
X011570Y026040D03*
X011570Y028040D03*
X012640Y028040D03*
X013710Y028040D03*
X020140Y044090D03*
X021140Y043990D03*
X022140Y044090D03*
X023140Y043990D03*
X024140Y044090D03*
X025140Y043990D03*
X026140Y044090D03*
X027140Y043990D03*
X028140Y044090D03*
X029140Y043990D03*
X030640Y044090D03*
X031640Y043990D03*
X032640Y044090D03*
X033640Y043990D03*
X034640Y044090D03*
X035640Y043990D03*
X036640Y044090D03*
X036640Y046240D03*
X035640Y046140D03*
X034640Y046240D03*
X033640Y046140D03*
X032640Y046240D03*
X029640Y046290D03*
X028640Y046190D03*
X027640Y046290D03*
X026640Y046190D03*
X025640Y046290D03*
X024640Y046190D03*
X023640Y046290D03*
X013710Y047240D03*
X012640Y047240D03*
X011570Y047240D03*
X011570Y049240D03*
X012640Y049240D03*
X013710Y049240D03*
X020140Y065290D03*
X021140Y065190D03*
X022140Y065290D03*
X023140Y065190D03*
X024140Y065290D03*
X025140Y065190D03*
X026140Y065290D03*
X027140Y065190D03*
X028140Y065290D03*
X029140Y065190D03*
X030640Y065290D03*
X031640Y065190D03*
X032640Y065290D03*
X033640Y065190D03*
X034640Y065290D03*
X035640Y065190D03*
X036640Y065290D03*
X059570Y049240D03*
X060640Y049240D03*
X061710Y049240D03*
X061710Y047240D03*
X060640Y047240D03*
X059570Y047240D03*
X068140Y044090D03*
X069140Y043990D03*
X070140Y044090D03*
X071140Y043990D03*
X072140Y044090D03*
X073140Y043990D03*
X074140Y044090D03*
X075140Y043990D03*
X076140Y044090D03*
X077140Y043990D03*
X078640Y044090D03*
X079640Y043990D03*
X080640Y044090D03*
X081640Y043990D03*
X082640Y044090D03*
X083640Y043990D03*
X084640Y044090D03*
X084640Y046240D03*
X083640Y046140D03*
X082640Y046240D03*
X081640Y046140D03*
X080640Y046240D03*
X077640Y046290D03*
X076640Y046190D03*
X075640Y046290D03*
X074640Y046190D03*
X073640Y046290D03*
X072640Y046190D03*
X071640Y046290D03*
X085640Y046140D03*
X087640Y046190D03*
X088640Y046290D03*
X089640Y046190D03*
X090640Y046290D03*
X091640Y046190D03*
X092640Y046290D03*
X093640Y046190D03*
X084640Y065290D03*
X083640Y065190D03*
X082640Y065290D03*
X081640Y065190D03*
X080640Y065290D03*
X079640Y065190D03*
X078640Y065290D03*
X077140Y065190D03*
X076140Y065290D03*
X075140Y065190D03*
X074140Y065290D03*
X073140Y065190D03*
X072140Y065290D03*
X071140Y065190D03*
X070140Y065290D03*
X069140Y065190D03*
X068140Y065290D03*
X044640Y046290D03*
X043640Y046190D03*
X042640Y046290D03*
X041640Y046190D03*
X040640Y046290D03*
X039640Y046190D03*
X037640Y046140D03*
X045640Y046190D03*
X059570Y006840D03*
X060640Y006840D03*
X061710Y006840D03*
X061710Y004840D03*
X060640Y004840D03*
X059570Y004840D03*
X045640Y003790D03*
X044640Y003890D03*
X043640Y003790D03*
X042640Y003890D03*
X041640Y003790D03*
X040640Y003890D03*
X039640Y003790D03*
X037640Y003740D03*
X036640Y003840D03*
X035640Y003740D03*
X034640Y003840D03*
X033640Y003740D03*
X032640Y003840D03*
X029640Y003890D03*
X028640Y003790D03*
X027640Y003890D03*
X026640Y003790D03*
X025640Y003890D03*
X024640Y003790D03*
X023640Y003890D03*
X013710Y004840D03*
X012640Y004840D03*
X011570Y004840D03*
X011570Y006840D03*
X012640Y006840D03*
X013710Y006840D03*
D20*
X030640Y003790D03*
X038640Y003890D03*
X037640Y022790D03*
X038640Y025090D03*
X030640Y024990D03*
X037640Y043990D03*
X038640Y046290D03*
X030640Y046190D03*
X037640Y065190D03*
X078640Y046190D03*
X085640Y043990D03*
X086640Y046290D03*
X085640Y065190D03*
X086640Y025090D03*
X085640Y022790D03*
X078640Y024990D03*
X078640Y003790D03*
X086640Y003890D03*
D21*
X094640Y003840D03*
X095640Y003840D03*
X095640Y004840D03*
X095640Y005840D03*
X095640Y006840D03*
X094640Y006840D03*
X094640Y005840D03*
X094640Y004840D03*
X094640Y007840D03*
X094640Y008840D03*
X095640Y008840D03*
X095640Y007840D03*
X095640Y010840D03*
X094640Y010840D03*
X094640Y011840D03*
X094640Y012840D03*
X095640Y012840D03*
X095640Y011840D03*
X095640Y013840D03*
X095640Y014840D03*
X095640Y015840D03*
X094640Y015840D03*
X094640Y014840D03*
X094640Y013840D03*
X094640Y017840D03*
X095640Y017840D03*
X095640Y018840D03*
X095640Y019840D03*
X094640Y019840D03*
X094640Y018840D03*
X094640Y020840D03*
X094640Y021840D03*
X095640Y021840D03*
X095640Y020840D03*
X095640Y022840D03*
X094640Y022840D03*
X092640Y022840D03*
X091640Y022840D03*
X090640Y022840D03*
X089640Y022840D03*
X088640Y022840D03*
X087640Y022840D03*
X087640Y021840D03*
X088640Y021840D03*
X089640Y021840D03*
X090640Y021840D03*
X091640Y021840D03*
X092640Y021840D03*
X094640Y025040D03*
X094640Y026040D03*
X095640Y026040D03*
X095640Y025040D03*
X095640Y027040D03*
X095640Y028040D03*
X094640Y028040D03*
X094640Y027040D03*
X094640Y029040D03*
X094640Y030040D03*
X095640Y030040D03*
X095640Y029040D03*
X095640Y032040D03*
X095640Y033040D03*
X094640Y033040D03*
X094640Y032040D03*
X094640Y034040D03*
X094640Y035040D03*
X095640Y035040D03*
X095640Y034040D03*
X095640Y036040D03*
X095640Y037040D03*
X094640Y037040D03*
X094640Y036040D03*
X094640Y039040D03*
X094640Y040040D03*
X095640Y040040D03*
X095640Y039040D03*
X095640Y041040D03*
X095640Y042040D03*
X094640Y042040D03*
X094640Y041040D03*
X094640Y043040D03*
X094640Y044040D03*
X095640Y044040D03*
X095640Y043040D03*
X092640Y043040D03*
X092640Y044040D03*
X091640Y044040D03*
X091640Y043040D03*
X090640Y043040D03*
X090640Y044040D03*
X089640Y044040D03*
X089640Y043040D03*
X088640Y043040D03*
X088640Y044040D03*
X087640Y044040D03*
X087640Y043040D03*
X094640Y046240D03*
X095640Y046240D03*
X095640Y047240D03*
X095640Y048240D03*
X094640Y048240D03*
X094640Y047240D03*
X094640Y049240D03*
X094640Y050240D03*
X095640Y050240D03*
X095640Y049240D03*
X095640Y051240D03*
X094640Y051240D03*
X094640Y053240D03*
X094640Y054240D03*
X094640Y055240D03*
X095640Y055240D03*
X095640Y054240D03*
X095640Y053240D03*
X095640Y056240D03*
X095640Y057240D03*
X094640Y057240D03*
X094640Y056240D03*
X094640Y058240D03*
X095640Y058240D03*
X095640Y060240D03*
X095640Y061240D03*
X094640Y061240D03*
X094640Y060240D03*
X094640Y062240D03*
X094640Y063240D03*
X094640Y064240D03*
X095640Y064240D03*
X095640Y063240D03*
X095640Y062240D03*
X092640Y064240D03*
X091640Y064240D03*
X090640Y064240D03*
X089640Y064240D03*
X088640Y064240D03*
X087640Y064240D03*
X087640Y065240D03*
X088640Y065240D03*
X089640Y065240D03*
X090640Y065240D03*
X091640Y065240D03*
X092640Y065240D03*
X094640Y065240D03*
X095640Y065240D03*
X086640Y057240D03*
X086640Y056240D03*
X085640Y056240D03*
X085640Y057240D03*
X085640Y055240D03*
X086640Y055240D03*
X066640Y064740D03*
X065640Y064740D03*
X064640Y064740D03*
X063640Y064740D03*
X062640Y064740D03*
X061640Y064740D03*
X061640Y065740D03*
X062640Y065740D03*
X063640Y065740D03*
X064640Y065740D03*
X065640Y065740D03*
X066640Y065740D03*
X047640Y065240D03*
X046640Y065240D03*
X046640Y064240D03*
X046640Y063240D03*
X046640Y062240D03*
X047640Y062240D03*
X047640Y063240D03*
X047640Y064240D03*
X044640Y064240D03*
X043640Y064240D03*
X042640Y064240D03*
X041640Y064240D03*
X040640Y064240D03*
X039640Y064240D03*
X039640Y065240D03*
X040640Y065240D03*
X041640Y065240D03*
X042640Y065240D03*
X043640Y065240D03*
X044640Y065240D03*
X046640Y061240D03*
X046640Y060240D03*
X047640Y060240D03*
X047640Y061240D03*
X047640Y058240D03*
X046640Y058240D03*
X046640Y057240D03*
X046640Y056240D03*
X047640Y056240D03*
X047640Y057240D03*
X047640Y055240D03*
X047640Y054240D03*
X047640Y053240D03*
X046640Y053240D03*
X046640Y054240D03*
X046640Y055240D03*
X046640Y051240D03*
X047640Y051240D03*
X047640Y050240D03*
X047640Y049240D03*
X046640Y049240D03*
X046640Y050240D03*
X046640Y048240D03*
X046640Y047240D03*
X047640Y047240D03*
X047640Y048240D03*
X047640Y046240D03*
X046640Y046240D03*
X046640Y044040D03*
X046640Y043040D03*
X047640Y043040D03*
X047640Y044040D03*
X047640Y042040D03*
X047640Y041040D03*
X046640Y041040D03*
X046640Y042040D03*
X044640Y043040D03*
X043640Y043040D03*
X043640Y044040D03*
X044640Y044040D03*
X042640Y044040D03*
X042640Y043040D03*
X041640Y043040D03*
X041640Y044040D03*
X040640Y044040D03*
X040640Y043040D03*
X039640Y043040D03*
X039640Y044040D03*
X046640Y040040D03*
X046640Y039040D03*
X047640Y039040D03*
X047640Y040040D03*
X047640Y037040D03*
X047640Y036040D03*
X046640Y036040D03*
X046640Y037040D03*
X046640Y035040D03*
X046640Y034040D03*
X047640Y034040D03*
X047640Y035040D03*
X047640Y033040D03*
X047640Y032040D03*
X046640Y032040D03*
X046640Y033040D03*
X046640Y030040D03*
X046640Y029040D03*
X047640Y029040D03*
X047640Y030040D03*
X047640Y028040D03*
X047640Y027040D03*
X046640Y027040D03*
X046640Y028040D03*
X046640Y026040D03*
X046640Y025040D03*
X047640Y025040D03*
X047640Y026040D03*
X047640Y022840D03*
X046640Y022840D03*
X046640Y021840D03*
X046640Y020840D03*
X047640Y020840D03*
X047640Y021840D03*
X047640Y019840D03*
X047640Y018840D03*
X046640Y018840D03*
X046640Y019840D03*
X046640Y017840D03*
X047640Y017840D03*
X047640Y015840D03*
X047640Y014840D03*
X047640Y013840D03*
X046640Y013840D03*
X046640Y014840D03*
X046640Y015840D03*
X046640Y012840D03*
X046640Y011840D03*
X047640Y011840D03*
X047640Y012840D03*
X047640Y010840D03*
X046640Y010840D03*
X046640Y008840D03*
X046640Y007840D03*
X047640Y007840D03*
X047640Y008840D03*
X047640Y006840D03*
X047640Y005840D03*
X047640Y004840D03*
X046640Y004840D03*
X046640Y005840D03*
X046640Y006840D03*
X046640Y003840D03*
X047640Y003840D03*
X038640Y012840D03*
X037640Y012840D03*
X037640Y013840D03*
X037640Y014840D03*
X038640Y014840D03*
X038640Y013840D03*
X039640Y021840D03*
X040640Y021840D03*
X041640Y021840D03*
X042640Y021840D03*
X043640Y021840D03*
X044640Y021840D03*
X044640Y022840D03*
X043640Y022840D03*
X042640Y022840D03*
X041640Y022840D03*
X040640Y022840D03*
X039640Y022840D03*
X038640Y034040D03*
X038640Y035040D03*
X037640Y035040D03*
X037640Y034040D03*
X037640Y036040D03*
X038640Y036040D03*
X018640Y043540D03*
X018640Y044540D03*
X017640Y044540D03*
X017640Y043540D03*
X016640Y043540D03*
X016640Y044540D03*
X015640Y044540D03*
X015640Y043540D03*
X014640Y043540D03*
X014640Y044540D03*
X013640Y044540D03*
X013640Y043540D03*
X037640Y055240D03*
X038640Y055240D03*
X038640Y056240D03*
X038640Y057240D03*
X037640Y057240D03*
X037640Y056240D03*
X018640Y064740D03*
X017640Y064740D03*
X016640Y064740D03*
X015640Y064740D03*
X014640Y064740D03*
X013640Y064740D03*
X013640Y065740D03*
X014640Y065740D03*
X015640Y065740D03*
X016640Y065740D03*
X017640Y065740D03*
X018640Y065740D03*
X061640Y044540D03*
X061640Y043540D03*
X062640Y043540D03*
X062640Y044540D03*
X063640Y044540D03*
X063640Y043540D03*
X064640Y043540D03*
X064640Y044540D03*
X065640Y044540D03*
X065640Y043540D03*
X066640Y043540D03*
X066640Y044540D03*
X085640Y036040D03*
X086640Y036040D03*
X086640Y035040D03*
X086640Y034040D03*
X085640Y034040D03*
X085640Y035040D03*
X066640Y023340D03*
X066640Y022340D03*
X065640Y022340D03*
X065640Y023340D03*
X064640Y023340D03*
X064640Y022340D03*
X063640Y022340D03*
X063640Y023340D03*
X062640Y023340D03*
X062640Y022340D03*
X061640Y022340D03*
X061640Y023340D03*
X085640Y014840D03*
X085640Y013840D03*
X086640Y013840D03*
X086640Y014840D03*
X086640Y012840D03*
X085640Y012840D03*
X018640Y022340D03*
X018640Y023340D03*
X017640Y023340D03*
X017640Y022340D03*
X016640Y022340D03*
X016640Y023340D03*
X015640Y023340D03*
X015640Y022340D03*
X014640Y022340D03*
X014640Y023340D03*
X013640Y023340D03*
X013640Y022340D03*
D22*
X014380Y017375D03*
X014538Y017375D03*
X014695Y017375D03*
X014853Y017375D03*
X015010Y017375D03*
X015168Y017375D03*
X015325Y017375D03*
X015483Y017375D03*
X015640Y017375D03*
X015797Y017375D03*
X015955Y017375D03*
X016112Y017375D03*
X016270Y017375D03*
X016427Y017375D03*
X016585Y017375D03*
X016742Y017375D03*
X016900Y017375D03*
X016900Y014305D03*
X016742Y014305D03*
X016585Y014305D03*
X016427Y014305D03*
X016270Y014305D03*
X016112Y014305D03*
X015955Y014305D03*
X015797Y014305D03*
X015640Y014305D03*
X015483Y014305D03*
X015325Y014305D03*
X015168Y014305D03*
X015010Y014305D03*
X014853Y014305D03*
X014695Y014305D03*
X014538Y014305D03*
X014380Y014305D03*
X014380Y035505D03*
X014538Y035505D03*
X014695Y035505D03*
X014853Y035505D03*
X015010Y035505D03*
X015168Y035505D03*
X015325Y035505D03*
X015483Y035505D03*
X015640Y035505D03*
X015797Y035505D03*
X015955Y035505D03*
X016112Y035505D03*
X016270Y035505D03*
X016427Y035505D03*
X016585Y035505D03*
X016742Y035505D03*
X016900Y035505D03*
X016900Y038575D03*
X016742Y038575D03*
X016585Y038575D03*
X016427Y038575D03*
X016270Y038575D03*
X016112Y038575D03*
X015955Y038575D03*
X015797Y038575D03*
X015640Y038575D03*
X015483Y038575D03*
X015325Y038575D03*
X015168Y038575D03*
X015010Y038575D03*
X014853Y038575D03*
X014695Y038575D03*
X014538Y038575D03*
X014380Y038575D03*
X014380Y056705D03*
X014538Y056705D03*
X014695Y056705D03*
X014853Y056705D03*
X015010Y056705D03*
X015168Y056705D03*
X015325Y056705D03*
X015483Y056705D03*
X015640Y056705D03*
X015797Y056705D03*
X015955Y056705D03*
X016112Y056705D03*
X016270Y056705D03*
X016427Y056705D03*
X016585Y056705D03*
X016742Y056705D03*
X016900Y056705D03*
X016900Y059775D03*
X016742Y059775D03*
X016585Y059775D03*
X016427Y059775D03*
X016270Y059775D03*
X016112Y059775D03*
X015955Y059775D03*
X015797Y059775D03*
X015640Y059775D03*
X015483Y059775D03*
X015325Y059775D03*
X015168Y059775D03*
X015010Y059775D03*
X014853Y059775D03*
X014695Y059775D03*
X014538Y059775D03*
X014380Y059775D03*
X062380Y059775D03*
X062538Y059775D03*
X062695Y059775D03*
X062853Y059775D03*
X063010Y059775D03*
X063168Y059775D03*
X063325Y059775D03*
X063483Y059775D03*
X063640Y059775D03*
X063797Y059775D03*
X063955Y059775D03*
X064112Y059775D03*
X064270Y059775D03*
X064427Y059775D03*
X064585Y059775D03*
X064742Y059775D03*
X064900Y059775D03*
X064900Y056705D03*
X064742Y056705D03*
X064585Y056705D03*
X064427Y056705D03*
X064270Y056705D03*
X064112Y056705D03*
X063955Y056705D03*
X063797Y056705D03*
X063640Y056705D03*
X063483Y056705D03*
X063325Y056705D03*
X063168Y056705D03*
X063010Y056705D03*
X062853Y056705D03*
X062695Y056705D03*
X062538Y056705D03*
X062380Y056705D03*
X062380Y038575D03*
X062538Y038575D03*
X062695Y038575D03*
X062853Y038575D03*
X063010Y038575D03*
X063168Y038575D03*
X063325Y038575D03*
X063483Y038575D03*
X063640Y038575D03*
X063797Y038575D03*
X063955Y038575D03*
X064112Y038575D03*
X064270Y038575D03*
X064427Y038575D03*
X064585Y038575D03*
X064742Y038575D03*
X064900Y038575D03*
X064900Y035505D03*
X064742Y035505D03*
X064585Y035505D03*
X064427Y035505D03*
X064270Y035505D03*
X064112Y035505D03*
X063955Y035505D03*
X063797Y035505D03*
X063640Y035505D03*
X063483Y035505D03*
X063325Y035505D03*
X063168Y035505D03*
X063010Y035505D03*
X062853Y035505D03*
X062695Y035505D03*
X062538Y035505D03*
X062380Y035505D03*
X062380Y017375D03*
X062538Y017375D03*
X062695Y017375D03*
X062853Y017375D03*
X063010Y017375D03*
X063168Y017375D03*
X063325Y017375D03*
X063483Y017375D03*
X063640Y017375D03*
X063797Y017375D03*
X063955Y017375D03*
X064112Y017375D03*
X064270Y017375D03*
X064427Y017375D03*
X064585Y017375D03*
X064742Y017375D03*
X064900Y017375D03*
X064900Y014305D03*
X064742Y014305D03*
X064585Y014305D03*
X064427Y014305D03*
X064270Y014305D03*
X064112Y014305D03*
X063955Y014305D03*
X063797Y014305D03*
X063640Y014305D03*
X063483Y014305D03*
X063325Y014305D03*
X063168Y014305D03*
X063010Y014305D03*
X062853Y014305D03*
X062695Y014305D03*
X062538Y014305D03*
X062380Y014305D03*
D23*
X062105Y014580D03*
X062105Y014738D03*
X062105Y014895D03*
X062105Y015053D03*
X062105Y015210D03*
X062105Y015368D03*
X062105Y015525D03*
X062105Y015683D03*
X062105Y015840D03*
X062105Y015997D03*
X062105Y016155D03*
X062105Y016312D03*
X062105Y016470D03*
X062105Y016627D03*
X062105Y016785D03*
X062105Y016942D03*
X062105Y017100D03*
X065175Y017100D03*
X065175Y016942D03*
X065175Y016785D03*
X065175Y016627D03*
X065175Y016470D03*
X065175Y016312D03*
X065175Y016155D03*
X065175Y015997D03*
X065175Y015840D03*
X065175Y015683D03*
X065175Y015525D03*
X065175Y015368D03*
X065175Y015210D03*
X065175Y015053D03*
X065175Y014895D03*
X065175Y014738D03*
X065175Y014580D03*
X065175Y035780D03*
X065175Y035938D03*
X065175Y036095D03*
X065175Y036253D03*
X065175Y036410D03*
X065175Y036568D03*
X065175Y036725D03*
X065175Y036883D03*
X065175Y037040D03*
X065175Y037197D03*
X065175Y037355D03*
X065175Y037512D03*
X065175Y037670D03*
X065175Y037827D03*
X065175Y037985D03*
X065175Y038142D03*
X065175Y038300D03*
X062105Y038300D03*
X062105Y038142D03*
X062105Y037985D03*
X062105Y037827D03*
X062105Y037670D03*
X062105Y037512D03*
X062105Y037355D03*
X062105Y037197D03*
X062105Y037040D03*
X062105Y036883D03*
X062105Y036725D03*
X062105Y036568D03*
X062105Y036410D03*
X062105Y036253D03*
X062105Y036095D03*
X062105Y035938D03*
X062105Y035780D03*
X062105Y056980D03*
X062105Y057138D03*
X062105Y057295D03*
X062105Y057453D03*
X062105Y057610D03*
X062105Y057768D03*
X062105Y057925D03*
X062105Y058083D03*
X062105Y058240D03*
X062105Y058397D03*
X062105Y058555D03*
X062105Y058712D03*
X062105Y058870D03*
X062105Y059027D03*
X062105Y059185D03*
X062105Y059342D03*
X062105Y059500D03*
X065175Y059500D03*
X065175Y059342D03*
X065175Y059185D03*
X065175Y059027D03*
X065175Y058870D03*
X065175Y058712D03*
X065175Y058555D03*
X065175Y058397D03*
X065175Y058240D03*
X065175Y058083D03*
X065175Y057925D03*
X065175Y057768D03*
X065175Y057610D03*
X065175Y057453D03*
X065175Y057295D03*
X065175Y057138D03*
X065175Y056980D03*
X017175Y056980D03*
X017175Y057138D03*
X017175Y057295D03*
X017175Y057453D03*
X017175Y057610D03*
X017175Y057768D03*
X017175Y057925D03*
X017175Y058083D03*
X017175Y058240D03*
X017175Y058397D03*
X017175Y058555D03*
X017175Y058712D03*
X017175Y058870D03*
X017175Y059027D03*
X017175Y059185D03*
X017175Y059342D03*
X017175Y059500D03*
X014105Y059500D03*
X014105Y059342D03*
X014105Y059185D03*
X014105Y059027D03*
X014105Y058870D03*
X014105Y058712D03*
X014105Y058555D03*
X014105Y058397D03*
X014105Y058240D03*
X014105Y058083D03*
X014105Y057925D03*
X014105Y057768D03*
X014105Y057610D03*
X014105Y057453D03*
X014105Y057295D03*
X014105Y057138D03*
X014105Y056980D03*
X014105Y038300D03*
X014105Y038142D03*
X014105Y037985D03*
X014105Y037827D03*
X014105Y037670D03*
X014105Y037512D03*
X014105Y037355D03*
X014105Y037197D03*
X014105Y037040D03*
X014105Y036883D03*
X014105Y036725D03*
X014105Y036568D03*
X014105Y036410D03*
X014105Y036253D03*
X014105Y036095D03*
X014105Y035938D03*
X014105Y035780D03*
X017175Y035780D03*
X017175Y035938D03*
X017175Y036095D03*
X017175Y036253D03*
X017175Y036410D03*
X017175Y036568D03*
X017175Y036725D03*
X017175Y036883D03*
X017175Y037040D03*
X017175Y037197D03*
X017175Y037355D03*
X017175Y037512D03*
X017175Y037670D03*
X017175Y037827D03*
X017175Y037985D03*
X017175Y038142D03*
X017175Y038300D03*
X017175Y017100D03*
X017175Y016942D03*
X017175Y016785D03*
X017175Y016627D03*
X017175Y016470D03*
X017175Y016312D03*
X017175Y016155D03*
X017175Y015997D03*
X017175Y015840D03*
X017175Y015683D03*
X017175Y015525D03*
X017175Y015368D03*
X017175Y015210D03*
X017175Y015053D03*
X017175Y014895D03*
X017175Y014738D03*
X017175Y014580D03*
X014105Y014580D03*
X014105Y014738D03*
X014105Y014895D03*
X014105Y015053D03*
X014105Y015210D03*
X014105Y015368D03*
X014105Y015525D03*
X014105Y015683D03*
X014105Y015840D03*
X014105Y015997D03*
X014105Y016155D03*
X014105Y016312D03*
X014105Y016470D03*
X014105Y016627D03*
X014105Y016785D03*
X014105Y016942D03*
X014105Y017100D03*
D24*
X015640Y015840D03*
X015640Y037040D03*
X015640Y058240D03*
X063640Y058240D03*
X063640Y037040D03*
X063640Y015840D03*
D25*
X069140Y011840D03*
X065640Y010340D03*
X065640Y031540D03*
X069140Y033040D03*
X065640Y052740D03*
X069140Y054240D03*
X021140Y054240D03*
X017640Y052740D03*
X021140Y033040D03*
X017640Y031540D03*
X021140Y011840D03*
X017640Y010340D03*
D26*
X018140Y010340D03*
X018140Y010840D03*
X017640Y010840D03*
X018640Y010840D03*
X019140Y010840D03*
X019140Y010340D03*
X018640Y010340D03*
X019640Y010340D03*
X019640Y010840D03*
X021140Y010840D03*
X021140Y010340D03*
X021140Y009840D03*
X021640Y009840D03*
X021640Y010340D03*
X021640Y010840D03*
X021640Y011340D03*
X021640Y011840D03*
X021140Y011340D03*
X021140Y031040D03*
X021140Y031540D03*
X021140Y032040D03*
X021140Y032540D03*
X021640Y032540D03*
X021640Y033040D03*
X021640Y032040D03*
X021640Y031540D03*
X021640Y031040D03*
X019640Y031540D03*
X019640Y032040D03*
X019140Y032040D03*
X018640Y032040D03*
X018640Y031540D03*
X019140Y031540D03*
X018140Y031540D03*
X018140Y032040D03*
X017640Y032040D03*
X021140Y052240D03*
X021140Y052740D03*
X021140Y053240D03*
X021140Y053740D03*
X021640Y053740D03*
X021640Y053240D03*
X021640Y052740D03*
X021640Y052240D03*
X019640Y052740D03*
X019640Y053240D03*
X019140Y053240D03*
X018640Y053240D03*
X018640Y052740D03*
X019140Y052740D03*
X018140Y052740D03*
X018140Y053240D03*
X017640Y053240D03*
X021640Y054240D03*
X065640Y053240D03*
X066140Y053240D03*
X066640Y053240D03*
X066640Y052740D03*
X066140Y052740D03*
X067140Y052740D03*
X067640Y052740D03*
X067640Y053240D03*
X067140Y053240D03*
X069140Y053240D03*
X069640Y053240D03*
X069640Y053740D03*
X069140Y053740D03*
X069640Y054240D03*
X069640Y052740D03*
X069140Y052740D03*
X069140Y052240D03*
X069640Y052240D03*
X069640Y033040D03*
X069640Y032540D03*
X069140Y032540D03*
X069140Y032040D03*
X069640Y032040D03*
X069640Y031540D03*
X069140Y031540D03*
X069140Y031040D03*
X069640Y031040D03*
X067640Y031540D03*
X067140Y031540D03*
X067140Y032040D03*
X067640Y032040D03*
X066640Y032040D03*
X066140Y032040D03*
X066140Y031540D03*
X066640Y031540D03*
X065640Y032040D03*
X069640Y011840D03*
X069640Y011340D03*
X069140Y011340D03*
X069140Y010840D03*
X069640Y010840D03*
X069640Y010340D03*
X069640Y009840D03*
X069140Y009840D03*
X069140Y010340D03*
X067640Y010340D03*
X067140Y010340D03*
X067140Y010840D03*
X067640Y010840D03*
X066640Y010840D03*
X066140Y010840D03*
X066140Y010340D03*
X066640Y010340D03*
X065640Y010840D03*
D27*
X067311Y017174D02*
X067311Y017506D01*
X067311Y017174D02*
X066979Y017174D01*
X066979Y017506D01*
X067311Y017506D01*
X067311Y017315D02*
X066979Y017315D01*
X066979Y017456D02*
X067311Y017456D01*
X068001Y017506D02*
X068001Y017174D01*
X067669Y017174D01*
X067669Y017506D01*
X068001Y017506D01*
X068001Y017315D02*
X067669Y017315D01*
X067669Y017456D02*
X068001Y017456D01*
X070779Y019524D02*
X070779Y019856D01*
X071111Y019856D01*
X071111Y019524D01*
X070779Y019524D01*
X070779Y019665D02*
X071111Y019665D01*
X071111Y019806D02*
X070779Y019806D01*
X071469Y019856D02*
X071469Y019524D01*
X071469Y019856D02*
X071801Y019856D01*
X071801Y019524D01*
X071469Y019524D01*
X071469Y019665D02*
X071801Y019665D01*
X071801Y019806D02*
X071469Y019806D01*
X068001Y038374D02*
X068001Y038706D01*
X068001Y038374D02*
X067669Y038374D01*
X067669Y038706D01*
X068001Y038706D01*
X068001Y038515D02*
X067669Y038515D01*
X067669Y038656D02*
X068001Y038656D01*
X067311Y038706D02*
X067311Y038374D01*
X066979Y038374D01*
X066979Y038706D01*
X067311Y038706D01*
X067311Y038515D02*
X066979Y038515D01*
X066979Y038656D02*
X067311Y038656D01*
X070779Y040724D02*
X070779Y041056D01*
X071111Y041056D01*
X071111Y040724D01*
X070779Y040724D01*
X070779Y040865D02*
X071111Y040865D01*
X071111Y041006D02*
X070779Y041006D01*
X071469Y041056D02*
X071469Y040724D01*
X071469Y041056D02*
X071801Y041056D01*
X071801Y040724D01*
X071469Y040724D01*
X071469Y040865D02*
X071801Y040865D01*
X071801Y041006D02*
X071469Y041006D01*
X068001Y059574D02*
X068001Y059906D01*
X068001Y059574D02*
X067669Y059574D01*
X067669Y059906D01*
X068001Y059906D01*
X068001Y059715D02*
X067669Y059715D01*
X067669Y059856D02*
X068001Y059856D01*
X067311Y059906D02*
X067311Y059574D01*
X066979Y059574D01*
X066979Y059906D01*
X067311Y059906D01*
X067311Y059715D02*
X066979Y059715D01*
X066979Y059856D02*
X067311Y059856D01*
X070779Y061924D02*
X070779Y062256D01*
X071111Y062256D01*
X071111Y061924D01*
X070779Y061924D01*
X070779Y062065D02*
X071111Y062065D01*
X071111Y062206D02*
X070779Y062206D01*
X071469Y062256D02*
X071469Y061924D01*
X071469Y062256D02*
X071801Y062256D01*
X071801Y061924D01*
X071469Y061924D01*
X071469Y062065D02*
X071801Y062065D01*
X071801Y062206D02*
X071469Y062206D01*
X023469Y061924D02*
X023469Y062256D01*
X023801Y062256D01*
X023801Y061924D01*
X023469Y061924D01*
X023469Y062065D02*
X023801Y062065D01*
X023801Y062206D02*
X023469Y062206D01*
X022779Y062256D02*
X022779Y061924D01*
X022779Y062256D02*
X023111Y062256D01*
X023111Y061924D01*
X022779Y061924D01*
X022779Y062065D02*
X023111Y062065D01*
X023111Y062206D02*
X022779Y062206D01*
X020001Y059906D02*
X020001Y059574D01*
X019669Y059574D01*
X019669Y059906D01*
X020001Y059906D01*
X020001Y059715D02*
X019669Y059715D01*
X019669Y059856D02*
X020001Y059856D01*
X019311Y059906D02*
X019311Y059574D01*
X018979Y059574D01*
X018979Y059906D01*
X019311Y059906D01*
X019311Y059715D02*
X018979Y059715D01*
X018979Y059856D02*
X019311Y059856D01*
X022779Y041056D02*
X022779Y040724D01*
X022779Y041056D02*
X023111Y041056D01*
X023111Y040724D01*
X022779Y040724D01*
X022779Y040865D02*
X023111Y040865D01*
X023111Y041006D02*
X022779Y041006D01*
X023469Y041056D02*
X023469Y040724D01*
X023469Y041056D02*
X023801Y041056D01*
X023801Y040724D01*
X023469Y040724D01*
X023469Y040865D02*
X023801Y040865D01*
X023801Y041006D02*
X023469Y041006D01*
X020001Y038706D02*
X020001Y038374D01*
X019669Y038374D01*
X019669Y038706D01*
X020001Y038706D01*
X020001Y038515D02*
X019669Y038515D01*
X019669Y038656D02*
X020001Y038656D01*
X019311Y038706D02*
X019311Y038374D01*
X018979Y038374D01*
X018979Y038706D01*
X019311Y038706D01*
X019311Y038515D02*
X018979Y038515D01*
X018979Y038656D02*
X019311Y038656D01*
X022779Y019856D02*
X022779Y019524D01*
X022779Y019856D02*
X023111Y019856D01*
X023111Y019524D01*
X022779Y019524D01*
X022779Y019665D02*
X023111Y019665D01*
X023111Y019806D02*
X022779Y019806D01*
X023469Y019856D02*
X023469Y019524D01*
X023469Y019856D02*
X023801Y019856D01*
X023801Y019524D01*
X023469Y019524D01*
X023469Y019665D02*
X023801Y019665D01*
X023801Y019806D02*
X023469Y019806D01*
X020001Y017506D02*
X020001Y017174D01*
X019669Y017174D01*
X019669Y017506D01*
X020001Y017506D01*
X020001Y017315D02*
X019669Y017315D01*
X019669Y017456D02*
X020001Y017456D01*
X019311Y017506D02*
X019311Y017174D01*
X018979Y017174D01*
X018979Y017506D01*
X019311Y017506D01*
X019311Y017315D02*
X018979Y017315D01*
X018979Y017456D02*
X019311Y017456D01*
D28*
X008240Y015590D03*
X008240Y014090D03*
X006040Y014090D03*
X006040Y015590D03*
X006040Y035290D03*
X006040Y036790D03*
X008240Y036790D03*
X008240Y035290D03*
X038540Y030290D03*
X038540Y028790D03*
X040740Y028790D03*
X040740Y030290D03*
X043040Y029790D03*
X043040Y031290D03*
X045240Y031290D03*
X045240Y029790D03*
X054040Y035290D03*
X054040Y036790D03*
X056240Y036790D03*
X056240Y035290D03*
X040740Y049990D03*
X040740Y051490D03*
X043040Y050990D03*
X043040Y052490D03*
X045240Y052490D03*
X045240Y050990D03*
X038540Y051490D03*
X038540Y049990D03*
X054040Y056490D03*
X054040Y057990D03*
X056240Y057990D03*
X056240Y056490D03*
X086540Y051490D03*
X086540Y049990D03*
X088740Y049990D03*
X088740Y051490D03*
X091040Y050990D03*
X091040Y052490D03*
X093240Y052490D03*
X093240Y050990D03*
X093240Y031290D03*
X093240Y029790D03*
X091040Y029790D03*
X091040Y031290D03*
X088740Y030290D03*
X088740Y028790D03*
X086540Y028790D03*
X086540Y030290D03*
X091040Y010090D03*
X091040Y008590D03*
X093240Y008590D03*
X093240Y010090D03*
X088740Y009090D03*
X086540Y009090D03*
X086540Y007590D03*
X088740Y007590D03*
X056240Y014090D03*
X056240Y015590D03*
X054040Y015590D03*
X054040Y014090D03*
X045240Y010090D03*
X045240Y008590D03*
X043040Y008590D03*
X043040Y010090D03*
X040740Y009090D03*
X040740Y007590D03*
X038540Y007590D03*
X038540Y009090D03*
X008240Y056490D03*
X008240Y057990D03*
X006040Y057990D03*
X006040Y056490D03*
D29*
X013955Y055640D03*
X014625Y055640D03*
X014625Y053840D03*
X013955Y053840D03*
X013955Y052640D03*
X014625Y052640D03*
X014625Y050840D03*
X013955Y050840D03*
X023305Y055740D03*
X023975Y055740D03*
X022475Y057740D03*
X022475Y058390D03*
X021805Y058390D03*
X021805Y057740D03*
X019825Y059090D03*
X019155Y059090D03*
X019055Y061440D03*
X019725Y061440D03*
X019975Y062240D03*
X019305Y062240D03*
X022955Y062590D03*
X023625Y062590D03*
X033805Y054740D03*
X034475Y054740D03*
X036305Y054240D03*
X036975Y054240D03*
X023625Y041390D03*
X022955Y041390D03*
X019975Y041040D03*
X019305Y041040D03*
X019055Y040240D03*
X019725Y040240D03*
X019825Y037890D03*
X019155Y037890D03*
X021805Y037190D03*
X021805Y036540D03*
X022475Y036540D03*
X022475Y037190D03*
X023305Y034540D03*
X023975Y034540D03*
X014625Y034440D03*
X013955Y034440D03*
X013955Y032640D03*
X014625Y032640D03*
X014625Y031440D03*
X013955Y031440D03*
X013955Y029640D03*
X014625Y029640D03*
X022955Y020190D03*
X023625Y020190D03*
X019975Y019840D03*
X019305Y019840D03*
X019055Y019040D03*
X019725Y019040D03*
X019825Y016690D03*
X019155Y016690D03*
X021805Y015990D03*
X021805Y015340D03*
X022475Y015340D03*
X022475Y015990D03*
X023305Y013340D03*
X023975Y013340D03*
X014625Y013240D03*
X013955Y013240D03*
X013955Y011440D03*
X014625Y011440D03*
X014625Y010240D03*
X013955Y010240D03*
X013955Y008440D03*
X014625Y008440D03*
X033805Y012340D03*
X034475Y012340D03*
X036305Y011840D03*
X036975Y011840D03*
X061955Y011440D03*
X062625Y011440D03*
X062625Y010240D03*
X061955Y010240D03*
X061955Y008440D03*
X062625Y008440D03*
X062625Y013240D03*
X061955Y013240D03*
X067155Y016690D03*
X067825Y016690D03*
X069805Y015990D03*
X069805Y015340D03*
X070475Y015340D03*
X070475Y015990D03*
X071305Y013340D03*
X071975Y013340D03*
X067725Y019040D03*
X067055Y019040D03*
X067305Y019840D03*
X067975Y019840D03*
X070955Y020190D03*
X071625Y020190D03*
X081805Y012340D03*
X082475Y012340D03*
X084305Y011840D03*
X084975Y011840D03*
X062625Y029640D03*
X061955Y029640D03*
X061955Y031440D03*
X062625Y031440D03*
X062625Y032640D03*
X061955Y032640D03*
X061955Y034440D03*
X062625Y034440D03*
X067155Y037890D03*
X067825Y037890D03*
X069805Y037190D03*
X069805Y036540D03*
X070475Y036540D03*
X070475Y037190D03*
X071305Y034540D03*
X071975Y034540D03*
X067725Y040240D03*
X067055Y040240D03*
X067305Y041040D03*
X067975Y041040D03*
X070955Y041390D03*
X071625Y041390D03*
X081805Y033540D03*
X082475Y033540D03*
X084305Y033040D03*
X084975Y033040D03*
X062625Y050840D03*
X061955Y050840D03*
X061955Y052640D03*
X062625Y052640D03*
X062625Y053840D03*
X061955Y053840D03*
X061955Y055640D03*
X062625Y055640D03*
X067155Y059090D03*
X067825Y059090D03*
X069805Y058390D03*
X069805Y057740D03*
X070475Y057740D03*
X070475Y058390D03*
X071305Y055740D03*
X071975Y055740D03*
X067725Y061440D03*
X067055Y061440D03*
X067305Y062240D03*
X067975Y062240D03*
X070955Y062590D03*
X071625Y062590D03*
X081805Y054740D03*
X082475Y054740D03*
X084305Y054240D03*
X084975Y054240D03*
X036975Y033040D03*
X036305Y033040D03*
X034475Y033540D03*
X033805Y033540D03*
D30*
X054453Y033552D03*
X054453Y033296D03*
X054453Y033040D03*
X054453Y032784D03*
X054453Y032528D03*
X054453Y038528D03*
X054453Y038784D03*
X054453Y039040D03*
X054453Y039296D03*
X054453Y039552D03*
X054453Y053728D03*
X054453Y053984D03*
X054453Y054240D03*
X054453Y054496D03*
X054453Y054752D03*
X054453Y059728D03*
X054453Y059984D03*
X054453Y060240D03*
X054453Y060496D03*
X054453Y060752D03*
X006453Y060752D03*
X006453Y060496D03*
X006453Y060240D03*
X006453Y059984D03*
X006453Y059728D03*
X006453Y054752D03*
X006453Y054496D03*
X006453Y054240D03*
X006453Y053984D03*
X006453Y053728D03*
X006453Y039552D03*
X006453Y039296D03*
X006453Y039040D03*
X006453Y038784D03*
X006453Y038528D03*
X006453Y033552D03*
X006453Y033296D03*
X006453Y033040D03*
X006453Y032784D03*
X006453Y032528D03*
X006453Y018352D03*
X006453Y018096D03*
X006453Y017840D03*
X006453Y017584D03*
X006453Y017328D03*
X006453Y012352D03*
X006453Y012096D03*
X006453Y011840D03*
X006453Y011584D03*
X006453Y011328D03*
X054453Y011328D03*
X054453Y011584D03*
X054453Y011840D03*
X054453Y012096D03*
X054453Y012352D03*
X054453Y017328D03*
X054453Y017584D03*
X054453Y017840D03*
X054453Y018096D03*
X054453Y018352D03*
D31*
X054256Y018588D03*
X054256Y017092D03*
X054256Y012588D03*
X054256Y011092D03*
X054256Y032292D03*
X054256Y033788D03*
X054256Y038292D03*
X054256Y039788D03*
X054256Y053492D03*
X054256Y054988D03*
X054256Y059492D03*
X054256Y060988D03*
X006256Y060988D03*
X006256Y059492D03*
X006256Y054988D03*
X006256Y053492D03*
X006256Y039788D03*
X006256Y038292D03*
X006256Y033788D03*
X006256Y032292D03*
X006256Y018588D03*
X006256Y017092D03*
X006256Y012588D03*
X006256Y011092D03*
D32*
X005390Y010390D03*
X005390Y013290D03*
X005390Y016390D03*
X005390Y019290D03*
X005390Y031590D03*
X005390Y034490D03*
X005390Y037590D03*
X005390Y040490D03*
X005390Y052790D03*
X005390Y055690D03*
X005390Y058790D03*
X005390Y061690D03*
X053390Y061690D03*
X053390Y058790D03*
X053390Y055690D03*
X053390Y052790D03*
X053390Y040490D03*
X053390Y037590D03*
X053390Y034490D03*
X053390Y031590D03*
X053390Y019290D03*
X053390Y016390D03*
X053390Y013290D03*
X053390Y010390D03*
D33*
X053390Y011840D03*
X053390Y017840D03*
X053390Y033040D03*
X053390Y039040D03*
X053390Y054240D03*
X053390Y060240D03*
X005390Y060240D03*
X005390Y054240D03*
X005390Y039040D03*
X005390Y033040D03*
X005390Y017840D03*
X005390Y011840D03*
D34*
X013628Y011966D03*
X013628Y012340D03*
X013628Y012714D03*
X014652Y012714D03*
X014652Y011966D03*
X014652Y009714D03*
X013628Y009714D03*
X013628Y009340D03*
X013628Y008966D03*
X014652Y008966D03*
X014652Y030166D03*
X014652Y030914D03*
X013628Y030914D03*
X013628Y030540D03*
X013628Y030166D03*
X013628Y033166D03*
X013628Y033540D03*
X013628Y033914D03*
X014652Y033914D03*
X014652Y033166D03*
X014652Y051366D03*
X014652Y052114D03*
X013628Y052114D03*
X013628Y051740D03*
X013628Y051366D03*
X013628Y054366D03*
X013628Y054740D03*
X013628Y055114D03*
X014652Y055114D03*
X014652Y054366D03*
X061628Y054366D03*
X061628Y054740D03*
X061628Y055114D03*
X062652Y055114D03*
X062652Y054366D03*
X062652Y052114D03*
X062652Y051366D03*
X061628Y051366D03*
X061628Y051740D03*
X061628Y052114D03*
X061628Y033914D03*
X061628Y033540D03*
X061628Y033166D03*
X062652Y033166D03*
X062652Y033914D03*
X062652Y030914D03*
X062652Y030166D03*
X061628Y030166D03*
X061628Y030540D03*
X061628Y030914D03*
X061628Y012714D03*
X061628Y012340D03*
X061628Y011966D03*
X062652Y011966D03*
X062652Y012714D03*
X062652Y009714D03*
X061628Y009714D03*
X061628Y009340D03*
X061628Y008966D03*
X062652Y008966D03*
D35*
X073890Y006840D03*
X074890Y006840D03*
X076640Y007340D03*
X078640Y007340D03*
X080390Y006840D03*
X081390Y006840D03*
X081390Y028040D03*
X080390Y028040D03*
X078640Y028540D03*
X076640Y028540D03*
X074890Y028040D03*
X073890Y028040D03*
X073890Y049240D03*
X074890Y049240D03*
X076640Y049740D03*
X078640Y049740D03*
X080390Y049240D03*
X081390Y049240D03*
X033390Y049240D03*
X032390Y049240D03*
X030640Y049740D03*
X028640Y049740D03*
X026890Y049240D03*
X025890Y049240D03*
X028640Y028540D03*
X026890Y028040D03*
X025890Y028040D03*
X030640Y028540D03*
X032390Y028040D03*
X033390Y028040D03*
X030640Y007340D03*
X032390Y006840D03*
X033390Y006840D03*
X028640Y007340D03*
X026890Y006840D03*
X025890Y006840D03*
D36*
X034890Y011140D03*
X035890Y011140D03*
X035890Y032340D03*
X034890Y032340D03*
X034890Y053540D03*
X035890Y053540D03*
X082890Y053540D03*
X083890Y053540D03*
X083890Y032340D03*
X082890Y032340D03*
X082890Y011140D03*
X083890Y011140D03*
D37*
X005640Y003840D03*
X005640Y022840D03*
X005640Y025040D03*
X005640Y044040D03*
X005640Y046240D03*
X005640Y065240D03*
X049640Y065240D03*
X053640Y065240D03*
X053640Y046240D03*
X053640Y044040D03*
X049640Y044040D03*
X049640Y046240D03*
X049640Y025040D03*
X049640Y022840D03*
X053640Y022840D03*
X053640Y025040D03*
X053640Y003840D03*
X049640Y003840D03*
X097640Y003840D03*
X097640Y022840D03*
X097640Y025040D03*
X097640Y044040D03*
X097640Y046240D03*
X097640Y065240D03*
D38*
X058390Y060390D03*
X056890Y060390D03*
X056890Y058190D03*
X058390Y058190D03*
X058390Y039190D03*
X056890Y039190D03*
X056890Y036990D03*
X058390Y036990D03*
X058390Y017990D03*
X056890Y017990D03*
X056890Y015790D03*
X058390Y015790D03*
X010390Y015790D03*
X008890Y015790D03*
X008890Y017990D03*
X010390Y017990D03*
X010390Y036990D03*
X008890Y036990D03*
X008890Y039190D03*
X010390Y039190D03*
X010390Y058190D03*
X008890Y058190D03*
X008890Y060390D03*
X010390Y060390D03*
D39*
X008140Y065740D03*
X008140Y044540D03*
X008140Y023340D03*
X050140Y026540D03*
X056140Y023340D03*
X050140Y005340D03*
X098140Y005340D03*
X099590Y006340D03*
X098140Y026540D03*
X098140Y047740D03*
X099590Y063740D03*
X056140Y065740D03*
X050140Y047740D03*
X056140Y044540D03*
D40*
X056140Y039875D03*
X056140Y039205D03*
X056140Y038375D03*
X056140Y037705D03*
X057640Y035375D03*
X057640Y034705D03*
X058390Y034705D03*
X058390Y035375D03*
X064640Y032875D03*
X064640Y032205D03*
X056140Y018675D03*
X056140Y018005D03*
X056140Y017175D03*
X056140Y016505D03*
X057640Y014175D03*
X057640Y013505D03*
X058390Y013505D03*
X058390Y014175D03*
X064640Y011675D03*
X064640Y011005D03*
X016640Y011005D03*
X016640Y011675D03*
X010390Y013505D03*
X010390Y014175D03*
X009640Y014175D03*
X009640Y013505D03*
X008140Y016505D03*
X008140Y017175D03*
X008140Y018005D03*
X008140Y018675D03*
X016640Y032205D03*
X016640Y032875D03*
X010390Y034705D03*
X010390Y035375D03*
X009640Y035375D03*
X009640Y034705D03*
X008140Y037705D03*
X008140Y038375D03*
X008140Y039205D03*
X008140Y039875D03*
X016640Y053405D03*
X016640Y054075D03*
X010390Y055905D03*
X010390Y056575D03*
X009640Y056575D03*
X009640Y055905D03*
X008140Y058905D03*
X008140Y059575D03*
X008140Y060405D03*
X008140Y061075D03*
X056140Y061075D03*
X056140Y060405D03*
X056140Y059575D03*
X056140Y058905D03*
X057640Y056575D03*
X057640Y055905D03*
X058390Y055905D03*
X058390Y056575D03*
X064640Y054075D03*
X064640Y053405D03*
D41*
X069168Y059366D03*
X069168Y059740D03*
X069168Y060114D03*
X070112Y060114D03*
X070112Y059740D03*
X070112Y059366D03*
X070112Y038914D03*
X070112Y038540D03*
X070112Y038166D03*
X069168Y038166D03*
X069168Y038540D03*
X069168Y038914D03*
X069168Y017714D03*
X069168Y017340D03*
X069168Y016966D03*
X070112Y016966D03*
X070112Y017340D03*
X070112Y017714D03*
X022112Y017714D03*
X022112Y017340D03*
X022112Y016966D03*
X021168Y016966D03*
X021168Y017340D03*
X021168Y017714D03*
X021168Y038166D03*
X021168Y038540D03*
X021168Y038914D03*
X022112Y038914D03*
X022112Y038540D03*
X022112Y038166D03*
X022112Y059366D03*
X022112Y059740D03*
X022112Y060114D03*
X021168Y060114D03*
X021168Y059740D03*
X021168Y059366D03*
D42*
X001584Y006140D02*
X001586Y006177D01*
X001592Y006214D01*
X001601Y006250D01*
X001615Y006285D01*
X001632Y006318D01*
X001652Y006349D01*
X001675Y006378D01*
X001702Y006405D01*
X001731Y006428D01*
X001762Y006448D01*
X001795Y006465D01*
X001830Y006479D01*
X001866Y006488D01*
X001903Y006494D01*
X001940Y006496D01*
X001977Y006494D01*
X002014Y006488D01*
X002050Y006479D01*
X002085Y006465D01*
X002118Y006448D01*
X002149Y006428D01*
X002178Y006405D01*
X002205Y006378D01*
X002228Y006349D01*
X002248Y006318D01*
X002265Y006285D01*
X002279Y006250D01*
X002288Y006214D01*
X002294Y006177D01*
X002296Y006140D01*
X002294Y006103D01*
X002288Y006066D01*
X002279Y006030D01*
X002265Y005995D01*
X002248Y005962D01*
X002228Y005931D01*
X002205Y005902D01*
X002178Y005875D01*
X002149Y005852D01*
X002118Y005832D01*
X002085Y005815D01*
X002050Y005801D01*
X002014Y005792D01*
X001977Y005786D01*
X001940Y005784D01*
X001903Y005786D01*
X001866Y005792D01*
X001830Y005801D01*
X001795Y005815D01*
X001762Y005832D01*
X001731Y005852D01*
X001702Y005875D01*
X001675Y005902D01*
X001652Y005931D01*
X001632Y005962D01*
X001615Y005995D01*
X001601Y006030D01*
X001592Y006066D01*
X001586Y006103D01*
X001584Y006140D01*
D43*
X001940Y006140D03*
M02*
