G75*
%MOIN*%
%OFA0B0*%
%FSLAX24Y24*%
%IPPOS*%
%LPD*%
%AMOC8*
5,1,8,0,0,1.08239X$1,22.5*
%
%ADD10C,0.0110*%
%ADD11C,0.0080*%
%ADD12C,0.0630*%
%ADD13C,0.1660*%
%ADD14C,0.1620*%
%ADD15C,0.0740*%
%ADD16R,0.0740X0.0740*%
%ADD17OC8,0.0740*%
%ADD18R,0.0410X0.0410*%
%ADD19C,0.0410*%
%ADD20C,0.0650*%
%ADD21C,0.0660*%
%ADD22C,0.0400*%
%ADD23C,0.0300*%
%ADD24C,0.0400*%
%ADD25C,0.0160*%
D10*
X006490Y020395D02*
X006490Y020986D01*
X006195Y020690D01*
X006589Y020690D01*
X006490Y041595D02*
X006490Y042186D01*
X006195Y041890D01*
X006589Y041890D01*
X006490Y062795D02*
X006490Y063386D01*
X006195Y063090D01*
X006589Y063090D01*
X054195Y063090D02*
X054589Y063090D01*
X054490Y062795D02*
X054490Y063386D01*
X054195Y063090D01*
X054490Y042186D02*
X054195Y041890D01*
X054589Y041890D01*
X054490Y041595D02*
X054490Y042186D01*
X054490Y020986D02*
X054195Y020690D01*
X054589Y020690D01*
X054490Y020395D02*
X054490Y020986D01*
D11*
X055340Y018140D02*
X061140Y018140D01*
X062240Y019240D01*
X064790Y019240D01*
X064940Y019090D01*
X064940Y017990D01*
X065140Y017790D01*
X066740Y017790D01*
X067940Y016590D01*
X067940Y014790D01*
X067840Y014690D01*
X067490Y014690D01*
X067490Y015140D02*
X067690Y015140D01*
X067790Y015240D01*
X067790Y016540D01*
X066690Y017640D01*
X064990Y017640D01*
X064790Y017840D01*
X064790Y018940D01*
X064640Y019090D01*
X062340Y019090D01*
X061240Y017990D01*
X056090Y017990D01*
X055940Y017840D01*
X055690Y017840D01*
X055290Y017740D02*
X055290Y018090D01*
X055340Y018140D01*
X057640Y017540D02*
X059090Y017540D01*
X059290Y017740D01*
X060990Y017740D01*
X061140Y017590D01*
X061140Y015590D01*
X061440Y015290D01*
X061990Y015290D01*
X062040Y015340D01*
X064640Y015340D01*
X065640Y014340D01*
X066440Y013940D02*
X066440Y016990D01*
X066290Y017140D01*
X063246Y017140D01*
X063010Y017375D01*
X063010Y018320D01*
X062890Y018440D01*
X062690Y018440D01*
X062840Y018790D02*
X063140Y018790D01*
X063540Y018390D01*
X063540Y017490D01*
X063690Y017340D01*
X066540Y017340D01*
X066640Y017240D01*
X066640Y014140D01*
X066740Y014040D01*
X067840Y014040D01*
X067940Y013940D01*
X067940Y012840D01*
X068040Y012740D01*
X069490Y012740D01*
X069640Y012590D01*
X069640Y011840D01*
X069640Y011340D02*
X069940Y011340D01*
X070240Y011640D01*
X070240Y012340D01*
X070140Y012440D01*
X069940Y012440D01*
X069140Y012440D02*
X068040Y012440D01*
X067740Y012740D01*
X067740Y013740D01*
X067640Y013840D01*
X066540Y013840D01*
X066440Y013940D01*
X067190Y012740D02*
X067090Y012640D01*
X065140Y012640D01*
X064490Y013290D01*
X064490Y013990D01*
X063990Y014490D01*
X062640Y014490D01*
X062440Y014290D01*
X062440Y014140D01*
X062240Y013940D01*
X061990Y013940D01*
X061890Y013840D01*
X061190Y013540D02*
X061190Y013290D01*
X061340Y013140D01*
X063090Y013140D01*
X063290Y013340D01*
X062990Y013940D02*
X063040Y013990D01*
X063890Y013990D01*
X063990Y013890D01*
X063990Y013190D01*
X064940Y012240D01*
X068540Y012240D01*
X068640Y012140D01*
X068640Y009540D01*
X068840Y009340D01*
X069490Y009340D01*
X069640Y009490D01*
X069640Y009840D01*
X068390Y009740D02*
X068390Y009340D01*
X068540Y009190D01*
X070990Y009190D01*
X071290Y008890D01*
X071940Y008890D01*
X072140Y009090D01*
X072140Y010040D01*
X072340Y010240D01*
X073140Y010840D02*
X073140Y008590D01*
X073290Y008440D01*
X075240Y008440D01*
X075490Y008190D01*
X075490Y006490D01*
X075640Y006340D01*
X090040Y006340D01*
X090140Y006440D01*
X090140Y007290D01*
X090940Y007590D02*
X091190Y007340D01*
X090940Y007590D02*
X079290Y007590D01*
X079040Y007840D01*
X079040Y008490D01*
X078890Y008640D01*
X074540Y008640D01*
X074440Y008740D01*
X074440Y008990D01*
X074890Y008990D02*
X079090Y008990D01*
X079290Y008790D01*
X079290Y007940D01*
X079440Y007790D01*
X091490Y007790D01*
X093090Y006840D02*
X093090Y008940D01*
X092990Y009040D01*
X080590Y009040D01*
X079840Y009790D01*
X079840Y011340D01*
X079740Y011440D01*
X076140Y011440D01*
X076040Y011340D01*
X076040Y010990D01*
X075640Y010990D02*
X075640Y011540D01*
X075690Y011590D01*
X079840Y011590D01*
X079990Y011440D01*
X079990Y009890D01*
X080690Y009190D01*
X093140Y009190D01*
X093240Y009090D01*
X093240Y006890D01*
X093440Y006690D01*
X094040Y006690D01*
X094140Y006590D01*
X094140Y006440D01*
X094240Y006340D01*
X095140Y006340D01*
X095640Y005840D01*
X095640Y006840D02*
X095140Y007340D01*
X093740Y007340D01*
X093590Y007490D01*
X093590Y009340D01*
X093440Y009490D01*
X080890Y009490D01*
X080340Y010040D01*
X080340Y011690D01*
X080140Y011890D01*
X075040Y011890D01*
X074940Y011790D01*
X074940Y010990D01*
X075290Y011190D02*
X075290Y011540D01*
X075490Y011740D01*
X079940Y011740D01*
X080140Y011540D01*
X080140Y009990D01*
X080790Y009340D01*
X093290Y009340D01*
X093390Y009240D01*
X093390Y006990D01*
X093540Y006840D01*
X094640Y006840D01*
X093940Y006390D02*
X093940Y005940D01*
X094040Y005840D01*
X094640Y005840D01*
X093940Y006390D02*
X093840Y006490D01*
X093440Y006490D01*
X093090Y006840D01*
X093990Y007840D02*
X094640Y007840D01*
X093990Y007840D02*
X093840Y007990D01*
X093840Y009540D01*
X093690Y009690D01*
X080990Y009690D01*
X080540Y010140D01*
X080540Y011940D01*
X080440Y012040D01*
X074490Y012040D01*
X074240Y012340D02*
X080540Y012340D01*
X080740Y012140D01*
X080740Y010240D01*
X081090Y009890D01*
X093890Y009890D01*
X094090Y009690D01*
X094090Y008440D01*
X094190Y008340D01*
X095140Y008340D01*
X095640Y007840D01*
X095640Y008840D02*
X095640Y010190D01*
X095540Y010290D01*
X081290Y010290D01*
X081140Y010440D01*
X081140Y012640D01*
X080990Y012790D01*
X079790Y012790D01*
X079640Y012940D01*
X074240Y012940D01*
X074490Y012640D02*
X080790Y012640D01*
X080940Y012490D01*
X080940Y010340D01*
X081190Y010090D01*
X094490Y010090D01*
X094640Y009940D01*
X094640Y008840D01*
X086640Y013840D02*
X086140Y013340D01*
X084540Y013340D01*
X084490Y013390D01*
X081090Y013390D01*
X080840Y013140D01*
X080240Y013140D01*
X079890Y013490D01*
X076440Y013490D01*
X076290Y013340D01*
X076040Y013340D01*
X075640Y013740D01*
X075640Y014640D01*
X076040Y014240D02*
X076290Y013990D01*
X078840Y013990D01*
X078890Y013940D01*
X079240Y013940D01*
X079290Y013990D01*
X080040Y013990D01*
X080390Y014340D01*
X080590Y014340D01*
X080740Y014190D01*
X081940Y014190D01*
X082040Y014290D01*
X082140Y013990D02*
X082290Y013840D01*
X082140Y013990D02*
X081640Y013990D01*
X081390Y013740D01*
X076540Y013740D01*
X076440Y013640D01*
X076140Y013640D01*
X075840Y013240D02*
X075940Y013140D01*
X076490Y013140D01*
X076590Y013240D01*
X079790Y013240D01*
X080040Y012990D01*
X081040Y012990D01*
X081290Y013240D01*
X084440Y013240D01*
X084840Y012840D01*
X085640Y012840D01*
X084390Y015340D02*
X078090Y015340D01*
X077890Y015540D01*
X077890Y015840D01*
X077440Y016290D01*
X076490Y016290D01*
X076040Y015840D01*
X074390Y015840D01*
X073640Y013240D02*
X075840Y013240D01*
X073640Y013240D02*
X073390Y012990D01*
X072890Y012990D01*
X072890Y008390D01*
X073640Y008040D02*
X073690Y008090D01*
X073990Y008090D01*
X073640Y008040D02*
X073640Y007590D01*
X073440Y007390D01*
X073240Y007390D01*
X073090Y007540D01*
X064340Y007540D01*
X063990Y007890D01*
X063990Y010390D01*
X063440Y010940D01*
X062740Y010940D01*
X062290Y011390D01*
X061340Y011390D01*
X060840Y011890D01*
X056290Y011890D01*
X055990Y011590D01*
X055640Y011590D01*
X055640Y012040D02*
X060940Y012040D01*
X061440Y011540D01*
X062390Y011540D01*
X062840Y011090D01*
X063540Y011090D01*
X064140Y010490D01*
X064140Y007990D01*
X064440Y007690D01*
X073340Y007690D01*
X072890Y007040D02*
X072890Y006490D01*
X073190Y006190D01*
X073190Y005490D01*
X068390Y009740D02*
X068290Y009840D01*
X065090Y009840D01*
X064640Y010290D01*
X064640Y012040D01*
X064540Y012140D01*
X063140Y012140D01*
X063040Y012040D01*
X061640Y012040D01*
X061440Y012240D01*
X059740Y012240D01*
X059640Y012340D01*
X058140Y012340D01*
X059690Y012590D02*
X059690Y013390D01*
X058990Y014090D01*
X058990Y015040D01*
X058790Y015240D01*
X057740Y015240D01*
X057640Y015340D01*
X060540Y015040D02*
X060540Y014690D01*
X060640Y014590D01*
X060640Y012490D01*
X060540Y012390D01*
X059890Y012390D01*
X059690Y012590D01*
X062640Y013690D02*
X062640Y014040D01*
X062840Y014240D01*
X063890Y014240D01*
X064240Y013890D01*
X064240Y013240D01*
X065040Y012440D01*
X067440Y012440D01*
X067540Y012540D01*
X070540Y013340D02*
X070790Y013340D01*
X070890Y013440D01*
X070890Y017540D01*
X070790Y017640D01*
X070540Y018240D02*
X071490Y018240D01*
X071640Y018390D01*
X071640Y020190D01*
X071790Y020340D01*
X085540Y020340D01*
X085640Y020440D01*
X085640Y022790D01*
X084640Y022890D02*
X084640Y020990D01*
X084490Y020840D01*
X070090Y020840D01*
X069990Y020940D01*
X069690Y020940D01*
X069590Y020840D01*
X067440Y020840D01*
X067390Y020790D01*
X067390Y020440D01*
X068240Y019040D02*
X069740Y019040D01*
X070540Y018240D01*
X070790Y018540D02*
X070790Y019090D01*
X070540Y019340D01*
X070540Y020440D01*
X070340Y020640D01*
X069840Y020640D01*
X065590Y016190D02*
X063290Y016190D01*
X063040Y016440D01*
X061790Y016440D01*
X061640Y016290D01*
X061640Y016140D01*
X065590Y016190D02*
X065740Y016040D01*
X073140Y010840D02*
X073840Y011540D01*
X074140Y011540D01*
X053550Y009324D02*
X053070Y009324D01*
X053070Y009164D02*
X053070Y009485D01*
X053390Y009164D02*
X053550Y009324D01*
X053550Y008809D02*
X053070Y008809D01*
X053070Y008649D02*
X053070Y008969D01*
X053390Y008649D02*
X053550Y008809D01*
X053390Y008453D02*
X053070Y008293D01*
X053390Y008133D01*
X047640Y007840D02*
X047140Y008340D01*
X046190Y008340D01*
X046090Y008440D01*
X046090Y009690D01*
X045890Y009890D01*
X033090Y009890D01*
X032740Y010240D01*
X032740Y012140D01*
X032540Y012340D01*
X026240Y012340D01*
X026490Y012640D02*
X032790Y012640D01*
X032940Y012490D01*
X032940Y010340D01*
X033190Y010090D01*
X046490Y010090D01*
X046640Y009940D01*
X046640Y008840D01*
X046640Y007840D02*
X045990Y007840D01*
X045840Y007990D01*
X045840Y009540D01*
X045690Y009690D01*
X032990Y009690D01*
X032540Y010140D01*
X032540Y011940D01*
X032440Y012040D01*
X026490Y012040D01*
X026940Y011790D02*
X027040Y011890D01*
X032140Y011890D01*
X032340Y011690D01*
X032340Y010040D01*
X032890Y009490D01*
X045440Y009490D01*
X045590Y009340D01*
X045590Y007490D01*
X045740Y007340D01*
X047140Y007340D01*
X047640Y006840D01*
X047140Y006340D02*
X047640Y005840D01*
X047140Y006340D02*
X046240Y006340D01*
X046140Y006440D01*
X046140Y006590D01*
X046040Y006690D01*
X045440Y006690D01*
X045240Y006890D01*
X045240Y009090D01*
X045140Y009190D01*
X032690Y009190D01*
X031990Y009890D01*
X031990Y011440D01*
X031840Y011590D01*
X027690Y011590D01*
X027640Y011540D01*
X027640Y010990D01*
X028040Y010990D02*
X028040Y011340D01*
X028140Y011440D01*
X031740Y011440D01*
X031840Y011340D01*
X031840Y009790D01*
X032590Y009040D01*
X044990Y009040D01*
X045090Y008940D01*
X045090Y006840D01*
X045440Y006490D01*
X045840Y006490D01*
X045940Y006390D01*
X045940Y005940D01*
X046040Y005840D01*
X046640Y005840D01*
X046640Y006840D02*
X045540Y006840D01*
X045390Y006990D01*
X045390Y009240D01*
X045290Y009340D01*
X032790Y009340D01*
X032140Y009990D01*
X032140Y011540D01*
X031940Y011740D01*
X027490Y011740D01*
X027290Y011540D01*
X027290Y011190D01*
X026940Y010990D02*
X026940Y011790D01*
X026140Y011540D02*
X025840Y011540D01*
X025140Y010840D01*
X025140Y008590D01*
X025290Y008440D01*
X027240Y008440D01*
X027490Y008190D01*
X027490Y006490D01*
X027640Y006340D01*
X042040Y006340D01*
X042140Y006440D01*
X042140Y007290D01*
X042940Y007590D02*
X043190Y007340D01*
X042940Y007590D02*
X031290Y007590D01*
X031040Y007840D01*
X031040Y008490D01*
X030890Y008640D01*
X026540Y008640D01*
X026440Y008740D01*
X026440Y008990D01*
X026890Y008990D02*
X031090Y008990D01*
X031290Y008790D01*
X031290Y007940D01*
X031440Y007790D01*
X043490Y007790D01*
X047640Y008840D02*
X047640Y010190D01*
X047540Y010290D01*
X033290Y010290D01*
X033140Y010440D01*
X033140Y012640D01*
X032990Y012790D01*
X031790Y012790D01*
X031640Y012940D01*
X026240Y012940D01*
X025640Y013240D02*
X025390Y012990D01*
X024890Y012990D01*
X024890Y008390D01*
X025640Y008040D02*
X025690Y008090D01*
X025990Y008090D01*
X025640Y008040D02*
X025640Y007590D01*
X025440Y007390D01*
X025240Y007390D01*
X025090Y007540D01*
X016340Y007540D01*
X015990Y007890D01*
X015990Y010390D01*
X015440Y010940D01*
X014740Y010940D01*
X014290Y011390D01*
X013340Y011390D01*
X012840Y011890D01*
X008290Y011890D01*
X007990Y011590D01*
X007640Y011590D01*
X007640Y012040D02*
X012940Y012040D01*
X013440Y011540D01*
X014390Y011540D01*
X014840Y011090D01*
X015540Y011090D01*
X016140Y010490D01*
X016140Y007990D01*
X016440Y007690D01*
X025340Y007690D01*
X024890Y007040D02*
X024890Y006490D01*
X025190Y006190D01*
X025190Y005490D01*
X023940Y008890D02*
X023290Y008890D01*
X022990Y009190D01*
X020540Y009190D01*
X020390Y009340D01*
X020390Y009740D01*
X020290Y009840D01*
X017090Y009840D01*
X016640Y010290D01*
X016640Y012040D01*
X016540Y012140D01*
X015140Y012140D01*
X015040Y012040D01*
X013640Y012040D01*
X013440Y012240D01*
X011740Y012240D01*
X011640Y012340D01*
X010140Y012340D01*
X011690Y012590D02*
X011690Y013390D01*
X010990Y014090D01*
X010990Y015040D01*
X010790Y015240D01*
X009740Y015240D01*
X009640Y015340D01*
X009640Y017540D02*
X011090Y017540D01*
X011290Y017740D01*
X012990Y017740D01*
X013140Y017590D01*
X013140Y015590D01*
X013440Y015290D01*
X013990Y015290D01*
X014040Y015340D01*
X016640Y015340D01*
X017640Y014340D01*
X018440Y013940D02*
X018440Y016990D01*
X018290Y017140D01*
X015246Y017140D01*
X015010Y017375D01*
X015010Y018320D01*
X014890Y018440D01*
X014690Y018440D01*
X014840Y018790D02*
X015140Y018790D01*
X015540Y018390D01*
X015540Y017490D01*
X015690Y017340D01*
X018540Y017340D01*
X018640Y017240D01*
X018640Y014140D01*
X018740Y014040D01*
X019840Y014040D01*
X019940Y013940D01*
X019940Y012840D01*
X020040Y012740D01*
X021490Y012740D01*
X021640Y012590D01*
X021640Y011840D01*
X021640Y011340D02*
X021940Y011340D01*
X022240Y011640D01*
X022240Y012340D01*
X022140Y012440D01*
X021940Y012440D01*
X021140Y012440D02*
X020040Y012440D01*
X019740Y012740D01*
X019740Y013740D01*
X019640Y013840D01*
X018540Y013840D01*
X018440Y013940D01*
X019490Y014690D02*
X019840Y014690D01*
X019940Y014790D01*
X019940Y016590D01*
X018740Y017790D01*
X017140Y017790D01*
X016940Y017990D01*
X016940Y019090D01*
X016790Y019240D01*
X014240Y019240D01*
X013140Y018140D01*
X007340Y018140D01*
X007290Y018090D01*
X007290Y017740D01*
X007690Y017840D02*
X007940Y017840D01*
X008090Y017990D01*
X013240Y017990D01*
X014340Y019090D01*
X016640Y019090D01*
X016790Y018940D01*
X016790Y017840D01*
X016990Y017640D01*
X018690Y017640D01*
X019790Y016540D01*
X019790Y015240D01*
X019690Y015140D01*
X019490Y015140D01*
X017740Y016040D02*
X017590Y016190D01*
X015290Y016190D01*
X015040Y016440D01*
X013790Y016440D01*
X013640Y016290D01*
X013640Y016140D01*
X012540Y015040D02*
X012540Y014690D01*
X012640Y014590D01*
X012640Y012490D01*
X012540Y012390D01*
X011890Y012390D01*
X011690Y012590D01*
X013190Y013290D02*
X013340Y013140D01*
X015090Y013140D01*
X015290Y013340D01*
X014990Y013940D02*
X015040Y013990D01*
X015890Y013990D01*
X015990Y013890D01*
X015990Y013190D01*
X016940Y012240D01*
X020540Y012240D01*
X020640Y012140D01*
X020640Y009540D01*
X020840Y009340D01*
X021490Y009340D01*
X021640Y009490D01*
X021640Y009840D01*
X023940Y008890D02*
X024140Y009090D01*
X024140Y010040D01*
X024340Y010240D01*
X019540Y012540D02*
X019440Y012440D01*
X017040Y012440D01*
X016240Y013240D01*
X016240Y013890D01*
X015890Y014240D01*
X014840Y014240D01*
X014640Y014040D01*
X014640Y013690D01*
X014240Y013940D02*
X013990Y013940D01*
X013890Y013840D01*
X014240Y013940D02*
X014440Y014140D01*
X014440Y014290D01*
X014640Y014490D01*
X015990Y014490D01*
X016490Y013990D01*
X016490Y013290D01*
X017140Y012640D01*
X019090Y012640D01*
X019190Y012740D01*
X022540Y013340D02*
X022790Y013340D01*
X022890Y013440D01*
X022890Y017540D01*
X022790Y017640D01*
X022540Y018240D02*
X023490Y018240D01*
X023640Y018390D01*
X023640Y020190D01*
X023790Y020340D01*
X037540Y020340D01*
X037640Y020440D01*
X037640Y022790D01*
X036640Y022890D02*
X036640Y020990D01*
X036490Y020840D01*
X022090Y020840D01*
X021990Y020940D01*
X021690Y020940D01*
X021590Y020840D01*
X019440Y020840D01*
X019390Y020790D01*
X019390Y020440D01*
X020240Y019040D02*
X021740Y019040D01*
X022540Y018240D01*
X022790Y018540D02*
X022790Y019090D01*
X022540Y019340D01*
X022540Y020440D01*
X022340Y020640D01*
X021840Y020640D01*
X026390Y015840D02*
X028040Y015840D01*
X028490Y016290D01*
X029440Y016290D01*
X029890Y015840D01*
X029890Y015540D01*
X030090Y015340D01*
X036390Y015340D01*
X034040Y014290D02*
X033940Y014190D01*
X032740Y014190D01*
X032590Y014340D01*
X032390Y014340D01*
X032040Y013990D01*
X031290Y013990D01*
X031240Y013940D01*
X030890Y013940D01*
X030840Y013990D01*
X028290Y013990D01*
X028040Y014240D01*
X027640Y014640D02*
X027640Y013740D01*
X028040Y013340D01*
X028290Y013340D01*
X028440Y013490D01*
X031890Y013490D01*
X032240Y013140D01*
X032840Y013140D01*
X033090Y013390D01*
X036490Y013390D01*
X036540Y013340D01*
X038140Y013340D01*
X038640Y013840D01*
X037640Y012840D02*
X036840Y012840D01*
X036440Y013240D01*
X033290Y013240D01*
X033040Y012990D01*
X032040Y012990D01*
X031790Y013240D01*
X028590Y013240D01*
X028490Y013140D01*
X027940Y013140D01*
X027840Y013240D01*
X025640Y013240D01*
X028140Y013640D02*
X028440Y013640D01*
X028540Y013740D01*
X033390Y013740D01*
X033640Y013990D01*
X034140Y013990D01*
X034290Y013840D01*
X025190Y026690D02*
X025190Y027390D01*
X024890Y027690D01*
X024890Y028240D01*
X025240Y028590D02*
X025440Y028590D01*
X025640Y028790D01*
X025640Y029240D01*
X025690Y029290D01*
X025990Y029290D01*
X025340Y028890D02*
X016440Y028890D01*
X016140Y029190D01*
X016140Y031690D01*
X015540Y032290D01*
X014840Y032290D01*
X014390Y032740D01*
X013440Y032740D01*
X012940Y033240D01*
X007640Y033240D01*
X007640Y032790D02*
X007990Y032790D01*
X008290Y033090D01*
X012840Y033090D01*
X013340Y032590D01*
X014290Y032590D01*
X014740Y032140D01*
X015440Y032140D01*
X015990Y031590D01*
X015990Y029090D01*
X016340Y028740D01*
X025090Y028740D01*
X025240Y028590D01*
X025290Y029640D02*
X027240Y029640D01*
X027490Y029390D01*
X027490Y027690D01*
X027640Y027540D01*
X042040Y027540D01*
X042140Y027640D01*
X042140Y028490D01*
X042940Y028790D02*
X043190Y028540D01*
X042940Y028790D02*
X031290Y028790D01*
X031040Y029040D01*
X031040Y029690D01*
X030890Y029840D01*
X026540Y029840D01*
X026440Y029940D01*
X026440Y030190D01*
X026890Y030190D02*
X031090Y030190D01*
X031290Y029990D01*
X031290Y029140D01*
X031440Y028990D01*
X043490Y028990D01*
X045090Y028040D02*
X045090Y030140D01*
X044990Y030240D01*
X032590Y030240D01*
X031840Y030990D01*
X031840Y032540D01*
X031740Y032640D01*
X028140Y032640D01*
X028040Y032540D01*
X028040Y032190D01*
X027640Y032190D02*
X027640Y032740D01*
X027690Y032790D01*
X031840Y032790D01*
X031990Y032640D01*
X031990Y031090D01*
X032690Y030390D01*
X045140Y030390D01*
X045240Y030290D01*
X045240Y028090D01*
X045440Y027890D01*
X046040Y027890D01*
X046140Y027790D01*
X046140Y027640D01*
X046240Y027540D01*
X047140Y027540D01*
X047640Y027040D01*
X047640Y028040D02*
X047140Y028540D01*
X045740Y028540D01*
X045590Y028690D01*
X045590Y030540D01*
X045440Y030690D01*
X032890Y030690D01*
X032340Y031240D01*
X032340Y032890D01*
X032140Y033090D01*
X027040Y033090D01*
X026940Y032990D01*
X026940Y032190D01*
X027290Y032390D02*
X027290Y032740D01*
X027490Y032940D01*
X031940Y032940D01*
X032140Y032740D01*
X032140Y031190D01*
X032790Y030540D01*
X045290Y030540D01*
X045390Y030440D01*
X045390Y028190D01*
X045540Y028040D01*
X046640Y028040D01*
X045940Y027590D02*
X045840Y027690D01*
X045440Y027690D01*
X045090Y028040D01*
X045940Y027590D02*
X045940Y027140D01*
X046040Y027040D01*
X046640Y027040D01*
X046640Y029040D02*
X045990Y029040D01*
X045840Y029190D01*
X045840Y030740D01*
X045690Y030890D01*
X032990Y030890D01*
X032540Y031340D01*
X032540Y033140D01*
X032440Y033240D01*
X026490Y033240D01*
X026240Y033540D02*
X032540Y033540D01*
X032740Y033340D01*
X032740Y031440D01*
X033090Y031090D01*
X045890Y031090D01*
X046090Y030890D01*
X046090Y029640D01*
X046190Y029540D01*
X047140Y029540D01*
X047640Y029040D01*
X047640Y030040D02*
X047640Y031390D01*
X047540Y031490D01*
X033290Y031490D01*
X033140Y031640D01*
X033140Y033840D01*
X032990Y033990D01*
X031790Y033990D01*
X031640Y034140D01*
X026240Y034140D01*
X026490Y033840D02*
X032790Y033840D01*
X032940Y033690D01*
X032940Y031540D01*
X033190Y031290D01*
X046490Y031290D01*
X046640Y031140D01*
X046640Y030040D01*
X053070Y030009D02*
X053550Y030009D01*
X053390Y029849D01*
X053390Y029653D02*
X053070Y029493D01*
X053390Y029333D01*
X053070Y029849D02*
X053070Y030169D01*
X053070Y030364D02*
X053070Y030685D01*
X053070Y030524D02*
X053550Y030524D01*
X053390Y030364D01*
X055640Y032790D02*
X055990Y032790D01*
X056290Y033090D01*
X060840Y033090D01*
X061340Y032590D01*
X062290Y032590D01*
X062740Y032140D01*
X063440Y032140D01*
X063990Y031590D01*
X063990Y029090D01*
X064340Y028740D01*
X073090Y028740D01*
X073240Y028590D01*
X073440Y028590D01*
X073640Y028790D01*
X073640Y029240D01*
X073690Y029290D01*
X073990Y029290D01*
X073340Y028890D02*
X064440Y028890D01*
X064140Y029190D01*
X064140Y031690D01*
X063540Y032290D01*
X062840Y032290D01*
X062390Y032740D01*
X061440Y032740D01*
X060940Y033240D01*
X055640Y033240D01*
X058140Y033540D02*
X059640Y033540D01*
X059740Y033440D01*
X061440Y033440D01*
X061640Y033240D01*
X063040Y033240D01*
X063140Y033340D01*
X064540Y033340D01*
X064640Y033240D01*
X064640Y031490D01*
X065090Y031040D01*
X068290Y031040D01*
X068390Y030940D01*
X068390Y030540D01*
X068540Y030390D01*
X070990Y030390D01*
X071290Y030090D01*
X071940Y030090D01*
X072140Y030290D01*
X072140Y031240D01*
X072340Y031440D01*
X073140Y032040D02*
X073140Y029790D01*
X073290Y029640D01*
X075240Y029640D01*
X075490Y029390D01*
X075490Y027690D01*
X075640Y027540D01*
X090040Y027540D01*
X090140Y027640D01*
X090140Y028490D01*
X090940Y028790D02*
X091190Y028540D01*
X090940Y028790D02*
X079290Y028790D01*
X079040Y029040D01*
X079040Y029690D01*
X078890Y029840D01*
X074540Y029840D01*
X074440Y029940D01*
X074440Y030190D01*
X074890Y030190D02*
X079090Y030190D01*
X079290Y029990D01*
X079290Y029140D01*
X079440Y028990D01*
X091490Y028990D01*
X093090Y028040D02*
X093440Y027690D01*
X093840Y027690D01*
X093940Y027590D01*
X093940Y027140D01*
X094040Y027040D01*
X094640Y027040D01*
X094240Y027540D02*
X095140Y027540D01*
X095640Y027040D01*
X095640Y028040D02*
X095140Y028540D01*
X093740Y028540D01*
X093590Y028690D01*
X093590Y030540D01*
X093440Y030690D01*
X080890Y030690D01*
X080340Y031240D01*
X080340Y032890D01*
X080140Y033090D01*
X075040Y033090D01*
X074940Y032990D01*
X074940Y032190D01*
X075290Y032390D02*
X075290Y032740D01*
X075490Y032940D01*
X079940Y032940D01*
X080140Y032740D01*
X080140Y031190D01*
X080790Y030540D01*
X093290Y030540D01*
X093390Y030440D01*
X093390Y028190D01*
X093540Y028040D01*
X094640Y028040D01*
X094140Y027790D02*
X094140Y027640D01*
X094240Y027540D01*
X094140Y027790D02*
X094040Y027890D01*
X093440Y027890D01*
X093240Y028090D01*
X093240Y030290D01*
X093140Y030390D01*
X080690Y030390D01*
X079990Y031090D01*
X079990Y032640D01*
X079840Y032790D01*
X075690Y032790D01*
X075640Y032740D01*
X075640Y032190D01*
X076040Y032190D02*
X076040Y032540D01*
X076140Y032640D01*
X079740Y032640D01*
X079840Y032540D01*
X079840Y030990D01*
X080590Y030240D01*
X092990Y030240D01*
X093090Y030140D01*
X093090Y028040D01*
X093990Y029040D02*
X094640Y029040D01*
X093990Y029040D02*
X093840Y029190D01*
X093840Y030740D01*
X093690Y030890D01*
X080990Y030890D01*
X080540Y031340D01*
X080540Y033140D01*
X080440Y033240D01*
X074490Y033240D01*
X074240Y033540D02*
X080540Y033540D01*
X080740Y033340D01*
X080740Y031440D01*
X081090Y031090D01*
X093890Y031090D01*
X094090Y030890D01*
X094090Y029640D01*
X094190Y029540D01*
X095140Y029540D01*
X095640Y029040D01*
X095640Y030040D02*
X095640Y031390D01*
X095540Y031490D01*
X081290Y031490D01*
X081140Y031640D01*
X081140Y033840D01*
X080990Y033990D01*
X079790Y033990D01*
X079640Y034140D01*
X074240Y034140D01*
X074490Y033840D02*
X080790Y033840D01*
X080940Y033690D01*
X080940Y031540D01*
X081190Y031290D01*
X094490Y031290D01*
X094640Y031140D01*
X094640Y030040D01*
X086640Y035040D02*
X086140Y034540D01*
X084540Y034540D01*
X084490Y034590D01*
X081090Y034590D01*
X080840Y034340D01*
X080240Y034340D01*
X079890Y034690D01*
X076440Y034690D01*
X076290Y034540D01*
X076040Y034540D01*
X075640Y034940D01*
X075640Y035840D01*
X076040Y035440D02*
X076290Y035190D01*
X078840Y035190D01*
X078890Y035140D01*
X079240Y035140D01*
X079290Y035190D01*
X080040Y035190D01*
X080390Y035540D01*
X080590Y035540D01*
X080740Y035390D01*
X081940Y035390D01*
X082040Y035490D01*
X082140Y035190D02*
X082290Y035040D01*
X082140Y035190D02*
X081640Y035190D01*
X081390Y034940D01*
X076540Y034940D01*
X076440Y034840D01*
X076140Y034840D01*
X075840Y034440D02*
X075940Y034340D01*
X076490Y034340D01*
X076590Y034440D01*
X079790Y034440D01*
X080040Y034190D01*
X081040Y034190D01*
X081290Y034440D01*
X084440Y034440D01*
X084840Y034040D01*
X085640Y034040D01*
X084390Y036540D02*
X078090Y036540D01*
X077890Y036740D01*
X077890Y037040D01*
X077440Y037490D01*
X076490Y037490D01*
X076040Y037040D01*
X074390Y037040D01*
X073640Y034440D02*
X075840Y034440D01*
X073640Y034440D02*
X073390Y034190D01*
X072890Y034190D01*
X072890Y029590D01*
X072890Y028240D02*
X072890Y027690D01*
X073190Y027390D01*
X073190Y026690D01*
X069490Y030540D02*
X068840Y030540D01*
X068640Y030740D01*
X068640Y033340D01*
X068540Y033440D01*
X064940Y033440D01*
X063990Y034390D01*
X063990Y035090D01*
X063890Y035190D01*
X063040Y035190D01*
X062990Y035140D01*
X062840Y035440D02*
X063890Y035440D01*
X064240Y035090D01*
X064240Y034440D01*
X065040Y033640D01*
X067440Y033640D01*
X067540Y033740D01*
X067740Y033940D02*
X067740Y034940D01*
X067640Y035040D01*
X066540Y035040D01*
X066440Y035140D01*
X066440Y038190D01*
X066290Y038340D01*
X063246Y038340D01*
X063010Y038575D01*
X063010Y039520D01*
X062890Y039640D01*
X062690Y039640D01*
X062840Y039990D02*
X063140Y039990D01*
X063540Y039590D01*
X063540Y038690D01*
X063690Y038540D01*
X066540Y038540D01*
X066640Y038440D01*
X066640Y035340D01*
X066740Y035240D01*
X067840Y035240D01*
X067940Y035140D01*
X067940Y034040D01*
X068040Y033940D01*
X069490Y033940D01*
X069640Y033790D01*
X069640Y033040D01*
X069640Y032540D02*
X069940Y032540D01*
X070240Y032840D01*
X070240Y033540D01*
X070140Y033640D01*
X069940Y033640D01*
X069140Y033640D02*
X068040Y033640D01*
X067740Y033940D01*
X067190Y033940D02*
X067090Y033840D01*
X065140Y033840D01*
X064490Y034490D01*
X064490Y035190D01*
X063990Y035690D01*
X062640Y035690D01*
X062440Y035490D01*
X062440Y035340D01*
X062240Y035140D01*
X061990Y035140D01*
X061890Y035040D01*
X061190Y034740D02*
X061190Y034490D01*
X061340Y034340D01*
X063090Y034340D01*
X063290Y034540D01*
X062640Y034890D02*
X062640Y035240D01*
X062840Y035440D01*
X061990Y036490D02*
X061440Y036490D01*
X061140Y036790D01*
X061140Y038790D01*
X060990Y038940D01*
X059290Y038940D01*
X059090Y038740D01*
X057640Y038740D01*
X056090Y039190D02*
X061240Y039190D01*
X062340Y040290D01*
X064640Y040290D01*
X064790Y040140D01*
X064790Y039040D01*
X064990Y038840D01*
X066690Y038840D01*
X067790Y037740D01*
X067790Y036440D01*
X067690Y036340D01*
X067490Y036340D01*
X067490Y035890D02*
X067840Y035890D01*
X067940Y035990D01*
X067940Y037790D01*
X066740Y038990D01*
X065140Y038990D01*
X064940Y039190D01*
X064940Y040290D01*
X064790Y040440D01*
X062240Y040440D01*
X061140Y039340D01*
X055340Y039340D01*
X055290Y039290D01*
X055290Y038940D01*
X055690Y039040D02*
X055940Y039040D01*
X056090Y039190D01*
X057640Y036540D02*
X057740Y036440D01*
X058790Y036440D01*
X058990Y036240D01*
X058990Y035290D01*
X059690Y034590D01*
X059690Y033790D01*
X059890Y033590D01*
X060540Y033590D01*
X060640Y033690D01*
X060640Y035790D01*
X060540Y035890D01*
X060540Y036240D01*
X061990Y036490D02*
X062040Y036540D01*
X064640Y036540D01*
X065640Y035540D01*
X065740Y037240D02*
X065590Y037390D01*
X063290Y037390D01*
X063040Y037640D01*
X061790Y037640D01*
X061640Y037490D01*
X061640Y037340D01*
X067390Y041640D02*
X067390Y041990D01*
X067440Y042040D01*
X069590Y042040D01*
X069690Y042140D01*
X069990Y042140D01*
X070090Y042040D01*
X084490Y042040D01*
X084640Y042190D01*
X084640Y044090D01*
X085640Y043990D02*
X085640Y041640D01*
X085540Y041540D01*
X071790Y041540D01*
X071640Y041390D01*
X071640Y039590D01*
X071490Y039440D01*
X070540Y039440D01*
X069740Y040240D01*
X068240Y040240D01*
X069840Y041840D02*
X070340Y041840D01*
X070540Y041640D01*
X070540Y040540D01*
X070790Y040290D01*
X070790Y039740D01*
X070790Y038840D02*
X070890Y038740D01*
X070890Y034640D01*
X070790Y034540D01*
X070540Y034540D01*
X073140Y032040D02*
X073840Y032740D01*
X074140Y032740D01*
X069640Y031040D02*
X069640Y030690D01*
X069490Y030540D01*
X073190Y047890D02*
X073190Y048590D01*
X072890Y048890D01*
X072890Y049440D01*
X073240Y049790D02*
X073440Y049790D01*
X073640Y049990D01*
X073640Y050440D01*
X073690Y050490D01*
X073990Y050490D01*
X073340Y050090D02*
X064440Y050090D01*
X064140Y050390D01*
X064140Y052890D01*
X063540Y053490D01*
X062840Y053490D01*
X062390Y053940D01*
X061440Y053940D01*
X060940Y054440D01*
X055640Y054440D01*
X055640Y053990D02*
X055990Y053990D01*
X056290Y054290D01*
X060840Y054290D01*
X061340Y053790D01*
X062290Y053790D01*
X062740Y053340D01*
X063440Y053340D01*
X063990Y052790D01*
X063990Y050290D01*
X064340Y049940D01*
X073090Y049940D01*
X073240Y049790D01*
X073290Y050840D02*
X075240Y050840D01*
X075490Y050590D01*
X075490Y048890D01*
X075640Y048740D01*
X090040Y048740D01*
X090140Y048840D01*
X090140Y049690D01*
X090940Y049990D02*
X091190Y049740D01*
X090940Y049990D02*
X079290Y049990D01*
X079040Y050240D01*
X079040Y050890D01*
X078890Y051040D01*
X074540Y051040D01*
X074440Y051140D01*
X074440Y051390D01*
X074890Y051390D02*
X079090Y051390D01*
X079290Y051190D01*
X079290Y050340D01*
X079440Y050190D01*
X091490Y050190D01*
X093090Y049240D02*
X093440Y048890D01*
X093840Y048890D01*
X093940Y048790D01*
X093940Y048340D01*
X094040Y048240D01*
X094640Y048240D01*
X094240Y048740D02*
X095140Y048740D01*
X095640Y048240D01*
X095640Y049240D02*
X095140Y049740D01*
X093740Y049740D01*
X093590Y049890D01*
X093590Y051740D01*
X093440Y051890D01*
X080890Y051890D01*
X080340Y052440D01*
X080340Y054090D01*
X080140Y054290D01*
X075040Y054290D01*
X074940Y054190D01*
X074940Y053390D01*
X075290Y053590D02*
X075290Y053940D01*
X075490Y054140D01*
X079940Y054140D01*
X080140Y053940D01*
X080140Y052390D01*
X080790Y051740D01*
X093290Y051740D01*
X093390Y051640D01*
X093390Y049390D01*
X093540Y049240D01*
X094640Y049240D01*
X094140Y048990D02*
X094140Y048840D01*
X094240Y048740D01*
X094140Y048990D02*
X094040Y049090D01*
X093440Y049090D01*
X093240Y049290D01*
X093240Y051490D01*
X093140Y051590D01*
X080690Y051590D01*
X079990Y052290D01*
X079990Y053840D01*
X079840Y053990D01*
X075690Y053990D01*
X075640Y053940D01*
X075640Y053390D01*
X076040Y053390D02*
X076040Y053740D01*
X076140Y053840D01*
X079740Y053840D01*
X079840Y053740D01*
X079840Y052190D01*
X080590Y051440D01*
X092990Y051440D01*
X093090Y051340D01*
X093090Y049240D01*
X093990Y050240D02*
X094640Y050240D01*
X093990Y050240D02*
X093840Y050390D01*
X093840Y051940D01*
X093690Y052090D01*
X080990Y052090D01*
X080540Y052540D01*
X080540Y054340D01*
X080440Y054440D01*
X074490Y054440D01*
X074240Y054740D02*
X080540Y054740D01*
X080740Y054540D01*
X080740Y052640D01*
X081090Y052290D01*
X093890Y052290D01*
X094090Y052090D01*
X094090Y050840D01*
X094190Y050740D01*
X095140Y050740D01*
X095640Y050240D01*
X095640Y051240D02*
X095640Y052590D01*
X095540Y052690D01*
X081290Y052690D01*
X081140Y052840D01*
X081140Y055040D01*
X080990Y055190D01*
X079790Y055190D01*
X079640Y055340D01*
X074240Y055340D01*
X074490Y055040D02*
X080790Y055040D01*
X080940Y054890D01*
X080940Y052740D01*
X081190Y052490D01*
X094490Y052490D01*
X094640Y052340D01*
X094640Y051240D01*
X086640Y056240D02*
X086140Y055740D01*
X084540Y055740D01*
X084490Y055790D01*
X081090Y055790D01*
X080840Y055540D01*
X080240Y055540D01*
X079890Y055890D01*
X076440Y055890D01*
X076290Y055740D01*
X076040Y055740D01*
X075640Y056140D01*
X075640Y057040D01*
X076040Y056640D02*
X076290Y056390D01*
X078840Y056390D01*
X078890Y056340D01*
X079240Y056340D01*
X079290Y056390D01*
X080040Y056390D01*
X080390Y056740D01*
X080590Y056740D01*
X080740Y056590D01*
X081940Y056590D01*
X082040Y056690D01*
X082140Y056390D02*
X082290Y056240D01*
X082140Y056390D02*
X081640Y056390D01*
X081390Y056140D01*
X076540Y056140D01*
X076440Y056040D01*
X076140Y056040D01*
X075840Y055640D02*
X075940Y055540D01*
X076490Y055540D01*
X076590Y055640D01*
X079790Y055640D01*
X080040Y055390D01*
X081040Y055390D01*
X081290Y055640D01*
X084440Y055640D01*
X084840Y055240D01*
X085640Y055240D01*
X084390Y057740D02*
X078090Y057740D01*
X077890Y057940D01*
X077890Y058240D01*
X077440Y058690D01*
X076490Y058690D01*
X076040Y058240D01*
X074390Y058240D01*
X071640Y060790D02*
X071640Y062590D01*
X071790Y062740D01*
X085540Y062740D01*
X085640Y062840D01*
X085640Y065190D01*
X084640Y065290D02*
X084640Y063390D01*
X084490Y063240D01*
X070090Y063240D01*
X069990Y063340D01*
X069690Y063340D01*
X069590Y063240D01*
X067440Y063240D01*
X067390Y063190D01*
X067390Y062840D01*
X068240Y061440D02*
X069740Y061440D01*
X070540Y060640D01*
X071490Y060640D01*
X071640Y060790D01*
X070790Y060940D02*
X070790Y061490D01*
X070540Y061740D01*
X070540Y062840D01*
X070340Y063040D01*
X069840Y063040D01*
X066740Y060190D02*
X065140Y060190D01*
X064940Y060390D01*
X064940Y061490D01*
X064790Y061640D01*
X062240Y061640D01*
X061140Y060540D01*
X055340Y060540D01*
X055290Y060490D01*
X055290Y060140D01*
X055690Y060240D02*
X055940Y060240D01*
X056090Y060390D01*
X061240Y060390D01*
X062340Y061490D01*
X064640Y061490D01*
X064790Y061340D01*
X064790Y060240D01*
X064990Y060040D01*
X066690Y060040D01*
X067790Y058940D01*
X067790Y057640D01*
X067690Y057540D01*
X067490Y057540D01*
X067490Y057090D02*
X067840Y057090D01*
X067940Y057190D01*
X067940Y058990D01*
X066740Y060190D01*
X066540Y059740D02*
X063690Y059740D01*
X063540Y059890D01*
X063540Y060790D01*
X063140Y061190D01*
X062840Y061190D01*
X062890Y060840D02*
X062690Y060840D01*
X062890Y060840D02*
X063010Y060720D01*
X063010Y059775D01*
X063246Y059540D01*
X066290Y059540D01*
X066440Y059390D01*
X066440Y056340D01*
X066540Y056240D01*
X067640Y056240D01*
X067740Y056140D01*
X067740Y055140D01*
X068040Y054840D01*
X069140Y054840D01*
X069490Y055140D02*
X068040Y055140D01*
X067940Y055240D01*
X067940Y056340D01*
X067840Y056440D01*
X066740Y056440D01*
X066640Y056540D01*
X066640Y059640D01*
X066540Y059740D01*
X065590Y058590D02*
X065740Y058440D01*
X065590Y058590D02*
X063290Y058590D01*
X063040Y058840D01*
X061790Y058840D01*
X061640Y058690D01*
X061640Y058540D01*
X061140Y057990D02*
X061140Y059990D01*
X060990Y060140D01*
X059290Y060140D01*
X059090Y059940D01*
X057640Y059940D01*
X057640Y057740D02*
X057740Y057640D01*
X058790Y057640D01*
X058990Y057440D01*
X058990Y056490D01*
X059690Y055790D01*
X059690Y054990D01*
X059890Y054790D01*
X060540Y054790D01*
X060640Y054890D01*
X060640Y056990D01*
X060540Y057090D01*
X060540Y057440D01*
X061140Y057990D02*
X061440Y057690D01*
X061990Y057690D01*
X062040Y057740D01*
X064640Y057740D01*
X065640Y056740D01*
X064490Y056390D02*
X064490Y055690D01*
X065140Y055040D01*
X067090Y055040D01*
X067190Y055140D01*
X067440Y054840D02*
X067540Y054940D01*
X067440Y054840D02*
X065040Y054840D01*
X064240Y055640D01*
X064240Y056290D01*
X063890Y056640D01*
X062840Y056640D01*
X062640Y056440D01*
X062640Y056090D01*
X062990Y056340D02*
X063040Y056390D01*
X063890Y056390D01*
X063990Y056290D01*
X063990Y055590D01*
X064940Y054640D01*
X068540Y054640D01*
X068640Y054540D01*
X068640Y051940D01*
X068840Y051740D01*
X069490Y051740D01*
X069640Y051890D01*
X069640Y052240D01*
X068390Y052140D02*
X068390Y051740D01*
X068540Y051590D01*
X070990Y051590D01*
X071290Y051290D01*
X071940Y051290D01*
X072140Y051490D01*
X072140Y052440D01*
X072340Y052640D01*
X073140Y053240D02*
X073140Y050990D01*
X073290Y050840D01*
X072890Y050790D02*
X072890Y055390D01*
X073390Y055390D01*
X073640Y055640D01*
X075840Y055640D01*
X074140Y053940D02*
X073840Y053940D01*
X073140Y053240D01*
X070240Y054040D02*
X069940Y053740D01*
X069640Y053740D01*
X069640Y054240D02*
X069640Y054990D01*
X069490Y055140D01*
X069940Y054840D02*
X070140Y054840D01*
X070240Y054740D01*
X070240Y054040D01*
X070540Y055740D02*
X070790Y055740D01*
X070890Y055840D01*
X070890Y059940D01*
X070790Y060040D01*
X064490Y056390D02*
X063990Y056890D01*
X062640Y056890D01*
X062440Y056690D01*
X062440Y056540D01*
X062240Y056340D01*
X061990Y056340D01*
X061890Y056240D01*
X061190Y055940D02*
X061190Y055690D01*
X061340Y055540D01*
X063090Y055540D01*
X063290Y055740D01*
X063140Y054540D02*
X064540Y054540D01*
X064640Y054440D01*
X064640Y052690D01*
X065090Y052240D01*
X068290Y052240D01*
X068390Y052140D01*
X063140Y054540D02*
X063040Y054440D01*
X061640Y054440D01*
X061440Y054640D01*
X059740Y054640D01*
X059640Y054740D01*
X058140Y054740D01*
X053550Y051724D02*
X053070Y051724D01*
X053070Y051564D02*
X053070Y051885D01*
X053390Y051564D02*
X053550Y051724D01*
X053550Y051209D02*
X053070Y051209D01*
X053070Y051049D02*
X053070Y051369D01*
X053390Y051049D02*
X053550Y051209D01*
X053390Y050853D02*
X053070Y050693D01*
X053390Y050533D01*
X047640Y050240D02*
X047140Y050740D01*
X046190Y050740D01*
X046090Y050840D01*
X046090Y052090D01*
X045890Y052290D01*
X033090Y052290D01*
X032740Y052640D01*
X032740Y054540D01*
X032540Y054740D01*
X026240Y054740D01*
X026490Y054440D02*
X032440Y054440D01*
X032540Y054340D01*
X032540Y052540D01*
X032990Y052090D01*
X045690Y052090D01*
X045840Y051940D01*
X045840Y050390D01*
X045990Y050240D01*
X046640Y050240D01*
X047140Y049740D02*
X045740Y049740D01*
X045590Y049890D01*
X045590Y051740D01*
X045440Y051890D01*
X032890Y051890D01*
X032340Y052440D01*
X032340Y054090D01*
X032140Y054290D01*
X027040Y054290D01*
X026940Y054190D01*
X026940Y053390D01*
X027290Y053590D02*
X027290Y053940D01*
X027490Y054140D01*
X031940Y054140D01*
X032140Y053940D01*
X032140Y052390D01*
X032790Y051740D01*
X045290Y051740D01*
X045390Y051640D01*
X045390Y049390D01*
X045540Y049240D01*
X046640Y049240D01*
X046140Y048990D02*
X046040Y049090D01*
X045440Y049090D01*
X045240Y049290D01*
X045240Y051490D01*
X045140Y051590D01*
X032690Y051590D01*
X031990Y052290D01*
X031990Y053840D01*
X031840Y053990D01*
X027690Y053990D01*
X027640Y053940D01*
X027640Y053390D01*
X028040Y053390D02*
X028040Y053740D01*
X028140Y053840D01*
X031740Y053840D01*
X031840Y053740D01*
X031840Y052190D01*
X032590Y051440D01*
X044990Y051440D01*
X045090Y051340D01*
X045090Y049240D01*
X045440Y048890D01*
X045840Y048890D01*
X045940Y048790D01*
X045940Y048340D01*
X046040Y048240D01*
X046640Y048240D01*
X046240Y048740D02*
X047140Y048740D01*
X047640Y048240D01*
X046240Y048740D02*
X046140Y048840D01*
X046140Y048990D01*
X047140Y049740D02*
X047640Y049240D01*
X047640Y051240D02*
X047640Y052590D01*
X047540Y052690D01*
X033290Y052690D01*
X033140Y052840D01*
X033140Y055040D01*
X032990Y055190D01*
X031790Y055190D01*
X031640Y055340D01*
X026240Y055340D01*
X026490Y055040D02*
X032790Y055040D01*
X032940Y054890D01*
X032940Y052740D01*
X033190Y052490D01*
X046490Y052490D01*
X046640Y052340D01*
X046640Y051240D01*
X043490Y050190D02*
X031440Y050190D01*
X031290Y050340D01*
X031290Y051190D01*
X031090Y051390D01*
X026890Y051390D01*
X026440Y051390D02*
X026440Y051140D01*
X026540Y051040D01*
X030890Y051040D01*
X031040Y050890D01*
X031040Y050240D01*
X031290Y049990D01*
X042940Y049990D01*
X043190Y049740D01*
X042140Y049690D02*
X042140Y048840D01*
X042040Y048740D01*
X027640Y048740D01*
X027490Y048890D01*
X027490Y050590D01*
X027240Y050840D01*
X025290Y050840D01*
X025140Y050990D01*
X025140Y053240D01*
X025840Y053940D01*
X026140Y053940D01*
X025390Y055390D02*
X024890Y055390D01*
X024890Y050790D01*
X025640Y050440D02*
X025640Y049990D01*
X025440Y049790D01*
X025240Y049790D01*
X025090Y049940D01*
X016340Y049940D01*
X015990Y050290D01*
X015990Y052790D01*
X015440Y053340D01*
X014740Y053340D01*
X014290Y053790D01*
X013340Y053790D01*
X012840Y054290D01*
X008290Y054290D01*
X007990Y053990D01*
X007640Y053990D01*
X007640Y054440D02*
X012940Y054440D01*
X013440Y053940D01*
X014390Y053940D01*
X014840Y053490D01*
X015540Y053490D01*
X016140Y052890D01*
X016140Y050390D01*
X016440Y050090D01*
X025340Y050090D01*
X025640Y050440D02*
X025690Y050490D01*
X025990Y050490D01*
X024890Y049440D02*
X024890Y048890D01*
X025190Y048590D01*
X025190Y047890D01*
X023940Y051290D02*
X023290Y051290D01*
X022990Y051590D01*
X020540Y051590D01*
X020390Y051740D01*
X020390Y052140D01*
X020290Y052240D01*
X017090Y052240D01*
X016640Y052690D01*
X016640Y054440D01*
X016540Y054540D01*
X015140Y054540D01*
X015040Y054440D01*
X013640Y054440D01*
X013440Y054640D01*
X011740Y054640D01*
X011640Y054740D01*
X010140Y054740D01*
X011690Y054990D02*
X011690Y055790D01*
X010990Y056490D01*
X010990Y057440D01*
X010790Y057640D01*
X009740Y057640D01*
X009640Y057740D01*
X009640Y059940D02*
X011090Y059940D01*
X011290Y060140D01*
X012990Y060140D01*
X013140Y059990D01*
X013140Y057990D01*
X013440Y057690D01*
X013990Y057690D01*
X014040Y057740D01*
X016640Y057740D01*
X017640Y056740D01*
X018440Y056340D02*
X018440Y059390D01*
X018290Y059540D01*
X015246Y059540D01*
X015010Y059775D01*
X015010Y060720D01*
X014890Y060840D01*
X014690Y060840D01*
X014840Y061190D02*
X015140Y061190D01*
X015540Y060790D01*
X015540Y059890D01*
X015690Y059740D01*
X018540Y059740D01*
X018640Y059640D01*
X018640Y056540D01*
X018740Y056440D01*
X019840Y056440D01*
X019940Y056340D01*
X019940Y055240D01*
X020040Y055140D01*
X021490Y055140D01*
X021640Y054990D01*
X021640Y054240D01*
X021640Y053740D02*
X021940Y053740D01*
X022240Y054040D01*
X022240Y054740D01*
X022140Y054840D01*
X021940Y054840D01*
X021140Y054840D02*
X020040Y054840D01*
X019740Y055140D01*
X019740Y056140D01*
X019640Y056240D01*
X018540Y056240D01*
X018440Y056340D01*
X019490Y057090D02*
X019840Y057090D01*
X019940Y057190D01*
X019940Y058990D01*
X018740Y060190D01*
X017140Y060190D01*
X016940Y060390D01*
X016940Y061490D01*
X016790Y061640D01*
X014240Y061640D01*
X013140Y060540D01*
X007340Y060540D01*
X007290Y060490D01*
X007290Y060140D01*
X007690Y060240D02*
X007940Y060240D01*
X008090Y060390D01*
X013240Y060390D01*
X014340Y061490D01*
X016640Y061490D01*
X016790Y061340D01*
X016790Y060240D01*
X016990Y060040D01*
X018690Y060040D01*
X019790Y058940D01*
X019790Y057640D01*
X019690Y057540D01*
X019490Y057540D01*
X017740Y058440D02*
X017590Y058590D01*
X015290Y058590D01*
X015040Y058840D01*
X013790Y058840D01*
X013640Y058690D01*
X013640Y058540D01*
X012540Y057440D02*
X012540Y057090D01*
X012640Y056990D01*
X012640Y054890D01*
X012540Y054790D01*
X011890Y054790D01*
X011690Y054990D01*
X013190Y055690D02*
X013340Y055540D01*
X015090Y055540D01*
X015290Y055740D01*
X014990Y056340D02*
X015040Y056390D01*
X015890Y056390D01*
X015990Y056290D01*
X015990Y055590D01*
X016940Y054640D01*
X020540Y054640D01*
X020640Y054540D01*
X020640Y051940D01*
X020840Y051740D01*
X021490Y051740D01*
X021640Y051890D01*
X021640Y052240D01*
X023940Y051290D02*
X024140Y051490D01*
X024140Y052440D01*
X024340Y052640D01*
X025390Y055390D02*
X025640Y055640D01*
X027840Y055640D01*
X027940Y055540D01*
X028490Y055540D01*
X028590Y055640D01*
X031790Y055640D01*
X032040Y055390D01*
X033040Y055390D01*
X033290Y055640D01*
X036440Y055640D01*
X036840Y055240D01*
X037640Y055240D01*
X038140Y055740D02*
X036540Y055740D01*
X036490Y055790D01*
X033090Y055790D01*
X032840Y055540D01*
X032240Y055540D01*
X031890Y055890D01*
X028440Y055890D01*
X028290Y055740D01*
X028040Y055740D01*
X027640Y056140D01*
X027640Y057040D01*
X028040Y056640D02*
X028290Y056390D01*
X030840Y056390D01*
X030890Y056340D01*
X031240Y056340D01*
X031290Y056390D01*
X032040Y056390D01*
X032390Y056740D01*
X032590Y056740D01*
X032740Y056590D01*
X033940Y056590D01*
X034040Y056690D01*
X034140Y056390D02*
X034290Y056240D01*
X034140Y056390D02*
X033640Y056390D01*
X033390Y056140D01*
X028540Y056140D01*
X028440Y056040D01*
X028140Y056040D01*
X029890Y057940D02*
X030090Y057740D01*
X036390Y057740D01*
X038140Y055740D02*
X038640Y056240D01*
X037540Y062740D02*
X037640Y062840D01*
X037640Y065190D01*
X036640Y065290D02*
X036640Y063390D01*
X036490Y063240D01*
X022090Y063240D01*
X021990Y063340D01*
X021690Y063340D01*
X021590Y063240D01*
X019440Y063240D01*
X019390Y063190D01*
X019390Y062840D01*
X020240Y061440D02*
X021740Y061440D01*
X022540Y060640D01*
X023490Y060640D01*
X023640Y060790D01*
X023640Y062590D01*
X023790Y062740D01*
X037540Y062740D01*
X029890Y058240D02*
X029890Y057940D01*
X029890Y058240D02*
X029440Y058690D01*
X028490Y058690D01*
X028040Y058240D01*
X026390Y058240D01*
X022890Y059940D02*
X022890Y055840D01*
X022790Y055740D01*
X022540Y055740D01*
X019540Y054940D02*
X019440Y054840D01*
X017040Y054840D01*
X016240Y055640D01*
X016240Y056290D01*
X015890Y056640D01*
X014840Y056640D01*
X014640Y056440D01*
X014640Y056090D01*
X014240Y056340D02*
X014440Y056540D01*
X014440Y056690D01*
X014640Y056890D01*
X015990Y056890D01*
X016490Y056390D01*
X016490Y055690D01*
X017140Y055040D01*
X019090Y055040D01*
X019190Y055140D01*
X014240Y056340D02*
X013990Y056340D01*
X013890Y056240D01*
X013190Y055940D02*
X013190Y055690D01*
X005550Y051724D02*
X005070Y051724D01*
X005070Y051564D02*
X005070Y051885D01*
X005390Y051564D02*
X005550Y051724D01*
X005550Y051209D02*
X005070Y051209D01*
X005070Y051049D02*
X005070Y051369D01*
X005390Y051049D02*
X005550Y051209D01*
X005390Y050853D02*
X005070Y050693D01*
X005390Y050533D01*
X019390Y041990D02*
X019440Y042040D01*
X021590Y042040D01*
X021690Y042140D01*
X021990Y042140D01*
X022090Y042040D01*
X036490Y042040D01*
X036640Y042190D01*
X036640Y044090D01*
X037640Y043990D02*
X037640Y041640D01*
X037540Y041540D01*
X023790Y041540D01*
X023640Y041390D01*
X023640Y039590D01*
X023490Y039440D01*
X022540Y039440D01*
X021740Y040240D01*
X020240Y040240D01*
X019390Y041640D02*
X019390Y041990D01*
X021840Y041840D02*
X022340Y041840D01*
X022540Y041640D01*
X022540Y040540D01*
X022790Y040290D01*
X022790Y039740D01*
X022790Y038840D02*
X022890Y038740D01*
X022890Y034640D01*
X022790Y034540D01*
X022540Y034540D01*
X021640Y033790D02*
X021490Y033940D01*
X020040Y033940D01*
X019940Y034040D01*
X019940Y035140D01*
X019840Y035240D01*
X018740Y035240D01*
X018640Y035340D01*
X018640Y038440D01*
X018540Y038540D01*
X015690Y038540D01*
X015540Y038690D01*
X015540Y039590D01*
X015140Y039990D01*
X014840Y039990D01*
X014890Y039640D02*
X014690Y039640D01*
X014890Y039640D02*
X015010Y039520D01*
X015010Y038575D01*
X015246Y038340D01*
X018290Y038340D01*
X018440Y038190D01*
X018440Y035140D01*
X018540Y035040D01*
X019640Y035040D01*
X019740Y034940D01*
X019740Y033940D01*
X020040Y033640D01*
X021140Y033640D01*
X021640Y033790D02*
X021640Y033040D01*
X021640Y032540D02*
X021940Y032540D01*
X022240Y032840D01*
X022240Y033540D01*
X022140Y033640D01*
X021940Y033640D01*
X020640Y033340D02*
X020640Y030740D01*
X020840Y030540D01*
X021490Y030540D01*
X021640Y030690D01*
X021640Y031040D01*
X020390Y030940D02*
X020390Y030540D01*
X020540Y030390D01*
X022990Y030390D01*
X023290Y030090D01*
X023940Y030090D01*
X024140Y030290D01*
X024140Y031240D01*
X024340Y031440D01*
X025140Y032040D02*
X025140Y029790D01*
X025290Y029640D01*
X024890Y029590D02*
X024890Y034190D01*
X025390Y034190D01*
X025640Y034440D01*
X027840Y034440D01*
X027940Y034340D01*
X028490Y034340D01*
X028590Y034440D01*
X031790Y034440D01*
X032040Y034190D01*
X033040Y034190D01*
X033290Y034440D01*
X036440Y034440D01*
X036840Y034040D01*
X037640Y034040D01*
X038140Y034540D02*
X036540Y034540D01*
X036490Y034590D01*
X033090Y034590D01*
X032840Y034340D01*
X032240Y034340D01*
X031890Y034690D01*
X028440Y034690D01*
X028290Y034540D01*
X028040Y034540D01*
X027640Y034940D01*
X027640Y035840D01*
X028040Y035440D02*
X028290Y035190D01*
X030840Y035190D01*
X030890Y035140D01*
X031240Y035140D01*
X031290Y035190D01*
X032040Y035190D01*
X032390Y035540D01*
X032590Y035540D01*
X032740Y035390D01*
X033940Y035390D01*
X034040Y035490D01*
X034140Y035190D02*
X034290Y035040D01*
X034140Y035190D02*
X033640Y035190D01*
X033390Y034940D01*
X028540Y034940D01*
X028440Y034840D01*
X028140Y034840D01*
X029890Y036740D02*
X030090Y036540D01*
X036390Y036540D01*
X038140Y034540D02*
X038640Y035040D01*
X029890Y036740D02*
X029890Y037040D01*
X029440Y037490D01*
X028490Y037490D01*
X028040Y037040D01*
X026390Y037040D01*
X026140Y032740D02*
X025840Y032740D01*
X025140Y032040D01*
X020640Y033340D02*
X020540Y033440D01*
X016940Y033440D01*
X015990Y034390D01*
X015990Y035090D01*
X015890Y035190D01*
X015040Y035190D01*
X014990Y035140D01*
X014840Y035440D02*
X015890Y035440D01*
X016240Y035090D01*
X016240Y034440D01*
X017040Y033640D01*
X019440Y033640D01*
X019540Y033740D01*
X019190Y033940D02*
X019090Y033840D01*
X017140Y033840D01*
X016490Y034490D01*
X016490Y035190D01*
X015990Y035690D01*
X014640Y035690D01*
X014440Y035490D01*
X014440Y035340D01*
X014240Y035140D01*
X013990Y035140D01*
X013890Y035040D01*
X013190Y034740D02*
X013190Y034490D01*
X013340Y034340D01*
X015090Y034340D01*
X015290Y034540D01*
X014640Y034890D02*
X014640Y035240D01*
X014840Y035440D01*
X013990Y036490D02*
X013440Y036490D01*
X013140Y036790D01*
X013140Y038790D01*
X012990Y038940D01*
X011290Y038940D01*
X011090Y038740D01*
X009640Y038740D01*
X008090Y039190D02*
X013240Y039190D01*
X014340Y040290D01*
X016640Y040290D01*
X016790Y040140D01*
X016790Y039040D01*
X016990Y038840D01*
X018690Y038840D01*
X019790Y037740D01*
X019790Y036440D01*
X019690Y036340D01*
X019490Y036340D01*
X019490Y035890D02*
X019840Y035890D01*
X019940Y035990D01*
X019940Y037790D01*
X018740Y038990D01*
X017140Y038990D01*
X016940Y039190D01*
X016940Y040290D01*
X016790Y040440D01*
X014240Y040440D01*
X013140Y039340D01*
X007340Y039340D01*
X007290Y039290D01*
X007290Y038940D01*
X007690Y039040D02*
X007940Y039040D01*
X008090Y039190D01*
X009640Y036540D02*
X009740Y036440D01*
X010790Y036440D01*
X010990Y036240D01*
X010990Y035290D01*
X011690Y034590D01*
X011690Y033790D01*
X011890Y033590D01*
X012540Y033590D01*
X012640Y033690D01*
X012640Y035790D01*
X012540Y035890D01*
X012540Y036240D01*
X013990Y036490D02*
X014040Y036540D01*
X016640Y036540D01*
X017640Y035540D01*
X017740Y037240D02*
X017590Y037390D01*
X015290Y037390D01*
X015040Y037640D01*
X013790Y037640D01*
X013640Y037490D01*
X013640Y037340D01*
X013440Y033440D02*
X011740Y033440D01*
X011640Y033540D01*
X010140Y033540D01*
X013440Y033440D02*
X013640Y033240D01*
X015040Y033240D01*
X015140Y033340D01*
X016540Y033340D01*
X016640Y033240D01*
X016640Y031490D01*
X017090Y031040D01*
X020290Y031040D01*
X020390Y030940D01*
X005550Y030524D02*
X005390Y030364D01*
X005550Y030524D02*
X005070Y030524D01*
X005070Y030364D02*
X005070Y030685D01*
X005070Y030169D02*
X005070Y029849D01*
X005070Y030009D02*
X005550Y030009D01*
X005390Y029849D01*
X005390Y029653D02*
X005070Y029493D01*
X005390Y029333D01*
X013190Y013540D02*
X013190Y013290D01*
X005550Y009324D02*
X005070Y009324D01*
X005070Y009164D02*
X005070Y009485D01*
X005390Y009164D02*
X005550Y009324D01*
X005550Y008809D02*
X005070Y008809D01*
X005070Y008649D02*
X005070Y008969D01*
X005390Y008649D02*
X005550Y008809D01*
X005390Y008453D02*
X005070Y008293D01*
X005390Y008133D01*
X022890Y059940D02*
X022790Y060040D01*
X022790Y060940D02*
X022790Y061490D01*
X022540Y061740D01*
X022540Y062840D01*
X022340Y063040D01*
X021840Y063040D01*
D12*
X008534Y063740D03*
X007746Y063740D03*
X007746Y042540D03*
X008534Y042540D03*
X008534Y021340D03*
X007746Y021340D03*
X055746Y021340D03*
X056534Y021340D03*
X056534Y042540D03*
X055746Y042540D03*
X055746Y063740D03*
X056534Y063740D03*
D13*
X057004Y049140D03*
X057004Y027940D03*
X057004Y006740D03*
X009004Y006740D03*
X009004Y027940D03*
X009004Y049140D03*
D14*
X007753Y005259D03*
X006121Y006730D03*
X007753Y026459D03*
X006121Y027930D03*
X007753Y047659D03*
X006121Y049130D03*
X054121Y049130D03*
X055753Y047659D03*
X054121Y027930D03*
X055753Y026459D03*
X054121Y006730D03*
X055753Y005259D03*
D15*
X059570Y004840D03*
X060640Y004840D03*
X061710Y004840D03*
X061710Y006840D03*
X060640Y006840D03*
X059570Y006840D03*
X071640Y003890D03*
X072640Y003790D03*
X073640Y003890D03*
X074640Y003790D03*
X075640Y003890D03*
X076640Y003790D03*
X077640Y003890D03*
X080640Y003840D03*
X081640Y003740D03*
X082640Y003840D03*
X083640Y003740D03*
X084640Y003840D03*
X085640Y003740D03*
X087640Y003790D03*
X088640Y003890D03*
X089640Y003790D03*
X090640Y003890D03*
X091640Y003790D03*
X092640Y003890D03*
X093640Y003790D03*
X083640Y022790D03*
X082640Y022890D03*
X081640Y022790D03*
X080640Y022890D03*
X079640Y022790D03*
X078640Y022890D03*
X077140Y022790D03*
X076140Y022890D03*
X075140Y022790D03*
X074140Y022890D03*
X073140Y022790D03*
X072140Y022890D03*
X071140Y022790D03*
X070140Y022890D03*
X069140Y022790D03*
X068140Y022890D03*
X071640Y025090D03*
X072640Y024990D03*
X073640Y025090D03*
X074640Y024990D03*
X075640Y025090D03*
X076640Y024990D03*
X077640Y025090D03*
X080640Y025040D03*
X081640Y024940D03*
X082640Y025040D03*
X083640Y024940D03*
X084640Y025040D03*
X085640Y024940D03*
X087640Y024990D03*
X088640Y025090D03*
X089640Y024990D03*
X090640Y025090D03*
X091640Y024990D03*
X092640Y025090D03*
X093640Y024990D03*
X084640Y022890D03*
X061710Y026040D03*
X060640Y026040D03*
X059570Y026040D03*
X059570Y028040D03*
X060640Y028040D03*
X061710Y028040D03*
X045640Y024990D03*
X044640Y025090D03*
X043640Y024990D03*
X042640Y025090D03*
X041640Y024990D03*
X040640Y025090D03*
X039640Y024990D03*
X037640Y024940D03*
X036640Y025040D03*
X035640Y024940D03*
X034640Y025040D03*
X033640Y024940D03*
X032640Y025040D03*
X032640Y022890D03*
X031640Y022790D03*
X030640Y022890D03*
X029140Y022790D03*
X028140Y022890D03*
X027140Y022790D03*
X026140Y022890D03*
X025140Y022790D03*
X024140Y022890D03*
X023140Y022790D03*
X022140Y022890D03*
X021140Y022790D03*
X020140Y022890D03*
X023640Y025090D03*
X024640Y024990D03*
X025640Y025090D03*
X026640Y024990D03*
X027640Y025090D03*
X028640Y024990D03*
X029640Y025090D03*
X033640Y022790D03*
X034640Y022890D03*
X035640Y022790D03*
X036640Y022890D03*
X013710Y026040D03*
X012640Y026040D03*
X011570Y026040D03*
X011570Y028040D03*
X012640Y028040D03*
X013710Y028040D03*
X020140Y044090D03*
X021140Y043990D03*
X022140Y044090D03*
X023140Y043990D03*
X024140Y044090D03*
X025140Y043990D03*
X026140Y044090D03*
X027140Y043990D03*
X028140Y044090D03*
X029140Y043990D03*
X030640Y044090D03*
X031640Y043990D03*
X032640Y044090D03*
X033640Y043990D03*
X034640Y044090D03*
X035640Y043990D03*
X036640Y044090D03*
X036640Y046240D03*
X035640Y046140D03*
X034640Y046240D03*
X033640Y046140D03*
X032640Y046240D03*
X029640Y046290D03*
X028640Y046190D03*
X027640Y046290D03*
X026640Y046190D03*
X025640Y046290D03*
X024640Y046190D03*
X023640Y046290D03*
X013710Y047240D03*
X012640Y047240D03*
X011570Y047240D03*
X011570Y049240D03*
X012640Y049240D03*
X013710Y049240D03*
X020140Y065290D03*
X021140Y065190D03*
X022140Y065290D03*
X023140Y065190D03*
X024140Y065290D03*
X025140Y065190D03*
X026140Y065290D03*
X027140Y065190D03*
X028140Y065290D03*
X029140Y065190D03*
X030640Y065290D03*
X031640Y065190D03*
X032640Y065290D03*
X033640Y065190D03*
X034640Y065290D03*
X035640Y065190D03*
X036640Y065290D03*
X059570Y049240D03*
X060640Y049240D03*
X061710Y049240D03*
X061710Y047240D03*
X060640Y047240D03*
X059570Y047240D03*
X068140Y044090D03*
X069140Y043990D03*
X070140Y044090D03*
X071140Y043990D03*
X072140Y044090D03*
X073140Y043990D03*
X074140Y044090D03*
X075140Y043990D03*
X076140Y044090D03*
X077140Y043990D03*
X078640Y044090D03*
X079640Y043990D03*
X080640Y044090D03*
X081640Y043990D03*
X082640Y044090D03*
X083640Y043990D03*
X084640Y044090D03*
X084640Y046240D03*
X083640Y046140D03*
X082640Y046240D03*
X081640Y046140D03*
X080640Y046240D03*
X077640Y046290D03*
X076640Y046190D03*
X075640Y046290D03*
X074640Y046190D03*
X073640Y046290D03*
X072640Y046190D03*
X071640Y046290D03*
X085640Y046140D03*
X087640Y046190D03*
X088640Y046290D03*
X089640Y046190D03*
X090640Y046290D03*
X091640Y046190D03*
X092640Y046290D03*
X093640Y046190D03*
X084640Y065290D03*
X083640Y065190D03*
X082640Y065290D03*
X081640Y065190D03*
X080640Y065290D03*
X079640Y065190D03*
X078640Y065290D03*
X077140Y065190D03*
X076140Y065290D03*
X075140Y065190D03*
X074140Y065290D03*
X073140Y065190D03*
X072140Y065290D03*
X071140Y065190D03*
X070140Y065290D03*
X069140Y065190D03*
X068140Y065290D03*
X044640Y046290D03*
X043640Y046190D03*
X042640Y046290D03*
X041640Y046190D03*
X040640Y046290D03*
X039640Y046190D03*
X037640Y046140D03*
X045640Y046190D03*
X013710Y006840D03*
X012640Y006840D03*
X011570Y006840D03*
X011570Y004840D03*
X012640Y004840D03*
X013710Y004840D03*
X023640Y003890D03*
X024640Y003790D03*
X025640Y003890D03*
X026640Y003790D03*
X027640Y003890D03*
X028640Y003790D03*
X029640Y003890D03*
X032640Y003840D03*
X033640Y003740D03*
X034640Y003840D03*
X035640Y003740D03*
X036640Y003840D03*
X037640Y003740D03*
X039640Y003790D03*
X040640Y003890D03*
X041640Y003790D03*
X042640Y003890D03*
X043640Y003790D03*
X044640Y003890D03*
X045640Y003790D03*
D16*
X038640Y003890D03*
X030640Y003790D03*
X037640Y022790D03*
X038640Y025090D03*
X030640Y024990D03*
X037640Y043990D03*
X038640Y046290D03*
X030640Y046190D03*
X037640Y065190D03*
X078640Y046190D03*
X085640Y043990D03*
X086640Y046290D03*
X085640Y065190D03*
X086640Y025090D03*
X085640Y022790D03*
X078640Y024990D03*
X078640Y003790D03*
X086640Y003890D03*
D17*
X094640Y003840D03*
X095640Y003840D03*
X095640Y004840D03*
X095640Y005840D03*
X095640Y006840D03*
X094640Y006840D03*
X094640Y005840D03*
X094640Y004840D03*
X094640Y007840D03*
X094640Y008840D03*
X095640Y008840D03*
X095640Y007840D03*
X095640Y010840D03*
X094640Y010840D03*
X094640Y011840D03*
X094640Y012840D03*
X095640Y012840D03*
X095640Y011840D03*
X095640Y013840D03*
X095640Y014840D03*
X095640Y015840D03*
X094640Y015840D03*
X094640Y014840D03*
X094640Y013840D03*
X094640Y017840D03*
X095640Y017840D03*
X095640Y018840D03*
X095640Y019840D03*
X094640Y019840D03*
X094640Y018840D03*
X094640Y020840D03*
X094640Y021840D03*
X095640Y021840D03*
X095640Y020840D03*
X095640Y022840D03*
X094640Y022840D03*
X092640Y022840D03*
X091640Y022840D03*
X090640Y022840D03*
X089640Y022840D03*
X088640Y022840D03*
X087640Y022840D03*
X087640Y021840D03*
X088640Y021840D03*
X089640Y021840D03*
X090640Y021840D03*
X091640Y021840D03*
X092640Y021840D03*
X094640Y025040D03*
X094640Y026040D03*
X095640Y026040D03*
X095640Y025040D03*
X095640Y027040D03*
X095640Y028040D03*
X094640Y028040D03*
X094640Y027040D03*
X094640Y029040D03*
X094640Y030040D03*
X095640Y030040D03*
X095640Y029040D03*
X095640Y032040D03*
X095640Y033040D03*
X094640Y033040D03*
X094640Y032040D03*
X094640Y034040D03*
X094640Y035040D03*
X095640Y035040D03*
X095640Y034040D03*
X095640Y036040D03*
X095640Y037040D03*
X094640Y037040D03*
X094640Y036040D03*
X094640Y039040D03*
X094640Y040040D03*
X095640Y040040D03*
X095640Y039040D03*
X095640Y041040D03*
X095640Y042040D03*
X094640Y042040D03*
X094640Y041040D03*
X094640Y043040D03*
X094640Y044040D03*
X095640Y044040D03*
X095640Y043040D03*
X092640Y043040D03*
X092640Y044040D03*
X091640Y044040D03*
X091640Y043040D03*
X090640Y043040D03*
X090640Y044040D03*
X089640Y044040D03*
X089640Y043040D03*
X088640Y043040D03*
X088640Y044040D03*
X087640Y044040D03*
X087640Y043040D03*
X094640Y046240D03*
X095640Y046240D03*
X095640Y047240D03*
X095640Y048240D03*
X094640Y048240D03*
X094640Y047240D03*
X094640Y049240D03*
X094640Y050240D03*
X095640Y050240D03*
X095640Y049240D03*
X095640Y051240D03*
X094640Y051240D03*
X094640Y053240D03*
X094640Y054240D03*
X094640Y055240D03*
X095640Y055240D03*
X095640Y054240D03*
X095640Y053240D03*
X095640Y056240D03*
X095640Y057240D03*
X094640Y057240D03*
X094640Y056240D03*
X094640Y058240D03*
X095640Y058240D03*
X095640Y060240D03*
X095640Y061240D03*
X094640Y061240D03*
X094640Y060240D03*
X094640Y062240D03*
X094640Y063240D03*
X094640Y064240D03*
X095640Y064240D03*
X095640Y063240D03*
X095640Y062240D03*
X092640Y064240D03*
X091640Y064240D03*
X090640Y064240D03*
X089640Y064240D03*
X088640Y064240D03*
X087640Y064240D03*
X087640Y065240D03*
X088640Y065240D03*
X089640Y065240D03*
X090640Y065240D03*
X091640Y065240D03*
X092640Y065240D03*
X094640Y065240D03*
X095640Y065240D03*
X086640Y057240D03*
X086640Y056240D03*
X085640Y056240D03*
X085640Y057240D03*
X085640Y055240D03*
X086640Y055240D03*
X066640Y064740D03*
X065640Y064740D03*
X064640Y064740D03*
X063640Y064740D03*
X062640Y064740D03*
X061640Y064740D03*
X061640Y065740D03*
X062640Y065740D03*
X063640Y065740D03*
X064640Y065740D03*
X065640Y065740D03*
X066640Y065740D03*
X047640Y065240D03*
X046640Y065240D03*
X046640Y064240D03*
X046640Y063240D03*
X046640Y062240D03*
X047640Y062240D03*
X047640Y063240D03*
X047640Y064240D03*
X044640Y064240D03*
X043640Y064240D03*
X042640Y064240D03*
X041640Y064240D03*
X040640Y064240D03*
X039640Y064240D03*
X039640Y065240D03*
X040640Y065240D03*
X041640Y065240D03*
X042640Y065240D03*
X043640Y065240D03*
X044640Y065240D03*
X046640Y061240D03*
X046640Y060240D03*
X047640Y060240D03*
X047640Y061240D03*
X047640Y058240D03*
X046640Y058240D03*
X046640Y057240D03*
X046640Y056240D03*
X047640Y056240D03*
X047640Y057240D03*
X047640Y055240D03*
X047640Y054240D03*
X047640Y053240D03*
X046640Y053240D03*
X046640Y054240D03*
X046640Y055240D03*
X046640Y051240D03*
X047640Y051240D03*
X047640Y050240D03*
X047640Y049240D03*
X046640Y049240D03*
X046640Y050240D03*
X046640Y048240D03*
X046640Y047240D03*
X047640Y047240D03*
X047640Y048240D03*
X047640Y046240D03*
X046640Y046240D03*
X046640Y044040D03*
X046640Y043040D03*
X047640Y043040D03*
X047640Y044040D03*
X047640Y042040D03*
X047640Y041040D03*
X046640Y041040D03*
X046640Y042040D03*
X044640Y043040D03*
X043640Y043040D03*
X043640Y044040D03*
X044640Y044040D03*
X042640Y044040D03*
X042640Y043040D03*
X041640Y043040D03*
X041640Y044040D03*
X040640Y044040D03*
X040640Y043040D03*
X039640Y043040D03*
X039640Y044040D03*
X046640Y040040D03*
X046640Y039040D03*
X047640Y039040D03*
X047640Y040040D03*
X047640Y037040D03*
X047640Y036040D03*
X046640Y036040D03*
X046640Y037040D03*
X046640Y035040D03*
X046640Y034040D03*
X047640Y034040D03*
X047640Y035040D03*
X047640Y033040D03*
X047640Y032040D03*
X046640Y032040D03*
X046640Y033040D03*
X046640Y030040D03*
X046640Y029040D03*
X047640Y029040D03*
X047640Y030040D03*
X047640Y028040D03*
X047640Y027040D03*
X046640Y027040D03*
X046640Y028040D03*
X046640Y026040D03*
X046640Y025040D03*
X047640Y025040D03*
X047640Y026040D03*
X047640Y022840D03*
X046640Y022840D03*
X046640Y021840D03*
X046640Y020840D03*
X047640Y020840D03*
X047640Y021840D03*
X047640Y019840D03*
X047640Y018840D03*
X046640Y018840D03*
X046640Y019840D03*
X046640Y017840D03*
X047640Y017840D03*
X047640Y015840D03*
X047640Y014840D03*
X047640Y013840D03*
X046640Y013840D03*
X046640Y014840D03*
X046640Y015840D03*
X046640Y012840D03*
X046640Y011840D03*
X047640Y011840D03*
X047640Y012840D03*
X047640Y010840D03*
X046640Y010840D03*
X046640Y008840D03*
X046640Y007840D03*
X047640Y007840D03*
X047640Y008840D03*
X047640Y006840D03*
X047640Y005840D03*
X047640Y004840D03*
X046640Y004840D03*
X046640Y005840D03*
X046640Y006840D03*
X046640Y003840D03*
X047640Y003840D03*
X038640Y012840D03*
X037640Y012840D03*
X037640Y013840D03*
X037640Y014840D03*
X038640Y014840D03*
X038640Y013840D03*
X039640Y021840D03*
X040640Y021840D03*
X041640Y021840D03*
X042640Y021840D03*
X043640Y021840D03*
X044640Y021840D03*
X044640Y022840D03*
X043640Y022840D03*
X042640Y022840D03*
X041640Y022840D03*
X040640Y022840D03*
X039640Y022840D03*
X038640Y034040D03*
X038640Y035040D03*
X037640Y035040D03*
X037640Y034040D03*
X037640Y036040D03*
X038640Y036040D03*
X018640Y043540D03*
X018640Y044540D03*
X017640Y044540D03*
X017640Y043540D03*
X016640Y043540D03*
X016640Y044540D03*
X015640Y044540D03*
X015640Y043540D03*
X014640Y043540D03*
X014640Y044540D03*
X013640Y044540D03*
X013640Y043540D03*
X037640Y055240D03*
X038640Y055240D03*
X038640Y056240D03*
X038640Y057240D03*
X037640Y057240D03*
X037640Y056240D03*
X018640Y064740D03*
X017640Y064740D03*
X016640Y064740D03*
X015640Y064740D03*
X014640Y064740D03*
X013640Y064740D03*
X013640Y065740D03*
X014640Y065740D03*
X015640Y065740D03*
X016640Y065740D03*
X017640Y065740D03*
X018640Y065740D03*
X061640Y044540D03*
X061640Y043540D03*
X062640Y043540D03*
X062640Y044540D03*
X063640Y044540D03*
X063640Y043540D03*
X064640Y043540D03*
X064640Y044540D03*
X065640Y044540D03*
X065640Y043540D03*
X066640Y043540D03*
X066640Y044540D03*
X085640Y036040D03*
X086640Y036040D03*
X086640Y035040D03*
X086640Y034040D03*
X085640Y034040D03*
X085640Y035040D03*
X066640Y023340D03*
X066640Y022340D03*
X065640Y022340D03*
X065640Y023340D03*
X064640Y023340D03*
X064640Y022340D03*
X063640Y022340D03*
X063640Y023340D03*
X062640Y023340D03*
X062640Y022340D03*
X061640Y022340D03*
X061640Y023340D03*
X085640Y014840D03*
X085640Y013840D03*
X086640Y013840D03*
X086640Y014840D03*
X086640Y012840D03*
X085640Y012840D03*
X018640Y022340D03*
X018640Y023340D03*
X017640Y023340D03*
X017640Y022340D03*
X016640Y022340D03*
X016640Y023340D03*
X015640Y023340D03*
X015640Y022340D03*
X014640Y022340D03*
X014640Y023340D03*
X013640Y023340D03*
X013640Y022340D03*
D18*
X017640Y031540D03*
X021140Y033040D03*
X017640Y052740D03*
X021140Y054240D03*
X065640Y052740D03*
X069140Y054240D03*
X069140Y033040D03*
X065640Y031540D03*
X069140Y011840D03*
X065640Y010340D03*
X021140Y011840D03*
X017640Y010340D03*
D19*
X018140Y010340D03*
X018140Y010840D03*
X017640Y010840D03*
X018640Y010840D03*
X019140Y010840D03*
X019140Y010340D03*
X018640Y010340D03*
X019640Y010340D03*
X019640Y010840D03*
X021140Y010840D03*
X021140Y010340D03*
X021140Y009840D03*
X021640Y009840D03*
X021640Y010340D03*
X021640Y010840D03*
X021640Y011340D03*
X021640Y011840D03*
X021140Y011340D03*
X021140Y031040D03*
X021140Y031540D03*
X021140Y032040D03*
X021140Y032540D03*
X021640Y032540D03*
X021640Y033040D03*
X021640Y032040D03*
X021640Y031540D03*
X021640Y031040D03*
X019640Y031540D03*
X019640Y032040D03*
X019140Y032040D03*
X018640Y032040D03*
X018640Y031540D03*
X019140Y031540D03*
X018140Y031540D03*
X018140Y032040D03*
X017640Y032040D03*
X021140Y052240D03*
X021140Y052740D03*
X021140Y053240D03*
X021140Y053740D03*
X021640Y053740D03*
X021640Y053240D03*
X021640Y052740D03*
X021640Y052240D03*
X019640Y052740D03*
X019640Y053240D03*
X019140Y053240D03*
X018640Y053240D03*
X018640Y052740D03*
X019140Y052740D03*
X018140Y052740D03*
X018140Y053240D03*
X017640Y053240D03*
X021640Y054240D03*
X065640Y053240D03*
X066140Y053240D03*
X066640Y053240D03*
X066640Y052740D03*
X066140Y052740D03*
X067140Y052740D03*
X067640Y052740D03*
X067640Y053240D03*
X067140Y053240D03*
X069140Y053240D03*
X069640Y053240D03*
X069640Y053740D03*
X069140Y053740D03*
X069640Y054240D03*
X069640Y052740D03*
X069140Y052740D03*
X069140Y052240D03*
X069640Y052240D03*
X069640Y033040D03*
X069640Y032540D03*
X069140Y032540D03*
X069140Y032040D03*
X069640Y032040D03*
X069640Y031540D03*
X069140Y031540D03*
X069140Y031040D03*
X069640Y031040D03*
X067640Y031540D03*
X067140Y031540D03*
X067140Y032040D03*
X067640Y032040D03*
X066640Y032040D03*
X066140Y032040D03*
X066140Y031540D03*
X066640Y031540D03*
X065640Y032040D03*
X069640Y011840D03*
X069640Y011340D03*
X069140Y011340D03*
X069140Y010840D03*
X069640Y010840D03*
X069640Y010340D03*
X069640Y009840D03*
X069140Y009840D03*
X069140Y010340D03*
X067640Y010340D03*
X067140Y010340D03*
X067140Y010840D03*
X067640Y010840D03*
X066640Y010840D03*
X066140Y010840D03*
X066140Y010340D03*
X066640Y010340D03*
X065640Y010840D03*
D20*
X073890Y006840D03*
X074890Y006840D03*
X076640Y007340D03*
X078640Y007340D03*
X080390Y006840D03*
X081390Y006840D03*
X081390Y028040D03*
X080390Y028040D03*
X078640Y028540D03*
X076640Y028540D03*
X074890Y028040D03*
X073890Y028040D03*
X073890Y049240D03*
X074890Y049240D03*
X076640Y049740D03*
X078640Y049740D03*
X080390Y049240D03*
X081390Y049240D03*
X033390Y049240D03*
X032390Y049240D03*
X030640Y049740D03*
X028640Y049740D03*
X026890Y049240D03*
X025890Y049240D03*
X028640Y028540D03*
X026890Y028040D03*
X025890Y028040D03*
X030640Y028540D03*
X032390Y028040D03*
X033390Y028040D03*
X030640Y007340D03*
X032390Y006840D03*
X033390Y006840D03*
X028640Y007340D03*
X026890Y006840D03*
X025890Y006840D03*
D21*
X034890Y011140D03*
X035890Y011140D03*
X035890Y032340D03*
X034890Y032340D03*
X034890Y053540D03*
X035890Y053540D03*
X082890Y053540D03*
X083890Y053540D03*
X083890Y032340D03*
X082890Y032340D03*
X082890Y011140D03*
X083890Y011140D03*
D22*
X083390Y012690D03*
X081840Y014840D03*
X079290Y015990D03*
X074390Y015840D03*
X073340Y016540D03*
X073640Y009340D03*
X071590Y009290D03*
X071590Y006790D03*
X071590Y005540D03*
X074190Y005990D03*
X075640Y005490D03*
X079640Y004840D03*
X092090Y008340D03*
X092090Y010690D03*
X079640Y026040D03*
X075640Y026690D03*
X074190Y027190D03*
X071590Y026740D03*
X071590Y027990D03*
X071590Y030490D03*
X073640Y030540D03*
X081840Y036040D03*
X079290Y037190D03*
X083390Y033890D03*
X092090Y031890D03*
X092090Y029540D03*
X074390Y037040D03*
X073340Y037740D03*
X063640Y033840D03*
X060040Y033990D03*
X060040Y032340D03*
X060940Y030292D03*
X063290Y030090D03*
X064640Y030540D03*
X060190Y038240D03*
X060640Y039790D03*
X063190Y040790D03*
X071590Y047940D03*
X071590Y049190D03*
X071590Y051690D03*
X073640Y051740D03*
X074190Y048390D03*
X075640Y047890D03*
X079640Y047240D03*
X083390Y055090D03*
X081840Y057240D03*
X079290Y058390D03*
X074390Y058240D03*
X073340Y058940D03*
X063640Y055040D03*
X060040Y055190D03*
X060040Y053540D03*
X060940Y051492D03*
X063290Y051290D03*
X064640Y051740D03*
X060190Y059440D03*
X060640Y060990D03*
X063190Y061990D03*
X044090Y053090D03*
X044090Y050740D03*
X035390Y055090D03*
X033840Y057240D03*
X031290Y058390D03*
X026390Y058240D03*
X025340Y058940D03*
X015640Y055040D03*
X012040Y055190D03*
X012040Y053540D03*
X012940Y051492D03*
X015290Y051290D03*
X016640Y051740D03*
X023590Y051690D03*
X025640Y051740D03*
X023590Y049190D03*
X023590Y047940D03*
X026190Y048390D03*
X027640Y047890D03*
X031640Y047240D03*
X025340Y037740D03*
X026390Y037040D03*
X031290Y037190D03*
X033840Y036040D03*
X035390Y033890D03*
X044090Y031890D03*
X044090Y029540D03*
X031640Y026040D03*
X027640Y026690D03*
X026190Y027190D03*
X023590Y026740D03*
X023590Y027990D03*
X023590Y030490D03*
X025640Y030540D03*
X016640Y030540D03*
X015290Y030090D03*
X012940Y030292D03*
X012040Y032340D03*
X012040Y033990D03*
X015640Y033840D03*
X012190Y038240D03*
X012640Y039790D03*
X015190Y040790D03*
X012190Y059440D03*
X012640Y060990D03*
X015190Y061990D03*
X015190Y019590D03*
X012640Y018590D03*
X012190Y017040D03*
X012040Y012790D03*
X012040Y011140D03*
X012940Y009092D03*
X015290Y008890D03*
X016640Y009340D03*
X015640Y012640D03*
X023590Y009290D03*
X025640Y009340D03*
X023590Y006790D03*
X023590Y005540D03*
X026190Y005990D03*
X027640Y005490D03*
X031640Y004840D03*
X035390Y012690D03*
X033840Y014840D03*
X031290Y015990D03*
X026390Y015840D03*
X025340Y016540D03*
X044090Y010690D03*
X044090Y008340D03*
X060040Y011140D03*
X060040Y012790D03*
X063640Y012640D03*
X064640Y009340D03*
X063290Y008890D03*
X060940Y009092D03*
X060190Y017040D03*
X060640Y018590D03*
X063190Y019590D03*
X092090Y050740D03*
X092090Y053090D03*
D23*
X092990Y053090D03*
X091490Y050190D03*
X091190Y049740D03*
X090140Y049690D03*
X086540Y050690D03*
X085940Y051040D03*
X084840Y050940D03*
X084840Y050490D03*
X083790Y051040D03*
X082240Y051040D03*
X081640Y051040D03*
X081290Y050890D03*
X080890Y050890D03*
X080540Y050540D03*
X080140Y050540D03*
X079740Y050540D03*
X079490Y051890D03*
X079290Y052240D03*
X078940Y053290D03*
X078640Y053540D03*
X078340Y053290D03*
X077990Y053540D03*
X077690Y053290D03*
X076440Y053290D03*
X076040Y053390D03*
X075640Y053390D03*
X075290Y053590D03*
X074940Y053390D03*
X074140Y053240D03*
X074140Y053940D03*
X074490Y054440D03*
X074240Y054740D03*
X074490Y055040D03*
X074240Y055340D03*
X074240Y056240D03*
X075640Y057040D03*
X076040Y056640D03*
X076140Y056040D03*
X076840Y056690D03*
X077140Y058240D03*
X076740Y058290D03*
X079040Y057090D03*
X079040Y056640D03*
X080490Y056440D03*
X080490Y055840D03*
X081790Y056090D03*
X082290Y056240D03*
X082040Y056690D03*
X082890Y058390D03*
X083390Y059340D03*
X084390Y057740D03*
X081190Y059440D03*
X079940Y058490D03*
X075940Y060490D03*
X075890Y060990D03*
X075540Y061290D03*
X071140Y061590D03*
X070790Y060940D03*
X070340Y061390D03*
X069090Y061140D03*
X068240Y061440D03*
X067140Y060240D03*
X065790Y060490D03*
X065290Y060490D03*
X064390Y060440D03*
X064090Y060190D03*
X063490Y059140D03*
X062790Y058540D03*
X061640Y058540D03*
X061740Y057990D03*
X060990Y057140D03*
X060540Y057440D03*
X060240Y056890D03*
X061890Y056240D03*
X062040Y056640D03*
X062640Y056090D03*
X062990Y056340D03*
X063290Y055740D03*
X062140Y054740D03*
X063140Y054140D03*
X063140Y053790D03*
X062340Y053240D03*
X061990Y053240D03*
X063140Y052690D03*
X062140Y051740D03*
X065690Y054040D03*
X066340Y055440D03*
X066140Y056240D03*
X065640Y056740D03*
X065240Y056640D03*
X063340Y057390D03*
X064490Y058090D03*
X065740Y058040D03*
X065740Y058440D03*
X065740Y059040D03*
X067140Y058540D03*
X067040Y057990D03*
X067490Y057540D03*
X067490Y057090D03*
X067190Y055540D03*
X067190Y055140D03*
X067540Y054940D03*
X067240Y054040D03*
X069140Y054840D03*
X069940Y054840D03*
X070540Y055740D03*
X070990Y055240D03*
X072490Y056090D03*
X072890Y055390D03*
X070440Y057240D03*
X069040Y058940D03*
X070790Y060040D03*
X069090Y062490D03*
X069840Y063040D03*
X067390Y062840D03*
X065590Y063340D03*
X065590Y063740D03*
X065340Y062940D03*
X064840Y062540D03*
X065140Y062290D03*
X063640Y062140D03*
X063640Y062540D03*
X063640Y062940D03*
X063640Y063340D03*
X063640Y063740D03*
X062840Y061190D03*
X062690Y060840D03*
X062090Y059790D03*
X060690Y059840D03*
X060190Y058440D03*
X058440Y057190D03*
X057640Y057740D03*
X057640Y058240D03*
X056240Y058440D03*
X055090Y059540D03*
X055290Y060140D03*
X055690Y060240D03*
X057640Y059940D03*
X053390Y060240D03*
X053390Y061690D03*
X053390Y058740D03*
X053390Y055690D03*
X053390Y054240D03*
X053390Y052790D03*
X055090Y053740D03*
X055640Y053990D03*
X055640Y054440D03*
X058140Y054740D03*
X058390Y055390D03*
X061190Y055940D03*
X072340Y052640D03*
X074440Y051390D03*
X074890Y051390D03*
X075940Y050690D03*
X076740Y051790D03*
X073990Y050490D03*
X073340Y050090D03*
X072890Y049440D03*
X072890Y050790D03*
X073190Y047890D03*
X079240Y053540D03*
X081540Y053090D03*
X081940Y053490D03*
X092140Y059390D03*
X092640Y059390D03*
X092640Y061440D03*
X092140Y061440D03*
X065590Y042540D03*
X065590Y042140D03*
X065340Y041740D03*
X064840Y041340D03*
X065140Y041090D03*
X063640Y040940D03*
X063640Y041340D03*
X063640Y041740D03*
X063640Y042140D03*
X063640Y042540D03*
X062840Y039990D03*
X062690Y039640D03*
X062090Y038590D03*
X061640Y037340D03*
X061740Y036790D03*
X060990Y035940D03*
X060540Y036240D03*
X060240Y035690D03*
X061190Y034740D03*
X061890Y035040D03*
X062040Y035440D03*
X062640Y034890D03*
X062990Y035140D03*
X063290Y034540D03*
X062140Y033540D03*
X063140Y032940D03*
X063140Y032590D03*
X062340Y032040D03*
X061990Y032040D03*
X063140Y031490D03*
X062140Y030540D03*
X065690Y032840D03*
X066340Y034240D03*
X066140Y035040D03*
X065640Y035540D03*
X065240Y035440D03*
X065740Y036840D03*
X065740Y037240D03*
X065740Y037840D03*
X064490Y036890D03*
X063340Y036190D03*
X062790Y037340D03*
X063490Y037940D03*
X064090Y038990D03*
X064390Y039240D03*
X065290Y039290D03*
X065790Y039290D03*
X067140Y039040D03*
X068240Y040240D03*
X069090Y039940D03*
X070340Y040190D03*
X070790Y039740D03*
X071140Y040390D03*
X070790Y038840D03*
X069040Y037740D03*
X067140Y037340D03*
X067040Y036790D03*
X067490Y036340D03*
X067490Y035890D03*
X067190Y034340D03*
X067190Y033940D03*
X067540Y033740D03*
X067240Y032840D03*
X069140Y033640D03*
X069940Y033640D03*
X070990Y034040D03*
X070540Y034540D03*
X070440Y036040D03*
X072490Y034890D03*
X072890Y034190D03*
X074240Y034140D03*
X074490Y033840D03*
X074240Y033540D03*
X074490Y033240D03*
X074140Y032740D03*
X074140Y032040D03*
X074940Y032190D03*
X075290Y032390D03*
X075640Y032190D03*
X076040Y032190D03*
X076440Y032090D03*
X077690Y032090D03*
X077990Y032340D03*
X078340Y032090D03*
X078640Y032340D03*
X078940Y032090D03*
X079240Y032340D03*
X079290Y031040D03*
X079490Y030690D03*
X079740Y029340D03*
X080140Y029340D03*
X080540Y029340D03*
X080890Y029690D03*
X081290Y029690D03*
X081640Y029840D03*
X082240Y029840D03*
X083790Y029840D03*
X084840Y029740D03*
X084840Y029290D03*
X085940Y029840D03*
X086540Y029490D03*
X090140Y028490D03*
X091190Y028540D03*
X091490Y028990D03*
X092990Y031890D03*
X084390Y036540D03*
X082890Y037190D03*
X083390Y038140D03*
X081190Y038240D03*
X079940Y037290D03*
X079040Y035890D03*
X079040Y035440D03*
X080490Y035240D03*
X080490Y034640D03*
X081790Y034890D03*
X082290Y035040D03*
X082040Y035490D03*
X077140Y037040D03*
X076740Y037090D03*
X076840Y035490D03*
X076040Y035440D03*
X075640Y035840D03*
X076140Y034840D03*
X074240Y035040D03*
X072340Y031440D03*
X074440Y030190D03*
X074890Y030190D03*
X075940Y029490D03*
X076740Y030590D03*
X073990Y029290D03*
X073340Y028890D03*
X072890Y028240D03*
X072890Y029590D03*
X073190Y026690D03*
X065590Y021340D03*
X065590Y020940D03*
X065340Y020540D03*
X064840Y020140D03*
X065140Y019890D03*
X063640Y019740D03*
X063640Y020140D03*
X063640Y020540D03*
X063640Y020940D03*
X063640Y021340D03*
X062840Y018790D03*
X062690Y018440D03*
X062090Y017390D03*
X063490Y016740D03*
X062790Y016140D03*
X061640Y016140D03*
X061740Y015590D03*
X060990Y014740D03*
X060540Y015040D03*
X060240Y014490D03*
X061190Y013540D03*
X061890Y013840D03*
X062040Y014240D03*
X062640Y013690D03*
X062990Y013940D03*
X063290Y013340D03*
X062140Y012340D03*
X063140Y011740D03*
X063140Y011390D03*
X062340Y010840D03*
X061990Y010840D03*
X063140Y010290D03*
X062140Y009340D03*
X065690Y011640D03*
X066340Y013040D03*
X067190Y013140D03*
X067190Y012740D03*
X067540Y012540D03*
X067240Y011640D03*
X069140Y012440D03*
X069940Y012440D03*
X070540Y013340D03*
X070990Y012840D03*
X072490Y013690D03*
X072890Y012990D03*
X074240Y012940D03*
X074490Y012640D03*
X074240Y012340D03*
X074490Y012040D03*
X074140Y011540D03*
X074140Y010840D03*
X074940Y010990D03*
X075290Y011190D03*
X075640Y010990D03*
X076040Y010990D03*
X076440Y010890D03*
X077690Y010890D03*
X077990Y011140D03*
X078340Y010890D03*
X078640Y011140D03*
X078940Y010890D03*
X079240Y011140D03*
X079290Y009840D03*
X079490Y009490D03*
X080890Y008490D03*
X081290Y008490D03*
X081640Y008640D03*
X082240Y008640D03*
X083790Y008640D03*
X084840Y008540D03*
X084840Y008090D03*
X085940Y008640D03*
X086540Y008290D03*
X090140Y007290D03*
X091190Y007340D03*
X091490Y007790D03*
X092990Y010690D03*
X084390Y015340D03*
X082890Y015990D03*
X083390Y016940D03*
X081190Y017040D03*
X079940Y016090D03*
X079040Y014690D03*
X079040Y014240D03*
X080490Y014040D03*
X080490Y013440D03*
X081790Y013690D03*
X082290Y013840D03*
X082040Y014290D03*
X081940Y011090D03*
X081540Y010690D03*
X080540Y008140D03*
X080140Y008140D03*
X079740Y008140D03*
X076740Y009390D03*
X075940Y008290D03*
X074890Y008990D03*
X074440Y008990D03*
X073990Y008090D03*
X073340Y007690D03*
X072890Y007040D03*
X072890Y008390D03*
X072340Y010240D03*
X076140Y013640D03*
X076040Y014240D03*
X075640Y014640D03*
X076840Y014290D03*
X077140Y015840D03*
X076740Y015890D03*
X075940Y018090D03*
X075890Y018590D03*
X075540Y018890D03*
X071140Y019190D03*
X070790Y018540D03*
X070340Y018990D03*
X069090Y018740D03*
X068240Y019040D03*
X069090Y020090D03*
X069840Y020640D03*
X067390Y020440D03*
X065790Y018090D03*
X065290Y018090D03*
X064390Y018040D03*
X064090Y017790D03*
X065740Y016640D03*
X065740Y016040D03*
X065740Y015640D03*
X064490Y015690D03*
X063340Y014990D03*
X065240Y014240D03*
X065640Y014340D03*
X066140Y013840D03*
X067490Y014690D03*
X067490Y015140D03*
X067040Y015590D03*
X067140Y016140D03*
X067140Y017840D03*
X069040Y016540D03*
X070790Y017640D03*
X070440Y014840D03*
X074240Y013840D03*
X073190Y005490D03*
X058140Y012340D03*
X058390Y012990D03*
X058440Y014790D03*
X057640Y015340D03*
X057640Y015840D03*
X056240Y016040D03*
X055090Y017140D03*
X055290Y017740D03*
X055690Y017840D03*
X057640Y017540D03*
X060190Y016040D03*
X060690Y017440D03*
X053390Y017840D03*
X053390Y019290D03*
X053390Y016340D03*
X053390Y013290D03*
X053390Y011840D03*
X053390Y010390D03*
X055090Y011340D03*
X055640Y011590D03*
X055640Y012040D03*
X044990Y010690D03*
X043490Y007790D03*
X043190Y007340D03*
X042140Y007290D03*
X038540Y008290D03*
X037940Y008640D03*
X036840Y008540D03*
X036840Y008090D03*
X035790Y008640D03*
X034240Y008640D03*
X033640Y008640D03*
X033290Y008490D03*
X032890Y008490D03*
X032540Y008140D03*
X032140Y008140D03*
X031740Y008140D03*
X031490Y009490D03*
X031290Y009840D03*
X030940Y010890D03*
X030640Y011140D03*
X030340Y010890D03*
X029990Y011140D03*
X029690Y010890D03*
X028440Y010890D03*
X028040Y010990D03*
X027640Y010990D03*
X027290Y011190D03*
X026940Y010990D03*
X026140Y010840D03*
X026140Y011540D03*
X026490Y012040D03*
X026240Y012340D03*
X026490Y012640D03*
X026240Y012940D03*
X024890Y012990D03*
X024490Y013690D03*
X026240Y013840D03*
X027640Y014640D03*
X028040Y014240D03*
X028140Y013640D03*
X028840Y014290D03*
X029140Y015840D03*
X028740Y015890D03*
X031040Y014690D03*
X031040Y014240D03*
X032490Y014040D03*
X032490Y013440D03*
X033790Y013690D03*
X034290Y013840D03*
X034040Y014290D03*
X036390Y015340D03*
X034890Y015990D03*
X035390Y016940D03*
X033190Y017040D03*
X031940Y016090D03*
X027940Y018090D03*
X027890Y018590D03*
X027540Y018890D03*
X023140Y019190D03*
X022790Y018540D03*
X022340Y018990D03*
X021090Y018740D03*
X020240Y019040D03*
X021090Y020090D03*
X021840Y020640D03*
X019390Y020440D03*
X017590Y020940D03*
X017590Y021340D03*
X017340Y020540D03*
X016840Y020140D03*
X017140Y019890D03*
X015640Y019740D03*
X015640Y020140D03*
X015640Y020540D03*
X015640Y020940D03*
X015640Y021340D03*
X014840Y018790D03*
X014690Y018440D03*
X014090Y017390D03*
X012690Y017440D03*
X012190Y016040D03*
X013640Y016140D03*
X013740Y015590D03*
X012990Y014740D03*
X012540Y015040D03*
X012240Y014490D03*
X013190Y013540D03*
X013890Y013840D03*
X014040Y014240D03*
X014640Y013690D03*
X014990Y013940D03*
X015290Y013340D03*
X017240Y014240D03*
X017640Y014340D03*
X018140Y013840D03*
X019190Y013140D03*
X019190Y012740D03*
X019540Y012540D03*
X018340Y013040D03*
X017690Y011640D03*
X019240Y011640D03*
X021140Y012440D03*
X021940Y012440D03*
X022540Y013340D03*
X022990Y012840D03*
X022440Y014840D03*
X021040Y016540D03*
X019140Y016140D03*
X019040Y015590D03*
X019490Y015140D03*
X019490Y014690D03*
X017740Y015640D03*
X017740Y016040D03*
X017740Y016640D03*
X019140Y017840D03*
X017790Y018090D03*
X017290Y018090D03*
X016390Y018040D03*
X016090Y017790D03*
X015490Y016740D03*
X014790Y016140D03*
X015340Y014990D03*
X016490Y015690D03*
X014140Y012340D03*
X015140Y011740D03*
X015140Y011390D03*
X014340Y010840D03*
X013990Y010840D03*
X015140Y010290D03*
X014140Y009340D03*
X010140Y012340D03*
X010390Y012990D03*
X010440Y014790D03*
X009640Y015340D03*
X009640Y015840D03*
X008240Y016040D03*
X007090Y017140D03*
X007290Y017740D03*
X007690Y017840D03*
X009640Y017540D03*
X005390Y017840D03*
X005390Y019290D03*
X005390Y016340D03*
X005390Y013290D03*
X005390Y011840D03*
X007090Y011340D03*
X007640Y011590D03*
X007640Y012040D03*
X005390Y010390D03*
X022790Y017640D03*
X031240Y011140D03*
X033540Y010690D03*
X033940Y011090D03*
X028740Y009390D03*
X027940Y008290D03*
X026890Y008990D03*
X026440Y008990D03*
X025990Y008090D03*
X025340Y007690D03*
X024890Y007040D03*
X024890Y008390D03*
X024340Y010240D03*
X025190Y005490D03*
X044140Y016990D03*
X044640Y016990D03*
X044640Y019040D03*
X044140Y019040D03*
X043190Y028540D03*
X043490Y028990D03*
X042140Y028490D03*
X038540Y029490D03*
X037940Y029840D03*
X036840Y029740D03*
X036840Y029290D03*
X035790Y029840D03*
X034240Y029840D03*
X033640Y029840D03*
X033290Y029690D03*
X032890Y029690D03*
X032540Y029340D03*
X032140Y029340D03*
X031740Y029340D03*
X031490Y030690D03*
X031290Y031040D03*
X030940Y032090D03*
X030640Y032340D03*
X030340Y032090D03*
X029990Y032340D03*
X029690Y032090D03*
X028440Y032090D03*
X028040Y032190D03*
X027640Y032190D03*
X027290Y032390D03*
X026940Y032190D03*
X026140Y032040D03*
X026140Y032740D03*
X026490Y033240D03*
X026240Y033540D03*
X026490Y033840D03*
X026240Y034140D03*
X026240Y035040D03*
X024890Y034190D03*
X024490Y034890D03*
X022990Y034040D03*
X022540Y034540D03*
X021940Y033640D03*
X021140Y033640D03*
X019540Y033740D03*
X019190Y033940D03*
X019190Y034340D03*
X018340Y034240D03*
X018140Y035040D03*
X017640Y035540D03*
X017240Y035440D03*
X015340Y036190D03*
X016490Y036890D03*
X017740Y036840D03*
X017740Y037240D03*
X017740Y037840D03*
X019140Y037340D03*
X019040Y036790D03*
X019490Y036340D03*
X019490Y035890D03*
X021040Y037740D03*
X022790Y038840D03*
X022790Y039740D03*
X022340Y040190D03*
X023140Y040390D03*
X021840Y041840D03*
X021090Y041290D03*
X020240Y040240D03*
X021090Y039940D03*
X019140Y039040D03*
X017790Y039290D03*
X017290Y039290D03*
X016390Y039240D03*
X016090Y038990D03*
X014690Y039640D03*
X014840Y039990D03*
X015640Y040940D03*
X015640Y041340D03*
X015640Y041740D03*
X015640Y042140D03*
X015640Y042540D03*
X016840Y041340D03*
X017140Y041090D03*
X017340Y041740D03*
X017590Y042140D03*
X017590Y042540D03*
X019390Y041640D03*
X015490Y037940D03*
X014790Y037340D03*
X013640Y037340D03*
X013740Y036790D03*
X012990Y035940D03*
X012540Y036240D03*
X012240Y035690D03*
X013190Y034740D03*
X013890Y035040D03*
X014040Y035440D03*
X014640Y034890D03*
X014990Y035140D03*
X015290Y034540D03*
X014140Y033540D03*
X015140Y032940D03*
X015140Y032590D03*
X014340Y032040D03*
X013990Y032040D03*
X015140Y031490D03*
X014140Y030540D03*
X017690Y032840D03*
X019240Y032840D03*
X022440Y036040D03*
X027640Y035840D03*
X028040Y035440D03*
X028140Y034840D03*
X028840Y035490D03*
X029140Y037040D03*
X028740Y037090D03*
X031040Y035890D03*
X031040Y035440D03*
X032490Y035240D03*
X032490Y034640D03*
X033790Y034890D03*
X034290Y035040D03*
X034040Y035490D03*
X034890Y037190D03*
X036390Y036540D03*
X035390Y038140D03*
X033190Y038240D03*
X031940Y037290D03*
X027940Y039290D03*
X027890Y039790D03*
X027540Y040090D03*
X025190Y047890D03*
X024890Y049440D03*
X025340Y050090D03*
X025990Y050490D03*
X026440Y051390D03*
X026890Y051390D03*
X027940Y050690D03*
X028740Y051790D03*
X031290Y052240D03*
X031490Y051890D03*
X031740Y050540D03*
X032140Y050540D03*
X032540Y050540D03*
X032890Y050890D03*
X033290Y050890D03*
X033640Y051040D03*
X034240Y051040D03*
X035790Y051040D03*
X036840Y050940D03*
X036840Y050490D03*
X037940Y051040D03*
X038540Y050690D03*
X042140Y049690D03*
X043190Y049740D03*
X043490Y050190D03*
X044990Y053090D03*
X044640Y059390D03*
X044140Y059390D03*
X044140Y061440D03*
X044640Y061440D03*
X036390Y057740D03*
X034890Y058390D03*
X035390Y059340D03*
X033190Y059440D03*
X031940Y058490D03*
X031040Y057090D03*
X031040Y056640D03*
X032490Y056440D03*
X032490Y055840D03*
X033790Y056090D03*
X034290Y056240D03*
X034040Y056690D03*
X033940Y053490D03*
X033540Y053090D03*
X031240Y053540D03*
X030940Y053290D03*
X030640Y053540D03*
X030340Y053290D03*
X029990Y053540D03*
X029690Y053290D03*
X028440Y053290D03*
X028040Y053390D03*
X027640Y053390D03*
X027290Y053590D03*
X026940Y053390D03*
X026140Y053240D03*
X026140Y053940D03*
X026490Y054440D03*
X026240Y054740D03*
X026490Y055040D03*
X026240Y055340D03*
X026240Y056240D03*
X024890Y055390D03*
X024490Y056090D03*
X022990Y055240D03*
X022540Y055740D03*
X021940Y054840D03*
X021140Y054840D03*
X019540Y054940D03*
X019190Y055140D03*
X019190Y055540D03*
X018340Y055440D03*
X018140Y056240D03*
X017640Y056740D03*
X017240Y056640D03*
X015290Y055740D03*
X014990Y056340D03*
X014640Y056090D03*
X013890Y056240D03*
X014040Y056640D03*
X013190Y055940D03*
X014140Y054740D03*
X015140Y054140D03*
X015140Y053790D03*
X014340Y053240D03*
X013990Y053240D03*
X015140Y052690D03*
X014140Y051740D03*
X017690Y054040D03*
X019240Y054040D03*
X019490Y057090D03*
X019490Y057540D03*
X019040Y057990D03*
X019140Y058540D03*
X017740Y058440D03*
X017740Y058040D03*
X017740Y059040D03*
X016490Y058090D03*
X015340Y057390D03*
X014790Y058540D03*
X015490Y059140D03*
X016090Y060190D03*
X016390Y060440D03*
X017290Y060490D03*
X017790Y060490D03*
X019140Y060240D03*
X020240Y061440D03*
X021090Y061140D03*
X022340Y061390D03*
X022790Y060940D03*
X023140Y061590D03*
X021840Y063040D03*
X021090Y062490D03*
X019390Y062840D03*
X017590Y063340D03*
X017590Y063740D03*
X017340Y062940D03*
X016840Y062540D03*
X017140Y062290D03*
X015640Y062140D03*
X015640Y062540D03*
X015640Y062940D03*
X015640Y063340D03*
X015640Y063740D03*
X014840Y061190D03*
X014690Y060840D03*
X014090Y059790D03*
X012690Y059840D03*
X012190Y058440D03*
X012540Y057440D03*
X012990Y057140D03*
X012240Y056890D03*
X013740Y057990D03*
X013640Y058540D03*
X010440Y057190D03*
X009640Y057740D03*
X009640Y058240D03*
X008240Y058440D03*
X007090Y059540D03*
X007290Y060140D03*
X007690Y060240D03*
X009640Y059940D03*
X005390Y060240D03*
X005390Y061690D03*
X005390Y058740D03*
X005390Y055690D03*
X005390Y054240D03*
X007090Y053740D03*
X007640Y053990D03*
X007640Y054440D03*
X010140Y054740D03*
X010390Y055390D03*
X005390Y052790D03*
X021040Y058940D03*
X022790Y060040D03*
X022440Y057240D03*
X027640Y057040D03*
X028040Y056640D03*
X028140Y056040D03*
X028840Y056690D03*
X029140Y058240D03*
X028740Y058290D03*
X027940Y060490D03*
X027890Y060990D03*
X027540Y061290D03*
X024340Y052640D03*
X024890Y050790D03*
X009640Y038740D03*
X007690Y039040D03*
X007290Y038940D03*
X007090Y038340D03*
X005390Y039040D03*
X005390Y040490D03*
X005390Y037540D03*
X008240Y037240D03*
X009640Y037040D03*
X009640Y036540D03*
X010440Y035990D03*
X012190Y037240D03*
X012690Y038640D03*
X014090Y038590D03*
X010390Y034190D03*
X010140Y033540D03*
X007640Y033240D03*
X007640Y032790D03*
X007090Y032540D03*
X005390Y033040D03*
X005390Y031590D03*
X005390Y034490D03*
X024340Y031440D03*
X024890Y029590D03*
X025340Y028890D03*
X025990Y029290D03*
X026440Y030190D03*
X026890Y030190D03*
X027940Y029490D03*
X028740Y030590D03*
X031240Y032340D03*
X033540Y031890D03*
X033940Y032290D03*
X024890Y028240D03*
X025190Y026690D03*
X044140Y038190D03*
X044640Y038190D03*
X044640Y040240D03*
X044140Y040240D03*
X053390Y040490D03*
X053390Y039040D03*
X053390Y037540D03*
X055090Y038340D03*
X055290Y038940D03*
X055690Y039040D03*
X057640Y038740D03*
X057640Y037040D03*
X057640Y036540D03*
X058440Y035990D03*
X060190Y037240D03*
X060690Y038640D03*
X056240Y037240D03*
X058390Y034190D03*
X058140Y033540D03*
X055640Y033240D03*
X055640Y032790D03*
X055090Y032540D03*
X053390Y033040D03*
X053390Y031590D03*
X053390Y034490D03*
X044990Y031890D03*
X067390Y041640D03*
X069090Y041290D03*
X069840Y041840D03*
X075540Y040090D03*
X075890Y039790D03*
X075940Y039290D03*
X081940Y032290D03*
X081540Y031890D03*
X092140Y038190D03*
X092640Y038190D03*
X092640Y040240D03*
X092140Y040240D03*
X092140Y019040D03*
X092640Y019040D03*
X092640Y016990D03*
X092140Y016990D03*
D24*
X091640Y014840D02*
X087740Y014840D01*
X087040Y015540D01*
X085240Y015540D01*
X084540Y014840D01*
X081840Y014840D01*
X074390Y015840D02*
X071790Y015840D01*
X071590Y015640D01*
X071590Y009290D01*
X071590Y006790D02*
X071590Y005540D01*
X070490Y004540D02*
X069290Y003340D01*
X059140Y003340D01*
X058640Y003840D01*
X058640Y008490D01*
X058990Y008840D01*
X060688Y008840D01*
X060940Y009092D01*
X061640Y010240D02*
X060740Y011140D01*
X060040Y011140D01*
X060040Y012790D02*
X060040Y013740D01*
X059640Y014140D01*
X059640Y016490D01*
X060190Y017040D01*
X060640Y018590D02*
X061640Y019590D01*
X063190Y019590D01*
X059140Y024540D02*
X058640Y025040D01*
X058640Y029690D01*
X058990Y030040D01*
X060688Y030040D01*
X060940Y030292D01*
X061640Y031440D02*
X061640Y028790D01*
X059840Y028790D01*
X059570Y028520D01*
X059570Y028040D01*
X061640Y028790D02*
X063290Y028790D01*
X063290Y026240D01*
X074490Y026240D01*
X074940Y026690D01*
X075640Y026690D01*
X078440Y025740D02*
X078640Y025540D01*
X078640Y024990D01*
X078440Y025740D02*
X070490Y025740D01*
X069290Y024540D01*
X059140Y024540D01*
X063290Y028790D02*
X063290Y030090D01*
X061640Y031440D02*
X060740Y032340D01*
X060040Y032340D01*
X060040Y033990D02*
X060040Y034940D01*
X059640Y035340D01*
X059640Y037690D01*
X060190Y038240D01*
X060640Y039790D02*
X061640Y040790D01*
X063190Y040790D01*
X059140Y045740D02*
X058640Y046240D01*
X058640Y050890D01*
X058990Y051240D01*
X060688Y051240D01*
X060940Y051492D01*
X061640Y052640D02*
X061640Y049990D01*
X059840Y049990D01*
X059570Y049720D01*
X059570Y049240D01*
X061640Y049990D02*
X063290Y049990D01*
X063290Y047440D01*
X074490Y047440D01*
X074940Y047890D01*
X075640Y047890D01*
X078440Y046940D02*
X070490Y046940D01*
X069290Y045740D01*
X059140Y045740D01*
X063290Y049990D02*
X063290Y051290D01*
X061640Y052640D02*
X060740Y053540D01*
X060040Y053540D01*
X060040Y055190D02*
X060040Y056140D01*
X059640Y056540D01*
X059640Y058890D01*
X060190Y059440D01*
X060640Y060990D02*
X061640Y061990D01*
X063190Y061990D01*
X071590Y058040D02*
X071790Y058240D01*
X074390Y058240D01*
X071590Y058040D02*
X071590Y051690D01*
X071590Y049190D02*
X071590Y047940D01*
X078440Y046940D02*
X078640Y046740D01*
X078640Y046190D01*
X079640Y047240D02*
X091590Y047240D01*
X092090Y047740D01*
X092090Y050740D01*
X092090Y053090D02*
X092090Y056790D01*
X091640Y057240D01*
X087740Y057240D01*
X087040Y057940D01*
X085240Y057940D01*
X084540Y057240D01*
X081840Y057240D01*
X085240Y036740D02*
X084540Y036040D01*
X081840Y036040D01*
X085240Y036740D02*
X087040Y036740D01*
X087740Y036040D01*
X091640Y036040D01*
X092090Y035590D01*
X092090Y031890D01*
X092090Y029540D02*
X092090Y026540D01*
X091590Y026040D01*
X079640Y026040D01*
X071590Y026740D02*
X071590Y027990D01*
X071590Y030490D02*
X071590Y036840D01*
X071790Y037040D01*
X074390Y037040D01*
X044090Y035590D02*
X044090Y031890D01*
X044090Y029540D02*
X044090Y026540D01*
X043590Y026040D01*
X031640Y026040D01*
X030640Y025540D02*
X030440Y025740D01*
X022490Y025740D01*
X021290Y024540D01*
X011140Y024540D01*
X010640Y025040D01*
X010640Y029690D01*
X010990Y030040D01*
X012688Y030040D01*
X012940Y030292D01*
X013640Y031440D02*
X013640Y028790D01*
X011840Y028790D01*
X011570Y028520D01*
X011570Y028040D01*
X013640Y028790D02*
X015290Y028790D01*
X015290Y026240D01*
X026490Y026240D01*
X026940Y026690D01*
X027640Y026690D01*
X030640Y025540D02*
X030640Y024990D01*
X023590Y026740D02*
X023590Y027990D01*
X023590Y030490D02*
X023590Y036840D01*
X023790Y037040D01*
X026390Y037040D01*
X033840Y036040D02*
X036540Y036040D01*
X037240Y036740D01*
X039040Y036740D01*
X039740Y036040D01*
X043640Y036040D01*
X044090Y035590D01*
X030640Y046190D02*
X030640Y046740D01*
X030440Y046940D01*
X022490Y046940D01*
X021290Y045740D01*
X011140Y045740D01*
X010640Y046240D01*
X010640Y050890D01*
X010990Y051240D01*
X012688Y051240D01*
X012940Y051492D01*
X013640Y052640D02*
X013640Y049990D01*
X011840Y049990D01*
X011570Y049720D01*
X011570Y049240D01*
X013640Y049990D02*
X015290Y049990D01*
X015290Y047440D01*
X026490Y047440D01*
X026940Y047890D01*
X027640Y047890D01*
X023590Y047940D02*
X023590Y049190D01*
X023590Y051690D02*
X023590Y058040D01*
X023790Y058240D01*
X026390Y058240D01*
X033840Y057240D02*
X036540Y057240D01*
X037240Y057940D01*
X039040Y057940D01*
X039740Y057240D01*
X043640Y057240D01*
X044090Y056790D01*
X044090Y053090D01*
X044090Y050740D02*
X044090Y047740D01*
X043590Y047240D01*
X031640Y047240D01*
X015290Y049990D02*
X015290Y051290D01*
X013640Y052640D02*
X012740Y053540D01*
X012040Y053540D01*
X012040Y055190D02*
X012040Y056140D01*
X011640Y056540D01*
X011640Y058890D01*
X012190Y059440D01*
X012640Y060990D02*
X013640Y061990D01*
X015190Y061990D01*
X015190Y040790D02*
X013640Y040790D01*
X012640Y039790D01*
X012190Y038240D02*
X011640Y037690D01*
X011640Y035340D01*
X012040Y034940D01*
X012040Y033990D01*
X012040Y032340D02*
X012740Y032340D01*
X013640Y031440D01*
X015290Y030090D02*
X015290Y028790D01*
X015190Y019590D02*
X013640Y019590D01*
X012640Y018590D01*
X012190Y017040D02*
X011640Y016490D01*
X011640Y014140D01*
X012040Y013740D01*
X012040Y012790D01*
X012040Y011140D02*
X012740Y011140D01*
X013640Y010240D01*
X013640Y007590D01*
X011840Y007590D01*
X011570Y007320D01*
X011570Y006840D01*
X013640Y007590D02*
X015290Y007590D01*
X015290Y005040D01*
X026490Y005040D01*
X026940Y005490D01*
X027640Y005490D01*
X030440Y004540D02*
X022490Y004540D01*
X021290Y003340D01*
X011140Y003340D01*
X010640Y003840D01*
X010640Y008490D01*
X010990Y008840D01*
X012688Y008840D01*
X012940Y009092D01*
X015290Y008890D02*
X015290Y007590D01*
X023590Y006790D02*
X023590Y005540D01*
X023590Y009290D02*
X023590Y015640D01*
X023790Y015840D01*
X026390Y015840D01*
X033840Y014840D02*
X036540Y014840D01*
X037240Y015540D01*
X039040Y015540D01*
X039740Y014840D01*
X043640Y014840D01*
X044090Y014390D01*
X044090Y010690D01*
X044090Y008340D02*
X044090Y005340D01*
X043590Y004840D01*
X031640Y004840D01*
X030640Y004340D02*
X030440Y004540D01*
X030640Y004340D02*
X030640Y003790D01*
X059570Y006840D02*
X059570Y007320D01*
X059840Y007590D01*
X061640Y007590D01*
X061640Y010240D01*
X063290Y008890D02*
X063290Y007590D01*
X063290Y005040D01*
X074490Y005040D01*
X074940Y005490D01*
X075640Y005490D01*
X078440Y004540D02*
X070490Y004540D01*
X063290Y007590D02*
X061640Y007590D01*
X078440Y004540D02*
X078640Y004340D01*
X078640Y003790D01*
X079640Y004840D02*
X091590Y004840D01*
X092090Y005340D01*
X092090Y008340D01*
X092090Y010690D02*
X092090Y014390D01*
X091640Y014840D01*
D25*
X077140Y014590D02*
X076840Y014290D01*
X077140Y014590D02*
X077140Y015840D01*
X076840Y035490D02*
X077140Y035790D01*
X077140Y037040D01*
X076840Y056690D02*
X077140Y056990D01*
X077140Y058240D01*
X029140Y058240D02*
X029140Y056990D01*
X028840Y056690D01*
X029140Y037040D02*
X029140Y035790D01*
X028840Y035490D01*
X029140Y015840D02*
X029140Y014590D01*
X028840Y014290D01*
M02*
