G75*
%MOIN*%
%OFA0B0*%
%FSLAX24Y24*%
%IPPOS*%
%LPD*%
%AMOC8*
5,1,8,0,0,1.08239X$1,22.5*
%
%ADD10C,0.0316*%
%ADD11C,0.0710*%
%ADD12C,0.1740*%
%ADD13C,0.1700*%
%ADD14C,0.0820*%
%ADD15R,0.0820X0.0820*%
%ADD16OC8,0.0820*%
%ADD17R,0.0490X0.0490*%
%ADD18C,0.0490*%
%ADD19C,0.0415*%
%ADD20C,0.0730*%
%ADD21C,0.0740*%
%ADD22C,0.1380*%
D10*
X009640Y015340D03*
X009640Y036540D03*
X009640Y057740D03*
X042140Y049690D03*
X057640Y057740D03*
X057640Y036540D03*
X042140Y028490D03*
X057640Y015340D03*
X042140Y007290D03*
X090140Y007290D03*
X090140Y028490D03*
X090140Y049690D03*
D11*
X056534Y042540D03*
X055746Y042540D03*
X055746Y021340D03*
X056534Y021340D03*
X008534Y021340D03*
X007746Y021340D03*
X007746Y042540D03*
X008534Y042540D03*
X008534Y063740D03*
X007746Y063740D03*
X055746Y063740D03*
X056534Y063740D03*
D12*
X057004Y049140D03*
X057004Y027940D03*
X057004Y006740D03*
X009004Y006740D03*
X009004Y027940D03*
X009004Y049140D03*
D13*
X006121Y049130D03*
X007753Y047659D03*
X006121Y027930D03*
X007753Y026459D03*
X006121Y006730D03*
X007753Y005259D03*
X054121Y006730D03*
X055753Y005259D03*
X055753Y026459D03*
X054121Y027930D03*
X055753Y047659D03*
X054121Y049130D03*
D14*
X059570Y049240D03*
X060640Y049240D03*
X061710Y049240D03*
X061710Y047240D03*
X060640Y047240D03*
X059570Y047240D03*
X068140Y044090D03*
X069140Y043990D03*
X070140Y044090D03*
X071140Y043990D03*
X072140Y044090D03*
X073140Y043990D03*
X074140Y044090D03*
X075140Y043990D03*
X076140Y044090D03*
X077140Y043990D03*
X078640Y044090D03*
X079640Y043990D03*
X080640Y044090D03*
X081640Y043990D03*
X082640Y044090D03*
X083640Y043990D03*
X084640Y044090D03*
X084640Y046240D03*
X083640Y046140D03*
X082640Y046240D03*
X081640Y046140D03*
X080640Y046240D03*
X077640Y046290D03*
X076640Y046190D03*
X075640Y046290D03*
X074640Y046190D03*
X073640Y046290D03*
X072640Y046190D03*
X071640Y046290D03*
X085640Y046140D03*
X087640Y046190D03*
X088640Y046290D03*
X089640Y046190D03*
X090640Y046290D03*
X091640Y046190D03*
X092640Y046290D03*
X093640Y046190D03*
X084640Y065290D03*
X083640Y065190D03*
X082640Y065290D03*
X081640Y065190D03*
X080640Y065290D03*
X079640Y065190D03*
X078640Y065290D03*
X077140Y065190D03*
X076140Y065290D03*
X075140Y065190D03*
X074140Y065290D03*
X073140Y065190D03*
X072140Y065290D03*
X071140Y065190D03*
X070140Y065290D03*
X069140Y065190D03*
X068140Y065290D03*
X044640Y046290D03*
X043640Y046190D03*
X042640Y046290D03*
X041640Y046190D03*
X040640Y046290D03*
X039640Y046190D03*
X037640Y046140D03*
X036640Y046240D03*
X035640Y046140D03*
X034640Y046240D03*
X033640Y046140D03*
X032640Y046240D03*
X032640Y044090D03*
X031640Y043990D03*
X030640Y044090D03*
X029140Y043990D03*
X028140Y044090D03*
X027140Y043990D03*
X026140Y044090D03*
X025140Y043990D03*
X024140Y044090D03*
X023140Y043990D03*
X022140Y044090D03*
X021140Y043990D03*
X020140Y044090D03*
X023640Y046290D03*
X024640Y046190D03*
X025640Y046290D03*
X026640Y046190D03*
X027640Y046290D03*
X028640Y046190D03*
X029640Y046290D03*
X033640Y043990D03*
X034640Y044090D03*
X035640Y043990D03*
X036640Y044090D03*
X045640Y046190D03*
X059570Y028040D03*
X060640Y028040D03*
X061710Y028040D03*
X061710Y026040D03*
X060640Y026040D03*
X059570Y026040D03*
X068140Y022890D03*
X069140Y022790D03*
X070140Y022890D03*
X071140Y022790D03*
X072140Y022890D03*
X073140Y022790D03*
X074140Y022890D03*
X075140Y022790D03*
X076140Y022890D03*
X077140Y022790D03*
X078640Y022890D03*
X079640Y022790D03*
X080640Y022890D03*
X081640Y022790D03*
X082640Y022890D03*
X083640Y022790D03*
X084640Y022890D03*
X084640Y025040D03*
X083640Y024940D03*
X082640Y025040D03*
X081640Y024940D03*
X080640Y025040D03*
X077640Y025090D03*
X076640Y024990D03*
X075640Y025090D03*
X074640Y024990D03*
X073640Y025090D03*
X072640Y024990D03*
X071640Y025090D03*
X085640Y024940D03*
X087640Y024990D03*
X088640Y025090D03*
X089640Y024990D03*
X090640Y025090D03*
X091640Y024990D03*
X092640Y025090D03*
X093640Y024990D03*
X092640Y003890D03*
X091640Y003790D03*
X090640Y003890D03*
X089640Y003790D03*
X088640Y003890D03*
X087640Y003790D03*
X085640Y003740D03*
X084640Y003840D03*
X083640Y003740D03*
X082640Y003840D03*
X081640Y003740D03*
X080640Y003840D03*
X077640Y003890D03*
X076640Y003790D03*
X075640Y003890D03*
X074640Y003790D03*
X073640Y003890D03*
X072640Y003790D03*
X071640Y003890D03*
X061710Y004840D03*
X060640Y004840D03*
X059570Y004840D03*
X059570Y006840D03*
X060640Y006840D03*
X061710Y006840D03*
X045640Y003790D03*
X044640Y003890D03*
X043640Y003790D03*
X042640Y003890D03*
X041640Y003790D03*
X040640Y003890D03*
X039640Y003790D03*
X037640Y003740D03*
X036640Y003840D03*
X035640Y003740D03*
X034640Y003840D03*
X033640Y003740D03*
X032640Y003840D03*
X029640Y003890D03*
X028640Y003790D03*
X027640Y003890D03*
X026640Y003790D03*
X025640Y003890D03*
X024640Y003790D03*
X023640Y003890D03*
X013710Y004840D03*
X012640Y004840D03*
X011570Y004840D03*
X011570Y006840D03*
X012640Y006840D03*
X013710Y006840D03*
X021140Y022790D03*
X020140Y022890D03*
X022140Y022890D03*
X023140Y022790D03*
X024140Y022890D03*
X025140Y022790D03*
X026140Y022890D03*
X027140Y022790D03*
X028140Y022890D03*
X029140Y022790D03*
X030640Y022890D03*
X031640Y022790D03*
X032640Y022890D03*
X033640Y022790D03*
X034640Y022890D03*
X035640Y022790D03*
X036640Y022890D03*
X036640Y025040D03*
X035640Y024940D03*
X034640Y025040D03*
X033640Y024940D03*
X032640Y025040D03*
X029640Y025090D03*
X028640Y024990D03*
X027640Y025090D03*
X026640Y024990D03*
X025640Y025090D03*
X024640Y024990D03*
X023640Y025090D03*
X013710Y026040D03*
X012640Y026040D03*
X011570Y026040D03*
X011570Y028040D03*
X012640Y028040D03*
X013710Y028040D03*
X037640Y024940D03*
X039640Y024990D03*
X040640Y025090D03*
X041640Y024990D03*
X042640Y025090D03*
X043640Y024990D03*
X044640Y025090D03*
X045640Y024990D03*
X013710Y047240D03*
X012640Y047240D03*
X011570Y047240D03*
X011570Y049240D03*
X012640Y049240D03*
X013710Y049240D03*
X020140Y065290D03*
X021140Y065190D03*
X022140Y065290D03*
X023140Y065190D03*
X024140Y065290D03*
X025140Y065190D03*
X026140Y065290D03*
X027140Y065190D03*
X028140Y065290D03*
X029140Y065190D03*
X030640Y065290D03*
X031640Y065190D03*
X032640Y065290D03*
X033640Y065190D03*
X034640Y065290D03*
X035640Y065190D03*
X036640Y065290D03*
X093640Y003790D03*
D15*
X086640Y003890D03*
X078640Y003790D03*
X085640Y022790D03*
X086640Y025090D03*
X078640Y024990D03*
X085640Y043990D03*
X086640Y046290D03*
X078640Y046190D03*
X085640Y065190D03*
X038640Y046290D03*
X037640Y043990D03*
X030640Y046190D03*
X037640Y065190D03*
X038640Y025090D03*
X037640Y022790D03*
X030640Y024990D03*
X030640Y003790D03*
X038640Y003890D03*
D16*
X046640Y003840D03*
X047640Y003840D03*
X047640Y004840D03*
X047640Y005840D03*
X047640Y006840D03*
X046640Y006840D03*
X046640Y005840D03*
X046640Y004840D03*
X046640Y007840D03*
X046640Y008840D03*
X047640Y008840D03*
X047640Y007840D03*
X047640Y010840D03*
X046640Y010840D03*
X046640Y011840D03*
X046640Y012840D03*
X047640Y012840D03*
X047640Y011840D03*
X047640Y013840D03*
X047640Y014840D03*
X047640Y015840D03*
X046640Y015840D03*
X046640Y014840D03*
X046640Y013840D03*
X046640Y017840D03*
X047640Y017840D03*
X047640Y018840D03*
X047640Y019840D03*
X046640Y019840D03*
X046640Y018840D03*
X046640Y020840D03*
X046640Y021840D03*
X047640Y021840D03*
X047640Y020840D03*
X047640Y022840D03*
X046640Y022840D03*
X044640Y022840D03*
X043640Y022840D03*
X042640Y022840D03*
X041640Y022840D03*
X040640Y022840D03*
X039640Y022840D03*
X039640Y021840D03*
X040640Y021840D03*
X041640Y021840D03*
X042640Y021840D03*
X043640Y021840D03*
X044640Y021840D03*
X046640Y025040D03*
X046640Y026040D03*
X047640Y026040D03*
X047640Y025040D03*
X047640Y027040D03*
X047640Y028040D03*
X046640Y028040D03*
X046640Y027040D03*
X046640Y029040D03*
X046640Y030040D03*
X047640Y030040D03*
X047640Y029040D03*
X047640Y032040D03*
X047640Y033040D03*
X046640Y033040D03*
X046640Y032040D03*
X046640Y034040D03*
X046640Y035040D03*
X047640Y035040D03*
X047640Y034040D03*
X047640Y036040D03*
X047640Y037040D03*
X046640Y037040D03*
X046640Y036040D03*
X046640Y039040D03*
X046640Y040040D03*
X047640Y040040D03*
X047640Y039040D03*
X047640Y041040D03*
X047640Y042040D03*
X046640Y042040D03*
X046640Y041040D03*
X046640Y043040D03*
X046640Y044040D03*
X047640Y044040D03*
X047640Y043040D03*
X044640Y043040D03*
X043640Y043040D03*
X043640Y044040D03*
X044640Y044040D03*
X042640Y044040D03*
X042640Y043040D03*
X041640Y043040D03*
X041640Y044040D03*
X040640Y044040D03*
X040640Y043040D03*
X039640Y043040D03*
X039640Y044040D03*
X046640Y046240D03*
X047640Y046240D03*
X047640Y047240D03*
X047640Y048240D03*
X046640Y048240D03*
X046640Y047240D03*
X046640Y049240D03*
X046640Y050240D03*
X047640Y050240D03*
X047640Y049240D03*
X047640Y051240D03*
X046640Y051240D03*
X046640Y053240D03*
X046640Y054240D03*
X046640Y055240D03*
X047640Y055240D03*
X047640Y054240D03*
X047640Y053240D03*
X047640Y056240D03*
X047640Y057240D03*
X046640Y057240D03*
X046640Y056240D03*
X046640Y058240D03*
X047640Y058240D03*
X047640Y060240D03*
X047640Y061240D03*
X046640Y061240D03*
X046640Y060240D03*
X046640Y062240D03*
X046640Y063240D03*
X046640Y064240D03*
X047640Y064240D03*
X047640Y063240D03*
X047640Y062240D03*
X044640Y064240D03*
X043640Y064240D03*
X042640Y064240D03*
X041640Y064240D03*
X040640Y064240D03*
X039640Y064240D03*
X039640Y065240D03*
X040640Y065240D03*
X041640Y065240D03*
X042640Y065240D03*
X043640Y065240D03*
X044640Y065240D03*
X046640Y065240D03*
X047640Y065240D03*
X038640Y057240D03*
X038640Y056240D03*
X037640Y056240D03*
X037640Y057240D03*
X037640Y055240D03*
X038640Y055240D03*
X018640Y064740D03*
X017640Y064740D03*
X016640Y064740D03*
X015640Y064740D03*
X014640Y064740D03*
X013640Y064740D03*
X013640Y065740D03*
X014640Y065740D03*
X015640Y065740D03*
X016640Y065740D03*
X017640Y065740D03*
X018640Y065740D03*
X018640Y044540D03*
X018640Y043540D03*
X017640Y043540D03*
X017640Y044540D03*
X016640Y044540D03*
X016640Y043540D03*
X015640Y043540D03*
X015640Y044540D03*
X014640Y044540D03*
X014640Y043540D03*
X013640Y043540D03*
X013640Y044540D03*
X037640Y036040D03*
X038640Y036040D03*
X038640Y035040D03*
X038640Y034040D03*
X037640Y034040D03*
X037640Y035040D03*
X018640Y023340D03*
X018640Y022340D03*
X017640Y022340D03*
X017640Y023340D03*
X016640Y023340D03*
X016640Y022340D03*
X015640Y022340D03*
X015640Y023340D03*
X014640Y023340D03*
X014640Y022340D03*
X013640Y022340D03*
X013640Y023340D03*
X037640Y014840D03*
X037640Y013840D03*
X038640Y013840D03*
X038640Y014840D03*
X038640Y012840D03*
X037640Y012840D03*
X061640Y022340D03*
X061640Y023340D03*
X062640Y023340D03*
X062640Y022340D03*
X063640Y022340D03*
X063640Y023340D03*
X064640Y023340D03*
X064640Y022340D03*
X065640Y022340D03*
X065640Y023340D03*
X066640Y023340D03*
X066640Y022340D03*
X085640Y014840D03*
X085640Y013840D03*
X086640Y013840D03*
X086640Y014840D03*
X086640Y012840D03*
X085640Y012840D03*
X094640Y012840D03*
X094640Y011840D03*
X095640Y011840D03*
X095640Y012840D03*
X095640Y013840D03*
X095640Y014840D03*
X095640Y015840D03*
X094640Y015840D03*
X094640Y014840D03*
X094640Y013840D03*
X094640Y010840D03*
X095640Y010840D03*
X095640Y008840D03*
X095640Y007840D03*
X094640Y007840D03*
X094640Y008840D03*
X094640Y006840D03*
X094640Y005840D03*
X094640Y004840D03*
X095640Y004840D03*
X095640Y005840D03*
X095640Y006840D03*
X095640Y003840D03*
X094640Y003840D03*
X094640Y017840D03*
X095640Y017840D03*
X095640Y018840D03*
X095640Y019840D03*
X094640Y019840D03*
X094640Y018840D03*
X094640Y020840D03*
X094640Y021840D03*
X095640Y021840D03*
X095640Y020840D03*
X095640Y022840D03*
X094640Y022840D03*
X092640Y022840D03*
X091640Y022840D03*
X090640Y022840D03*
X089640Y022840D03*
X088640Y022840D03*
X087640Y022840D03*
X087640Y021840D03*
X088640Y021840D03*
X089640Y021840D03*
X090640Y021840D03*
X091640Y021840D03*
X092640Y021840D03*
X094640Y025040D03*
X094640Y026040D03*
X095640Y026040D03*
X095640Y025040D03*
X095640Y027040D03*
X095640Y028040D03*
X094640Y028040D03*
X094640Y027040D03*
X094640Y029040D03*
X094640Y030040D03*
X095640Y030040D03*
X095640Y029040D03*
X095640Y032040D03*
X095640Y033040D03*
X094640Y033040D03*
X094640Y032040D03*
X094640Y034040D03*
X094640Y035040D03*
X095640Y035040D03*
X095640Y034040D03*
X095640Y036040D03*
X095640Y037040D03*
X094640Y037040D03*
X094640Y036040D03*
X094640Y039040D03*
X094640Y040040D03*
X095640Y040040D03*
X095640Y039040D03*
X095640Y041040D03*
X095640Y042040D03*
X094640Y042040D03*
X094640Y041040D03*
X094640Y043040D03*
X094640Y044040D03*
X095640Y044040D03*
X095640Y043040D03*
X092640Y043040D03*
X092640Y044040D03*
X091640Y044040D03*
X091640Y043040D03*
X090640Y043040D03*
X090640Y044040D03*
X089640Y044040D03*
X089640Y043040D03*
X088640Y043040D03*
X088640Y044040D03*
X087640Y044040D03*
X087640Y043040D03*
X094640Y046240D03*
X095640Y046240D03*
X095640Y047240D03*
X095640Y048240D03*
X094640Y048240D03*
X094640Y047240D03*
X094640Y049240D03*
X094640Y050240D03*
X095640Y050240D03*
X095640Y049240D03*
X095640Y051240D03*
X094640Y051240D03*
X094640Y053240D03*
X094640Y054240D03*
X094640Y055240D03*
X095640Y055240D03*
X095640Y054240D03*
X095640Y053240D03*
X095640Y056240D03*
X095640Y057240D03*
X094640Y057240D03*
X094640Y056240D03*
X094640Y058240D03*
X095640Y058240D03*
X095640Y060240D03*
X095640Y061240D03*
X094640Y061240D03*
X094640Y060240D03*
X094640Y062240D03*
X094640Y063240D03*
X094640Y064240D03*
X095640Y064240D03*
X095640Y063240D03*
X095640Y062240D03*
X092640Y064240D03*
X091640Y064240D03*
X090640Y064240D03*
X089640Y064240D03*
X088640Y064240D03*
X087640Y064240D03*
X087640Y065240D03*
X088640Y065240D03*
X089640Y065240D03*
X090640Y065240D03*
X091640Y065240D03*
X092640Y065240D03*
X094640Y065240D03*
X095640Y065240D03*
X086640Y057240D03*
X086640Y056240D03*
X085640Y056240D03*
X085640Y057240D03*
X085640Y055240D03*
X086640Y055240D03*
X066640Y064740D03*
X065640Y064740D03*
X064640Y064740D03*
X063640Y064740D03*
X062640Y064740D03*
X061640Y064740D03*
X061640Y065740D03*
X062640Y065740D03*
X063640Y065740D03*
X064640Y065740D03*
X065640Y065740D03*
X066640Y065740D03*
X066640Y044540D03*
X066640Y043540D03*
X065640Y043540D03*
X065640Y044540D03*
X064640Y044540D03*
X064640Y043540D03*
X063640Y043540D03*
X063640Y044540D03*
X062640Y044540D03*
X062640Y043540D03*
X061640Y043540D03*
X061640Y044540D03*
X085640Y036040D03*
X086640Y036040D03*
X086640Y035040D03*
X086640Y034040D03*
X085640Y034040D03*
X085640Y035040D03*
D17*
X069140Y033040D03*
X065640Y031540D03*
X069140Y011840D03*
X065640Y010340D03*
X021140Y011840D03*
X017640Y010340D03*
X017640Y031540D03*
X021140Y033040D03*
X017640Y052740D03*
X021140Y054240D03*
X065640Y052740D03*
X069140Y054240D03*
D18*
X069640Y054240D03*
X069640Y053740D03*
X069640Y053240D03*
X069140Y053240D03*
X069140Y053740D03*
X069140Y052740D03*
X069640Y052740D03*
X069640Y052240D03*
X069140Y052240D03*
X067640Y052740D03*
X067140Y052740D03*
X067140Y053240D03*
X067640Y053240D03*
X066640Y053240D03*
X066140Y053240D03*
X066140Y052740D03*
X066640Y052740D03*
X065640Y053240D03*
X069640Y033040D03*
X069640Y032540D03*
X069140Y032540D03*
X069140Y032040D03*
X069640Y032040D03*
X069640Y031540D03*
X069140Y031540D03*
X069140Y031040D03*
X069640Y031040D03*
X067640Y031540D03*
X067140Y031540D03*
X067140Y032040D03*
X067640Y032040D03*
X066640Y032040D03*
X066140Y032040D03*
X066140Y031540D03*
X066640Y031540D03*
X065640Y032040D03*
X069640Y011840D03*
X069640Y011340D03*
X069140Y011340D03*
X069140Y010840D03*
X069640Y010840D03*
X069640Y010340D03*
X069640Y009840D03*
X069140Y009840D03*
X069140Y010340D03*
X067640Y010340D03*
X067140Y010340D03*
X067140Y010840D03*
X067640Y010840D03*
X066640Y010840D03*
X066140Y010840D03*
X066140Y010340D03*
X066640Y010340D03*
X065640Y010840D03*
X021640Y010840D03*
X021640Y010340D03*
X021640Y009840D03*
X021140Y009840D03*
X021140Y010340D03*
X021140Y010840D03*
X021140Y011340D03*
X021640Y011340D03*
X021640Y011840D03*
X019640Y010840D03*
X019640Y010340D03*
X019140Y010340D03*
X018640Y010340D03*
X018640Y010840D03*
X019140Y010840D03*
X018140Y010840D03*
X017640Y010840D03*
X018140Y010340D03*
X021140Y031040D03*
X021140Y031540D03*
X021140Y032040D03*
X021140Y032540D03*
X021640Y032540D03*
X021640Y033040D03*
X021640Y032040D03*
X021640Y031540D03*
X021640Y031040D03*
X019640Y031540D03*
X019640Y032040D03*
X019140Y032040D03*
X018640Y032040D03*
X018640Y031540D03*
X019140Y031540D03*
X018140Y031540D03*
X018140Y032040D03*
X017640Y032040D03*
X021140Y052240D03*
X021140Y052740D03*
X021140Y053240D03*
X021140Y053740D03*
X021640Y053740D03*
X021640Y053240D03*
X021640Y052740D03*
X021640Y052240D03*
X019640Y052740D03*
X019640Y053240D03*
X019140Y053240D03*
X018640Y053240D03*
X018640Y052740D03*
X019140Y052740D03*
X018140Y052740D03*
X018140Y053240D03*
X017640Y053240D03*
X021640Y054240D03*
D19*
X006256Y053492D03*
X006256Y054988D03*
X006256Y059492D03*
X006256Y060988D03*
X006256Y039788D03*
X006256Y038292D03*
X006256Y033788D03*
X006256Y032292D03*
X006256Y018588D03*
X006256Y017092D03*
X006256Y012588D03*
X006256Y011092D03*
X054256Y011092D03*
X054256Y012588D03*
X054256Y017092D03*
X054256Y018588D03*
X054256Y032292D03*
X054256Y033788D03*
X054256Y038292D03*
X054256Y039788D03*
X054256Y053492D03*
X054256Y054988D03*
X054256Y059492D03*
X054256Y060988D03*
D20*
X073890Y049240D03*
X074890Y049240D03*
X076640Y049740D03*
X078640Y049740D03*
X080390Y049240D03*
X081390Y049240D03*
X078640Y028540D03*
X080390Y028040D03*
X081390Y028040D03*
X076640Y028540D03*
X074890Y028040D03*
X073890Y028040D03*
X076640Y007340D03*
X074890Y006840D03*
X073890Y006840D03*
X078640Y007340D03*
X080390Y006840D03*
X081390Y006840D03*
X033390Y006840D03*
X032390Y006840D03*
X030640Y007340D03*
X028640Y007340D03*
X026890Y006840D03*
X025890Y006840D03*
X025890Y028040D03*
X026890Y028040D03*
X028640Y028540D03*
X030640Y028540D03*
X032390Y028040D03*
X033390Y028040D03*
X033390Y049240D03*
X032390Y049240D03*
X030640Y049740D03*
X028640Y049740D03*
X026890Y049240D03*
X025890Y049240D03*
D21*
X034890Y053540D03*
X035890Y053540D03*
X035890Y032340D03*
X034890Y032340D03*
X034890Y011140D03*
X035890Y011140D03*
X082890Y011140D03*
X083890Y011140D03*
X083890Y032340D03*
X082890Y032340D03*
X082890Y053540D03*
X083890Y053540D03*
D22*
X005640Y003840D03*
X005640Y022840D03*
X005640Y025040D03*
X005640Y044040D03*
X005640Y046240D03*
X005640Y065240D03*
X049640Y065240D03*
X053640Y065240D03*
X053640Y046240D03*
X053640Y044040D03*
X049640Y044040D03*
X049640Y046240D03*
X049640Y025040D03*
X049640Y022840D03*
X053640Y022840D03*
X053640Y025040D03*
X053640Y003840D03*
X049640Y003840D03*
X097640Y003840D03*
X097640Y022840D03*
X097640Y025040D03*
X097640Y044040D03*
X097640Y046240D03*
X097640Y065240D03*
M02*
