%
M48
M72
T01C0.0100
T02C0.0170
T03C0.0200
T04C0.0276
T05C0.0320
T06C0.0335
T07C0.0400
T08C0.1180
T09C0.1260
T10C0.1300
%
T01
X14140Y9340
X15140Y10290
X14340Y10840
X13990Y10840
X15140Y11390
X15140Y11740
X14140Y12340
X14640Y13690
X14990Y13940
X15290Y13340
X17240Y14240
X17640Y14340
X18140Y13840
X19190Y13140
X19190Y12740
X19540Y12540
X18340Y13040
X17690Y11640
X19240Y11640
X21140Y12440
X21940Y12440
X22540Y13340
X22990Y12840
X24490Y13690
X24890Y12990
X26240Y12940
X26490Y12640
X26240Y12340
X26490Y12040
X26140Y11540
X26140Y10840
X26940Y10990
X27290Y11190
X27640Y10990
X28040Y10990
X28440Y10890
X29690Y10890
X29990Y11140
X30340Y10890
X30640Y11140
X30940Y10890
X31240Y11140
X31290Y9840
X31490Y9490
X32890Y8490
X33290Y8490
X33640Y8640
X34240Y8640
X32540Y8140
X32140Y8140
X31740Y8140
X28740Y9390
X27940Y8290
X26890Y8990
X26440Y8990
X25990Y8090
X25340Y7690
X24890Y7040
X24890Y8390
X24340Y10240
X28140Y13640
X28040Y14240
X27640Y14640
X28840Y14290
X29140Y15840
X28740Y15890
X31040Y14690
X31040Y14240
X32490Y14040
X32490Y13440
X33790Y13690
X34290Y13840
X34040Y14290
X36390Y15340
X34890Y15990
X35390Y16940
X33190Y17040
X31940Y16090
X27940Y18090
X27890Y18590
X27540Y18890
X23140Y19190
X22790Y18540
X22340Y18990
X21090Y18740
X20240Y19040
X21090Y20090
X21840Y20640
X19390Y20440
X17590Y20940
X17590Y21340
X17340Y20540
X16840Y20140
X17140Y19890
X15640Y19740
X15640Y20140
X15640Y20540
X15640Y20940
X15640Y21340
X14840Y18790
X14690Y18440
X14090Y17390
X12690Y17440
X12190Y16040
X13640Y16140
X13740Y15590
X12990Y14740
X12540Y15040
X12240Y14490
X13190Y13540
X13890Y13840
X14040Y14240
X15340Y14990
X16490Y15690
X17740Y15640
X17740Y16040
X17740Y16640
X19140Y16140
X19040Y15590
X19490Y15140
X19490Y14690
X21040Y16540
X22790Y17640
X22440Y14840
X26240Y13840
X19140Y17840
X17790Y18090
X17290Y18090
X16390Y18040
X16090Y17790
X15490Y16740
X14790Y16140
X10440Y14790
X9640Y15340
X9640Y15840
X8240Y16040
X7090Y17140
X7290Y17740
X7690Y17840
X9640Y17540
X5390Y17840
X5390Y19290
X5390Y16340
X5390Y13290
X5390Y11840
X7090Y11340
X7640Y11590
X7640Y12040
X10140Y12340
X10390Y12990
X5390Y10390
X25190Y5490
X33540Y10690
X33940Y11090
X35790Y8640
X36840Y8540
X36840Y8090
X37940Y8640
X38540Y8290
X42140Y7290
X43190Y7340
X43490Y7790
X44990Y10690
X53390Y10390
X53390Y11840
X53390Y13290
X55640Y12040
X55640Y11590
X55090Y11340
X58140Y12340
X58390Y12990
X60240Y14490
X60540Y15040
X60990Y14740
X61740Y15590
X61640Y16140
X62790Y16140
X63490Y16740
X64090Y17790
X64390Y18040
X65290Y18090
X65790Y18090
X67140Y17840
X68240Y19040
X69090Y18740
X70340Y18990
X70790Y18540
X71140Y19190
X70790Y17640
X69040Y16540
X67140Y16140
X67040Y15590
X67490Y15140
X67490Y14690
X66140Y13840
X65640Y14340
X65240Y14240
X65740Y15640
X65740Y16040
X65740Y16640
X64490Y15690
X63340Y14990
X62990Y13940
X62640Y13690
X63290Y13340
X62040Y14240
X61890Y13840
X61190Y13540
X62140Y12340
X63140Y11740
X63140Y11390
X62340Y10840
X61990Y10840
X63140Y10290
X62140Y9340
X65690Y11640
X66340Y13040
X67190Y13140
X67190Y12740
X67540Y12540
X67240Y11640
X69140Y12440
X69940Y12440
X70540Y13340
X70990Y12840
X72490Y13690
X72890Y12990
X74240Y12940
X74490Y12640
X74240Y12340
X74490Y12040
X74140Y11540
X74140Y10840
X74940Y10990
X75290Y11190
X75640Y10990
X76040Y10990
X76440Y10890
X77690Y10890
X77990Y11140
X78340Y10890
X78640Y11140
X78940Y10890
X79240Y11140
X79290Y9840
X79490Y9490
X80890Y8490
X81290Y8490
X81640Y8640
X82240Y8640
X83790Y8640
X84840Y8540
X84840Y8090
X85940Y8640
X86540Y8290
X90140Y7290
X91190Y7340
X91490Y7790
X92990Y10690
X84390Y15340
X82890Y15990
X83390Y16940
X81190Y17040
X79940Y16090
X79040Y14690
X79040Y14240
X80490Y14040
X80490Y13440
X81790Y13690
X82290Y13840
X82040Y14290
X81940Y11090
X81540Y10690
X80540Y8140
X80140Y8140
X79740Y8140
X76740Y9390
X75940Y8290
X74890Y8990
X74440Y8990
X73990Y8090
X73340Y7690
X72890Y7040
X72890Y8390
X72340Y10240
X76140Y13640
X76040Y14240
X75640Y14640
X76840Y14290
X77140Y15840
X76740Y15890
X75940Y18090
X75890Y18590
X75540Y18890
X69840Y20640
X69090Y20090
X67390Y20440
X65590Y20940
X65590Y21340
X65340Y20540
X64840Y20140
X65140Y19890
X63640Y19740
X63640Y20140
X63640Y20540
X63640Y20940
X63640Y21340
X62840Y18790
X62690Y18440
X62090Y17390
X60690Y17440
X60190Y16040
X58440Y14790
X57640Y15340
X57640Y15840
X56240Y16040
X55090Y17140
X55290Y17740
X55690Y17840
X57640Y17540
X53390Y17840
X53390Y19290
X53390Y16340
X44640Y16990
X44140Y16990
X44140Y19040
X44640Y19040
X43190Y28540
X43490Y28990
X42140Y28490
X38540Y29490
X37940Y29840
X36840Y29740
X36840Y29290
X35790Y29840
X34240Y29840
X33640Y29840
X33290Y29690
X32890Y29690
X32540Y29340
X32140Y29340
X31740Y29340
X31490Y30690
X31290Y31040
X30940Y32090
X30640Y32340
X30340Y32090
X29990Y32340
X29690Y32090
X28440Y32090
X28040Y32190
X27640Y32190
X27290Y32390
X26940Y32190
X26140Y32040
X26140Y32740
X26490Y33240
X26240Y33540
X26490Y33840
X26240Y34140
X26240Y35040
X24890Y34190
X24490Y34890
X22990Y34040
X22540Y34540
X21940Y33640
X21140Y33640
X19540Y33740
X19190Y33940
X19190Y34340
X18340Y34240
X18140Y35040
X17640Y35540
X17240Y35440
X15340Y36190
X16490Y36890
X17740Y36840
X17740Y37240
X17740Y37840
X19140Y37340
X19040Y36790
X19490Y36340
X19490Y35890
X21040Y37740
X22790Y38840
X22790Y39740
X22340Y40190
X23140Y40390
X21840Y41840
X21090Y41290
X20240Y40240
X21090Y39940
X19140Y39040
X17790Y39290
X17290Y39290
X16390Y39240
X16090Y38990
X14690Y39640
X14840Y39990
X15640Y40940
X15640Y41340
X15640Y41740
X15640Y42140
X15640Y42540
X16840Y41340
X17140Y41090
X17340Y41740
X17590Y42140
X17590Y42540
X19390Y41640
X15490Y37940
X14790Y37340
X13640Y37340
X13740Y36790
X12990Y35940
X12540Y36240
X12240Y35690
X13190Y34740
X13890Y35040
X14040Y35440
X14640Y34890
X14990Y35140
X15290Y34540
X14140Y33540
X15140Y32940
X15140Y32590
X14340Y32040
X13990Y32040
X15140Y31490
X14140Y30540
X17690Y32840
X19240Y32840
X22440Y36040
X27640Y35840
X28040Y35440
X28140Y34840
X28840Y35490
X29140Y37040
X28740Y37090
X31040Y35890
X31040Y35440
X32490Y35240
X32490Y34640
X33790Y34890
X34290Y35040
X34040Y35490
X34890Y37190
X36390Y36540
X35390Y38140
X33190Y38240
X31940Y37290
X27940Y39290
X27890Y39790
X27540Y40090
X25190Y47890
X24890Y49440
X25340Y50090
X25990Y50490
X26440Y51390
X26890Y51390
X27940Y50690
X28740Y51790
X31290Y52240
X31490Y51890
X31740Y50540
X32140Y50540
X32540Y50540
X32890Y50890
X33290Y50890
X33640Y51040
X34240Y51040
X35790Y51040
X36840Y50940
X36840Y50490
X37940Y51040
X38540Y50690
X42140Y49690
X43190Y49740
X43490Y50190
X44990Y53090
X53390Y52790
X53390Y54240
X53390Y55690
X55640Y54440
X55640Y53990
X55090Y53740
X58140Y54740
X58390Y55390
X58440Y57190
X57640Y57740
X57640Y58240
X56240Y58440
X55090Y59540
X55290Y60140
X55690Y60240
X57640Y59940
X60190Y58440
X60540Y57440
X60990Y57140
X60240Y56890
X61890Y56240
X62040Y56640
X62640Y56090
X62990Y56340
X63290Y55740
X62140Y54740
X63140Y54140
X63140Y53790
X62340Y53240
X61990Y53240
X63140Y52690
X62140Y51740
X65690Y54040
X66340Y55440
X66140Y56240
X65640Y56740
X65240Y56640
X63340Y57390
X62790Y58540
X63490Y59140
X64490Y58090
X65740Y58040
X65740Y58440
X65740Y59040
X65790Y60490
X65290Y60490
X64390Y60440
X64090Y60190
X62690Y60840
X62840Y61190
X63640Y62140
X63640Y62540
X63640Y62940
X63640Y63340
X63640Y63740
X64840Y62540
X65140Y62290
X65340Y62940
X65590Y63340
X65590Y63740
X67390Y62840
X68240Y61440
X69090Y61140
X70340Y61390
X70790Y60940
X71140Y61590
X69840Y63040
X69090Y62490
X67140Y60240
X69040Y58940
X70790Y60040
X67140Y58540
X67040Y57990
X67490Y57540
X67490Y57090
X67190Y55540
X67190Y55140
X67540Y54940
X67240Y54040
X69140Y54840
X69940Y54840
X70540Y55740
X70990Y55240
X72490Y56090
X72890Y55390
X74240Y55340
X74490Y55040
X74240Y54740
X74490Y54440
X74140Y53940
X74140Y53240
X74940Y53390
X75290Y53590
X75640Y53390
X76040Y53390
X76440Y53290
X77690Y53290
X77990Y53540
X78340Y53290
X78640Y53540
X78940Y53290
X79240Y53540
X79290Y52240
X79490Y51890
X79740Y50540
X80140Y50540
X80540Y50540
X80890Y50890
X81290Y50890
X81640Y51040
X82240Y51040
X83790Y51040
X84840Y50940
X84840Y50490
X85940Y51040
X86540Y50690
X90140Y49690
X91190Y49740
X91490Y50190
X92990Y53090
X84390Y57740
X82890Y58390
X83390Y59340
X81190Y59440
X79940Y58490
X79040Y57090
X79040Y56640
X80490Y56440
X80490Y55840
X81790Y56090
X82290Y56240
X82040Y56690
X77140Y58240
X76740Y58290
X76840Y56690
X76040Y56640
X75640Y57040
X76140Y56040
X74240Y56240
X70440Y57240
X75940Y60490
X75890Y60990
X75540Y61290
X81940Y53490
X81540Y53090
X76740Y51790
X75940Y50690
X74890Y51390
X74440Y51390
X73990Y50490
X73340Y50090
X72890Y49440
X72890Y50790
X72340Y52640
X73190Y47890
X65590Y42540
X65590Y42140
X65340Y41740
X64840Y41340
X65140Y41090
X63640Y40940
X63640Y41340
X63640Y41740
X63640Y42140
X63640Y42540
X62840Y39990
X62690Y39640
X62090Y38590
X61640Y37340
X61740Y36790
X60990Y35940
X60540Y36240
X60240Y35690
X61190Y34740
X61890Y35040
X62040Y35440
X62640Y34890
X62990Y35140
X63290Y34540
X62140Y33540
X63140Y32940
X63140Y32590
X62340Y32040
X61990Y32040
X63140Y31490
X62140Y30540
X65690Y32840
X66340Y34240
X66140Y35040
X65640Y35540
X65240Y35440
X65740Y36840
X65740Y37240
X65740Y37840
X64490Y36890
X63340Y36190
X62790Y37340
X63490Y37940
X64090Y38990
X64390Y39240
X65290Y39290
X65790Y39290
X67140Y39040
X68240Y40240
X69090Y39940
X70340Y40190
X70790Y39740
X71140Y40390
X70790Y38840
X69040Y37740
X67140Y37340
X67040Y36790
X67490Y36340
X67490Y35890
X67190Y34340
X67190Y33940
X67540Y33740
X67240Y32840
X69140Y33640
X69940Y33640
X70990Y34040
X70540Y34540
X70440Y36040
X72490Y34890
X72890Y34190
X74240Y34140
X74490Y33840
X74240Y33540
X74490Y33240
X74140Y32740
X74140Y32040
X74940Y32190
X75290Y32390
X75640Y32190
X76040Y32190
X76440Y32090
X77690Y32090
X77990Y32340
X78340Y32090
X78640Y32340
X78940Y32090
X79240Y32340
X79290Y31040
X79490Y30690
X79740Y29340
X80140Y29340
X80540Y29340
X80890Y29690
X81290Y29690
X81640Y29840
X82240Y29840
X83790Y29840
X84840Y29740
X84840Y29290
X85940Y29840
X86540Y29490
X90140Y28490
X91190Y28540
X91490Y28990
X92990Y31890
X84390Y36540
X82890Y37190
X83390Y38140
X81190Y38240
X79940Y37290
X79040Y35890
X79040Y35440
X80490Y35240
X80490Y34640
X81790Y34890
X82290Y35040
X82040Y35490
X77140Y37040
X76740Y37090
X76840Y35490
X76040Y35440
X75640Y35840
X76140Y34840
X74240Y35040
X72340Y31440
X74440Y30190
X74890Y30190
X75940Y29490
X76740Y30590
X73990Y29290
X73340Y28890
X72890Y28240
X72890Y29590
X73190Y26690
X81540Y31890
X81940Y32290
X75940Y39290
X75890Y39790
X75540Y40090
X69840Y41840
X69090Y41290
X67390Y41640
X60690Y38640
X60190Y37240
X58440Y35990
X57640Y36540
X57640Y37040
X56240Y37240
X55090Y38340
X55290Y38940
X55690Y39040
X57640Y38740
X53390Y39040
X53390Y40490
X53390Y37540
X53390Y34490
X53390Y33040
X53390Y31590
X55090Y32540
X55640Y32790
X55640Y33240
X58140Y33540
X58390Y34190
X44990Y31890
X44640Y38190
X44140Y38190
X44140Y40240
X44640Y40240
X33940Y32290
X33540Y31890
X31240Y32340
X28740Y30590
X27940Y29490
X26890Y30190
X26440Y30190
X25990Y29290
X25340Y28890
X24890Y28240
X24890Y29590
X24340Y31440
X25190Y26690
X10390Y34190
X10140Y33540
X7640Y33240
X7640Y32790
X7090Y32540
X5390Y33040
X5390Y31590
X5390Y34490
X8240Y37240
X9640Y37040
X9640Y36540
X10440Y35990
X12190Y37240
X12690Y38640
X14090Y38590
X9640Y38740
X7690Y39040
X7290Y38940
X7090Y38340
X5390Y39040
X5390Y40490
X5390Y37540
X24890Y50790
X24340Y52640
X26140Y53240
X26140Y53940
X26490Y54440
X26240Y54740
X26490Y55040
X26240Y55340
X26240Y56240
X24890Y55390
X24490Y56090
X22990Y55240
X22540Y55740
X21940Y54840
X21140Y54840
X19540Y54940
X19190Y55140
X19190Y55540
X18340Y55440
X18140Y56240
X17640Y56740
X17240Y56640
X15290Y55740
X14990Y56340
X14640Y56090
X13890Y56240
X14040Y56640
X13190Y55940
X14140Y54740
X15140Y54140
X15140Y53790
X14340Y53240
X13990Y53240
X15140Y52690
X14140Y51740
X17690Y54040
X19240Y54040
X19490Y57090
X19490Y57540
X19040Y57990
X19140Y58540
X17740Y58440
X17740Y58040
X17740Y59040
X16490Y58090
X15340Y57390
X14790Y58540
X15490Y59140
X16090Y60190
X16390Y60440
X17290Y60490
X17790Y60490
X19140Y60240
X20240Y61440
X21090Y61140
X22340Y61390
X22790Y60940
X23140Y61590
X21840Y63040
X21090Y62490
X19390Y62840
X17590Y63340
X17590Y63740
X17340Y62940
X16840Y62540
X17140Y62290
X15640Y62140
X15640Y62540
X15640Y62940
X15640Y63340
X15640Y63740
X14840Y61190
X14690Y60840
X14090Y59790
X12690Y59840
X12190Y58440
X12540Y57440
X12990Y57140
X12240Y56890
X13740Y57990
X13640Y58540
X10440Y57190
X9640Y57740
X9640Y58240
X8240Y58440
X7090Y59540
X7290Y60140
X7690Y60240
X9640Y59940
X5390Y60240
X5390Y61690
X5390Y58740
X5390Y55690
X5390Y54240
X7090Y53740
X7640Y53990
X7640Y54440
X10140Y54740
X10390Y55390
X5390Y52790
X21040Y58940
X22790Y60040
X22440Y57240
X27640Y57040
X28040Y56640
X28140Y56040
X28840Y56690
X29140Y58240
X28740Y58290
X31040Y57090
X31040Y56640
X32490Y56440
X32490Y55840
X33790Y56090
X34290Y56240
X34040Y56690
X34890Y58390
X35390Y59340
X36390Y57740
X33190Y59440
X31940Y58490
X27940Y60490
X27890Y60990
X27540Y61290
X27290Y53590
X26940Y53390
X27640Y53390
X28040Y53390
X28440Y53290
X29690Y53290
X29990Y53540
X30340Y53290
X30640Y53540
X30940Y53290
X31240Y53540
X33540Y53090
X33940Y53490
X44140Y59390
X44640Y59390
X44640Y61440
X44140Y61440
X53390Y61690
X53390Y60240
X53390Y58740
X60690Y59840
X62090Y59790
X61640Y58540
X61740Y57990
X61190Y55940
X92140Y59390
X92640Y59390
X92640Y61440
X92140Y61440
X92140Y40240
X92640Y40240
X92640Y38190
X92140Y38190
X92140Y19040
X92640Y19040
X92640Y16990
X92140Y16990
X74240Y13840
X70440Y14840
X73190Y5490
T02
X69640Y9840
X69140Y9840
X69140Y10340
X69640Y10340
X69640Y10840
X69140Y10840
X69140Y11340
X69640Y11340
X69640Y11840
X69140Y11840
X67640Y10840
X67140Y10840
X67140Y10340
X67640Y10340
X66640Y10340
X66140Y10340
X66140Y10840
X66640Y10840
X65640Y10840
X65640Y10340
X69140Y31040
X69640Y31040
X69640Y31540
X69140Y31540
X69140Y32040
X69640Y32040
X69640Y32540
X69140Y32540
X69140Y33040
X69640Y33040
X67640Y32040
X67140Y32040
X67140Y31540
X67640Y31540
X66640Y31540
X66140Y31540
X66140Y32040
X66640Y32040
X65640Y32040
X65640Y31540
X69140Y52240
X69640Y52240
X69640Y52740
X69140Y52740
X69140Y53240
X69640Y53240
X69640Y53740
X69140Y53740
X69140Y54240
X69640Y54240
X67640Y53240
X67140Y53240
X67140Y52740
X67640Y52740
X66640Y52740
X66140Y52740
X66140Y53240
X66640Y53240
X65640Y53240
X65640Y52740
X21640Y52740
X21640Y52240
X21140Y52240
X21140Y52740
X21140Y53240
X21140Y53740
X21140Y54240
X21640Y54240
X21640Y53740
X21640Y53240
X19640Y53240
X19640Y52740
X19140Y52740
X18640Y52740
X18640Y53240
X19140Y53240
X18140Y53240
X17640Y53240
X17640Y52740
X18140Y52740
X21140Y33040
X21140Y32540
X21140Y32040
X21140Y31540
X21140Y31040
X21640Y31040
X21640Y31540
X21640Y32040
X21640Y32540
X21640Y33040
X19640Y32040
X19640Y31540
X19140Y31540
X18640Y31540
X18640Y32040
X19140Y32040
X18140Y32040
X17640Y32040
X17640Y31540
X18140Y31540
X21140Y11840
X21140Y11340
X21140Y10840
X21140Y10340
X21140Y9840
X21640Y9840
X21640Y10340
X21640Y10840
X21640Y11340
X21640Y11840
X19640Y10840
X19640Y10340
X19140Y10340
X18640Y10340
X18640Y10840
X19140Y10840
X18140Y10840
X17640Y10840
X17640Y10340
X18140Y10340
T03
X16640Y9340
X15290Y8890
X12940Y9092
X12040Y11140
X12040Y12790
X15640Y12640
X12190Y17040
X12640Y18590
X15190Y19590
X25340Y16540
X26390Y15840
X31290Y15990
X33840Y14840
X35390Y12690
X44090Y10690
X44090Y8340
X31640Y4840
X27640Y5490
X26190Y5990
X23590Y5540
X23590Y6790
X23590Y9290
X25640Y9340
X31640Y26040
X27640Y26690
X26190Y27190
X23590Y26740
X23590Y27990
X23590Y30490
X25640Y30540
X33840Y36040
X35390Y33890
X31290Y37190
X26390Y37040
X25340Y37740
X15640Y33840
X16640Y30540
X15290Y30090
X12940Y30292
X12040Y32340
X12040Y33990
X12190Y38240
X12640Y39790
X15190Y40790
X23590Y47940
X23590Y49190
X26190Y48390
X27640Y47890
X31640Y47240
X25640Y51740
X23590Y51690
X16640Y51740
X15290Y51290
X12940Y51492
X12040Y53540
X12040Y55190
X15640Y55040
X12190Y59440
X12640Y60990
X15190Y61990
X25340Y58940
X26390Y58240
X31290Y58390
X33840Y57240
X35390Y55090
X44090Y53090
X44090Y50740
X60040Y53540
X60040Y55190
X63640Y55040
X64640Y51740
X63290Y51290
X60940Y51492
X71590Y51690
X73640Y51740
X71590Y49190
X71590Y47940
X74190Y48390
X75640Y47890
X79640Y47240
X83390Y55090
X81840Y57240
X79290Y58390
X74390Y58240
X73340Y58940
X63190Y61990
X60640Y60990
X60190Y59440
X63190Y40790
X60640Y39790
X60190Y38240
X60040Y33990
X60040Y32340
X60940Y30292
X63290Y30090
X64640Y30540
X63640Y33840
X71590Y30490
X73640Y30540
X71590Y27990
X71590Y26740
X74190Y27190
X75640Y26690
X79640Y26040
X83390Y33890
X81840Y36040
X79290Y37190
X74390Y37040
X73340Y37740
X92090Y31890
X92090Y29540
X79290Y15990
X81840Y14840
X83390Y12690
X92090Y10690
X92090Y8340
X79640Y4840
X75640Y5490
X74190Y5990
X71590Y5540
X71590Y6790
X71590Y9290
X73640Y9340
X74390Y15840
X73340Y16540
X63640Y12640
X60040Y12790
X60040Y11140
X60940Y9092
X63290Y8890
X64640Y9340
X60190Y17040
X60640Y18590
X63190Y19590
X44090Y29540
X44090Y31890
X92090Y50740
X92090Y53090
T04
X81390Y49240
X80390Y49240
X78640Y49740
X76640Y49740
X74890Y49240
X73890Y49240
X56534Y42540
X55746Y42540
X73890Y28040
X74890Y28040
X76640Y28540
X78640Y28540
X80390Y28040
X81390Y28040
X56534Y21340
X55746Y21340
X73890Y6840
X74890Y6840
X76640Y7340
X78640Y7340
X80390Y6840
X81390Y6840
X33390Y6840
X32390Y6840
X30640Y7340
X28640Y7340
X26890Y6840
X25890Y6840
X8534Y21340
X7746Y21340
X25890Y28040
X26890Y28040
X28640Y28540
X30640Y28540
X32390Y28040
X33390Y28040
X8534Y42540
X7746Y42540
X25890Y49240
X26890Y49240
X28640Y49740
X30640Y49740
X32390Y49240
X33390Y49240
X55746Y63740
X56534Y63740
X8534Y63740
X7746Y63740
T05
X34890Y53540
X35890Y53540
X35890Y32340
X34890Y32340
X34890Y11140
X35890Y11140
X82890Y11140
X83890Y11140
X83890Y32340
X82890Y32340
X82890Y53540
X83890Y53540
T06
X54256Y53492
X54256Y54988
X54256Y59492
X54256Y60988
X54256Y39788
X54256Y38292
X54256Y33788
X54256Y32292
X54256Y18588
X54256Y17092
X54256Y12588
X54256Y11092
X6256Y11092
X6256Y12588
X6256Y17092
X6256Y18588
X6256Y32292
X6256Y33788
X6256Y38292
X6256Y39788
X6256Y53492
X6256Y54988
X6256Y59492
X6256Y60988
T07
X13640Y64740
X14640Y64740
X15640Y64740
X16640Y64740
X17640Y64740
X18640Y64740
X20140Y65290
X21140Y65190
X22140Y65290
X23140Y65190
X24140Y65290
X25140Y65190
X26140Y65290
X27140Y65190
X28140Y65290
X29140Y65190
X30640Y65290
X31640Y65190
X32640Y65290
X33640Y65190
X34640Y65290
X35640Y65190
X36640Y65290
X37640Y65190
X39640Y65240
X40640Y65240
X41640Y65240
X42640Y65240
X43640Y65240
X44640Y65240
X44640Y64240
X43640Y64240
X42640Y64240
X41640Y64240
X40640Y64240
X39640Y64240
X46640Y64240
X46640Y63240
X46640Y62240
X47640Y62240
X47640Y63240
X47640Y64240
X47640Y65240
X46640Y65240
X46640Y61240
X46640Y60240
X47640Y60240
X47640Y61240
X47640Y58240
X46640Y58240
X46640Y57240
X46640Y56240
X47640Y56240
X47640Y57240
X47640Y55240
X47640Y54240
X47640Y53240
X46640Y53240
X46640Y54240
X46640Y55240
X46640Y51240
X47640Y51240
X47640Y50240
X47640Y49240
X46640Y49240
X46640Y50240
X46640Y48240
X46640Y47240
X47640Y47240
X47640Y48240
X47640Y46240
X46640Y46240
X45640Y46190
X44640Y46290
X43640Y46190
X42640Y46290
X41640Y46190
X40640Y46290
X39640Y46190
X38640Y46290
X37640Y46140
X36640Y46240
X35640Y46140
X34640Y46240
X33640Y46140
X32640Y46240
X30640Y46190
X29640Y46290
X28640Y46190
X27640Y46290
X26640Y46190
X25640Y46290
X24640Y46190
X23640Y46290
X24140Y44090
X23140Y43990
X22140Y44090
X21140Y43990
X20140Y44090
X18640Y44540
X18640Y43540
X17640Y43540
X17640Y44540
X16640Y44540
X16640Y43540
X15640Y43540
X15640Y44540
X14640Y44540
X14640Y43540
X13640Y43540
X13640Y44540
X13710Y47240
X12640Y47240
X11570Y47240
X11570Y49240
X12640Y49240
X13710Y49240
X25140Y43990
X26140Y44090
X27140Y43990
X28140Y44090
X29140Y43990
X30640Y44090
X31640Y43990
X32640Y44090
X33640Y43990
X34640Y44090
X35640Y43990
X36640Y44090
X37640Y43990
X39640Y44040
X39640Y43040
X40640Y43040
X40640Y44040
X41640Y44040
X41640Y43040
X42640Y43040
X42640Y44040
X43640Y44040
X44640Y44040
X44640Y43040
X43640Y43040
X46640Y43040
X46640Y44040
X47640Y44040
X47640Y43040
X47640Y42040
X47640Y41040
X46640Y41040
X46640Y42040
X46640Y40040
X46640Y39040
X47640Y39040
X47640Y40040
X47640Y37040
X47640Y36040
X46640Y36040
X46640Y37040
X46640Y35040
X46640Y34040
X47640Y34040
X47640Y35040
X47640Y33040
X47640Y32040
X46640Y32040
X46640Y33040
X46640Y30040
X46640Y29040
X47640Y29040
X47640Y30040
X47640Y28040
X47640Y27040
X46640Y27040
X46640Y28040
X46640Y26040
X46640Y25040
X47640Y25040
X47640Y26040
X45640Y24990
X44640Y25090
X43640Y24990
X42640Y25090
X41640Y24990
X40640Y25090
X39640Y24990
X38640Y25090
X37640Y24940
X36640Y25040
X35640Y24940
X34640Y25040
X33640Y24940
X32640Y25040
X30640Y24990
X29640Y25090
X28640Y24990
X27640Y25090
X26640Y24990
X25640Y25090
X24640Y24990
X23640Y25090
X24140Y22890
X23140Y22790
X22140Y22890
X21140Y22790
X20140Y22890
X18640Y23340
X18640Y22340
X17640Y22340
X17640Y23340
X16640Y23340
X16640Y22340
X15640Y22340
X15640Y23340
X14640Y23340
X14640Y22340
X13640Y22340
X13640Y23340
X13710Y26040
X12640Y26040
X11570Y26040
X11570Y28040
X12640Y28040
X13710Y28040
X25140Y22790
X26140Y22890
X27140Y22790
X28140Y22890
X29140Y22790
X30640Y22890
X31640Y22790
X32640Y22890
X33640Y22790
X34640Y22890
X35640Y22790
X36640Y22890
X37640Y22790
X39640Y22840
X40640Y22840
X41640Y22840
X42640Y22840
X43640Y22840
X44640Y22840
X44640Y21840
X43640Y21840
X42640Y21840
X41640Y21840
X40640Y21840
X39640Y21840
X46640Y21840
X46640Y20840
X47640Y20840
X47640Y21840
X47640Y22840
X46640Y22840
X46640Y19840
X46640Y18840
X47640Y18840
X47640Y19840
X47640Y17840
X46640Y17840
X46640Y15840
X46640Y14840
X46640Y13840
X47640Y13840
X47640Y14840
X47640Y15840
X47640Y12840
X47640Y11840
X46640Y11840
X46640Y12840
X46640Y10840
X47640Y10840
X47640Y8840
X47640Y7840
X46640Y7840
X46640Y8840
X46640Y6840
X46640Y5840
X46640Y4840
X47640Y4840
X47640Y5840
X47640Y6840
X47640Y3840
X46640Y3840
X45640Y3790
X44640Y3890
X43640Y3790
X42640Y3890
X41640Y3790
X40640Y3890
X39640Y3790
X38640Y3890
X37640Y3740
X36640Y3840
X35640Y3740
X34640Y3840
X33640Y3740
X32640Y3840
X30640Y3790
X29640Y3890
X28640Y3790
X27640Y3890
X26640Y3790
X25640Y3890
X24640Y3790
X23640Y3890
X13710Y4840
X12640Y4840
X11570Y4840
X11570Y6840
X12640Y6840
X13710Y6840
X37640Y12840
X38640Y12840
X38640Y13840
X38640Y14840
X37640Y14840
X37640Y13840
X59570Y6840
X60640Y6840
X61710Y6840
X61710Y4840
X60640Y4840
X59570Y4840
X71640Y3890
X72640Y3790
X73640Y3890
X74640Y3790
X75640Y3890
X76640Y3790
X77640Y3890
X78640Y3790
X80640Y3840
X81640Y3740
X82640Y3840
X83640Y3740
X84640Y3840
X85640Y3740
X86640Y3890
X87640Y3790
X88640Y3890
X89640Y3790
X90640Y3890
X91640Y3790
X92640Y3890
X93640Y3790
X94640Y3840
X95640Y3840
X95640Y4840
X95640Y5840
X95640Y6840
X94640Y6840
X94640Y5840
X94640Y4840
X94640Y7840
X94640Y8840
X95640Y8840
X95640Y7840
X95640Y10840
X94640Y10840
X94640Y11840
X94640Y12840
X95640Y12840
X95640Y11840
X95640Y13840
X95640Y14840
X95640Y15840
X94640Y15840
X94640Y14840
X94640Y13840
X94640Y17840
X95640Y17840
X95640Y18840
X95640Y19840
X94640Y19840
X94640Y18840
X94640Y20840
X94640Y21840
X95640Y21840
X95640Y20840
X95640Y22840
X94640Y22840
X92640Y22840
X91640Y22840
X90640Y22840
X89640Y22840
X88640Y22840
X87640Y22840
X87640Y21840
X88640Y21840
X89640Y21840
X90640Y21840
X91640Y21840
X92640Y21840
X92640Y25090
X91640Y24990
X90640Y25090
X89640Y24990
X88640Y25090
X87640Y24990
X86640Y25090
X85640Y24940
X84640Y25040
X83640Y24940
X82640Y25040
X81640Y24940
X80640Y25040
X78640Y24990
X77640Y25090
X76640Y24990
X75640Y25090
X74640Y24990
X73640Y25090
X72640Y24990
X71640Y25090
X72140Y22890
X71140Y22790
X70140Y22890
X69140Y22790
X68140Y22890
X66640Y23340
X66640Y22340
X65640Y22340
X65640Y23340
X64640Y23340
X64640Y22340
X63640Y22340
X63640Y23340
X62640Y23340
X62640Y22340
X61640Y22340
X61640Y23340
X61710Y26040
X60640Y26040
X59570Y26040
X59570Y28040
X60640Y28040
X61710Y28040
X73140Y22790
X74140Y22890
X75140Y22790
X76140Y22890
X77140Y22790
X78640Y22890
X79640Y22790
X80640Y22890
X81640Y22790
X82640Y22890
X83640Y22790
X84640Y22890
X85640Y22790
X93640Y24990
X94640Y25040
X94640Y26040
X95640Y26040
X95640Y25040
X95640Y27040
X95640Y28040
X94640Y28040
X94640Y27040
X94640Y29040
X94640Y30040
X95640Y30040
X95640Y29040
X95640Y32040
X95640Y33040
X94640Y33040
X94640Y32040
X94640Y34040
X94640Y35040
X95640Y35040
X95640Y34040
X95640Y36040
X95640Y37040
X94640Y37040
X94640Y36040
X94640Y39040
X94640Y40040
X95640Y40040
X95640Y39040
X95640Y41040
X95640Y42040
X94640Y42040
X94640Y41040
X94640Y43040
X94640Y44040
X95640Y44040
X95640Y43040
X92640Y43040
X92640Y44040
X91640Y44040
X91640Y43040
X90640Y43040
X90640Y44040
X89640Y44040
X89640Y43040
X88640Y43040
X88640Y44040
X87640Y44040
X87640Y43040
X85640Y43990
X84640Y44090
X83640Y43990
X82640Y44090
X81640Y43990
X80640Y44090
X79640Y43990
X78640Y44090
X77140Y43990
X76140Y44090
X75140Y43990
X74140Y44090
X73140Y43990
X72140Y44090
X71140Y43990
X70140Y44090
X69140Y43990
X68140Y44090
X66640Y44540
X66640Y43540
X65640Y43540
X65640Y44540
X64640Y44540
X64640Y43540
X63640Y43540
X63640Y44540
X62640Y44540
X62640Y43540
X61640Y43540
X61640Y44540
X61710Y47240
X60640Y47240
X59570Y47240
X59570Y49240
X60640Y49240
X61710Y49240
X71640Y46290
X72640Y46190
X73640Y46290
X74640Y46190
X75640Y46290
X76640Y46190
X77640Y46290
X78640Y46190
X80640Y46240
X81640Y46140
X82640Y46240
X83640Y46140
X84640Y46240
X85640Y46140
X86640Y46290
X87640Y46190
X88640Y46290
X89640Y46190
X90640Y46290
X91640Y46190
X92640Y46290
X93640Y46190
X94640Y46240
X95640Y46240
X95640Y47240
X95640Y48240
X94640Y48240
X94640Y47240
X94640Y49240
X94640Y50240
X95640Y50240
X95640Y49240
X95640Y51240
X94640Y51240
X94640Y53240
X94640Y54240
X94640Y55240
X95640Y55240
X95640Y54240
X95640Y53240
X95640Y56240
X95640Y57240
X94640Y57240
X94640Y56240
X94640Y58240
X95640Y58240
X95640Y60240
X95640Y61240
X94640Y61240
X94640Y60240
X94640Y62240
X94640Y63240
X94640Y64240
X95640Y64240
X95640Y63240
X95640Y62240
X92640Y64240
X91640Y64240
X90640Y64240
X89640Y64240
X88640Y64240
X87640Y64240
X87640Y65240
X88640Y65240
X89640Y65240
X90640Y65240
X91640Y65240
X92640Y65240
X94640Y65240
X95640Y65240
X85640Y65190
X84640Y65290
X83640Y65190
X82640Y65290
X81640Y65190
X80640Y65290
X79640Y65190
X78640Y65290
X77140Y65190
X76140Y65290
X75140Y65190
X74140Y65290
X73140Y65190
X72140Y65290
X71140Y65190
X70140Y65290
X69140Y65190
X68140Y65290
X66640Y65740
X65640Y65740
X64640Y65740
X63640Y65740
X62640Y65740
X61640Y65740
X61640Y64740
X62640Y64740
X63640Y64740
X64640Y64740
X65640Y64740
X66640Y64740
X85640Y57240
X85640Y56240
X86640Y56240
X86640Y57240
X86640Y55240
X85640Y55240
X85640Y36040
X86640Y36040
X86640Y35040
X86640Y34040
X85640Y34040
X85640Y35040
X85640Y14840
X85640Y13840
X86640Y13840
X86640Y14840
X86640Y12840
X85640Y12840
X38640Y34040
X38640Y35040
X37640Y35040
X37640Y34040
X37640Y36040
X38640Y36040
X38640Y55240
X37640Y55240
X37640Y56240
X37640Y57240
X38640Y57240
X38640Y56240
X18640Y65740
X17640Y65740
X16640Y65740
X15640Y65740
X14640Y65740
X13640Y65740
T08
X6121Y49130
X7753Y47659
X6121Y27930
X7753Y26459
X6121Y6730
X7753Y5259
X54121Y6730
X55753Y5259
X55753Y26459
X54121Y27930
X55753Y47659
X54121Y49130
T09
X57004Y49140
X57004Y27940
X57004Y6740
X9004Y6740
X9004Y27940
X9004Y49140
T10
X5640Y3840
X5640Y22840
X5640Y25040
X5640Y44040
X5640Y46240
X5640Y65240
X49640Y65240
X53640Y65240
X53640Y46240
X53640Y44040
X49640Y44040
X49640Y46240
X49640Y25040
X49640Y22840
X53640Y22840
X53640Y25040
X53640Y3840
X49640Y3840
X97640Y3840
X97640Y22840
X97640Y25040
X97640Y44040
X97640Y46240
X97640Y65240
M30
